<svg 
  width="512"
  height="512"
  viewBox="0 0 512 512" 
  fill="none" 
  xmlns="http://www.w3.org/2000/svg">
    <rect width="512" height="512" fill="url(#paint0_linear_40_247)"/>
    <path d="M255.86 431.776C250.263 431.776 244.669 430.386 239.566 427.603L88.8714 345.39C80.6747 340.919 77.6891 330.711 82.2028 322.591C86.7182 314.468 97.0226 311.517 105.215 315.983L246.979 393.324C252.537 396.355 259.275 396.355 264.831 393.322L406.509 315.983C414.704 311.514 425.009 314.471 429.521 322.591C434.033 330.711 431.049 340.919 422.852 345.39L272.161 427.601C267.06 430.384 261.461 431.776 255.863 431.776H255.86Z" fill="#F0B514"/>
    <path d="M255.86 358.445C250.263 358.445 244.669 357.055 239.566 354.272L88.8714 272.06C80.6747 267.588 77.6891 257.38 82.2028 249.26C86.7182 241.137 97.0226 238.186 105.215 242.652L246.979 319.993C252.537 323.024 259.275 323.024 264.831 319.991L406.509 242.652C414.704 238.183 425.009 241.14 429.521 249.26C434.033 257.38 431.049 267.588 422.852 272.06L272.161 354.27C267.06 357.053 261.461 358.445 255.863 358.445H255.86Z" fill="#39A6F3"/>
    <path fill-rule="evenodd" clip-rule="evenodd" d="M422.625 166.324L272.075 84.1902C262.073 78.7341 249.949 78.7341 239.949 84.1902L89.3991 166.324C77.199 172.98 77.199 190.349 89.3991 197.005L247.087 283.032C252.644 286.063 259.378 286.063 264.935 283.032L422.623 197.005C434.823 190.349 434.823 172.98 422.623 166.324H422.625Z" fill="#17AB6A"/>
    <defs>
      <linearGradient id="paint0_linear_40_247" x1="513.424" y1="1.19782e-05" x2="1.1675" y2="512.256" gradientUnits="userSpaceOnUse">
      <stop stop-color="#42236B"/>
      <stop offset="1" stop-color="#23123A"/>
      </linearGradient>
    </defs>
</svg>
