<svg width="326" height="326" viewBox="0 0 326 326" fill="none" xmlns="http://www.w3.org/2000/svg">
  <path d="M256.012 0H69.9876C31.3345 0 0 31.3345 0 69.9876V256.012C0 294.665 31.3345 326 69.9876 326H256.012C294.665 326 326 294.665 326 256.012V69.9876C326 31.3345 294.665 0 256.012 0Z" fill="url(#gradient_bg)"/>
  <path d="M162.911 274.92C159.347 274.92 155.785 274.035 152.536 272.263L56.5861 219.917C51.3671 217.07 49.4661 210.57 52.3401 205.4C55.2151 200.228 61.7761 198.349 66.9921 201.193L157.256 250.437C160.795 252.367 165.085 252.367 168.623 250.436L258.832 201.193C264.05 198.347 270.611 200.23 273.484 205.4C276.357 210.57 274.457 217.07 269.238 219.917L173.29 272.262C170.042 274.034 166.477 274.92 162.913 274.92H162.911Z" fill="#F0B514"/>
  <path d="M162.911 228.228C159.347 228.228 155.785 227.343 152.536 225.571L56.5861 173.225C51.3671 170.378 49.4661 163.878 52.3401 158.708C55.2151 153.536 61.7761 151.657 66.9921 154.501L157.256 203.745C160.795 205.675 165.085 205.675 168.623 203.744L258.832 154.501C264.05 151.655 270.611 153.538 273.484 158.708C276.357 163.878 274.457 170.378 269.238 173.225L173.29 225.57C170.042 227.342 166.477 228.228 162.913 228.228H162.911Z" fill="#39A6F3"/>
  <path fill-rule="evenodd" clip-rule="evenodd" d="M269.093 105.902L173.235 53.6055C166.867 50.1315 159.147 50.1315 152.78 53.6055L56.9221 105.902C49.1541 110.14 49.1541 121.198 56.9221 125.436L157.325 180.211C160.863 182.141 165.151 182.141 168.689 180.211L269.092 125.436C276.86 121.198 276.86 110.14 269.092 105.902H269.093Z" fill="#17AB6A"/>
  <defs>
    <linearGradient id="gradient_bg" x1="326.906" y1="7.62672e-06" x2="0.743367" y2="326.163" gradientUnits="userSpaceOnUse">
      <stop stop-color="#42236B"/>
      <stop offset="1" stop-color="#23123A"/>
    </linearGradient>
  </defs>
</svg>