<svg width="300" height="231" viewBox="0 0 300 231" fill="none" xmlns="http://www.w3.org/2000/svg">
<path fill-rule="evenodd" clip-rule="evenodd" d="M61.254 5.341C59.606 8.279 48.692 29.582 37.001 52.682C25.31 75.782 12.852 100.194 9.317 106.932L2.888 119.182L27.5 119.165L46.5 82.143L51.815 88.384L56.343 80.533C58.834 76.215 61.279 72.019 61.778 71.209C62.484 70.061 63.518 70.993 66.47 75.439C68.552 78.575 70.571 80.947 70.955 80.71C71.339 80.473 72.474 78.457 73.478 76.23C74.482 74.004 75.573 72.184 75.902 72.186C76.231 72.188 81.9 82.753 88.5 95.664L100.5 119.139L125.093 119.182L106.857 83.432C96.827 63.769 83.137 36.954 76.436 23.841L64.251 0L61.254 5.341ZM141 119.182H163V0.182H141V119.182ZM186.5 119.682L208 120.25V65.182L220.75 65.204C234.735 65.228 239.236 66.46 243.919 71.544C245.249 72.988 251.622 84.41 258.081 96.926L269.824 119.682L281.912 119.963C288.56 120.117 294 119.968 294 119.631C294 119.295 287.925 107.192 280.5 92.737C273.075 78.281 267 65.943 267 65.318C267 64.693 267.812 64.182 268.804 64.182C272.277 64.182 280.841 59.059 285.254 54.342C300.043 38.531 295.104 12.791 275.423 3.105L270.5 0.682L185.984 0.1L186.5 119.682ZM208 43.182H236.277C261.284 43.182 264.841 42.985 267.027 41.478C270.963 38.765 271.934 36.972 271.968 32.355C271.994 28.882 271.423 27.451 269.077 25.105L266.154 22.182H208V43.182ZM0 151.948C0 172.27 0.769 174.997 7.604 178.916C11.113 180.927 12.868 181.151 25.25 181.166L39 181.182V172.182H25.655C13.997 172.182 12.101 171.951 10.655 170.353C9.25 168.801 9 165.928 9 151.353V134.182H0V151.948ZM54.271 136.277C42.389 142.158 37.755 155.671 43.436 167.872C48.877 179.558 63.095 184.288 74.753 178.292C91.936 169.454 91.982 145.332 74.832 136.785C68.162 133.462 60.348 133.269 54.271 136.277ZM107.229 136.755C92.046 144.321 89.884 164.223 103.024 175.471C108.408 180.079 113.316 181.182 128.443 181.182H141V172.182H127.901C117.887 172.182 113.997 171.8 111.381 170.559C101.273 165.762 100.446 151.766 109.898 145.452C113.022 143.365 114.411 143.182 127.148 143.182H141V134.182H126.696C113.335 134.182 112.052 134.352 107.229 136.755ZM150 181.182H159V175.327C159 169.535 159.059 169.417 164.44 164.327C167.432 161.497 170.059 159.182 170.277 159.182C170.496 159.182 174.196 164.132 178.5 170.182L186.326 181.182H191.722C195.781 181.182 196.928 180.872 196.352 179.932C195.93 179.245 191.375 172.893 186.229 165.818L176.872 152.955L184.186 146.226C188.209 142.525 192.85 138.315 194.5 136.871L197.5 134.245L184.274 134.182L159.5 156.916L158.937 134.182H150V181.182ZM209.03 135.461C207.672 136.149 205.534 138.234 204.28 140.094C202.184 143.205 202 144.575 202.002 157.08C202.004 180.057 203.342 181.178 230.75 181.18L249 181.182V172.182H231.2C218.689 172.182 213.043 171.825 212.2 170.982C211.54 170.322 211 167.634 211 165.009V160.235L240.5 159.682L241.115 151.182H210.879L211.5 143.682L249 143.138V134.182L230.25 134.197C217.262 134.207 210.741 134.596 209.03 135.461ZM258 181.182H267V160.182H272.927C279.946 160.182 280.47 160.68 286.45 173.026L290.4 181.182H295.2C297.84 181.182 300 180.949 300 180.664C300 180.379 297.722 175.607 294.938 170.059C292.154 164.511 290.017 159.852 290.188 159.704C290.36 159.557 291.955 158.697 293.733 157.792C297.749 155.75 300 151.555 300 146.114C300 142.607 299.385 141.332 296.118 138.064L292.235 134.182H258V181.182ZM56.605 145.104C51.618 148.391 49.695 152.493 50.213 158.74C50.571 163.055 51.282 164.867 53.543 167.226C59.442 173.384 68.528 173.587 74.422 167.693C83.895 158.221 77.369 143.168 63.8 143.189C61.256 143.192 58.317 143.975 56.605 145.104ZM267 151.182H277.309C288.752 151.182 291.418 150.186 290.845 146.126C290.504 143.711 290.36 143.679 278.75 143.4L267 143.119V151.182ZM53 210.148C53 211.854 53.644 212.182 57 212.182H61V221.182C61 230.115 61.019 230.182 63.5 230.182C65.981 230.182 66 230.115 66 221.182V212.182H70.573C74.39 212.182 75.091 211.892 74.811 210.432C74.521 208.917 73.037 208.644 63.738 208.398C53.514 208.128 53 208.212 53 210.148ZM82 230.182H84.5C86.838 230.182 87 229.853 87 225.116C87 220.179 87.07 220.057 89.75 220.366C91.875 220.61 93.068 221.761 95 225.429C96.85 228.942 98.085 230.177 99.75 230.179C102.5 230.183 102.503 230.088 99.925 225.036L97.851 220.97L99.925 218.761C102.489 216.033 102.599 212.034 100.171 209.837C98.784 208.581 96.371 208.182 90.171 208.182H82V230.182ZM138 219.182C138 229.515 138.121 230.182 140 230.182C141.879 230.182 142 229.515 142 219.182C142 208.849 141.879 208.182 140 208.182C138.121 208.182 138 208.849 138 219.182ZM150 219.099C150 229.429 150.133 230.182 151.954 230.182C153.667 230.182 153.945 229.363 154.204 223.55L154.5 216.918L159.5 220.842C162.25 223 166.188 226.037 168.25 227.592L172 230.419V219.301C172 208.849 171.88 208.182 170 208.182C168.205 208.182 168 208.849 168 214.682C168 218.257 167.744 221.182 167.43 221.182C167.117 221.182 163.067 218.22 158.43 214.599L150 208.016V219.099ZM180 219.182C180 229.515 180.121 230.182 182 230.182C183.879 230.182 184 229.515 184 219.182C184 208.849 183.879 208.182 182 208.182C180.121 208.182 180 208.849 180 219.182ZM192 219.099C192 229.429 192.133 230.182 193.954 230.182C195.665 230.182 195.945 229.363 196.204 223.605L196.5 217.029L204.909 223.605C209.534 227.223 213.471 230.182 213.659 230.182C213.846 230.182 214 225.201 214 219.112C214 208.205 213.967 208.048 211.75 208.362C209.728 208.65 209.47 209.318 209.202 214.949L208.904 221.215L192 208.016V219.099ZM225.4 211.582C222.613 214.369 222 215.739 222 219.182C222 222.625 222.613 223.995 225.4 226.782C228.67 230.052 229.09 230.182 236.4 230.182H244V218.182H238C232.667 218.182 232 218.404 232 220.182C232 221.801 232.667 222.182 235.5 222.182C238.333 222.182 239 222.563 239 224.182C239 225.837 238.333 226.182 235.135 226.182C227.606 226.182 223.714 220.227 227.88 215.082C229.454 213.138 230.914 212.696 236.88 212.359C243.049 212.01 244 211.704 244 210.069C244 208.385 243.182 208.182 236.4 208.182C229.09 208.182 228.67 208.312 225.4 211.582ZM114.25 219.177C111.362 224.652 109 229.368 109 229.657C109 229.946 110.042 230.182 111.316 230.182C113.162 230.182 114.215 228.963 116.5 224.182C118.077 220.882 119.652 218.182 120 218.182C120.348 218.182 121.923 220.882 123.5 224.182C125.785 228.963 126.838 230.182 128.684 230.182C129.958 230.182 131 229.912 131 229.583C131 228.444 120.699 209.182 120.1 209.202C119.77 209.214 117.138 213.702 114.25 219.177ZM87 214.182C87 216.093 87.484 216.259 92.25 215.984C96.116 215.762 97.5 215.286 97.5 214.182C97.5 213.078 96.116 212.602 92.25 212.38C87.484 212.105 87 212.271 87 214.182Z" fill="black" fill-opacity="0.8"/>
</svg>
