<svg width="301" height="82" viewBox="0 0 301 82" fill="none" xmlns="http://www.w3.org/2000/svg">
<path fill-rule="evenodd" clip-rule="evenodd" d="M96.8896 7.93004C95.058 8.36105 93.7256 9.56052 92.6555 11.7413C88.8912 19.4139 81.7809 34.0979 81.7809 34.1992C81.7809 34.2779 83.1734 34.3277 85.3725 34.3277H88.964L90.2877 31.5123L91.6111 28.697H96.3485C99.3999 28.697 101.086 28.6495 101.086 28.5637C101.086 28.4904 100.378 27.0124 99.5121 25.2792L97.9382 22.1279H96.4287C95.5984 22.1279 94.9191 22.1001 94.9191 22.0662C94.9191 21.9165 98.1879 15.2907 98.2617 15.2907C98.3071 15.2907 100.389 19.4985 102.888 24.6416C105.387 29.7845 107.5 34.0689 107.584 34.1624C107.701 34.2931 108.559 34.3239 111.311 34.2964L114.886 34.2606L109.483 23.2004C102.661 9.23461 103.199 10.2724 102.357 9.45072C100.951 8.07764 98.802 7.47999 96.8896 7.93004ZM120.876 7.93218C119.992 8.13985 118.799 8.86714 118.115 9.61588C117.327 10.4775 116.92 11.4736 116.754 12.9445C116.688 13.5344 116.649 18.5719 116.669 24.1388L116.704 34.2606L119.955 34.2966L123.205 34.3325L123.239 25.2585L123.274 16.1847L130.876 24.7534C135.057 29.4662 138.685 33.4612 138.938 33.6312C142.235 35.8414 146.585 33.944 147.332 29.9706C147.439 29.4046 147.472 26.0269 147.444 18.5752L147.405 7.9842L144.155 7.94827L140.905 7.91234L140.87 17.0217L140.836 26.131L134.066 18.4816C125.906 9.26209 125.636 8.96903 124.891 8.53292C123.766 7.8736 122.154 7.63228 120.876 7.93218ZM230.045 7.95779C228.66 8.351 227.361 9.47177 226.753 10.7991C226.038 12.3611 226.029 12.5441 226.066 23.8325L226.1 34.2606L229.35 34.2966L232.6 34.3325L232.635 26.0093L232.669 17.6862L236.21 24.0294C238.158 27.5183 240.038 30.8002 240.389 31.3225C241.894 33.5639 243.796 34.5892 246.143 34.4242C248.072 34.2886 249.465 33.4797 250.787 31.7274C251.166 31.2248 253.127 27.8572 255.144 24.2438L258.812 17.674L258.846 26.0008L258.881 34.3277H262.17H265.459L265.418 23.368L265.377 12.4083L265.073 11.5087C264.571 10.0186 263.649 8.97171 262.23 8.279C261.446 7.89585 261.239 7.85375 260.152 7.8567C259.213 7.85912 258.774 7.92816 258.17 8.168C257.186 8.55906 255.951 9.68573 255.135 10.9364C254.798 11.4542 252.561 15.3904 250.165 19.6835C247.768 23.9768 245.777 27.4879 245.74 27.486C245.704 27.4841 243.652 23.8842 241.182 19.4864C236.117 10.4687 235.928 10.1541 235.048 9.29708C233.778 8.06021 231.672 7.49634 230.045 7.95779ZM149.35 8.01584C149.351 8.07214 152.215 11.3458 155.715 15.2907L162.078 22.463L162.082 28.3978L162.085 34.3325L165.336 34.2966L168.587 34.2606L168.622 28.3215L168.657 22.3822L174.956 15.2677C178.421 11.3548 181.256 8.10016 181.256 8.03528C181.256 7.96972 179.357 7.91717 176.984 7.91717H172.712L169.063 12.0396C167.056 14.307 165.374 16.1719 165.325 16.1839C165.276 16.1958 163.603 14.3558 161.607 12.095L157.979 7.9842L153.664 7.94881C151.291 7.92937 149.349 7.95953 149.35 8.01584ZM183.267 11.201V14.4863H188.629H193.992V24.4092V34.3323L197.31 34.2964L200.628 34.2606L200.662 24.3734L200.697 14.4863H205.927H211.157L211.121 11.2352L211.085 7.9842L197.176 7.95001L183.267 7.91596V11.201ZM215.397 8.00659C215.348 8.05565 215.308 13.998 215.308 21.2118V34.3277H218.593H221.877V21.1224V7.91717H218.682C216.925 7.91717 215.447 7.95739 215.397 8.00659ZM274.469 8.05257C272.713 8.30917 271.015 9.58559 270.233 11.2364L269.805 12.1402V21.1294V30.1186L270.31 31.14C271.119 32.7783 272.528 33.8583 274.291 34.1925C274.736 34.277 279.474 34.3277 286.916 34.3277H298.83V31.0431V27.7585H287.921C274.947 27.7585 276.307 27.9874 276.307 25.8048V24.407H287.568H298.83V21.1224V17.8379H287.568H276.307V16.451C276.307 15.2114 276.337 15.037 276.589 14.8087C276.861 14.5626 277.269 14.552 287.85 14.5175L298.83 14.4817V11.1994V7.91717L286.998 7.93392C280.491 7.94304 274.853 7.99653 274.469 8.05257ZM165.073 42.8341C163.649 43.2789 162.208 44.5978 161.659 45.958L161.348 46.7285L161.311 57.8917L161.274 69.0549L164.529 69.019L167.783 68.983L167.85 60.0527L167.917 51.1223L175.156 59.2935C179.138 63.7875 182.656 67.7059 182.975 68.0012C184.743 69.6373 187.738 69.7735 189.735 68.3086C190.506 67.7428 191.203 66.8233 191.61 65.8325L191.914 65.0952L191.951 53.9344L191.988 42.7736H188.701H185.414L185.379 51.8456L185.345 60.9175L177.806 52.4153C173.659 47.7392 170.026 43.7447 169.732 43.5386C168.541 42.7037 166.485 42.3928 165.073 42.8341ZM85.4391 43.0418C84.1537 43.4988 82.9136 44.5716 82.3042 45.7537C81.6556 47.0119 81.6428 47.2712 81.6796 58.4835L81.7139 68.983L84.9649 69.019L88.216 69.0549V64.0921V59.1294H99.4797H110.743L110.708 55.8783L110.672 52.6273L99.4438 52.593L88.216 52.5588V51.304C88.216 50.2384 88.2578 49.996 88.4932 49.6968L88.7705 49.3444L99.721 49.31L110.672 49.2757L110.708 46.0247L110.743 42.7736L98.4407 42.7834C86.8172 42.7927 86.0994 42.8069 85.4391 43.0418ZM116.67 55.8783L116.704 68.983L119.955 69.019L123.207 69.0549V55.9143V42.7736H119.921H116.636L116.67 55.8783ZM128.332 46.0247L128.368 49.2757L133.764 49.3107L139.16 49.3458V59.1979V69.0501H142.445H145.729V59.1964V49.3427H150.958H156.186V46.0582V42.7736H142.241H128.296L128.332 46.0247ZM201.395 43.0379C200.422 43.3882 199.899 43.7334 199.184 44.4977C198.455 45.2773 197.97 46.1919 197.753 47.1977C197.636 47.7356 197.605 50.2017 197.636 56.314C197.678 64.5211 197.685 64.7074 197.966 65.3927C198.594 66.9219 199.812 68.1173 201.329 68.6904C202.102 68.9825 202.123 68.983 214.604 69.0199L227.106 69.0568V65.7689V62.481H215.972H204.839L204.51 62.1518C204.204 61.8462 204.181 61.7273 204.181 60.476V59.1294H215.509H226.837V55.8448V52.5603H215.509H204.181L204.185 51.2532C204.192 49.1804 202.744 49.4209 215.682 49.3427L226.77 49.2757L226.806 46.0247L226.842 42.7736L214.473 42.7785C202.667 42.7832 202.071 42.795 201.395 43.0379ZM238.568 43.0243C237.231 43.4091 236.102 44.0922 235 45.1822C233.343 46.8214 232.566 48.6963 232.58 51.0185C232.594 53.3321 233.295 55.0009 234.956 56.6798C235.8 57.5331 236.272 57.8886 237.04 58.2507C238.934 59.1443 238.75 59.1294 247.918 59.1294C257.058 59.1294 256.885 59.1144 257.4 59.9592C257.895 60.7696 257.693 61.627 256.879 62.1753L256.426 62.481H245.05H233.675V65.7697V69.0584L245.573 69.0207L257.471 68.983L258.514 68.6141C260.689 67.8442 262.334 66.41 263.318 64.4249C265.586 59.8476 263.234 54.5325 258.208 52.8799C257.538 52.6593 256.683 52.6309 248.757 52.5654C239.16 52.486 239.648 52.5335 239.224 51.6389C238.928 51.0167 239.06 50.3311 239.572 49.8187L239.981 49.4098L251.407 49.3427L262.834 49.2757L262.869 46.0247L262.905 42.7736L251.139 42.7832C240.41 42.7919 239.302 42.8132 238.568 43.0243ZM274.713 42.9856C272.01 43.7126 270.01 45.5606 268.995 48.2702C268.662 49.1587 268.617 49.4629 268.608 50.8845C268.596 52.8366 268.905 53.9492 269.871 55.428C271.012 57.1759 272.648 58.3541 274.644 58.8646C275.62 59.1142 276.153 59.1294 283.977 59.1294C293.001 59.1294 292.711 59.106 293.321 59.8821C293.67 60.3259 293.696 61.2729 293.373 61.7667C292.893 62.498 293.189 62.481 280.936 62.481H269.604V65.7655V69.0501H281.072C293.797 69.0501 293.722 69.0546 295.545 68.1761C299.662 66.1921 301.336 61.2267 299.275 57.1072C298.355 55.2683 296.506 53.6852 294.472 52.9942L293.4 52.63L284.753 52.5616C275.612 52.4894 275.757 52.5001 275.308 51.8591C275.035 51.4695 275.043 50.4941 275.321 50.0686C275.815 49.3147 275.342 49.3427 287.561 49.3427H298.83V46.0582V42.7736L287.133 42.7825C277.357 42.7899 275.317 42.8232 274.713 42.9856Z" fill="black"/>
<path d="M54.3657 0.821383C54.6333 0.642408 55.1646 0.387956 55.5464 0.256037C57.1136 -0.285579 59.3007 0.0531996 60.819 1.07275C61.2743 1.37842 64.3627 4.37299 68.1804 8.21029C73.656 13.7141 74.8265 14.9561 75.1689 15.6257C76.2501 17.7395 76.0635 19.7688 74.6586 21.1735C73.1093 22.723 70.6621 22.9221 68.2158 21.6977C67.25 21.2143 66.791 20.8181 63.4559 17.5899C57.5023 11.8266 57.4772 11.8049 56.8009 11.8049C56.0524 11.8049 56.7125 11.2629 46.4929 20.27C45.4576 21.1824 45.2277 21.7003 45.4618 22.5927C45.6176 23.1872 46.4783 24.0681 56.9979 34.4017C61.2031 38.5326 62.4544 39.8412 62.9898 40.6678C64.9281 43.6611 65.0396 46.6605 63.3397 50.08C62.2334 52.3055 61.1996 53.582 57.6216 57.1403C55.793 58.9589 54.2899 60.5576 54.2814 60.693C54.251 61.1787 54.3252 61.4793 54.5333 61.7123C54.6495 61.8426 57.7948 63.8636 61.5226 66.2034C69.1013 70.9604 69.7537 71.4625 70.5399 73.1427C71.6092 75.4278 71.0019 78.0349 68.9668 79.8948C67.2783 81.4381 64.9345 81.5574 62.0112 80.2488C60.9273 79.7637 43.5785 69.624 42.7856 69.0123C41.8737 68.3089 40.9497 67.184 40.504 66.2347C40.1975 65.5822 40.1574 65.3265 40.1554 64.0126C40.1531 62.5353 40.1561 62.5218 40.7185 61.3868C41.6788 59.4489 44.1143 57.1041 48.6662 53.7354C53.7199 49.9952 54.4245 49.4551 55.2928 48.656C56.8222 47.2482 57.2417 46.3535 56.7857 45.4717C56.231 44.3988 52.3113 41.3983 41.1854 33.5299C36.2441 30.0353 36.4416 30.0445 33.9149 33.188C29.6141 38.5388 24.8688 43.604 22.4538 45.4216C21.0195 46.5012 20.352 46.7209 18.4949 46.7251C16.976 46.7284 16.9269 46.7189 15.9417 46.232C15.0039 45.7685 14.5068 45.3103 8.46753 39.3418C4.90922 35.8252 1.7228 32.5626 1.3867 32.0915C1.0506 31.6204 0.624422 30.8004 0.439682 30.2692C-0.349817 27.9994 0.547737 25.8061 2.66259 24.837C3.66672 24.3767 5.25027 24.2776 6.38136 24.6042C8.10207 25.1009 8.56888 25.4594 12.402 29.2285C18.8137 35.5331 18.5142 35.266 19.1748 35.266C19.8185 35.266 20.4252 34.9606 23.2283 33.2252C27.525 30.565 32.3768 26.7165 36.1326 22.9893C38.3765 20.7624 42.9557 15.1813 50.6445 5.30285C52.5102 2.9058 54.0851 1.00907 54.3657 0.821383Z" fill="#6244BB"/>
<path d="M19.0933 15.9785C17.3307 10.9102 20.288 5.54551 25.4985 4.35945C26.7585 4.07255 28.754 4.18557 30.1159 4.62087C33.8587 5.81712 36.3801 9.48255 36.1634 13.4127C35.924 17.759 32.8463 21.0869 28.4753 21.726C24.5349 22.3022 20.4146 19.7781 19.0933 15.9785Z" fill="#6244BB"/>
</svg>
