<svg width="131" height="24" viewBox="0 0 131 24" fill="none" xmlns="http://www.w3.org/2000/svg">
<path d="M113.173 6.54421C113.173 6.31374 112.983 6.12231 112.752 6.12231H109.419C109.186 6.12231 108.996 6.31374 108.996 6.54421V23.2052C108.996 23.4422 109.186 23.6281 109.419 23.6281H112.752C112.983 23.6281 113.173 23.4422 113.173 23.2052V6.54421Z" fill="#4B1F68"/>
<path d="M87.8985 15.3018L83.5338 12.3974C82.5237 11.6972 82.0689 11.1145 82.1723 10.4704C82.4317 8.9854 84.5136 9.28266 84.5136 9.28266C86.3766 9.35246 88.2758 9.64806 90.1137 10.0115C90.3041 10.0472 90.4539 9.93353 90.4514 9.75521C90.4395 8.90249 90.4259 8.05203 90.4071 7.19914C90.4029 7.02214 90.2495 6.84569 90.0635 6.8083C87.9497 6.39058 85.8064 6.17057 83.6628 6.14679C83.6628 6.14679 78.313 6.16559 78.313 10.5171C78.313 11.8406 78.812 13.368 80.5474 14.619L80.5431 14.6229L85.1264 17.6678C86.2165 18.4084 86.7045 19.0056 86.5933 19.6726C86.3352 21.1576 84.2529 20.8604 84.2529 20.8604C82.3882 20.7936 80.492 20.4961 78.6524 20.1321C78.4638 20.0958 78.3109 20.2108 78.313 20.3878C78.3296 21.2394 78.3428 22.091 78.3565 22.9439C78.3599 23.1209 78.5161 23.2986 78.7022 23.3347C80.8182 23.75 82.9619 23.9724 85.102 23.9992C85.102 23.9992 90.4514 23.9804 90.4514 19.6259C90.4514 18.2238 89.8948 16.5899 87.8985 15.3018Z" fill="#4B1F68"/>
<path d="M102.797 15.3018L98.429 12.3974C97.4223 11.6972 96.9632 11.1145 97.0731 10.4704C97.3316 8.9854 99.4079 9.28266 99.4079 9.28266C101.274 9.35246 103.173 9.64806 105.012 10.0115C105.202 10.0472 105.353 9.93353 105.35 9.75521C105.333 8.90249 105.321 8.05203 105.305 7.19914C105.301 7.02214 105.146 6.84569 104.961 6.8083C102.847 6.39058 100.704 6.17057 98.5588 6.14679C98.5588 6.14679 93.2107 6.16559 93.2107 10.5171C93.2107 11.8406 93.7073 13.368 95.4439 14.619L95.4383 14.6229L100.022 17.6678C101.113 18.4084 101.602 19.0056 101.489 19.6726C101.23 21.1576 99.1521 20.8604 99.1521 20.8604C97.286 20.7936 95.3902 20.4961 93.5506 20.1321C93.3594 20.0958 93.2078 20.2108 93.2107 20.3878C93.2252 21.2394 93.2402 22.091 93.2576 22.9439C93.2589 23.1209 93.4127 23.2986 93.6 23.3347C95.7155 23.75 97.8562 23.9724 100.004 23.9992C100.004 23.9992 105.35 23.9804 105.35 19.6259C105.35 18.2238 104.79 16.5899 102.797 15.3018Z" fill="#4B1F68"/>
<path d="M113.173 0.422063C113.173 0.188954 112.983 0 112.752 0H109.419C109.186 0 108.996 0.188954 108.996 0.422063V3.57669C108.996 3.80716 109.186 3.99858 109.419 3.99858H112.752C112.983 3.99858 113.173 3.80716 113.173 3.57669V0.422063Z" fill="#4B1F68"/>
<path d="M74.5124 6.12384H71.179C70.9485 6.12384 70.7599 6.31395 70.7599 6.54706V18.6028C70.7599 18.6028 70.7565 18.6028 70.7548 18.6053C70.7548 18.9159 70.7293 19.0325 70.7144 19.0712C69.7264 19.9739 68.6111 20.6608 66.7102 20.6608C64.5032 20.6608 64.579 18.5169 64.579 18.5169V16.6891H64.5722V6.54706C64.5722 6.31395 64.3857 6.12384 64.1518 6.12384H60.8176C60.5855 6.12384 60.3956 6.31395 60.3956 6.54706V16.783C60.359 17.7338 60.3095 23.9601 65.8173 23.9601C67.6126 23.9601 69.4671 23.0417 70.5291 22.293C70.6318 22.2368 70.7446 22.2088 70.7599 22.3522V23.2063C70.7599 23.4407 70.9485 23.6283 71.179 23.6283H74.5124C74.7453 23.6283 74.9344 23.4407 74.9344 23.2063V6.54706C74.9344 6.31395 74.7453 6.12384 74.5124 6.12384Z" fill="#4B1F68"/>
<path d="M130.637 16.4829C130.637 16.4829 130.851 16.4936 130.942 16.4063C131.026 16.3209 130.995 16.1669 130.995 16.1669V15.2404C130.998 11.9649 130.191 9.5866 128.728 8.02132C127.271 6.45588 125.331 5.94159 123.716 5.9552C120.933 5.90403 118.716 7.31842 117.627 9.22383C116.511 11.1122 116.222 13.3011 116.213 15.3663C116.185 18.8675 117.434 21.3263 119.222 22.6535C120.892 23.9028 122.239 23.9751 123.46 23.9871L123.455 23.9964C123.541 23.9964 123.628 23.9884 123.718 23.9884C123.988 23.9846 124.265 23.9751 124.542 23.9615C126.322 23.8824 128.097 23.6847 129.854 23.3389C130.044 23.3013 130.196 23.1262 130.2 22.9492C130.215 22.1056 130.231 21.2578 130.243 20.4117C130.246 20.2366 130.095 20.1238 129.906 20.1611C128.109 20.5096 126.289 20.6879 124.465 20.7572C124.393 20.7572 124.319 20.7585 124.25 20.7585C123.377 20.7627 122.176 20.496 121.362 19.8626C120.517 19.1931 119.999 18.2036 119.87 16.4829H129.231H130.637ZM119.868 13.4886C120.012 12.5124 120.278 11.6421 120.662 11.0223C121.309 10.0419 121.958 9.5105 123.716 9.45945C124.676 9.46877 125.492 9.71502 126.143 10.4103C126.641 10.9377 127.145 11.8684 127.356 13.4886H119.868Z" fill="#4B1F68"/>
<path d="M58.1765 23.2197L53.0431 2.72281C53.0291 2.67845 53.0082 2.63991 52.9873 2.59937C52.6326 1.62065 51.5897 0.849304 50.5617 0.849304H47.6048C46.4993 0.849304 45.3777 1.73031 45.1047 2.80708L43.9869 7.27554C43.9801 7.29681 43.9801 7.31561 43.9766 7.33556L40.0032 23.2197C39.9431 23.4716 40.0829 23.6805 40.3144 23.6805H43.6454C43.8757 23.6805 44.113 23.4716 44.1691 23.2197L45.5425 17.107H52.6407L54.0115 23.2197C54.0707 23.4716 54.3023 23.6805 54.5365 23.6805H57.8674C58.099 23.6805 58.2387 23.4716 58.1765 23.2197ZM46.2429 13.9763L48.1465 5.5026C48.2589 5.07253 48.5633 4.16047 49.1105 4.16047C49.8225 4.16047 49.8583 4.7595 50.1326 5.95903C50.1326 5.95903 50.1338 5.95903 50.1372 5.95788L51.9381 13.9763H46.2429Z" fill="#4B1F68"/>
<path d="M32.8356 23.4524C32.8356 23.754 32.5903 23.999 32.2889 23.999H0.547265C0.243524 23.999 0 23.754 0 23.4524V22.0852C0 21.7815 0.243524 21.5361 0.547265 21.5361H32.2889C32.5903 21.5361 32.8356 21.7815 32.8356 22.0852V23.4524Z" fill="#FFD11F"/>
<path d="M32.8356 18.8113C32.8356 19.1116 32.5903 19.3583 32.2889 19.3583H0.547265C0.243524 19.3583 0 19.1116 0 18.8113V17.4403C0 17.139 0.243524 16.8936 0.547265 16.8936H32.2889C32.5903 16.8936 32.8356 17.139 32.8356 17.4403V18.8113Z" fill="#FFD11F"/>
<path d="M32.4199 12.7561L32.4247 12.7497L17.786 0.611498C17.786 0.611498 17.1284 0.000183105 16.4714 0.000183105C15.8479 0.000183105 15.1346 0.624133 15.1346 0.624133L0.422856 12.7561H0.429675C0.175008 12.9667 0.00683594 13.2776 0.00683594 13.6273C0.00683594 14.2538 0.533974 14.766 1.17921 14.766H1.18604H1.18803H31.6476L31.6515 14.7639C31.6553 14.7639 31.6629 14.766 31.6701 14.766C32.3178 14.766 32.845 14.2538 32.845 13.6273C32.845 13.2776 32.6755 12.9667 32.4199 12.7561ZM28.1804 12.3038C28.1804 12.4064 28.0944 12.4911 27.9905 12.4911L4.8848 12.4919C4.8848 12.4919 4.88979 12.4903 4.89544 12.4903C4.88779 12.4903 4.87799 12.4911 4.87118 12.4911C4.76936 12.4911 4.68504 12.4064 4.68504 12.3038C4.68504 12.2383 4.72294 12.1797 4.77915 12.147L15.9978 2.89329C15.9978 2.89329 16.2745 2.65286 16.4828 2.65286C16.674 2.65286 16.9474 2.90775 16.9474 2.90775L28.1075 12.1626C28.1507 12.195 28.1804 12.2473 28.1804 12.3038Z" fill="#4B1F68"/>
</svg>
