<svg width="1428" height="156" viewBox="0 0 1428 156" fill="none" xmlns="http://www.w3.org/2000/svg">
<path d="M599.236 7.38444C611.284 3.63344 623.578 0.669439 629.499 0.0874386C636.826 -0.632561 641.202 3.20141 639.135 8.53141C637.47 12.8224 633.591 14.8504 629.468 13.5854C624.989 12.2104 620.529 13.2354 605.371 19.1224L593.244 23.8334L592.628 30.3334C591.839 38.6794 591.846 48.0684 592.651 56.5834C593.277 63.2134 593.34 63.3334 596.18 63.3334C597.77 63.3334 602.867 62.3814 607.507 61.2174C617.454 58.7234 620.999 59.1724 620.999 62.9294C620.999 67.0464 616.333 70.7324 607.487 73.6024C603.094 75.0274 598.037 76.4864 596.249 76.8434L592.999 77.4924V97.2314C592.999 123.112 591.01 130.557 584.53 128.93C579.207 127.594 577.578 119.687 579.019 102.172C579.577 95.3864 579.747 87.9024 579.397 85.5424C578.845 81.8274 578.24 80.9864 574.879 79.2724C572.299 77.9564 570.999 76.6134 570.999 75.2654C570.999 73.0974 575.48 68.3334 577.52 68.3334C578.196 68.3334 579.03 66.9274 579.374 65.2084C580.177 61.1944 580.169 42.7454 579.36 34.3334C578.796 28.4654 578.433 27.6374 575.622 25.8164C573.91 24.7064 571.924 22.5774 571.209 21.0854C569.056 16.5934 570.875 14.7844 579.464 12.8734C583.594 11.9544 592.491 9.48444 599.236 7.38444Z" fill="#7FBE41"/>
<path d="M808.071 60.3334C808.074 31.1474 809.297 12.7674 811.389 10.4554C813.372 8.26342 819.198 8.79039 821.535 11.3734C823.037 13.0334 823.089 14.6804 822.08 28.5874C820.591 49.0984 821.551 78.5224 824.185 93.0974C826.579 106.34 826.162 107.615 819.599 107.133C815.956 106.865 815.277 106.382 813.175 102.561C809.325 95.5624 808.069 85.1694 808.071 60.3334Z" fill="#7FBE41"/>
<path d="M784.52 21.9394C781.488 19.9524 781.039 14.9914 783.749 13.4134C790.473 9.49743 799.841 16.2894 796.03 22.3174C794.772 24.3064 787.782 24.0764 784.52 21.9394Z" fill="#7FBE41"/>
<path d="M702.363 61.1804C704.488 57.0394 708.151 51.5554 710.504 48.9924C714.08 45.0984 715.374 44.3334 718.391 44.3334C722.819 44.3334 725.562 46.8434 726.803 52.0304C727.303 54.1224 728.5 59.2084 729.464 63.3334C730.427 67.4584 731.653 72.5894 732.187 74.7344L733.158 78.6364L738.013 68.5044C743.593 56.8574 746.871 52.1934 751.474 49.3494C756.217 46.4174 760.549 46.7294 764.076 50.2564C766.736 52.9164 766.999 53.7944 766.999 60.0064C766.999 67.3604 770.106 88.0484 771.901 92.6484C773.15 95.8514 773.327 101.297 772.234 102.933C770.921 104.899 766.866 106.516 764.646 105.959C761.607 105.196 759.379 100.922 758.066 93.3334C757.447 89.7584 756.522 84.8084 756.011 82.3334C755.499 79.8584 754.785 74.7954 754.423 71.0834C754.062 67.3714 753.455 64.3334 753.075 64.3334C752.037 64.3334 739.398 91.1574 737.997 96.3334C735.821 104.375 734.359 106.333 730.53 106.333C724.918 106.333 724.011 104.152 720.549 82.3334C718.768 71.1064 717.523 66.4324 715.62 63.8294C714.287 62.0064 714.126 62.0764 712.141 65.3404C710.092 68.7094 703.947 85.0994 700.34 96.8154C698.283 103.497 695.235 106.111 690.799 104.998C686.565 103.935 685.168 99.3064 686.07 89.3334C687.202 76.8374 687.144 64.4864 685.924 57.8844C685.332 54.6854 685.114 51.0104 685.439 49.7164C686.453 45.6754 694.8 45.1954 696.59 49.0744C697.036 50.0424 697.648 54.8554 697.95 59.7714L698.499 68.7094L702.363 61.1804Z" fill="#7FBE41"/>
<path d="M866.454 59.0244C867.128 50.7934 868.343 46.3984 870.312 45.0764C871.734 44.1214 876.805 44.9274 878.567 46.3894C879.542 47.1984 879.76 54.7924 879.535 80.1334C879.274 109.679 879.043 113.589 877.14 120.675C872.983 136.153 864.156 149.539 855.52 153.462C847.945 156.904 837.999 155.14 837.999 150.355C837.999 149.019 839.997 147.569 845.043 145.243C853.146 141.508 856.55 138.051 860.874 129.166C864.774 121.152 866.571 114.083 867.44 103.333L868.128 94.8334L864.813 98.6204C860.239 103.848 856.127 106.319 851.999 106.323C840.049 106.332 834.441 92.0184 835.156 63.3304C835.451 51.4724 835.766 49.2454 837.404 47.4364C839.997 44.5744 843.425 44.7884 845.926 47.9684C847.81 50.3634 847.999 51.9454 847.999 65.3314C847.999 81.0944 849.144 89.9064 851.497 92.2594C852.778 93.5414 853.26 93.4364 855.416 91.4114C860.607 86.5344 865.339 72.6494 866.454 59.0244Z" fill="#7FBE41"/>
<path d="M780.374 56.2154C779.804 50.3124 779.965 49.3674 781.867 47.4654C784.347 44.9854 790.11 44.5874 792.269 46.7464C793.247 47.7244 793.888 51.9504 794.354 60.4964C794.724 67.2814 795.874 78.9084 796.909 86.3334C799.202 102.768 798.675 104.973 792.548 104.595C784.822 104.118 783.63 101.129 782.072 78.3334C781.489 69.8084 780.725 59.8554 780.374 56.2154Z" fill="#7FBE41"/>
<path fill-rule="evenodd" clip-rule="evenodd" d="M649.357 46.3123C639.243 48.6443 627.621 63.3992 622.612 80.2662C618.474 94.2012 623.126 105.333 633.085 105.333C639.838 105.333 652.499 94.3322 657.147 84.4272C659.758 78.8643 660.999 78.0412 660.999 81.8752C660.999 86.0862 664.033 99.5513 665.984 103.997C668.279 109.229 670.727 110.672 674.859 109.232C678.656 107.908 679.44 105.65 677.631 101.244C676.137 97.6043 674.047 85.9893 671.53 67.3333C669.765 54.2473 668.545 51.8733 661.947 48.6823C656.332 45.9663 653.319 45.3983 649.357 46.3123ZM648.423 59.5264C643.863 63.5214 635.33 80.6484 634.354 87.7654C633.766 92.0604 633.886 92.5024 635.561 92.1794C639.894 91.3454 655.519 66.3244 656.276 59.0084C656.642 55.4654 652.769 55.7204 648.423 59.5264Z" fill="#7FBE41"/>
<path fill-rule="evenodd" clip-rule="evenodd" d="M997.877 53.7404C1001.88 43.5214 1012.14 34.3084 1022.93 31.2454C1028.65 29.6234 1041.25 30.1825 1046.27 32.2805L1050 33.8405V44.5654V55.2915L1047.75 53.2335C1036.26 42.7285 1018.34 48.1445 1014.98 63.1355C1010.99 80.9795 1030.51 93.7214 1045.58 83.1024L1050 79.9835V90.4874V100.992L1047.25 102.056C1028.51 109.312 1006.59 100.567 998.355 82.5524C994.657 74.4644 994.459 62.4794 997.877 53.7404ZM920.294 101.692C921.16 99.5595 943.065 42.7445 945.161 37.1925L947.144 31.9425H957.423H967.702L980.522 66.1925C987.572 85.0295 993.544 101.021 993.792 101.73C994.144 102.735 992.101 102.954 984.468 102.73L974.694 102.442L972.457 96.4425L970.221 90.4425H957.469C956.559 90.4425 955.712 90.4401 954.924 90.4378H954.922H954.92C948.712 90.4203 946.133 90.413 944.547 91.6641C943.42 92.5531 942.795 94.0775 941.724 96.6851L941.724 96.6857C941.532 97.1524 941.327 97.6538 941.101 98.1925L939.112 102.942H929.449C922.115 102.942 919.908 102.641 920.294 101.692ZM1086.7 35.7265C1085.87 37.8075 1079.92 53.2205 1073.48 69.9765C1067.04 86.7325 1061.55 101.005 1061.28 101.692C1060.91 102.639 1063.12 102.942 1070.43 102.942H1080.07L1082.03 98.1925C1082.24 97.7032 1082.42 97.2446 1082.6 96.8149L1082.6 96.8134L1082.6 96.8133L1082.6 96.813C1083.67 94.1669 1084.31 92.6149 1085.45 91.7065C1087.07 90.4179 1089.72 90.424 1096.13 90.4389C1096.86 90.4406 1097.65 90.4425 1098.49 90.4425H1111.25L1113.38 96.4425L1115.5 102.442L1125.37 102.73C1133.09 102.955 1135.14 102.736 1134.78 101.73C1134.52 101.021 1128.54 85.0295 1121.48 66.1925L1108.65 31.9425H1098.43H1088.22L1086.7 35.7265ZM1144 103.136V67.5394V31.9425H1160.96C1182.31 31.9425 1186.41 33.1734 1195.59 42.3544C1203.35 50.1164 1206 56.6065 1206 67.8455C1206 74.8145 1205.61 76.4525 1202.45 82.7755C1198.41 90.8415 1193.24 95.8875 1185 99.8065C1179.83 102.264 1178.44 102.442 1161.75 102.779L1144 103.136ZM1219 67.4425V102.942H1239.5H1260V95.4425V87.9425H1249.7C1244.03 87.9425 1238.97 87.5165 1238.45 86.9945C1237.93 86.4735 1237.65 83.5485 1237.84 80.4945L1238.19 74.9425H1248.64H1259.08L1258.79 67.1925L1258.5 59.4425L1248.34 59.1585L1238.18 58.8745L1237.84 53.3234C1237.65 50.2694 1237.69 47.5844 1237.92 47.3574C1238.15 47.1294 1243.21 46.9425 1249.17 46.9425H1260V39.4425V31.9425H1239.5H1219V67.4425ZM1278.63 43.9425C1279.44 38.7175 1280.3 33.8634 1280.54 33.1544C1280.86 32.1994 1283.35 31.9414 1290.2 32.1544L1299.43 32.4425L1302.74 41.4425C1309.6 60.0735 1313.26 69.0155 1313.81 68.4625C1314.13 68.1485 1317.6 59.9154 1321.54 50.1674L1328.7 32.4425L1338.14 32.1585L1347.58 31.8754L1350.34 50.6585C1351.86 60.9895 1354.19 76.6425 1355.52 85.4425C1356.85 94.2425 1357.95 101.779 1357.97 102.192C1357.98 102.605 1353.99 102.942 1349.08 102.942H1340.16L1339.6 100.192C1339.29 98.6795 1338.12 89.8175 1336.99 80.4975C1335.86 71.1775 1334.75 63.3585 1334.51 63.1235C1333.97 62.5825 1332.62 65.5395 1324.09 85.9425L1317.19 102.442H1313.4H1309.61L1301.7 82.6975C1297.35 71.8385 1293.45 63.1635 1293.04 63.4195C1292.62 63.6765 1291.99 66.4864 1291.63 69.6644C1291.27 72.8424 1290.03 81.6305 1288.86 89.1925L1286.74 102.942H1277.87C1272.8 102.942 1269 102.526 1269 101.97C1269 101.436 1270.84 90.2995 1273.08 77.2205C1275.32 64.1425 1277.82 49.1675 1278.63 43.9425ZM1370.05 50.5485L1383 69.2194V86.0805V102.942H1392H1401V85.6375V68.3314L1409.3 56.8875C1413.86 50.5925 1419.75 42.4045 1422.39 38.6925L1427.18 31.9425H1416.11H1405.05L1398.96 41.0034C1395.61 45.9874 1392.47 49.9244 1391.99 49.7534C1391.51 49.5824 1388.46 45.6175 1385.23 40.9425L1379.35 32.4425L1368.22 32.1605L1357.09 31.8775L1370.05 50.5485ZM954.04 62.6397C952.287 67.4817 950.605 72.6797 950.302 74.1927L949.75 76.9427H956.816C960.702 76.9427 964.124 76.5517 964.419 76.0737C964.892 75.3087 958.661 55.2697 957.629 54.2387C957.408 54.0177 955.793 57.7977 954.04 62.6397ZM1091 75.7434C1091 75.0844 1092.45 70.1344 1094.21 64.7434C1095.98 59.3534 1097.72 54.9424 1098.08 54.9424C1099.35 54.9424 1106.18 75.4324 1105.22 76.3894C1104.06 77.5524 1091 76.9594 1091 75.7434ZM1163.95 87.549C1165.21 88.3211 1167.29 87.759 1170.71 87.0724C1181.05 84.9964 1187 77.8614 1187 67.5474C1187 60.7414 1185.77 57.3834 1181.69 53.0734C1177.58 48.7314 1173.3 46.9424 1167.03 46.9424H1162V66.9734C1162 81.27 1161.84 86.2623 1163.95 87.549Z" fill="#A6228C"/>
<path fill-rule="evenodd" clip-rule="evenodd" d="M353.143 50.6607C357.596 41.9327 366.362 34.6586 376.5 31.2786C381.598 29.5796 395.184 30.1457 400.25 32.2687L404 33.8397V44.5646V55.2907L401.75 53.2327C397.217 49.0887 393.052 47.7056 386.381 48.1296C381.177 48.4616 379.412 49.0667 376.287 51.5927C370.574 56.2107 368.623 60.2327 368.639 67.3547C368.656 74.2627 370.422 78.4366 374.939 82.2366C381.868 88.0666 392.039 88.4136 399.609 83.0776L404.068 79.9346L403.784 90.6497L403.5 101.364L397.5 103.235C390.114 105.537 381.073 105.064 372.714 101.936C365.711 99.3157 356.07 90.7826 353.04 84.5236C348.16 74.4426 348.203 60.3457 353.143 50.6607ZM0 102.942V67.4417V31.9417H17.184C32.611 31.9417 34.813 32.1566 38.718 34.0466C44.509 36.8506 47.001 41.6997 46.996 50.1517C46.992 56.7847 44.649 62.3716 41.337 63.6426C40.141 64.1016 41.116 64.9077 44.872 66.5657C49.124 68.4417 50.41 69.6277 52.007 73.1477C56.192 82.3677 53.639 93.5217 46.23 98.3917C40.659 102.054 35.208 102.891 16.75 102.918L0 102.942ZM80.635 39.6746C79.059 43.9466 73.096 59.6307 67.385 74.5297C61.673 89.4277 57 101.915 57 102.28C57 102.644 61.227 102.942 66.394 102.942H75.788L78.289 96.6917L80.789 90.4417H93.645H106.5L108.926 96.6917L111.352 102.942H121.162H130.972L128.992 97.6917C127.903 94.8037 121.918 78.9417 115.692 62.4417L104.372 32.4417L93.936 32.1746L83.5 31.9077L80.635 39.6746ZM140 102.942V67.4417V31.9417H148.984H157.968L158.234 59.6917L158.5 87.4417H169.251H180.002L180.001 95.1917L180 102.942H160H140ZM211.704 36.1586C210.876 38.5146 205.156 53.4917 198.993 69.4417C192.831 85.3917 187.559 99.4547 187.278 100.692C186.776 102.903 186.932 102.942 196.226 102.942H205.685L208.134 96.6917L210.583 90.4417H223.493H236.402L238.788 96.6917L241.175 102.942H250.587C255.764 102.942 260 102.533 260 102.033C260 101.534 254.189 85.6707 247.087 66.7827L234.175 32.4417L223.692 32.1586L213.21 31.8757L211.704 36.1586ZM269 102.942V67.4417V31.9417L278.75 32.0007L288.5 32.0596L303.951 52.0457C312.45 63.0377 319.987 72.5157 320.701 73.1086C321.759 73.9866 322 70.2697 322 53.0637V31.9417H331.513H341.026L340.763 67.1917L340.5 102.442L331.343 102.728L322.185 103.015L305.432 81.5176C296.218 69.6946 288.302 60.2557 287.84 60.5407C287.378 60.8257 287 70.4827 287 82.0007V102.942H278H269ZM416 67.4417V102.942H436H456V95.4757V88.0097L445.25 87.7257L434.5 87.4417L434.202 81.1917L433.905 74.9417H444.452H455V66.9417V58.9417H444.5H434V52.9417V46.9417H445H456V39.4417V31.9417H436H416V67.4417ZM468.5 102.442L468.237 67.1917L467.974 31.9417H485.309C498.15 31.9417 503.792 32.3336 507.072 33.4526C516.433 36.6456 526.398 46.9126 529.227 56.2786C529.919 58.5686 530.465 63.8167 530.441 67.9417C530.389 76.8297 527.493 84.1767 521.37 90.9537C512.446 100.832 505.216 103.102 483.902 102.719L468.5 102.442ZM18 52.6394C18 49.1384 18.33 45.9444 18.734 45.5404C19.577 44.6984 25.614 45.6644 28.22 47.0594C33.149 49.6974 30.904 57.8254 24.828 59.3404C18.925 60.8124 18 59.9044 18 52.6394ZM18.199 82.0464C18.033 78.5294 18.131 75.0424 18.417 74.2964C19.085 72.5554 27.578 72.5044 30.97 74.2204C32.328 74.9084 34.107 76.6594 34.923 78.1124C38.068 83.7164 31.52 89.3904 22.656 88.7444L18.5 88.4414L18.199 82.0464ZM89.708 65.1759C87.762 70.8049 86.384 75.7549 86.645 76.1759C87.462 77.4979 101 77.0899 101 75.7429C101 73.6859 94.611 54.9419 93.909 54.9419C93.543 54.9419 91.653 59.5469 89.708 65.1759ZM216 76.1938C216 75.7818 217.625 70.5678 219.612 64.6058C221.599 58.6438 223.555 54.1428 223.96 54.6038C224.811 55.5728 231 74.2688 231 75.8698C231 76.5368 228.169 76.9418 223.5 76.9418C219.375 76.9418 216 76.6048 216 76.1938ZM487.229 67.1919L487.5 87.4419L492.952 87.1429C499.798 86.7659 504.886 83.9709 508.296 78.7119C517.265 64.8789 507.956 47.0389 491.729 46.9639L486.959 46.9419L487.229 67.1919Z" fill="#A6228C"/>
</svg>
