<svg width="200" height="108" viewBox="0 0 200 108" fill="none" xmlns="http://www.w3.org/2000/svg">
<g clip-path="url(#clip0_1246_122)">
<path d="M9.47368 9.13892C3.1579 15.4659 0 23.5503 0 31.9862V32.6892V107.558H3.85965V32.6892V32.3377C3.85965 16.5204 16.4912 3.86647 31.9298 3.86647C47.0175 3.86647 60 16.8719 60 32.3377V33.0407C60 40.0707 56.8421 47.1006 51.9298 52.0216C50.8772 51.3186 49.8246 50.2641 48.7719 49.5611C53.3333 44.9916 55.7895 39.0162 56.1404 32.6892V32.3377C56.1404 26.0108 53.6842 19.6838 49.1228 15.1144C44.5614 10.5449 38.5965 7.73294 31.9298 7.73294C25.2632 7.73294 19.2982 10.5449 14.7368 15.1144C10.5263 19.6838 8.07018 25.6593 7.7193 31.9862V32.3377V107.558H11.5789V33.0407V32.6892C11.5789 27.0653 13.6842 21.7928 17.5439 17.5749C21.0526 13.7084 26.3158 11.5994 31.9298 11.5994C37.5439 11.5994 42.4561 13.7084 46.3158 17.9264C50.1754 21.7928 52.2807 27.0653 52.2807 32.3377V32.6892C52.2807 38.3132 49.4737 43.9371 45.2632 47.8036C43.8596 47.1006 42.1053 46.3976 40.7018 46.0461C45.2632 43.2341 48.0702 37.9617 48.4211 32.6892V32.3377C48.4211 23.5503 41.0526 16.1689 32.2807 16.1689C23.5088 16.1689 16.1404 23.5503 16.1404 32.3377V32.6892V108.261H20V32.6892V32.3377C20 25.3078 25.2632 19.6838 32.2807 19.6838C39.2982 19.6838 44.9123 24.9563 44.9123 31.9862V32.3377V32.6892C44.5614 39.3677 39.2982 44.9916 32.2807 44.9916V48.8581H32.9825C36.1403 48.8581 39.2982 49.5611 42.4561 50.6156C39.6491 52.0216 36.1403 53.0761 32.9825 53.0761V56.2395C36.1403 56.2395 39.2982 56.9425 42.4561 58.3485C39.6491 59.403 36.4912 59.7545 33.3333 59.7545H31.5789V63.621C38.5965 63.621 44.2105 69.2449 44.2105 76.2749C44.2105 83.3048 38.5965 88.9288 31.5789 88.9288V92.7952C40.7018 92.7952 48.0702 85.4138 48.0702 76.6264C48.0702 71.0024 45.2632 65.73 40.3509 62.918C41.7544 62.5665 43.5088 61.8635 44.9123 61.1605C45.2632 61.512 45.614 61.8635 46.3158 62.215C50.1754 66.0815 52.2807 71.0024 52.2807 76.6264C52.2807 82.2503 50.1754 87.1713 45.9649 91.0377C42.1053 94.9042 36.8421 97.0132 31.2281 97.0132V100.88C37.5439 100.88 43.8596 98.4192 48.4211 93.8497C52.9825 89.2803 55.7895 83.3048 55.7895 76.6264C55.7895 70.2994 53.3333 63.9725 48.7719 59.7545L48.4211 59.403C49.4737 58.7 50.5263 57.997 51.5789 56.9425C56.8421 62.215 59.6491 69.2449 59.6491 76.6264C59.6491 84.0078 56.4912 91.0377 51.2281 96.3102C45.9649 101.583 38.5965 104.395 31.2281 104.395V108.261C39.6491 108.261 47.7193 105.098 53.6842 99.1222C59.6491 93.1467 63.1579 85.0623 63.1579 76.6264C63.1579 68.1904 60 60.4575 54.0351 54.482C59.6491 48.5066 63.1579 40.7737 63.1579 32.6892V31.9862C63.5088 14.4114 48.7719 0 31.9298 0C23.5088 0 15.4386 3.16347 9.47368 9.13892ZM41.0526 54.482C42.4561 53.7791 43.8596 53.0761 45.2632 52.0216C46.3158 52.7246 47.7193 53.4276 48.7719 54.1305C47.7193 54.8335 46.3158 55.888 45.2632 56.591C44.2105 55.5365 42.807 54.8335 41.0526 54.482Z" fill="#00B4CB"/>
<path d="M90.5261 32.3377C90.5261 25.6593 96.1401 20.0353 102.807 19.6838H103.158H122.807V15.8174H103.509H103.158C94.3857 15.8174 87.0173 23.1988 86.6664 31.9862V49.5611C85.2629 50.2641 83.8594 51.3186 82.8068 52.3731V32.6892C82.8068 21.4413 91.9296 12.3024 102.456 11.5994H103.158H122.807V7.73294H103.509H102.456C89.8243 8.08443 78.9471 18.9808 78.5962 31.9862V32.3377V56.2395C77.1927 57.997 75.7892 60.106 74.7366 62.215V32.6892V32.3377C75.0875 17.2234 87.0173 4.56946 102.105 4.21797H103.158H122.807V0L103.158 0.351497C85.6138 0 71.2278 14.0599 70.877 31.6347C70.877 31.9862 70.877 31.9862 70.877 32.3377V33.0407V77.6809V78.0324V107.91H74.7366V77.6809V77.3294C74.7366 72.4084 76.1401 67.1359 78.5962 62.918V107.91H82.4559V78.0324V77.6809C82.4559 73.1114 83.8594 68.8934 86.6664 65.3785V107.91H90.5261V78.0324V77.3294C90.8769 70.6509 96.1401 65.027 102.807 65.027H122.807V61.1605H103.158C98.2454 61.1605 93.3331 63.621 90.1752 67.4874V61.512C93.684 58.7 97.8945 56.9425 102.456 56.9425H122.456V52.7246H102.807C98.2454 52.7246 93.684 54.1306 89.8243 56.591V52.0216C93.684 49.9126 97.8945 48.8581 102.105 48.8581H122.105V44.9916H102.456C97.8945 44.9916 93.684 46.0461 89.4734 47.8036L90.5261 32.3377ZM82.8068 57.6455C83.1577 57.294 83.1577 57.294 83.5085 56.9425C84.5612 55.888 85.6138 54.8335 87.0173 54.1305V59.403C85.6138 60.809 84.2103 62.5665 83.1577 64.324V57.6455H82.8068Z" fill="#00B4CB"/>
<path d="M130.525 0.351562V4.21803H169.473C167.367 5.27252 165.613 6.67851 163.859 8.0845H130.525V11.951H159.999C158.946 13.357 157.894 14.7629 156.841 16.1689H130.525V20.0354H155.087C153.332 23.9019 152.631 28.4713 152.631 32.6893V107.91H156.49V32.6893C156.49 28.1198 157.543 23.9019 159.648 20.0354H164.56C162.104 23.9019 161.052 28.1198 160.701 32.6893V108.261H164.56V33.3923C164.56 28.8228 166.315 24.2534 169.122 20.3869H174.736C170.876 23.5504 168.771 28.1198 168.42 33.0408V108.613H172.28V33.3923C172.28 26.7138 177.543 21.0899 184.56 20.7384H199.999V16.1689H183.859H172.28C175.438 13.7085 179.297 12.3025 183.508 11.951H199.999V8.0845C199.999 8.0845 183.508 8.0845 183.157 8.0845H170.175C174.034 5.62402 178.596 4.21803 183.508 4.21803H199.999V0.351562H130.525ZM164.56 12.3025C164.911 12.3025 164.911 11.951 165.262 11.951H171.929C170.175 13.0055 168.42 14.7629 167.017 16.1689H161.403C162.455 14.7629 163.508 13.7085 164.56 12.3025Z" fill="#00B4CB"/>
</g>
<defs>
<clipPath id="clip0_1246_122">
<rect width="200" height="107.91" fill="white"/>
</clipPath>
</defs>
</svg>
