<svg width="210" height="20" viewBox="0 0 210 20" fill="none" xmlns="http://www.w3.org/2000/svg">
<path d="M10.1915 0C12.6352 0 14.3076 0.559745 15.6319 1.24919V6.29372C14.5943 5.76128 12.9765 5.07184 10.7512 5.07184C7.35177 5.07184 5.57697 7.43369 5.57697 9.95254C5.57697 12.526 7.30399 14.8332 10.4577 14.8332C12.8741 14.8332 14.6489 14.1711 15.7616 13.6114V18.7037C14.4373 19.3931 12.2325 19.8983 9.92524 19.8983C4.19126 19.8983 0 15.4954 0 9.94572C0 4.48479 4.19126 0 10.1915 0ZM30.117 16.9835H24.308L23.1407 19.5023H17.3794L27.093 0.129697H27.3592L37.0729 19.5023H31.3116L30.117 16.9835ZM25.8438 13.3724H28.6016C28.1238 12.2598 27.407 10.5055 27.25 9.81602H27.1954C27.0384 10.5055 26.3217 12.2598 25.8438 13.3724ZM49.3054 19.5023L46.493 13.5568H44.9298V19.5023H39.5166V0.395917H46.7046C51.401 0.395917 54.7185 2.60077 54.7185 7.10603C54.7185 9.81602 53.442 11.6454 51.3464 12.6489L55.0598 19.4955H49.3054V19.5023ZM44.923 5.07184V9.16071H46.9913C48.1039 9.16071 49.1142 8.68288 49.1142 7.11969C49.1142 5.60428 48.1039 5.07866 46.9913 5.07866H44.923V5.07184ZM72.9716 7.11286C72.9716 11.6796 69.5722 13.8298 64.828 13.8298H63.8451V19.5092H58.3022V0.395917H64.828C69.579 0.395917 72.9716 2.57346 72.9716 7.11286ZM63.8451 5.07184V9.16071H65.1216C66.3161 9.16071 67.3742 8.65557 67.3742 7.11969C67.3742 5.60428 66.3093 5.07866 65.1216 5.07866H63.8451V5.07184ZM75.8113 0.395917H88.6036V5.06501H81.361V7.61117H87.5728V11.9867H81.361V14.8264H89.0063V19.4955H75.8182V0.395917H75.8113ZM106.324 0.395917V5.06501H101.444V19.5023H95.8734V5.07184H90.9927V0.402743H106.324V0.395917ZM124.106 0C126.55 0 128.223 0.559745 129.547 1.24919V6.29372C128.509 5.76128 126.891 5.07184 124.666 5.07184C121.267 5.07184 119.492 7.43369 119.492 9.95254C119.492 12.526 121.219 14.8332 124.373 14.8332C126.789 14.8332 128.564 14.1711 129.677 13.6114V18.7037C128.352 19.3931 126.147 19.8983 123.84 19.8983C118.106 19.8983 113.915 15.4954 113.915 9.94572C113.915 4.48479 118.106 0 124.106 0ZM142.414 0C148.435 0 152.633 4.48479 152.633 9.95254C152.633 15.4954 148.442 19.9051 142.414 19.9051C136.414 19.9051 132.223 15.5022 132.223 9.95254C132.223 4.48479 136.421 0 142.414 0ZM142.414 14.8332C145.227 14.8332 147.029 12.526 147.029 9.95254C147.029 7.43369 145.227 5.07184 142.414 5.07184C139.629 5.07184 137.8 7.43369 137.8 9.95254C137.8 12.526 139.629 14.8332 142.414 14.8332ZM155.869 0.395917H161.411V11.6727C161.411 13.6865 162.394 14.8332 164.435 14.8332C166.476 14.8332 167.459 13.6933 167.459 11.6727V0.395917H173.03V12.2871C173.03 16.8265 169.869 19.9051 164.429 19.9051C159.015 19.9051 155.855 16.8265 155.855 12.2871V0.395917H155.869ZM187.05 19.5023L184.238 13.5568H182.675V19.5023H177.262V0.395917H184.45C189.146 0.395917 192.464 2.60077 192.464 7.10603C192.464 9.81602 191.187 11.6454 189.091 12.6489L192.805 19.4955H187.05V19.5023ZM182.668 5.07184V9.16071H184.736C185.849 9.16071 186.859 8.68288 186.859 7.11969C186.859 5.60428 185.849 5.07866 184.736 5.07866H182.668V5.07184ZM210 0.395917V5.06501H205.119V19.5023H199.549V5.07184H194.668V0.402743H210V0.395917Z" fill="#3E87CB"/>
</svg>
