<svg width="200" height="35" viewBox="0 0 200 35" fill="none" xmlns="http://www.w3.org/2000/svg">
<path d="M15.6463 11.5477C15.6463 8.90315 14.4562 6.52337 11.3271 6.52337C7.93316 6.52337 6.61116 8.77089 6.61116 13.2665V20.8471C6.61116 25.343 7.93316 27.5911 11.3271 27.5911C14.4562 27.5911 15.6463 25.6514 15.6463 22.7868H22.3016C22.3016 30.2356 17.8941 34.1136 11.3271 34.1136C4.67176 34.1136 0 29.4421 0 21.0674V13.0462C0 4.67205 4.67176 0 11.3271 0C17.8941 0 22.3016 4.31946 22.3016 11.5477H15.6463Z" fill="#222D47"/>
<path d="M25.512 13.0462C25.512 4.67207 30.0957 0.000305176 36.6185 0.000305176C43.1416 0.000305176 47.7694 4.67207 47.7694 13.0462V21.0674C47.7694 29.4415 43.1416 34.1136 36.6185 34.1136C30.0957 34.1136 25.512 29.4415 25.512 21.0674V13.0462ZM32.1232 13.2665V20.8477C32.1232 25.343 33.3571 27.5905 36.6185 27.5905C39.8799 27.5905 41.1583 25.343 41.1583 20.8477V13.2665C41.1583 8.7712 39.8799 6.52339 36.6185 6.52339C33.3571 6.52339 32.1232 8.7712 32.1232 13.2665Z" fill="#222D47"/>
<path d="M57.7617 33.6164H51.1508V0.560364H62.7422C68.9127 0.560364 72.4386 4.57113 72.4386 10.3007C72.4386 15.0608 70.764 17.7934 66.9733 19.4241L73.3199 33.6164H66.2242L60.4505 20.3938H57.7617V33.6164ZM65.7835 10.4771C65.7835 8.05315 64.3287 6.90701 62.3457 6.90701H57.7617V14.0911H62.3457C64.3287 14.0911 65.7835 12.9011 65.7835 10.4771Z" fill="#222D47"/>
<path d="M95.8353 33.6159H76.5751V0.56012H95.3947V6.99513H83.1862V13.7827H94.1608V20.2174H83.1862V27.1812H95.8353V33.6159Z" fill="#222D47"/>
<path d="M128.075 10.3887C128.075 16.3389 124.417 20.2171 118.423 20.2171H113.399V33.6156H106.788V20.2174H98.9867V13.7824H106.788V0.560364H118.423C124.417 0.560364 128.075 4.43887 128.075 10.3887ZM121.42 10.3887C121.42 8.05286 119.965 6.99509 117.982 6.99509H113.398V13.7824H117.982C119.965 13.7824 121.42 12.7246 121.42 10.3887Z" fill="#222D47"/>
<path d="M137.82 27.1806H149.147V33.6159H131.209V0.56012H137.82V27.1806Z" fill="#222D47"/>
<path d="M167.434 0.516174H174.044V22.5972C174.044 29.8254 169.505 34.1885 162.938 34.1885C156.371 34.1885 151.875 29.8254 151.875 22.5972V0.516174H158.486V22.4207C158.486 25.506 160.073 27.5776 162.938 27.5776C165.847 27.5776 167.433 25.506 167.433 22.4207V0.516174H167.434Z" fill="#222D47"/>
<path d="M184.75 9.63966C184.75 12.1078 186.822 12.6368 190.612 13.7827C196.121 15.4576 200 17.3967 200 23.7878C200 29.297 195.857 34.1888 188.761 34.1888C181.621 34.1888 177.566 29.8257 177.566 23.8761V22.5533H184.222V23.8761C184.222 26.3879 185.897 28.195 188.761 28.195C191.846 28.195 193.125 26.476 193.125 24.5808C193.125 21.9359 191.009 20.79 186.778 19.5119C181.401 17.8818 178.227 16.1186 178.227 10.0364C178.227 4.26243 182.238 0.0316162 188.937 0.0316162C195.416 0.0316162 199.472 3.95402 199.472 10.0364V11.0942H192.904V10.3448C192.904 7.78834 191.406 6.02567 188.805 6.02567C186.073 6.02567 184.75 7.74445 184.75 9.63966Z" fill="#222D47"/>
</svg>
