<svg width="188" height="92" viewBox="0 0 188 92" fill="none" xmlns="http://www.w3.org/2000/svg">
<path d="M94 39.8H75.3L94.1 27.6L94 39.8ZM173.2 52.8C172.9 45.4 168.7 39.6 160.8 39.6H131.3V29.9H173.1V15H115.8V39.8H109.2V15H90.2L50.2 39.8H29.9V29.9H53.8L78.4 15H14.8V73.9H30V54.7H51.1H94.1V77.1H109.5V54.7H158V61.1H116V77.1H160.8C168.9 77.1 173.2 70.9 173.2 63.3V52.8ZM187.5 0.699997H0.5V88H44.2V68.8H79.8V91.2H160.8C176.2 91.2 187.4 79.4 187.4 63.2V0.699997H187.5ZM179.7 8.5V36.2H171.4C176.2 39.5 179.3 45.2 179.6 52.4V52.5V63.2C179.6 75.1 171.9 83.4 160.8 83.4H87.7V61H36.4V80.2H8.3V8.5H179.7Z" fill="#211551"/>
</svg>
