<svg width="1916" height="351" viewBox="0 0 1916 351" fill="none" xmlns="http://www.w3.org/2000/svg">
<path fill-rule="evenodd" clip-rule="evenodd" d="M1616.5 1.659C1608.5 5.868 1604.39 13.31 1605.23 22.056C1606.04 30.469 1610.92 35.185 1622.8 39.05C1636.13 43.384 1641 47.782 1641 55.5C1641 67.511 1627.18 74.408 1616.78 67.59C1613.93 65.722 1611 60.407 1611 57.099C1611 55.317 1610.4 55 1607 55C1603.85 55 1603 55.374 1603.01 56.75C1603.02 60.855 1605.37 66.408 1608.63 70.012C1613.43 75.325 1619.1 77.333 1627.9 76.836C1633.71 76.507 1635.65 75.922 1639.21 73.425C1645.48 69.023 1648.48 63.059 1648.49 55C1648.5 43.588 1642.75 37.444 1627.49 32.584C1616.48 29.077 1613 26.059 1613 20.027C1613 10.761 1620.69 4.69601 1629.4 7.10001C1633.57 8.25201 1639 14.152 1639 17.535C1639 19.744 1639.41 20 1643 20C1647.62 20 1648.08 18.532 1645.45 12.232C1642.06 4.108 1635.4 -0.0209962 1625.79 0.0400038C1622.07 0.0640038 1618.28 0.723999 1616.5 1.659ZM1695.5 1.4C1691.55 3.143 1687.05 7.71701 1685.36 11.718C1683.51 16.083 1683.65 24.451 1685.62 28.619C1687.85 33.314 1691.48 35.637 1702.8 39.628C1715.79 44.206 1719.5 47.718 1719.5 55.443C1719.5 64.156 1713.2 70.38 1704.52 70.249C1696.85 70.133 1691.97 66.285 1689.94 58.75C1689.01 55.334 1688.61 55 1685.46 55C1682.25 55 1682 55.228 1682 58.115C1682 63.511 1686.8 70.846 1692.46 74.093C1696.7 76.523 1698.61 76.981 1704.5 76.981C1713.58 76.981 1720.55 73.325 1724.58 66.453C1729.32 58.356 1727.77 45.508 1721.35 39.867C1718.67 37.508 1712.5 34.603 1704.72 32.045C1696.4 29.31 1692.44 26.15 1691.58 21.558C1689.24 9.08 1706.24 1.36901 1714.49 11.169C1715.93 12.88 1717.36 15.566 1717.68 17.14C1718.19 19.696 1718.66 20 1722.12 20C1726.4 20 1726.69 19.36 1724.86 13.899C1723.16 8.80501 1719.35 4.221 1714.98 1.991C1710.39 -0.353 1700.18 -0.661996 1695.5 1.4ZM1222 38.5V76H1225.5H1229V59V42H1244H1259V38.527V35.053L1244.25 34.777L1229.5 34.5L1229.22 21.25L1228.94 8H1244.47H1260V4.5V1H1241H1222V38.5ZM1300 38.5V76H1303.5H1307V38.5V1H1303.5H1300V38.5ZM1344 4.5V8H1352.5H1361V42V76H1365H1369V42V8H1377.5H1386V4.5V1H1365H1344V4.5ZM1422 38.5V76H1425.98H1429.97L1430.23 43.362L1430.5 10.725L1452.46 43.362L1474.42 76H1478.21H1482V38.5V1H1478.5H1475V31.5C1475 48.275 1474.66 61.985 1474.25 61.967C1473.84 61.949 1464.37 48.224 1453.22 31.467L1432.94 1H1427.47H1422V38.5ZM1525 38.5V76H1545.5H1566V72.5V69H1549.5H1533V55.5V42H1549H1565V38.5V35H1549H1533V21.5V8H1549.5H1566V4.5V1H1545.5H1525V38.5ZM1843 28.295C1825.12 28.813 1810.43 29.296 1810.34 29.368C1810.25 29.441 1809.87 31.123 1809.5 33.106L1808.83 36.711L1817.41 37.407C1827.94 38.262 1835.63 40.446 1836.98 42.968C1839.54 47.738 1838.76 50.258 1820 98C1813.84 113.675 1808.43 127.433 1807.99 128.574L1807.18 130.649L1798.34 128.729C1785.99 126.046 1762.69 125.884 1751 128.399C1726.65 133.638 1700.44 145.901 1680.5 161.387C1670.84 168.888 1655.37 184.731 1647.39 195.305C1639.22 206.119 1631.03 221.961 1628.42 232C1626.36 239.889 1626.13 251.643 1627.9 258.749C1629.66 265.847 1635.86 275.14 1641.7 279.438C1650.75 286.101 1665.01 289.915 1681 289.948C1692.33 289.971 1701.73 287.851 1711.89 282.98C1727.62 275.439 1739.93 265.496 1756.15 247.239C1761.69 240.998 1766.4 236.067 1766.61 236.28C1766.83 236.494 1765.37 242.031 1763.37 248.584C1757.23 268.783 1758.26 279.889 1766.82 285.659C1771.13 288.564 1782.67 290.399 1792.07 289.674C1813.07 288.055 1834.24 273.618 1860.85 242.767L1870.11 232.033L1864.6 229.329L1859.08 226.624L1854.87 231.562C1845.79 242.212 1827.25 259.851 1822 262.846C1815.36 266.632 1809.84 267.042 1807.65 263.913C1805.83 261.307 1805.77 261.508 1815.77 236C1820.19 224.725 1839.33 175.45 1858.31 126.5C1877.28 77.55 1893.74 35.137 1894.89 32.25L1896.97 27L1886.23 27.177C1880.33 27.274 1860.87 27.777 1843 28.295ZM255.999 39.582C254.624 39.825 250.799 40.492 247.499 41.064C224.513 45.05 200.833 59.336 184.23 79.232C174.324 91.103 171.855 95.037 159.928 117.957L149.238 138.5L124.686 138.767L100.133 139.035L97.147 146.767L94.161 154.5L118.08 154.768C131.235 154.915 141.999 155.208 141.999 155.42C141.999 155.631 139.575 162.035 136.612 169.652C128.75 189.861 121.627 210.939 115.371 232.5C107.494 259.65 101.608 278.167 95.026 296.504C86.598 319.987 82.824 326.941 75.718 332.089C72.396 334.495 70.7081 335 65.9891 335C59.8481 335 58.278 334.219 47.87 325.992C38.612 318.674 33.652 316.686 23.499 316.225C15.126 315.845 14.116 316.016 8.99904 318.684C-3.42196 325.161 -2.47496 337.672 10.951 344.476C24.622 351.403 47.078 352.559 66.499 347.335C91.651 340.569 115.838 321.09 135.206 292C148.808 271.571 159.873 246.332 180.366 189L192.697 154.5L217.61 154.233L242.522 153.967L244.721 148.233C245.93 145.08 247.21 141.712 247.566 140.75C248.171 139.113 246.621 139 223.606 139C210.072 139 198.999 138.635 198.999 138.19C198.999 136.382 209.485 104.836 213.126 95.69C225.525 64.542 238.709 50.089 254.781 50.022C264.765 49.98 267.895 52.771 271.971 65.347C272.657 67.462 275.081 71.123 277.358 73.481C281.121 77.377 282.184 77.883 288.999 79.021C297.877 80.503 309.942 79.116 313.999 76.146C322.848 69.668 323.159 58.169 314.659 51.692C304.318 43.811 290.876 39.965 271.999 39.484C264.574 39.295 257.374 39.339 255.999 39.582ZM1537 127.662C1513.51 129.96 1496.05 135.886 1478.5 147.512C1470.58 152.758 1456.84 165.982 1451.42 173.572C1440.88 188.316 1434.88 206.001 1434.8 222.526C1434.64 254.594 1452.43 278.187 1483.56 287.2C1490.53 289.221 1493.69 289.5 1509.5 289.5C1530.17 289.5 1538.95 288.064 1553.5 282.306C1586.82 269.121 1609.21 245.231 1618.16 213.316C1622.51 197.827 1620.39 177.493 1612.81 162.007C1608.53 153.265 1596.94 141.727 1587.5 136.821C1573.19 129.387 1554.33 125.967 1537 127.662ZM1335.94 129.088C1296.65 132.709 1261.33 155.895 1245.43 188.5C1239.38 200.911 1236.86 211.119 1236.79 223.5C1236.6 254.308 1253.88 277.879 1283.24 286.867C1298.41 291.509 1323.59 291.58 1341.37 287.032C1380.39 277.053 1410.87 248.975 1420.11 214.5C1425.75 193.481 1420.94 167.895 1408.58 153.101C1393.23 134.729 1367.4 126.189 1335.94 129.088ZM1188.24 130.485C1178.2 133.308 1173.57 138.671 1173.57 147.497C1173.57 152.729 1175.47 157.307 1185 175C1190.79 185.742 1192.32 191.692 1191.81 201.454C1191.29 211.343 1187.93 219.262 1180.13 228.948C1162.31 251.103 1134.57 263.234 1105.43 261.624C1085.81 260.539 1071.02 255.138 1059.88 244.987L1054.5 240.09L1058 237.299C1090.21 211.614 1108.19 191.743 1115.19 174.096C1118.47 165.815 1118.46 150.34 1115.16 144C1112.01 137.946 1109.61 135.524 1104.12 132.84C1100.16 130.902 1097.86 130.574 1088 130.54C1079.83 130.512 1074.91 130.998 1071 132.219C1048.22 139.341 1023.87 168.061 1012.7 201C1007.23 217.105 1005.83 230.576 1008.1 245.189C1008.99 250.935 1008.94 252.425 1007.85 253.13C1007.11 253.608 1000.87 255.895 993.999 258.211C981.63 262.379 981.347 262.424 966.999 262.462C958.065 262.485 950.903 262.015 948.342 261.236C941.854 259.264 934.869 254.006 931.528 248.578C928.852 244.231 928.5 242.773 928.507 236.078C928.515 229.107 928.854 227.86 932.741 220.5C940.203 206.372 951.61 192.157 980.49 161C998.292 141.795 1008.08 130.745 1007.66 130.323C1007.51 130.172 1004.48 130.534 1000.94 131.127C991.709 132.671 972.228 132.702 951.999 131.204C926.614 129.325 911.484 131.33 896.304 138.584C887.721 142.686 879.759 150.072 876.743 156.732C872.063 167.064 874.839 179.219 883.131 184.706C886.604 187.004 888.248 187.405 893.984 187.353C903.126 187.269 909.084 184.142 910.428 178.722C911.595 174.02 909.768 169.835 903.653 163.198C898.134 157.208 897.52 155.479 900.022 152.977C902.632 150.367 904.037 150.464 914.385 153.961C925.666 157.775 940.302 160.932 950.258 161.699L958.122 162.306L953.311 167.246C950.664 169.963 941.974 177.64 933.999 184.305C906.304 207.454 888.568 226.328 882.646 238.955C880.256 244.052 879.527 247.159 879.182 253.726C878.775 261.495 878.955 262.469 881.922 268.496C885.622 276.011 890.606 280.517 900.165 284.991C910.366 289.764 920.927 291.365 937.499 290.65C960.165 289.672 979.374 284.358 1009.09 270.849L1015.67 267.854L1021.37 273.413C1027.83 279.724 1039.3 285.715 1050.5 288.635C1060.84 291.33 1083.91 291.075 1098 288.109C1133.09 280.724 1166.24 262.905 1193.65 236.704C1225.97 205.807 1239.5 172.008 1229.03 148.341C1222.77 134.187 1204.12 126.024 1188.24 130.485ZM804.999 131.618C787.133 135.065 768.771 146.299 749.497 165.572C736.92 178.149 728.525 188.544 716.253 206.741C710.97 214.574 706.48 220.814 706.274 220.608C706.068 220.402 708.665 211.743 712.045 201.367C719.717 177.816 721.95 167.828 721.977 156.946C721.995 149.806 721.589 147.576 719.516 143.446C715.353 135.154 708.865 132 695.966 132C677.8 132 661.234 140.926 640.858 161.693C631.852 170.871 616.025 189.009 616.009 190.17C616.003 190.538 618.352 191.621 621.227 192.576L626.456 194.312L631.951 187.906C640.702 177.704 658.06 160.658 663.379 157.042C669.387 152.958 675.748 151.95 679.597 154.472C681.959 156.02 682.187 156.685 681.783 160.85C681.418 164.6 656.067 227.638 632.557 283.25L630.972 287H654.911H678.85L686.226 272.75C697.68 250.622 717.105 221.026 735.249 198.056C750.815 178.35 771.87 158.877 782.343 154.501C787.483 152.353 798.179 152.516 800.981 154.784C805.924 158.787 804.766 162.169 783.785 205C763.87 245.656 754.999 267.71 754.999 276.562C754.999 286.397 763.488 290.922 782.039 290.976C792.417 291.005 799.874 289.198 810.758 284.016C820.542 279.357 825.762 275.916 836.424 267.093C843.64 261.122 864.999 238.525 864.999 236.862C864.999 236.479 863.031 235.414 860.627 234.496L856.254 232.826L846.877 242.564C830.568 259.5 818.635 267.931 810.904 267.978C805.588 268.011 803.554 265.365 804.94 260.22C805.529 258.032 814.025 240.325 823.819 220.871C841.91 184.938 848.999 167.598 848.999 159.28C848.999 147.928 842.237 137.729 832.227 133.984C826.693 131.914 810.68 130.522 804.999 131.618ZM583.025 133.562C557.221 139.156 531.872 162.555 499.416 210.739C494.512 218.02 490.186 223.983 489.803 223.989C488.548 224.009 491.966 214.251 498.648 198.743C512.659 166.221 516.242 154.296 514.024 147.574C510.907 138.131 503.652 133.8 489.946 133.201C467.115 132.203 449.348 142.19 420.797 172.073C412.383 180.879 405.378 188.428 405.23 188.849C405.082 189.27 407.107 190.528 409.73 191.646L414.499 193.677L428.499 180.028C449.025 160.016 457.716 154.457 465.445 156.397C468.939 157.274 468.832 161.257 465.086 169.832C460.913 179.384 416.999 285.944 416.999 286.52C416.999 286.784 428.137 286.995 441.749 286.988L466.499 286.976L472.845 274.547C497.454 226.346 538.98 169.683 556.091 160.953C563.468 157.189 567.755 158.257 576.804 166.113C582.349 170.925 588.582 173 597.496 173C607.524 173 614.13 170.803 619.434 165.701C632.152 153.472 623.786 137.655 602.2 133.115C595.484 131.702 591.139 131.804 583.025 133.562ZM343.841 134.034C318.376 136.346 291.783 146.283 267.022 162.738C251.986 172.729 232.988 191.427 224.174 204.907C207.796 229.955 205.88 254.24 218.918 271.509C229.585 285.638 252.225 292.865 281.999 291.646C306.665 290.636 325.978 283.689 345.999 268.626C354.499 262.23 378.999 238.911 378.999 237.215C378.999 236.721 376.34 235.512 373.09 234.528L367.181 232.738L356.758 242.119C339.163 257.956 321.916 269.043 307.281 273.925C299.482 276.527 283.541 276.808 276.889 274.461C268.172 271.386 263.999 265.299 263.999 255.662C263.999 248.975 268.093 232.518 270.306 230.308C270.962 229.653 282.413 226.387 295.752 223.05C360.603 206.828 395.216 190.904 403.46 173.5C405.889 168.373 406.574 160.271 404.985 155.457C400.13 140.748 373.327 131.357 343.841 134.034ZM1761.84 136.375C1748.84 141.721 1738.98 149.105 1723.88 164.8C1710.31 178.893 1701.2 191.395 1693.09 207.023C1675.58 240.775 1675.76 264.144 1693.56 270.018C1699.59 272.011 1709.5 270.799 1716.62 267.198C1741.11 254.811 1775.55 210.886 1791 172.323C1794.64 163.246 1795.35 160.346 1795.42 154.344C1795.49 147.946 1795.18 146.728 1792.49 142.844C1786.38 134.04 1773.91 131.409 1761.84 136.375ZM1545.84 136.394C1535.48 140.095 1523.26 151.377 1513.76 166C1492.65 198.504 1475.47 253.349 1481.15 270.101C1484.24 279.2 1489.11 282.385 1500.01 282.438C1509.87 282.485 1516.62 279.259 1526.71 269.669C1542.1 255.055 1558.39 224.541 1568.49 191.449C1578.38 159.005 1576.83 141.046 1563.68 136.067C1559.87 134.621 1550.32 134.796 1545.84 136.394ZM1347.42 137.82C1337.65 141.198 1325.82 151.979 1316.5 165.993C1302.91 186.441 1288.85 220.795 1283.49 246.653C1279.65 265.205 1282.49 277.118 1291.72 281.203C1298.65 284.267 1308.58 283.406 1316.8 279.028C1324.41 274.969 1336.45 262.709 1343.82 251.5C1362.46 223.176 1380.66 168.641 1377.07 151.896C1375.51 144.616 1372.46 140.114 1367.59 137.904C1362.41 135.55 1354.09 135.515 1347.42 137.82ZM326.499 144.229C316.983 147.627 305.272 158.2 296.862 170.985C288.594 183.556 272.821 216.156 274.295 217.629C275.037 218.371 288.759 214.445 299.999 210.275C333.265 197.933 354.217 179.836 356.468 161.5C356.965 157.449 356.647 155.655 354.79 152.044C351.53 145.702 345.992 142.974 336.592 143.079C332.691 143.122 328.149 143.64 326.499 144.229ZM1063.71 155.212C1058.45 156.607 1049.99 164.634 1046.7 171.349C1042.23 180.484 1040.74 188.93 1041.29 202C1041.76 213.309 1043.56 221.651 1046.36 225.473C1047.72 227.342 1047.98 227.256 1053.64 223.032C1079.32 203.849 1091.06 185.584 1088.07 169.434C1085.75 156.866 1076.92 151.709 1063.71 155.212ZM1883.31 249.533C1870.61 255.859 1867.4 272.778 1876.88 283.303C1890.8 298.742 1916 289.529 1916 269C1916 252.228 1898.64 241.892 1883.31 249.533ZM1888.76 249.996C1883.18 251.676 1879.14 255.067 1876.57 260.234C1873.62 266.149 1873.34 270.483 1875.55 275.782C1878.9 283.801 1885.07 288 1893.5 288C1905.16 288 1913 280.361 1913 269C1913 259.881 1907.35 252.522 1898.5 250.104C1893.94 248.858 1892.59 248.843 1888.76 249.996ZM1885 269C1885 279 1885.25 281 1886.5 281C1887.63 281 1888 279.778 1888 276C1888 271.172 1888.1 271 1890.84 271C1893.93 271 1895.85 272.712 1898.4 277.75C1899.31 279.538 1900.71 281 1901.53 281C1902.34 281 1903 280.753 1903 280.45C1903 279.449 1899.78 273.528 1898.35 271.886C1897.11 270.469 1897.25 270.069 1899.47 268.613C1901.38 267.357 1902 266.097 1902 263.426C1902 260.345 1901.56 259.714 1898.53 258.449C1896.62 257.652 1892.8 257 1890.03 257H1885V269ZM1888 264V268.11L1892.65 267.805C1897.95 267.457 1900.26 265.228 1898.39 262.25C1897.66 261.083 1895.74 260.398 1892.65 260.195L1888 259.89V264Z" fill="black"/>
</svg>
