<svg width="120" height="20" viewBox="0 0 120 20" fill="none" xmlns="http://www.w3.org/2000/svg">
<path d="M0 20V0H10.6716V3.15917H4.26986V8.24424H9.72886V11.4033H4.26986V20H0Z" fill="black"/>
<path d="M21.35 0H17.0801V20H21.35V0Z" fill="black"/>
<path d="M31.0786 3.15917H27.2832V0H39.1439V3.15917H35.3485V20H31.0786V3.15917Z" fill="black"/>
<path d="M49.3401 14.7023V16.8408H52.9446V11.373H47.9168C46.2594 11.373 45.0703 10.3584 45.0703 9.30741V2.10813C45.0703 0.874842 46.2101 0 47.9168 0H54.374C55.9822 0 57.2206 0.874842 57.2206 2.07168V5.10934H52.9446V3.15917H49.3401V8.21382H54.374C55.9822 8.21382 57.2206 9.19194 57.2206 10.3159V17.9283C57.2206 19.0522 55.939 20 54.374 20H47.9168C46.4011 20 45.0703 19.0522 45.0703 17.9283V14.7023H49.3401Z" fill="black"/>
<path d="M66.9439 3.15917H63.1484V0H75.0091V3.15917H71.2138V20H66.9439V3.15917Z" fill="black"/>
<path d="M88.8156 3.15917H85.2114V16.8408H88.8156V3.15917ZM80.9414 2.10813C80.9414 0.984201 82.2661 0 83.7941 0H90.2454C91.8595 0 93.0916 0.984201 93.0916 2.10813V17.904C93.0916 19.0279 91.8105 19.9757 90.2454 19.9757H83.7941C82.2723 19.9757 80.9476 19.0279 80.9476 17.904L80.9414 2.10813Z" fill="black"/>
<path d="M108.318 3.15917H104.744V8.83959H108.349L108.318 3.15917ZM100.432 0H109.735C111.349 0 112.582 0.984201 112.582 2.10813V9.93318C112.582 11.051 111.3 11.9988 109.735 11.9988H104.744V20H100.432V0Z" fill="black"/>
<path d="M120 16H116V20H120V16Z" fill="#E04826"/>
</svg>
