<svg width="300" height="70" viewBox="0 0 300 70" fill="none" xmlns="http://www.w3.org/2000/svg">
<path fill-rule="evenodd" clip-rule="evenodd" d="M296.104 17.8906C298.274 17.8906 300.001 19.6521 300.001 21.8615C300.001 24.0947 298.274 25.8415 296.086 25.8415C293.912 25.8415 292.15 24.0947 292.15 21.8615C292.15 19.6521 293.912 17.8906 296.086 17.8906H296.104ZM296.086 18.5037C294.336 18.5037 292.908 20.0076 292.908 21.8615C292.908 23.7442 294.336 25.2274 296.104 25.2274C297.866 25.2446 299.277 23.7442 299.277 21.8726C299.277 20.0076 297.866 18.5037 296.104 18.5037H296.086ZM295.343 24.1689H294.637V19.741C295.009 19.689 295.359 19.6339 295.886 19.6339C296.563 19.6339 297.001 19.7758 297.263 19.9672C297.535 20.1652 297.672 20.4611 297.672 20.8858C297.672 21.4661 297.285 21.8211 296.805 21.9645V21.9994C297.195 22.0691 297.459 22.4236 297.55 23.073C297.653 23.7608 297.756 24.0255 297.832 24.1689H297.092C296.989 24.0255 296.878 23.6174 296.788 23.0382C296.686 22.4751 296.4 22.263 295.842 22.263H295.343V24.1689ZM295.343 21.7186H295.857C296.438 21.7186 296.929 21.5055 296.929 20.955C296.929 20.5697 296.651 20.1798 295.857 20.1798C295.63 20.1798 295.469 20.2005 295.343 20.2177V21.7186Z" fill="#FFFFFE"/>
<path fill-rule="evenodd" clip-rule="evenodd" d="M0 56.145C1.95626 55.6289 2.42184 54.5436 2.42184 52.3276V24.3209C2.42184 22.111 1.95626 21.0262 0 20.5131V19.5859H26.5655L27.4441 27.207L26.3585 27.5661C24.3042 24.3709 20.7508 22.6756 15.9081 22.6756C11.535 22.6756 10.7604 23.5482 10.7604 26.3293V34.467H12.3551C18.0709 34.467 21.2623 33.3307 22.2435 30.5507H23.3226V41.4695H22.2435C20.5972 38.2233 17.7098 37.5551 12.7167 37.5551H10.7604V52.3276C10.7604 54.5436 11.1735 55.6289 13.1302 56.145V57.1202H0V56.145Z" fill="#050505"/>
<path fill-rule="evenodd" clip-rule="evenodd" d="M41.9057 30.0312C48.4991 30.0312 53.5437 35.6959 53.5437 43.9372C53.5437 47.9484 52.0005 51.7597 49.1651 54.5898C47.0064 56.7007 44.431 57.8355 41.5507 57.8355C38.6633 57.8355 36.1445 56.7528 33.9802 54.5898C31.1508 51.7597 29.6016 48.0005 29.6016 43.8276C29.6016 36.0575 35.1108 30.0312 41.9057 30.0312ZM37.1191 43.9372C37.1191 52.1673 37.8891 55.9326 41.5507 55.9326C45.3031 55.9326 46.0252 52.1673 46.0252 43.9372C46.0252 35.6444 45.3031 31.9877 41.5507 31.9877C37.8891 31.9877 37.1191 35.7959 37.1191 43.9372Z" fill="#050505"/>
<path fill-rule="evenodd" clip-rule="evenodd" d="M56.9919 56.1418C58.6906 55.8808 58.6906 54.489 58.6906 51.5564V40.4856C58.6906 37.6494 58.5361 36.1632 56.5273 35.5946V34.5098C59.6208 33.8442 62.1911 32.3524 63.9933 30.0859H65.589V35.134C68.2174 31.7838 70.4322 30.0859 72.3839 30.0859C74.5997 30.0859 76.2459 31.7838 76.2459 33.8952C76.2459 36.2662 74.6507 37.9651 72.4354 37.9651C70.9437 37.9651 69.8131 36.6218 68.3209 36.6218C65.8991 36.6218 65.589 38.5337 65.589 42.0799V51.5564C65.589 51.7114 65.589 51.8654 65.589 52.0205C65.589 54.6435 65.641 55.8808 67.2363 56.1418V57.117H56.9919V56.1418Z" fill="#050505"/>
<path fill-rule="evenodd" clip-rule="evenodd" d="M101.218 50.5261C98.3362 55.3667 94.6237 57.8382 90.3026 57.8382C83.1972 57.8382 78.25 52.3245 78.25 43.9858C78.25 35.8526 83.4557 30.0859 89.8891 30.0859C96.1219 30.0859 100.552 34.978 100.707 43.0591H85.413C85.5685 49.5995 88.3974 53.0997 93.2921 53.0997C95.9664 53.0997 98.1817 52.0205 100.237 49.754L101.218 50.5261ZM89.9921 40.6911C93.4476 40.6911 94.2672 40.5401 94.2672 37.9651C94.2672 34.1538 92.5169 31.9383 89.7861 31.9383C86.8017 31.9383 85.361 34.8754 85.361 40.6911H89.9921Z" fill="#050505"/>
<path fill-rule="evenodd" clip-rule="evenodd" d="M151.615 50.5261C148.734 55.3667 145.027 57.8382 140.706 57.8382C133.601 57.8382 128.654 52.3245 128.654 43.9858C128.654 35.8526 133.859 30.0859 140.286 30.0859C146.52 30.0859 150.95 34.978 151.104 43.0591H135.81C135.966 49.5995 138.801 53.0997 143.69 53.0997C146.366 53.0997 148.579 52.0205 150.638 49.754L151.615 50.5261ZM140.396 40.6911C143.843 40.6911 144.666 40.5401 144.666 37.9651C144.666 34.1538 142.915 31.9383 140.19 31.9383C137.199 31.9383 135.765 34.8754 135.765 40.6911H140.396Z" fill="#050505"/>
<path fill-rule="evenodd" clip-rule="evenodd" d="M155.424 56.1418C157.124 55.8808 157.124 54.489 157.124 51.5564V40.4856C157.124 37.6494 156.97 36.1632 154.961 35.5946V34.5098C158.048 33.8442 160.625 32.3524 162.427 30.0859H164.023V35.134C166.651 31.7838 168.86 30.0859 170.822 30.0859C173.037 30.0859 174.683 31.7838 174.683 33.8952C174.683 36.2662 173.084 37.9651 170.875 37.9651C169.376 37.9651 168.247 36.6218 166.754 36.6218C164.334 36.6218 164.023 38.5337 164.023 42.0799V51.5564C164.023 51.7114 164.023 51.8654 164.023 52.0205C164.023 54.6435 164.074 55.8808 165.677 56.1418V57.117H155.424V56.1418Z" fill="#050505"/>
<path fill-rule="evenodd" clip-rule="evenodd" d="M177.258 56.1355C179.213 55.6194 179.678 54.5342 179.678 52.3182V24.3114C179.678 23.2322 179.623 22.408 179.213 21.7394C178.852 21.1198 178.18 20.7582 177.258 20.5037V19.5234H190.741V20.5037C188.794 21.0167 188.377 22.1015 188.377 24.3114V47.7383C188.377 47.9968 188.377 48.3039 188.377 48.5134C188.377 53.3509 188.484 53.9721 192.184 53.9721C198.002 53.9721 201.295 53.0934 205.109 47.9448L206.297 48.4069L204.08 57.1107H177.258V56.1355Z" fill="#050505"/>
<path fill-rule="evenodd" clip-rule="evenodd" d="M226.475 57.8382C224.208 57.8382 223.024 56.5499 222.716 53.7718C219.37 56.4459 216.541 57.8382 214.326 57.8382C210.877 57.8382 208.404 55.1116 208.404 51.5054C208.404 48.7723 209.947 46.1497 212.932 44.2438C215.353 42.7005 218.809 41.6208 222.716 39.7099V36.4218C222.716 33.3276 221.994 31.9903 219.783 31.9903C217.98 31.9903 217.413 33.021 216.948 35.2335C216.336 38.1176 215.715 39.9164 213.349 39.9164C211.548 39.9164 210.052 38.4817 210.052 36.6218C210.052 33.3276 214.221 30.0859 219.938 30.0859C226.372 30.0859 229.255 32.4489 229.255 37.859V50.4741C229.255 52.6896 229.614 53.7193 230.693 53.7193C231.214 53.7193 231.622 53.6163 232.086 53.2547L233.063 54.2829C230.855 56.6529 228.426 57.8382 226.475 57.8382ZM215.096 49.4959C215.096 51.8139 216.592 53.2547 218.705 53.2547C220.088 53.2547 221.534 52.5861 222.716 51.3493V41.7188C217.619 44.0888 215.096 46.3043 215.096 49.4959Z" fill="#050505"/>
<path fill-rule="evenodd" clip-rule="evenodd" d="M235.788 35.8981C234.967 33.3755 234.146 31.9868 233.166 31.7292V30.75H243.054V31.7292C242.536 32.0393 242.227 32.6554 242.227 33.3755C242.227 33.6341 242.278 34.1502 242.434 34.7128L246.496 49.3889L249.999 36.2112L249.9 35.591C249.59 33.6866 248.918 32.5549 247.324 31.7292V30.75H257.11V31.7292C256.283 32.0903 256.024 32.5034 256.024 33.2786C256.024 33.5311 256.076 34.3053 256.332 35.2809L260.246 49.3889L263.851 36.8258C264.11 36.0016 264.213 35.2299 264.213 34.5063C264.213 33.324 263.691 32.3999 262.715 31.7292V30.75H269.974V31.7292C268.691 32.2463 267.657 33.8917 266.783 36.7737L260.454 57.475H256.541L251.444 40.4325L246.756 57.475H242.795L235.788 35.8981Z" fill="#050505"/>
<path fill-rule="evenodd" clip-rule="evenodd" d="M271.629 56.1392C273.322 55.8781 273.323 54.4863 273.323 51.5537V40.4829C273.323 37.6468 273.173 36.1605 271.158 35.5919V34.5071C274.254 33.8415 276.829 32.3497 278.625 30.0833H279.865V34.9238C283.986 31.7301 287.071 30.0312 289.439 30.0312C293.4 30.0312 293.815 32.8623 293.815 38.7841V51.5537C293.815 51.7087 293.815 51.8628 293.815 52.0178C293.815 54.6408 293.862 55.8781 295.461 56.1392V57.1143H285.575V56.1392C287.273 55.8781 287.273 54.4863 287.273 51.5537V39.4037C287.273 36.361 287.071 35.1313 285.167 35.1313C283.824 35.1313 282.131 35.7959 279.865 37.0322V51.5537C279.865 54.4863 279.865 55.8781 281.556 56.1392V57.1143H271.629V56.1392Z" fill="#050505"/>
<path fill-rule="evenodd" clip-rule="evenodd" d="M123.209 69.614C123.209 69.614 115.427 68.2858 113.35 63.8064C112.656 62.2939 114.945 49.748 117.802 43.2056C120.259 37.5914 128.294 24.287 133.89 19.7656C130.843 25.8671 125.171 37.2536 123.299 44.559C120.574 55.2061 121.483 64.5831 123.209 69.614Z" fill="#8CC140"/>
<path fill-rule="evenodd" clip-rule="evenodd" d="M123.087 69.6038C123.087 69.6038 113.745 69.672 109.262 64.1401C107.747 62.2746 104.236 44.8387 104.258 35.3627C104.287 27.2301 106.824 7.41857 110.886 0C110.428 8.93915 109.612 25.5948 111.058 35.8793C113.165 50.8447 118.715 63.2503 123.087 69.6038Z" fill="#8CC140"/>
</svg>
