<svg width="607" height="440" viewBox="0 0 607 440" fill="none" xmlns="http://www.w3.org/2000/svg">
<path fill-rule="evenodd" clip-rule="evenodd" d="M300.684 0.848C299.907 2.105 301.3 122 302.091 122C302.908 122 304.09 66.316 304.09 27.837C304.09 4.266 303.869 0 302.649 0C301.856 0 300.972 0.382 300.684 0.848ZM281.678 1.857C281.387 2.328 282.485 16.391 284.118 33.107C285.751 49.823 287.088 64.063 287.089 64.75C287.089 65.438 287.827 66 288.728 66C290.155 66 290.282 65.064 289.714 58.75C289.187 52.889 285.111 2.154 285.095 1.25C285.082 0.585 282.142 1.108 281.678 1.857ZM319.614 2.25C319.244 3.369 316.963 30.222 315.557 50C315.264 54.125 314.786 59.413 314.496 61.75C314.08 65.096 314.287 66 315.467 66C317.278 66 317.353 65.502 320.608 31.801C323.551 1.332 323.561 1 321.559 1C320.716 1 319.841 1.563 319.614 2.25ZM262.76 3.725C262.212 4.611 283.705 121.948 284.574 122.818C284.858 123.101 285.296 123.128 285.547 122.876C286.058 122.365 267.585 9.884 266.366 6.082C265.555 3.554 263.64 2.302 262.76 3.725ZM338.501 4.372C337.04 8.179 318.552 123.013 319.448 122.714C320.631 122.32 342.382 6.202 341.637 4.261C340.995 2.588 339.16 2.653 338.501 4.372ZM244.498 8.378C244.019 9.626 259.28 67.724 260.739 70.206C261.565 71.612 263.956 69.814 263.352 68.241C263.016 67.364 259.291 53.363 255.076 37.127C250.861 20.891 246.889 7.433 246.251 7.22C245.613 7.008 244.824 7.529 244.498 8.378ZM357.36 8.25C356.823 8.938 354.948 15.35 353.193 22.5C351.438 29.65 347.97 43.102 345.488 52.393C342.362 64.095 341.295 69.605 342.016 70.326C342.588 70.898 343.247 71.172 343.479 70.933C344.424 69.964 360.963 8.604 360.487 7.833C359.748 6.638 358.486 6.806 357.36 8.25ZM225.77 13.709C225.491 14.16 227.22 19.697 229.613 26.015C232.005 32.332 241.442 57.525 250.585 82C259.728 106.475 267.631 126.928 268.149 127.45C269.91 129.228 269.129 126.216 264.218 112.303C261.538 104.711 253.619 82.3 246.62 62.5C239.621 42.7 232.884 23.575 231.65 20C229.598 14.055 227.165 11.452 225.77 13.709ZM355.202 70.129C337.704 119.644 334.325 130.099 336.528 127.895C336.769 127.655 344.442 107.442 353.579 82.979C362.717 58.515 372.206 33.188 374.667 26.696C379.023 15.202 379.347 13 376.681 13C375.876 13 367.777 34.544 355.202 70.129ZM208.547 21.251C208.104 22.405 233.778 78.022 235.59 79.833C235.883 80.127 236.548 79.942 237.066 79.424C238.179 78.311 212.228 20.879 210.326 20.245C209.647 20.019 208.846 20.472 208.547 21.251ZM392.19 22.169C391.689 23.451 385.663 36.768 378.799 51.762C371.786 67.081 366.745 79.287 367.291 79.624C367.826 79.955 368.645 79.837 369.11 79.363C370.855 77.583 396.138 23.487 395.87 22.106C395.397 19.67 393.153 19.708 392.19 22.169ZM191.59 30C191.25 30.55 191.156 31.337 191.38 31.75C195.314 38.98 250.78 132.914 251.721 133.94C252.448 134.733 253.251 135.172 253.507 134.916C253.898 134.526 199.899 38.014 195.505 31.25C193.935 28.832 192.579 28.399 191.59 30ZM405.769 36.75C403.288 41.013 395.438 54.85 388.326 67.5C381.213 80.15 369.866 100.303 363.109 112.284C356.352 124.265 351.109 134.352 351.457 134.7C352.302 135.546 350.928 137.708 368.108 108.5C376.519 94.2 390.081 71.16 398.246 57.3C406.41 43.441 413.09 31.403 413.09 30.55C413.09 26.897 409.963 29.545 405.769 36.75ZM175.595 39.991C174.747 41.365 174.852 41.526 195.374 70.319C207.1 86.772 212.672 93.818 213.389 93.101C214.516 91.974 214.246 91.545 191.889 59.071C184.532 48.384 178.009 39.473 177.393 39.268C176.777 39.062 175.968 39.388 175.595 39.991ZM418.105 51.231C413.503 57.979 405.257 69.943 399.782 77.819C392.09 88.883 390.099 92.406 391.021 93.319C391.94 94.228 392.412 94.155 393.073 93C393.545 92.175 401.854 80.475 411.536 67C421.218 53.525 429.017 41.863 428.865 41.083C428.193 37.621 425.936 39.75 418.105 51.231ZM160.563 52.043C160.209 52.617 161.033 54.529 162.396 56.293C170.19 66.381 238.265 145 239.206 145C239.959 145 240.012 144.584 239.366 143.75C237.947 141.918 206.483 103.528 200.61 96.461C197.849 93.139 188.273 81.551 179.331 70.711C170.389 59.87 162.653 51 162.14 51C161.627 51 160.918 51.469 160.563 52.043ZM421.461 75.163C410.532 88.453 396.74 105.216 390.811 112.413C367.514 140.698 364.858 144.102 365.544 144.787C365.934 145.177 366.779 144.793 367.422 143.932C368.064 143.071 385.465 122.666 406.09 98.588C426.715 74.51 443.734 53.952 443.91 52.905C444.741 47.949 439.863 52.786 421.461 75.163ZM146.09 65.374C146.09 67.124 190.921 111.223 192.25 110.78C192.794 110.599 193.244 110.086 193.249 109.642C193.266 108.196 148.977 64 147.512 64C146.73 64 146.09 64.618 146.09 65.374ZM433.257 86.421C421.065 98.753 411.09 109.361 411.09 109.994C411.09 112.775 415.253 109.214 436.022 88.675C456.503 68.42 460.217 64 456.757 64C456.023 64 445.448 74.089 433.257 86.421ZM133.757 78.667C132.464 79.959 133.163 80.791 140.84 87.09C145.102 90.587 154.89 98.662 162.59 105.034C197.247 133.713 221.462 153.649 223.726 155.368C226.387 157.39 228.459 156.786 225.883 154.74C225.024 154.058 204.499 136.512 180.272 115.75C156.044 94.987 135.817 78 135.322 78C134.828 78 134.123 78.3 133.757 78.667ZM422.577 117.088C397.472 138.586 377.179 156.422 377.48 156.723C378.333 157.576 379.881 156.348 426.585 117.758C450.783 97.765 470.728 80.64 470.909 79.703C471.101 78.707 470.611 78 469.729 78C468.899 78 447.681 95.59 422.577 117.088ZM121.606 93.973C120.862 95.178 122.14 96.261 134.311 104.733C167.756 128.014 174.294 132.196 175.434 131.044C176.31 130.159 176.226 129.666 175.09 129.012C174.265 128.537 162.565 120.252 149.09 110.601C135.615 100.95 124.054 93.041 123.399 93.027C122.744 93.012 121.937 93.438 121.606 93.973ZM453.788 111.699C436.838 123.916 428.324 130.634 428.971 131.281C430.033 132.343 429.582 132.629 462.89 109.745C481.521 96.944 484.929 93.851 481.007 93.302C480.228 93.193 467.979 101.472 453.788 111.699ZM111.536 110.087C111.167 110.685 111.253 111.549 111.727 112.007C112.474 112.727 172.562 146.925 205.84 165.569C212.027 169.036 217.074 171.338 217.054 170.686C217.034 170.034 211.521 166.316 204.804 162.425C198.086 158.534 183.701 150.098 172.837 143.68C126.418 116.255 113.92 109 113.089 109C112.604 109 111.906 109.489 111.536 110.087ZM477.09 116.714C462.098 125.777 451.831 131.861 417.59 151.976C385.525 170.812 386.392 170.267 387.746 170.719C388.815 171.075 393.337 168.61 438.59 143.002C449.59 136.777 466.235 127.368 475.578 122.092C485.984 116.217 492.696 111.822 492.901 110.75C493.505 107.601 489.941 108.945 477.09 116.714ZM102.715 126.798C102.444 127.237 102.53 128.052 102.906 128.611C103.414 129.364 152.171 152.166 160.84 155.704C161.542 155.99 162.09 155.488 162.09 154.559C162.09 153.437 158.781 151.355 151.84 148.108C146.203 145.47 133.48 139.417 123.568 134.656C105.594 126.023 103.647 125.289 102.715 126.798ZM480.559 134.772C470.642 139.572 457.929 145.693 452.309 148.373C442.786 152.915 440.954 154.254 442.84 155.296C443.253 155.524 456.64 149.789 472.59 142.551C499.645 130.275 505.039 127.084 500.09 126.285C499.265 126.152 490.476 129.971 480.559 134.772ZM96.014 144.047C93.514 145.593 96.768 147.415 111.09 152.492C118.515 155.124 137.64 161.887 153.59 167.522C169.54 173.156 188.578 179.893 195.896 182.493C203.215 185.093 209.477 186.946 209.813 186.61C210.149 186.275 210.236 185.838 210.007 185.639C209.777 185.441 186.415 176.608 158.09 166.012C129.765 155.415 104.531 145.94 102.014 144.956C99.117 143.823 96.916 143.49 96.014 144.047ZM450.59 164.299C419.79 175.89 394.403 185.514 394.173 185.687C393.944 185.859 394.041 186.285 394.39 186.633C394.738 186.981 402.125 184.767 410.806 181.712C426.746 176.103 501.209 149.676 506.391 147.789C509.071 146.813 509.862 143.946 507.59 143.445C507.04 143.324 481.39 152.708 450.59 164.299ZM89.66 162.887C89.359 163.374 89.67 164.206 90.351 164.734C91.548 165.663 149.626 181 151.945 181C152.575 181 153.09 180.401 153.09 179.668C153.09 178.932 151.192 177.873 148.84 177.298C146.502 176.726 133.083 173.05 119.02 169.129C92.825 161.826 90.607 161.354 89.66 162.887ZM481.877 169.976C449.263 179.134 450.43 178.74 451.817 180.127C452.567 180.877 460.493 179.229 478.735 174.532C514.8 165.246 515.09 165.158 515.09 163.472C515.09 161.004 510.92 161.82 481.877 169.976ZM18.773 174.089C13.102 175.437 6.499 180.448 3.363 185.782L0.59 190.5L0.295 228.25L0 266H8.045H16.09V245.5V225H37.59H59.09V218.5V212H37.59H16.09V203.904C16.09 198.069 16.566 195.002 17.796 192.92C20.922 187.628 23.864 187 45.537 187H65.181L64.886 180.25L64.59 173.5L43.59 173.341C32.04 173.253 20.872 173.59 18.773 174.089ZM293.497 174.031C278.716 176.961 270.071 186.355 270.106 199.446C270.14 211.864 276.581 218.006 294.728 222.926C301.252 224.695 308.937 226.794 311.805 227.589C319.425 229.703 322.241 232.517 322.826 238.604C323.247 242.984 322.963 243.997 320.494 246.931C316.667 251.48 312.477 253.004 303.872 252.978C295.312 252.952 289.829 250.855 285.798 246.065C283.263 243.053 282.62 241.488 281.865 236.5C281.594 234.705 280.795 234.5 274.076 234.5H266.59L266.85 237.5C267.8 248.445 273.057 256.382 282.406 260.984C291.136 265.282 300.807 266.714 310.709 265.174C318.54 263.957 326.785 260.498 330.972 256.675C337.514 250.703 340.076 236.957 336.224 228.5C333.614 222.77 327.189 217.365 320.881 215.595C317.971 214.779 310.19 212.656 303.59 210.877C293.758 208.228 291.003 207.061 288.34 204.422C284.689 200.803 284.109 196.798 286.552 192.074C289.547 186.282 303.217 184.059 311.819 187.964C316.307 190.001 320.08 194.924 320.086 198.75C320.09 200.896 320.461 201 328.09 201C337.073 201 336.925 201.173 334.613 193.388C330.31 178.899 312.125 170.337 293.497 174.031ZM562.313 174.062C550.995 176.293 543.088 183.973 542.298 193.506C541.437 203.887 544.3 210.008 551.822 213.867L555.311 215.657L549.829 218.339C541.994 222.172 538.76 227.156 538.25 236.18C537.771 244.657 539.657 250.218 544.813 255.527C559.382 270.528 592.861 268.192 602.647 251.492C610.909 237.395 606.025 222.128 591.59 216.922L588.59 215.84L591.59 214.298C599.153 210.412 602.428 205.054 602.351 196.69C602.194 179.388 584.894 169.612 562.313 174.062ZM85.572 181.029C85.183 181.659 85.299 182.609 85.831 183.141C86.362 183.672 113.526 188.575 146.194 194.036C215.519 205.624 206.09 204.195 206.09 203.109C206.09 202.619 202.377 201.519 197.84 200.666C193.303 199.812 167.54 195.031 140.59 190.041C113.64 185.051 90.395 180.724 88.935 180.426C87.444 180.121 85.97 180.385 85.572 181.029ZM479.09 187.041C400.205 201.77 397.983 202.226 399.208 203.451C399.935 204.179 517.355 184.135 518.382 183.108C519.514 181.976 518.434 179.956 516.781 180.113C516.126 180.175 499.165 183.293 479.09 187.041ZM562.457 187.918C556.467 191.57 554.502 197.421 557.244 203.438C559.985 209.454 573.266 211.919 581.878 208.01C590.727 203.994 591.121 193.112 582.59 188.293C577.292 185.3 567.063 185.109 562.457 187.918ZM83.435 200.543C83.109 201.392 83.034 202.277 83.267 202.511C83.584 202.828 144.087 208 147.48 208C147.816 208 148.09 207.325 148.09 206.5C148.09 205.675 147.671 205 147.159 205C146.647 205 132.366 203.65 115.424 202C98.482 200.35 84.487 199 84.324 199C84.161 199 83.761 199.694 83.435 200.543ZM488.09 202.054C472.965 203.594 459.578 204.887 458.34 204.927C456.347 204.992 454.876 208.003 456.84 207.998C463.496 207.98 520.759 202.731 521.411 202.079C522.885 200.605 521.174 198.991 518.281 199.126C516.801 199.196 503.215 200.513 488.09 202.054ZM82.656 218.893C80.6 222.219 82.747 222.314 143.477 221.587C176.521 221.191 203.752 220.672 203.99 220.433C204.228 220.195 204.236 219.828 204.007 219.619C203.777 219.409 176.534 218.911 143.465 218.512C99.876 217.986 83.152 218.09 82.656 218.893ZM432.34 218.75C414.602 218.903 400.09 219.398 400.09 219.851C400.09 220.707 459.687 221.996 499.34 221.999C521.424 222 522.09 221.941 522.09 220C522.09 217.778 530.844 217.9 432.34 218.75ZM562.634 224.589C549.331 229.46 548.662 245.268 561.511 251.104C566.969 253.582 577.227 253.585 582.59 251.11C589.438 247.95 591.59 244.777 591.59 237.843C591.59 232.219 591.363 231.638 587.934 228.496C582.022 223.078 571.289 221.42 562.634 224.589ZM114.59 234.61C98.64 235.915 85.028 237.198 84.34 237.46C82.614 238.119 82.762 241 84.521 241C85.308 241 99.814 239.65 116.756 238C133.698 236.35 147.679 235 147.825 235C147.971 235 148.09 234.325 148.09 233.5C148.09 231.723 151.061 231.624 114.59 234.61ZM456.09 233.299C456.09 235.016 456.355 235.053 492.966 238.541C512.476 240.399 520.65 240.84 521.416 240.074C522.094 239.396 522.14 238.653 521.54 238.059C521.018 237.542 508.44 236.196 493.59 235.069C478.74 233.942 464.227 232.758 461.34 232.438C457.163 231.975 456.09 232.151 456.09 233.299ZM145.59 246.185C113.14 251.649 86.162 256.543 85.64 257.06C85.04 257.653 85.078 258.388 85.742 259.052C86.478 259.788 99.978 257.675 130.692 252.016C180.979 242.751 205.364 238.06 205.87 237.553C207.395 236.029 197.416 237.458 145.59 246.185ZM399.09 236.962C399.09 238.123 398.725 238.035 419.59 241.948C515.782 259.99 522.5 261.01 518.446 256.956C517.872 256.382 491.795 251.665 460.496 246.473C429.198 241.281 402.578 236.792 401.34 236.498C400.102 236.203 399.09 236.412 399.09 236.962ZM152.821 272.866C122.148 283.741 96.52 293.17 95.871 293.819C95.057 294.633 95.012 295.322 95.724 296.034C96.437 296.747 114.389 290.465 153.424 275.842C201.561 257.809 213.947 252.76 209.34 253.047C208.928 253.072 183.494 261.991 152.821 272.866ZM394.097 253.75C394.105 254.537 504.518 296.228 507.052 296.401C507.856 296.455 508.664 295.774 508.849 294.887C509.208 293.16 509.946 293.445 456.09 274.463C441.515 269.326 421.94 262.397 412.59 259.065C394.862 252.748 394.085 252.525 394.097 253.75ZM141.09 261.546C136.415 262.867 123.365 266.28 112.09 269.13C91.291 274.386 87.821 275.75 90.29 277.697C91.214 278.426 96.074 277.471 107.09 274.397C115.615 272.018 129.453 268.154 137.84 265.811C147.308 263.166 153.09 261.067 153.09 260.275C153.09 258.527 150.976 258.751 141.09 261.546ZM451.633 259.931C450.798 261.282 450.916 261.325 470.59 266.849C508.339 277.447 512.763 278.609 513.91 278.227C515.703 277.629 515.319 275.202 513.34 274.621C509.235 273.416 453.388 259 452.826 259C452.486 259 451.949 259.419 451.633 259.931ZM163.617 298.42C135.032 314.599 111.482 328.323 111.284 328.918C109.968 332.867 117.611 329.001 156.77 305.912C180.321 292.026 203.522 278.377 208.327 275.582C216.117 271.05 218.618 268.997 216.34 269.002C215.928 269.003 192.202 282.241 163.617 298.42ZM388.126 270.373C388.931 271.128 400.165 277.952 413.09 285.538C426.015 293.124 448.651 306.456 463.391 315.165C478.132 323.874 490.878 331 491.715 331C495.926 331 491.271 326.961 479.043 320.007C464.04 311.473 424.214 288.958 402.676 276.833C389.4 269.359 384.925 267.372 388.126 270.373ZM188.984 313.285C168.85 329.903 148.038 347.065 142.734 351.421C133.444 359.051 130.887 362.502 135.029 361.82C137.011 361.493 227.082 285.109 227.087 283.75C227.089 283.337 226.752 283.016 226.34 283.035C225.928 283.055 209.117 296.667 188.984 313.285ZM377.156 283.75C377.269 285.038 467.128 361.197 469.163 361.729C475.132 363.29 467.06 355.814 428.84 324.383C405.602 305.274 384.901 288.145 382.837 286.319C379.252 283.148 377.014 282.136 377.156 283.75ZM156.09 286.454C153.615 287.712 140.925 293.564 127.889 299.459C104.049 310.24 100.341 312.391 103.506 313.606C105.099 314.217 160.617 288.574 161.781 286.69C163.133 284.503 160.172 284.38 156.09 286.454ZM442.638 284.785C441.215 286.209 442.755 287.375 451.34 291.377C456.427 293.748 469.186 299.808 479.693 304.844C499.113 314.152 502.498 315.301 501.913 312.388C501.723 311.441 497.259 308.809 491.09 306.006C485.315 303.382 472.174 297.411 461.888 292.736C451.602 288.062 442.939 284.484 442.638 284.785ZM199.146 340.677C177.665 365.8 160.09 386.95 160.09 387.677C160.09 391.002 164.145 388.213 170.234 380.699C173.888 376.189 190.791 355.606 207.796 334.958C240.941 294.713 240.715 295 239.205 295C238.653 295 220.626 315.555 199.146 340.677ZM365.091 295.667C365.093 296.383 380.875 315.742 430.786 376.25C440.608 388.158 444.09 391.106 444.09 387.514C444.09 386.069 367.769 295.832 365.984 295.167C365.492 294.983 365.091 295.208 365.091 295.667ZM244.99 317.25C241.043 323.988 235.255 333.775 232.127 339C204.733 384.76 190.899 409.209 191.858 410.168C192.44 410.75 193.393 410.931 193.977 410.57C194.561 410.209 201.201 399.021 208.733 385.707C216.265 372.393 227.906 351.825 234.602 340C253.125 307.289 254.343 305 253.214 305C252.638 305 248.937 310.512 244.99 317.25ZM351.544 306.75C352.233 308.553 361.142 324.485 391.943 379C408.322 407.988 413.09 414.863 413.09 409.491C413.09 408.58 408.91 400.784 403.801 392.167C398.693 383.55 385.08 360.429 373.551 340.788C362.023 321.146 352.204 305.058 351.733 305.038C351.262 305.017 351.177 305.788 351.544 306.75ZM149.09 325.107C120.129 345.134 120.52 344.83 121.944 346.254C122.641 346.951 123.697 347.009 124.917 346.417C129.231 344.326 175.971 310.424 175.729 309.563C175.584 309.047 175.043 308.521 174.528 308.395C174.012 308.268 162.565 315.789 149.09 325.107ZM428.509 309.132C428.124 309.754 428.502 310.651 429.348 311.124C430.194 311.598 441.982 319.902 455.544 329.578C477.975 345.582 483.09 348.472 483.09 345.143C483.09 344.291 430.98 308 429.757 308C429.455 308 428.893 308.509 428.509 309.132ZM267.223 314C265.214 318.448 226.12 423.234 225.851 424.894C225.689 425.893 226.303 426.5 227.477 426.5C229.054 426.5 231.386 420.768 241.712 391.5C248.504 372.25 257.473 346.916 261.643 335.203C265.813 323.49 269.029 313.365 268.789 312.703C268.547 312.036 267.849 312.614 267.223 314ZM335.09 312.542C335.09 313.163 336.077 315.982 358.512 379.425C367.639 405.234 375.308 426.552 375.555 426.798C376.464 427.707 379.282 425.942 378.84 424.742C360.476 374.925 336.513 312 335.907 312C335.457 312 335.09 312.244 335.09 312.542ZM284.09 317.367C284.09 317.978 263.131 431.325 262.566 433.772C262.072 435.907 264.356 438.067 265.693 436.73C266.053 436.37 285.855 320.269 286.072 317.25C286.082 317.113 285.64 317 285.09 317C284.54 317 284.09 317.165 284.09 317.367ZM328.294 376.214C333.731 408.816 338.61 435.92 339.135 436.445C339.742 437.052 340.48 437.01 341.16 436.33C342.449 435.041 321.053 317.821 319.43 317.28C318.868 317.093 322.856 343.613 328.294 376.214ZM300.852 360C300.396 440.815 300.37 439.43 302.34 439.81C303.973 440.124 304.09 438.279 304.09 412.237C304.09 370.637 302.883 318 301.928 318C301.467 318 300.983 336.9 300.852 360ZM168.825 351.078C156.321 363.227 146.09 373.804 146.09 374.583C146.09 375.362 146.832 376 147.739 376C149.304 376 192.538 332.575 193.014 330.525C193.735 327.416 189.314 331.173 168.825 351.078ZM411.52 330.113C410.745 331.367 454.819 376 456.832 376C457.524 376 458.09 375.434 458.09 374.742C458.09 373.467 414.15 329 412.891 329C412.515 329 411.899 329.501 411.52 330.113ZM194.128 371.501C184.077 385.575 175.794 397.857 175.721 398.795C175.39 403.101 179.229 399.532 186.799 388.5C212.34 351.274 214.459 347.969 213.442 346.952C212.724 346.234 206.768 353.804 194.128 371.501ZM390.579 347.018C389.759 348.345 426.105 401.162 427.515 400.692C428.106 400.495 428.59 399.6 428.59 398.703C428.59 397.026 393.139 346.159 391.899 346.057C391.519 346.026 390.925 346.458 390.579 347.018ZM221.714 388.695C209.073 415.194 207.003 420.847 210.341 419.759C211.821 419.276 238.188 361.968 237.467 360.801C237.195 360.36 236.619 360 236.188 360C235.756 360 229.243 372.913 221.714 388.695ZM366.881 360.543C365.884 361.54 392.923 419.485 394.543 419.823C397.467 420.435 396.125 416.361 387.481 398.394C382.747 388.552 376.695 375.887 374.034 370.25C369.56 360.771 368.326 359.097 366.881 360.543ZM260.732 369.794C260.5 370.182 256.581 384.124 252.025 400.775C245.678 423.967 244.015 431.325 244.915 432.225C245.649 432.959 246.412 433.044 246.948 432.45C247.42 431.927 250.564 420.7 253.935 407.5C257.306 394.3 260.903 380.485 261.929 376.8C263.431 371.405 263.537 370.002 262.474 369.594C261.748 369.315 260.964 369.405 260.732 369.794ZM341.625 369.943C341.305 370.461 344.239 383.174 348.145 398.193C352.052 413.212 355.68 427.188 356.208 429.25C357.094 432.714 359.244 434.178 360.488 432.166C360.771 431.707 357.626 419.219 353.498 404.416C349.37 389.612 345.471 375.587 344.834 373.25C343.69 369.056 342.764 368.101 341.625 369.943ZM287.09 375.265C287.09 375.961 285.74 390.392 284.09 407.334C282.44 424.276 281.09 438.332 281.09 438.569C281.09 439.014 285.086 439.195 285.095 438.75C285.111 437.846 289.187 387.111 289.714 381.25C290.282 374.936 290.155 374 288.728 374C287.827 374 287.09 374.569 287.09 375.265ZM314.751 374.75C314.356 375.399 315.112 385.97 318.657 429.337C319.158 435.463 319.808 438.338 320.778 438.71C321.547 439.006 322.445 438.978 322.775 438.649C323.333 438.09 318.656 384.403 317.426 377.25C316.896 374.169 315.755 373.102 314.751 374.75Z" fill="black"/>
</svg>
