<svg width="207" height="120" viewBox="0 0 207 120" fill="none" xmlns="http://www.w3.org/2000/svg">
<path fill-rule="evenodd" clip-rule="evenodd" d="M47.0839 17.1976C41.9049 26.6412 29.6229 48.8491 19.7899 66.549C9.9569 84.25 1.6509 99.4118 1.3309 100.243C0.838902 101.52 1.8149 101.709 7.6239 101.457L14.4999 101.159L24.9999 82.1017C35.9349 62.2544 41.1399 54.6949 48.5709 47.8662C56.2749 40.7872 62.9999 38.932 62.9999 43.8855C62.9999 45.0419 58.3029 54.3909 52.5629 64.6609C40.6869 85.9048 39.0539 90.4925 41.3849 96.0542C42.9949 99.8953 47.5539 102.655 52.2899 102.655C56.4929 102.655 63.3819 99.7338 68.7699 95.6664C71.6689 93.4792 74.2209 91.6888 74.4409 91.6888C74.6609 91.6888 75.1359 93.0296 75.4969 94.6675C76.3069 98.3431 80.0369 101.388 84.8289 102.284C89.6489 103.185 97.0079 100.569 103.707 95.5727C106.571 93.4364 109.123 91.6888 109.378 91.6888C109.633 91.6888 110.125 92.9778 110.472 94.5539C111.823 100.683 118.969 103.813 126.806 101.71C129.075 101.101 133.931 98.5973 137.598 96.146C141.265 93.6946 144.43 91.6888 144.632 91.6888C144.835 91.6888 145 92.5791 145 93.6667C145 94.7553 146.314 97.11 147.92 98.9004C150.596 101.884 151.327 102.153 156.67 102.116C161.155 102.086 163.714 101.416 167.763 99.2094C173.793 95.9246 182.882 88.0073 189.037 80.6791L193.263 75.6477L190.975 73.2203L188.688 70.7928L180.594 79.423C169.036 91.7466 161.308 96.1609 158.08 92.284C156.517 90.4068 156.716 89.9891 174.443 57.9149L189.385 30.878H195.094C200.558 30.878 200.891 30.7285 202.867 27.3889L204.933 23.8997H199.466C196.46 23.8997 194 23.5757 194 23.18C194 22.7832 196.7 17.6532 200 11.7784C203.3 5.90371 206 0.824515 206 0.490554C206 0.156593 203.011 0.0160305 199.358 0.177528L192.716 0.47261L186.193 12.1862L179.67 23.8997H173.433C167.487 23.8997 167.1 24.0503 165.133 27.1396L163.071 30.3796L169.035 30.6766C172.316 30.8391 175 31.2658 175 31.6237C175 31.9816 170.206 40.9148 164.347 51.4749C153.398 71.2095 147.302 79.3402 136.682 88.3781C131.427 92.8502 128.592 94.1312 125.329 93.5112C121.153 92.7176 122.327 89.3022 134.006 68.2617C147.859 43.3053 154 32.0005 154 31.4532C154 31.0864 151.015 30.9199 147.366 31.0814L140.732 31.3765L129.929 50.7522C118.077 72.011 110.243 82.3349 100.586 89.4219C96.0699 92.7366 93.9069 93.7105 91.5719 93.4832C86.7289 93.0117 87.0899 89.9413 93.2869 78.9265C103.837 60.1739 119 32.2458 119 31.5659C119 31.188 116.111 30.878 112.58 30.878H106.161L94.5069 51.7999C83.9419 70.7669 82.0439 73.5493 74.1769 81.5882C69.4049 86.4651 64.0079 91.2083 62.1839 92.1285C57.8809 94.2997 53.5919 93.8501 53.2249 91.1904C53.0739 90.0938 58.3259 79.3632 64.8959 67.3446C71.4659 55.326 77.1179 44.0221 77.4559 42.2257C77.8279 40.2469 77.4839 37.5592 76.5839 35.4099C73.3129 27.6062 61.7659 28.2023 52.7599 36.6391C51.2539 38.0517 49.8239 39.0097 49.5829 38.7695C49.3419 38.5302 53.8379 29.8572 59.5729 19.4964C65.3079 9.13566 69.9999 0.505508 69.9999 0.317094C69.9999 0.12868 66.9629 -0.0138765 63.2499 0.00107698L56.4999 0.0289901L47.0839 17.1976ZM116.073 9.57928C109.871 17.4388 119.366 27.2722 127.116 21.0157C130.422 18.347 130.422 11.5083 127.116 8.83958C123.644 6.0363 118.602 6.37425 116.073 9.57928ZM151.039 9.13466C148.317 12.0466 148.297 18.2144 151 20.909C152.238 22.1432 154.333 22.9028 156.5 22.9028C161.303 22.9028 164 20.0347 164 14.9276C164 9.83747 161.301 6.95245 156.539 6.95245C154.266 6.95245 152.378 7.70112 151.039 9.13466ZM194.455 89.1517C192.907 90.6939 192 92.7376 192 94.6795C192 98.5066 195.9 102.655 199.5 102.655C203.1 102.655 207 98.5066 207 94.6795C207 90.8524 203.1 86.7043 199.5 86.7043C198.075 86.7043 195.805 87.8059 194.455 89.1517Z" fill="black" fill-opacity="0.8"/>
<path d="M151.005 111.689C150.955 111.224 150.745 110.861 150.376 110.602C150.01 110.343 149.535 110.213 148.949 110.213C148.537 110.213 148.183 110.275 147.889 110.4C147.594 110.524 147.368 110.693 147.212 110.906C147.056 111.119 146.976 111.362 146.972 111.635C146.972 111.863 147.024 112.06 147.127 112.227C147.233 112.394 147.377 112.536 147.558 112.653C147.739 112.766 147.94 112.862 148.16 112.94C148.38 113.019 148.602 113.084 148.826 113.138L149.849 113.393C150.261 113.489 150.657 113.619 151.037 113.782C151.42 113.945 151.763 114.151 152.065 114.4C152.37 114.649 152.612 114.949 152.789 115.3C152.967 115.652 153.055 116.064 153.055 116.536C153.055 117.175 152.892 117.738 152.565 118.225C152.239 118.708 151.766 119.086 151.149 119.359C150.534 119.629 149.79 119.764 148.917 119.764C148.068 119.764 147.331 119.633 146.706 119.37C146.085 119.107 145.598 118.724 145.247 118.219C144.899 117.715 144.71 117.101 144.682 116.376H146.626C146.655 116.756 146.772 117.072 146.978 117.324C147.184 117.577 147.452 117.765 147.782 117.889C148.116 118.013 148.489 118.075 148.901 118.075C149.33 118.075 149.707 118.012 150.03 117.884C150.357 117.752 150.612 117.571 150.797 117.34C150.982 117.106 151.076 116.833 151.079 116.52C151.076 116.236 150.992 116.002 150.829 115.817C150.666 115.629 150.437 115.472 150.142 115.348C149.851 115.22 149.51 115.107 149.119 115.007L147.878 114.688C146.979 114.457 146.269 114.107 145.747 113.638C145.229 113.166 144.97 112.539 144.97 111.758C144.97 111.115 145.144 110.552 145.492 110.069C145.843 109.586 146.321 109.212 146.924 108.945C147.528 108.676 148.212 108.541 148.975 108.541C149.749 108.541 150.428 108.676 151.01 108.945C151.596 109.212 152.056 109.583 152.39 110.059C152.723 110.531 152.896 111.074 152.906 111.689H151.005Z" fill="black" fill-opacity="0.8"/>
<path d="M154.188 110.346V108.69H162.892V110.346H159.52V119.599H157.56V110.346H154.188Z" fill="black" fill-opacity="0.8"/>
<path d="M164.502 119.599H162.393L166.233 108.69H168.673L172.519 119.599H170.409L167.496 110.927H167.411L164.502 119.599ZM164.571 115.322H170.324V116.909H164.571V115.322Z" fill="black" fill-opacity="0.8"/>
<path d="M172.008 110.346V108.69H180.712V110.346H177.34V119.599H175.38V110.346H172.008Z" fill="black" fill-opacity="0.8"/>
<path d="M184.216 108.69V119.599H182.24V108.69H184.216Z" fill="black" fill-opacity="0.8"/>
<path d="M195.954 114.144C195.954 115.32 195.734 116.327 195.293 117.165C194.857 117.999 194.26 118.638 193.504 119.082C192.751 119.526 191.897 119.748 190.941 119.748C189.986 119.748 189.13 119.526 188.374 119.082C187.621 118.635 187.024 117.994 186.584 117.159C186.147 116.321 185.929 115.316 185.929 114.144C185.929 112.969 186.147 111.964 186.584 111.129C187.024 110.291 187.621 109.65 188.374 109.206C189.13 108.763 189.986 108.541 190.941 108.541C191.897 108.541 192.751 108.763 193.504 109.206C194.26 109.65 194.857 110.291 195.293 111.129C195.734 111.964 195.954 112.969 195.954 114.144ZM193.967 114.144C193.967 113.317 193.837 112.619 193.578 112.051C193.322 111.479 192.967 111.048 192.513 110.757C192.058 110.462 191.534 110.314 190.941 110.314C190.348 110.314 189.825 110.462 189.37 110.757C188.915 111.048 188.559 111.479 188.299 112.051C188.044 112.619 187.916 113.317 187.916 114.144C187.916 114.972 188.044 115.671 188.299 116.243C188.559 116.811 188.915 117.243 189.37 117.537C189.825 117.829 190.348 117.974 190.941 117.974C191.534 117.974 192.058 117.829 192.513 117.537C192.967 117.243 193.322 116.811 193.578 116.243C193.837 115.671 193.967 114.972 193.967 114.144Z" fill="black" fill-opacity="0.8"/>
<path d="M206.637 108.69V119.599H204.879L199.739 112.168H199.648V119.599H197.672V108.69H199.441L204.576 116.126H204.671V108.69H206.637Z" fill="black" fill-opacity="0.8"/>
<rect y="113.599" width="141" height="2" fill="black" fill-opacity="0.8"/>
</svg>
