<svg width="396" height="110" viewBox="0 0 396 110" fill="none" xmlns="http://www.w3.org/2000/svg">
<g clip-path="url(#clip0_1101_2)">
<path d="M31.822 63.692C49.3968 63.692 63.644 49.4341 63.644 31.846C63.644 14.2579 49.3968 0 31.822 0C14.2472 0 0 14.2579 0 31.846C0 49.4341 14.2472 63.692 31.822 63.692Z" fill="#FF5722"/>
<path d="M21.974 53.763C34.1099 53.763 43.948 43.9379 43.948 31.818C43.948 19.6982 34.1099 9.87305 21.974 9.87305C9.8381 9.87305 0 19.6982 0 31.818C0 43.9379 9.8381 53.763 21.974 53.763Z" fill="#FF9800"/>
<path d="M60.484 17.979C59.603 17.979 58.788 17.937 56.259 18.312C51.069 19.083 46.459 21.185 42.413 24.098C27.173 35.076 19.905 57.172 19.298 59.092C19.278 59.148 19.273 59.168 19.267 59.187C19.263 59.199 19.253 59.23 19.253 59.23C19.253 59.23 19.263 59.203 19.263 59.197C19.271 59.176 19.275 59.162 19.292 59.108C19.991 56.712 30.26 20.278 5.59501 18.05C4.82401 17.977 4.02501 17.939 3.18301 17.937C1.14801 22.131 0.00400758 26.839 7.58189e-06 31.815C-0.0119924 49.404 14.222 63.677 31.8 63.691C49.372 63.705 63.633 49.457 63.645 31.865C63.648 26.892 62.513 22.182 60.484 17.979Z" fill="url(#paint0_linear_1101_2)"/>
<path d="M112.231 20.369L97.917 39.955H96.285L82.288 20.303V53.097H74V8H83.541L97.29 27.391L111.038 8H120.516V53.098H112.231V20.369Z" fill="#ffffff"/>
<path d="M153.639 21.1612H161.178V52.9232H153.768L153.381 48.2882C151.578 52.0222 146.616 53.8292 143.073 53.8922C133.668 53.9562 126.538 48.6472 126.538 37.5032C126.538 26.5472 133.989 20.3222 143.266 20.3882C147.518 20.3882 151.579 22.3872 153.381 25.5452L153.639 21.1612ZM134.4 37.5032C134.4 43.5602 138.755 46.6762 143.973 46.6762C156.343 46.6762 156.343 27.4122 143.973 27.4122C138.756 27.4122 134.4 31.4462 134.4 37.5032Z" fill="#ffffff"/>
<path d="M189.396 53.0141V36.3911C189.396 31.5631 187.372 27.6321 182.345 27.6321C177.514 27.6321 175.294 31.9461 175.294 36.7781V53.0131H166.834L166.861 20.5811H173.884L174.407 25.4151C177.63 22.2551 181.171 20.5811 185.164 20.5811C192.638 20.5811 197.854 26.1051 197.854 36.0921V53.0131H189.396V53.0141Z" fill="#ffffff"/>
<path d="M234.519 36.2359C234.519 27.7979 227.679 20.1309 218.474 20.1309C209.583 20.1309 202.368 26.3179 202.368 36.2359C202.368 46.1579 208.553 52.2159 218.474 52.2159C222.405 52.2159 226.529 54.2109 226.529 58.5919C226.529 62.9749 222.985 65.4219 218.474 65.4219C213.965 65.4219 210.547 62.7819 210.547 58.6529H202.086C202.086 67.2209 209.261 72.7619 218.474 72.7619C227.686 72.7619 234.387 67.3519 234.387 58.5909C234.387 54.5319 233.098 50.7309 227.817 48.0909C233.033 45.7089 234.519 40.1689 234.519 36.2359ZM218.474 45.0619C213.899 45.0619 210.163 41.7789 210.163 36.2369C210.163 30.6969 213.898 27.2819 218.474 27.2819C222.985 27.2819 226.721 30.7609 226.721 36.2369C226.721 41.7159 222.984 45.0619 218.474 45.0619Z" fill="#ffffff"/>
<path d="M269.771 36.0929C269.771 45.2419 264.107 53.0159 253.802 53.0159C243.492 53.0159 237.338 45.2429 237.338 36.0929C237.338 27.0109 243.62 19.9019 253.734 19.9019C263.852 19.9009 269.771 27.0109 269.771 36.0929ZM245.168 36.4579C245.168 41.2879 248.066 45.8039 253.803 45.8039C259.536 45.8039 262.434 41.2879 262.434 36.4579C262.434 31.6869 259.083 27.0539 253.803 27.0539C248.134 27.0539 245.168 31.6879 245.168 36.4579Z" fill="#ffffff"/>
<path d="M120.458 108.914V92.3728H142.95V84.581H120.458V72.3825H144.232V64.2714H112V108.914H120.458Z" fill="#FF5722"/>
<path d="M148.99 77.428V108.914H156.807V92.3089C156.807 86.4971 160.588 84.3256 164.689 84.3256C167.252 84.3256 168.726 85.0281 170.328 86.3693L173.852 79.5994C172.122 77.875 168.982 76.5977 165.714 76.5977C162.51 76.5977 159.242 77.1725 156.807 81.0684L156.231 77.428H148.99Z" fill="#FF5722"/>
<path d="M201.092 81.7709C199.298 78.6414 195.261 76.6616 191.032 76.6616C181.804 76.5977 174.563 82.2818 174.563 93.1392C174.563 104.188 181.484 109.936 190.839 109.872C194.364 109.808 199.298 108.02 201.092 104.316L201.477 108.914H208.846V77.428H201.348L201.092 81.7709ZM191.737 83.623C204.04 83.623 204.04 102.719 191.737 102.719C186.546 102.719 182.381 99.1427 182.381 93.1392C182.381 87.1357 186.546 83.623 191.737 83.623Z" fill="#FF5722"/>
<path d="M246.065 108.914V92.3728C246.065 82.4734 240.105 76.917 232.672 76.917C228.699 76.917 225.495 78.5137 222.291 81.6432L221.779 77.3641H214.794V108.914H222.548V92.8199C222.548 88.0299 225.816 84.0062 230.622 84.0062C235.62 84.0062 238.247 87.6467 238.247 92.4367V108.914H246.065Z" fill="#FF5722"/>
<path d="M274.153 99.7813C272.231 101.697 269.732 102.4 267.233 102.4C262.363 102.4 258.262 99.2065 258.262 93.2031C258.262 87.7105 262.107 83.8785 267.361 83.8785C269.54 83.8785 271.847 84.7088 273.705 86.3693L278.639 81.1961C275.179 77.8112 271.718 76.5338 267.233 76.5338C258.07 76.5338 250.444 82.0264 250.444 93.2031C250.444 104.38 258.07 109.872 267.233 109.872C271.911 109.872 275.755 108.467 279.408 104.891L274.153 99.7813Z" fill="#FF5722"/>
<path d="M282.36 64.2076V108.914H290.177V92.8199C290.177 88.0937 293.381 84.1978 297.995 84.1978C302.16 84.1978 305.172 86.6248 305.172 92.3728V108.914H312.989V92.3089C312.989 83.0482 309.017 76.9809 300.045 76.9809C296.457 76.9809 292.997 78.0666 290.177 81.707V64.2076H282.36Z" fill="#FF5722"/>
<path d="M326.93 77.3002V108.914H319.113V77.3002H326.93ZM318.408 68.5505C318.408 74.6178 327.635 74.6178 327.635 68.5505C327.635 62.4832 318.408 62.4832 318.408 68.5505Z" fill="#FF5722"/>
<path d="M358.516 80.6852C354.864 77.4918 351.147 76.5338 346.213 76.5338C340.446 76.5338 332.885 79.0885 332.885 86.3693C332.885 93.5224 339.997 95.6939 345.957 96.1409C350.442 96.3964 352.236 97.2905 352.236 99.462C352.236 101.761 349.481 103.294 346.533 103.23C343.009 103.166 337.883 101.314 335.64 98.8233L331.795 104.38C336.409 109.17 341.407 110 346.405 110C355.44 110 359.99 105.21 359.99 99.6536C359.99 91.2871 352.429 89.9459 346.469 89.5627C342.432 89.3072 340.574 88.1576 340.574 86.1138C340.574 84.134 342.625 82.9844 346.341 82.9844C349.353 82.9844 351.916 83.6869 354.159 85.7945L358.516 80.6852Z" fill="#FF5722"/>
<path d="M395.856 95.9493C397.073 82.9844 390.473 76.47 379.9 76.47C369.648 76.47 363.111 83.3676 363.111 92.9476C363.111 103.039 369.583 109.745 380.477 109.745C385.283 109.745 390.73 108.084 394.062 104.635L389.064 99.7175C387.269 101.57 383.489 102.655 380.605 102.655C375.094 102.655 371.698 99.8452 371.185 95.9493H395.856ZM371.314 89.4988C372.467 85.4113 375.927 83.3676 380.157 83.3676C384.642 83.3676 387.846 85.4113 388.359 89.4988H371.314Z" fill="#FF5722"/>
</g>
<defs>
<linearGradient id="paint0_linear_1101_2" x1="7.58189e-06" y1="40.8145" x2="63.6445" y2="40.8145" gradientUnits="userSpaceOnUse">
<stop stop-color="#8BC34A"/>
<stop offset="0.3929" stop-color="#79B041"/>
<stop offset="1" stop-color="#558B2F"/>
</linearGradient>
<clipPath id="clip0_1101_2">
<rect width="396" height="110" fill="white"/>
</clipPath>
</defs>
</svg>
