<?xml version="1.0" encoding="UTF-8"?> <svg xmlns="http://www.w3.org/2000/svg" width="201" height="58" viewBox="0 0 201 58" fill="none"><g clip-path="url(#clip0_221_77)"><path d="M16.2242 0H0V57.0937H10.5908V40.5547H16.2242C31.0964 40.5547 40.3353 32.8515 40.3353 20.164C40.3353 7.47655 31.0964 0 16.2242 0ZM15.7735 31.4922H10.5908V8.83592H15.7735C25.0123 8.83592 29.7444 12.914 29.7444 20.164C29.7444 27.414 25.0123 31.4922 15.7735 31.4922Z" fill="white"></path><path d="M76.8395 0H43.4897V9.74219H67.1501L76.8395 0Z" fill="white"></path><path d="M68.5023 17.6719L60.6155 25.6016C62.7496 25.6723 64.8198 26.3514 66.5848 27.5596C68.3498 28.7679 69.737 30.4555 70.5848 32.426C71.4325 34.3964 71.7059 36.5684 71.3731 38.6891C71.0403 40.8097 70.1151 42.7916 68.7051 44.4039C67.2951 46.0161 65.4585 47.1923 63.4092 47.7955C61.3599 48.3986 59.1824 48.4038 57.1303 47.8105C55.0782 47.2171 53.236 46.0497 51.8184 44.4442C50.4008 42.8387 49.4662 40.8612 49.1234 38.7422C49.1234 38.289 48.898 37.836 48.898 37.3828L41.0112 45.3125C42.9427 49.7615 46.3367 53.4076 50.6243 55.6393C54.9119 57.871 59.8324 58.5527 64.5605 57.5701C69.2886 56.5874 73.537 54.0001 76.5932 50.2422C79.6494 46.4842 81.3276 41.784 81.3464 36.9297C81.2597 32.8212 80.0039 28.8238 77.7275 25.4108C75.4512 21.9978 72.2497 19.3121 68.5023 17.6719Z" fill="white"></path><path d="M109.964 7.25007H102.979V17.672H105.683V14.2735H109.964C110.488 14.3333 111.019 14.2837 111.523 14.1278C112.027 13.9718 112.493 13.713 112.893 13.3673C113.478 12.5829 113.795 11.6289 113.795 10.6485C113.795 9.66808 113.478 8.71414 112.893 7.9298C112.039 7.33647 110.991 7.09333 109.964 7.25007ZM110.865 11.1017C110.865 11.5548 110.865 11.7813 110.64 12.0079C110.415 12.2345 110.189 12.2345 109.739 12.2345H105.908V9.5157H109.739C110.189 9.5157 110.64 9.51571 110.64 9.74227C110.64 9.96884 110.865 10.1954 110.865 10.6485V11.1017Z" fill="white"></path><path d="M127.09 12.4611C127.541 12.0079 127.54 11.3282 127.54 10.4219C127.583 9.96538 127.524 9.50514 127.368 9.07423C127.212 8.64332 126.963 8.25248 126.639 7.9298C126.274 7.60077 125.846 7.3505 125.381 7.19462C124.916 7.03874 124.423 6.9805 123.935 7.0235H116.95V17.4454H119.654V13.8204H122.808L124.836 17.4454H127.991L125.738 13.5939C126.414 13.3673 126.865 13.1407 127.09 12.4611ZM124.836 10.6485C124.836 11.1016 124.836 11.3282 124.611 11.5547C124.386 11.7813 124.16 11.7813 123.484 11.7813H119.654V9.28912H123.484C123.875 9.23002 124.273 9.31019 124.611 9.5157C124.836 9.74226 124.836 9.96881 124.836 10.4219V10.6485Z" fill="white"></path><path d="M140.835 15.4062H134.075V13.3672H139.258V11.3281H134.075V9.28906H140.61V7.25H131.146V17.6719H140.835V15.4062Z" fill="white"></path><path d="M147.144 14.2736H151.426C151.95 14.3335 152.481 14.2838 152.985 14.1279C153.489 13.9719 153.955 13.7131 154.355 13.3674C154.94 12.5831 155.257 11.6291 155.257 10.6486C155.257 9.6682 154.94 8.71426 154.355 7.92992C153.955 7.58425 153.489 7.3253 152.985 7.16936C152.481 7.01342 151.95 6.96379 151.426 7.02361H144.44V17.4455H147.144V14.2736ZM147.144 9.28924H150.975C151.426 9.28924 151.877 9.28925 151.877 9.51581C151.877 9.74238 152.102 9.96892 152.102 10.422V10.8752C152.102 11.3283 152.102 11.5549 151.877 11.7814C151.651 12.008 151.426 12.008 150.975 12.008H147.144V9.28924Z" fill="white"></path><path d="M161.116 7.25L156.609 17.6719H159.313L160.214 15.4063H165.397L166.298 17.6719H169.228L164.721 7.25H161.116ZM161.116 13.1406L162.918 9.06254L164.721 13.1406H161.116Z" fill="white"></path><path d="M175.312 14.0469H178.466L180.494 17.6719H183.649L181.396 13.8204C182.005 13.5773 182.547 13.1885 182.973 12.6875C183.424 12.2344 183.424 11.5547 183.424 10.6485C183.466 10.1919 183.407 9.73171 183.251 9.30079C183.095 8.86988 182.846 8.47898 182.522 8.15629C182.157 7.82726 181.729 7.57707 181.264 7.42118C180.799 7.2653 180.307 7.20706 179.818 7.25006H172.833V17.6719H175.537V14.0469H175.312ZM175.312 9.28911H179.142C179.533 9.23001 179.931 9.31018 180.269 9.51568C180.494 9.74225 180.494 9.96879 180.494 10.4219V10.6485C180.494 11.1016 180.494 11.3282 180.269 11.5547C180.044 11.7813 179.818 11.7813 179.142 11.7813H175.312V9.28911Z" fill="white"></path><path d="M196.268 15.4062H189.733V13.3672H194.69V11.3281H189.733V9.28906H196.268V7.25H186.804V17.6719H196.268V15.4062Z" fill="white"></path><path d="M109.964 23.7892H102.979V34.2111H105.683V31.0392H109.964C110.488 31.099 111.019 31.0495 111.523 30.8935C112.027 30.7376 112.493 30.4786 112.893 30.133C113.478 29.3486 113.795 28.3946 113.795 27.4142C113.795 26.4338 113.478 25.4798 112.893 24.6955C112.068 24.0283 111.02 23.7041 109.964 23.7892ZM110.865 27.4142C110.865 27.8673 110.865 28.0939 110.64 28.3205C110.415 28.5471 110.189 28.547 109.739 28.547H105.908V25.8283H109.739C110.189 25.8283 110.64 25.8283 110.64 26.0549C110.64 26.2814 110.865 26.508 110.865 26.9611V27.4142Z" fill="white"></path><path d="M127.09 29C127.541 28.5469 127.54 27.8672 127.54 26.961C127.583 26.5044 127.524 26.0441 127.368 25.6132C127.212 25.1823 126.963 24.7915 126.639 24.4688C126.274 24.1398 125.846 23.8896 125.381 23.7337C124.916 23.5778 124.423 23.5196 123.935 23.5626H116.95V33.9844H119.654V30.3594H122.808L124.836 33.9844H127.991L125.738 30.1329C126.027 30.0449 126.296 29.8993 126.528 29.7047C126.761 29.51 126.952 29.2704 127.09 29ZM124.836 27.1876C124.836 27.6407 124.836 27.8672 124.611 28.0938C124.386 28.3204 124.16 28.3204 123.484 28.3204H119.654V25.8282H123.484C123.875 25.7691 124.273 25.8493 124.611 26.0548C124.836 26.2813 124.836 26.5079 124.836 26.961V27.1876Z" fill="white"></path><path d="M140.835 31.9453H134.075V29.9062H139.258V27.6406H134.075V25.8281H140.61V23.7891H131.146V33.9844H140.835V31.9453Z" fill="white"></path><path d="M149.848 31.9453L146.468 23.7891H143.539L147.82 33.9844H151.651L156.158 23.7891H153.454L149.848 31.9453Z" fill="white"></path><path d="M168.552 25.8281V23.7891H159.087V33.9844H168.552V31.9453H161.791V29.9062H166.974V27.6406H161.791V25.8281H168.552Z" fill="white"></path><path d="M174.635 26.5078L179.593 33.9844H183.424V23.7891H180.72V31.2656L175.987 23.7891H172.157V33.9844H174.635V26.5078Z" fill="white"></path><path d="M190.635 33.9844H193.339V26.0547H197.62V23.7891H186.579V26.0547H190.635V33.9844Z" fill="white"></path><path d="M109.964 40.1017H102.979V50.5236H105.683V47.3518H109.964C110.488 47.4116 111.019 47.362 111.523 47.206C112.027 47.0501 112.493 46.7912 112.893 46.4455C113.478 45.6612 113.795 44.7072 113.795 43.7268C113.795 42.7463 113.478 41.7923 112.893 41.008C112.068 40.3408 111.02 40.0166 109.964 40.1017ZM110.865 43.9533C110.865 44.4065 110.865 44.633 110.64 44.8596C110.415 45.0861 110.189 45.0862 109.739 45.0862H105.908V42.3674H109.739C110.189 42.3674 110.64 42.3674 110.64 42.594C110.64 42.8205 110.865 43.0471 110.865 43.5002V43.9533Z" fill="white"></path><path d="M119.654 46.2187H124.836V44.1797H119.654V42.3672H126.188V40.1016H116.95V50.5234H126.414V48.4844H119.654V46.2187Z" fill="white"></path><path d="M140.159 45.5391C140.61 45.086 140.61 44.4063 140.61 43.5001C140.652 43.0435 140.593 42.5833 140.437 42.1524C140.281 41.7214 140.032 41.3305 139.708 41.0079C139.343 40.6788 138.915 40.4286 138.45 40.2727C137.985 40.1169 137.493 40.0586 137.004 40.1016H130.019V50.5235H132.723V46.8985H135.878L137.906 50.5235H141.061L138.807 46.6719C139.351 46.4238 139.818 46.0324 140.159 45.5391ZM137.906 43.7266C137.906 44.1798 137.906 44.4063 137.68 44.6329C137.455 44.8594 137.23 44.8594 136.554 44.8594H132.723V42.3672H136.554C136.944 42.3081 137.343 42.3883 137.68 42.5938C137.906 42.8204 137.906 43.0469 137.906 43.5001V43.7266Z" fill="white"></path><path d="M144.215 50.5234H147.145V46.6719H152.327V44.4062H147.145V42.5937H153.454V40.1016H144.215V50.5234Z" fill="white"></path><path d="M167.425 41.2342C166.841 40.7562 166.141 40.4434 165.397 40.3279C164.508 40.1402 163.6 40.0641 162.693 40.1013C161.785 40.0433 160.874 40.1197 159.989 40.3279C159.245 40.4434 158.545 40.7562 157.961 41.2342C157.456 41.7132 157.002 42.2448 156.609 42.8201C156.33 43.6221 156.178 44.463 156.158 45.3123C156.156 46.1637 156.309 47.0082 156.609 47.8045C156.701 48.1541 156.87 48.4784 157.104 48.753C157.338 49.0276 157.631 49.2455 157.961 49.3904C158.618 49.7345 159.295 50.0371 159.989 50.2967C160.877 50.4844 161.786 50.5605 162.693 50.5232C163.6 50.5813 164.512 50.5049 165.397 50.2967C166.141 50.1811 166.841 49.8683 167.425 49.3904C167.93 48.9114 168.384 48.3798 168.777 47.8045C169.379 46.1981 169.379 44.4265 168.777 42.8201C168.685 42.4705 168.516 42.1463 168.282 41.8716C168.047 41.597 167.755 41.3791 167.425 41.2342ZM166.298 45.992C166.298 47.1248 166.073 47.8045 165.397 48.031C164.557 48.4382 163.619 48.5955 162.693 48.4842C161.773 48.4829 160.86 48.3298 159.989 48.031C159.676 47.7982 159.429 47.4881 159.271 47.1308C159.113 46.7735 159.05 46.3812 159.088 45.992V44.8592C159.05 44.47 159.113 44.0777 159.271 43.7203C159.429 43.363 159.676 43.0529 159.989 42.8201C160.821 42.3739 161.75 42.1404 162.693 42.1404C163.636 42.1404 164.565 42.3739 165.397 42.8201C165.709 43.0529 165.957 43.363 166.115 43.7203C166.273 44.0777 166.336 44.47 166.298 44.8592V45.992Z" fill="white"></path><path d="M182.973 45.5391C183.424 45.086 183.424 44.4063 183.424 43.5001C183.466 43.0435 183.407 42.5833 183.251 42.1524C183.095 41.7214 182.846 41.3305 182.522 41.0079C182.157 40.6788 181.729 40.4286 181.264 40.2727C180.799 40.1169 180.307 40.0586 179.818 40.1016H172.833V50.5235H175.537V46.8985H178.692L180.72 50.5235H183.874L181.621 46.6719C182.165 46.4238 182.632 46.0324 182.973 45.5391ZM180.72 43.7266C180.72 44.1798 180.72 44.4063 180.494 44.6329C180.269 44.8594 180.044 44.8594 179.368 44.8594H175.537V42.3672H179.368C179.758 42.3081 180.157 42.3883 180.494 42.5938C180.72 42.8204 180.72 43.0469 180.72 43.5001V43.7266Z" fill="white"></path><path d="M196.493 40.1016L194.015 46.6719L191.311 40.1016H187.029V50.5234H189.733V42.3672L192.437 49.1641H195.367L198.071 42.3672V50.5234H201V40.1016H196.493Z" fill="white"></path></g><defs><clipPath id="clip0_221_77"><rect width="201" height="58" fill="white"></rect></clipPath></defs></svg> 