<svg width="220" height="63" viewBox="0 0 220 63" fill="none" xmlns="http://www.w3.org/2000/svg">
<path d="M62.208 20.2912V19.7032C62.9885 19.677 63.659 19.4827 64.2194 19.1152C64.7799 18.7477 65.2671 18.2857 65.6809 17.724C66.0947 17.1622 66.4404 16.5375 66.7232 15.855C67.0009 15.1725 67.2523 14.511 67.4723 13.8757H67.9856V19.1835H72.988V20.2807H67.9856V28.8225C67.9856 29.1375 68.0013 29.4525 68.038 29.757C68.0747 30.0615 68.148 30.3397 68.258 30.5812C68.368 30.8227 68.5252 31.0222 68.7347 31.1692C68.939 31.3162 69.2271 31.3897 69.5937 31.3897C70.3271 31.3897 70.9347 31.2322 71.4218 30.912C71.909 30.597 72.3961 30.1927 72.8832 29.7045L73.2132 30.072C72.7994 30.4395 72.3961 30.8122 72.0085 31.1902C71.6156 31.5682 71.2123 31.9095 70.7828 32.214C70.3585 32.5185 69.8923 32.7652 69.3947 32.949C68.8971 33.1327 68.3523 33.222 67.7709 33.222C66.7494 33.222 66.0528 32.9122 65.6861 32.2875C65.3194 31.6627 65.1361 30.9277 65.1361 30.072V20.2912H62.208Z" fill="#6D3800"/>
<path d="M92.2332 32.781C91.526 32.7337 90.7718 32.697 89.9703 32.6707C89.1689 32.6445 88.3518 32.634 87.5241 32.634C86.9637 32.634 86.4189 32.6445 85.9003 32.6707C85.3765 32.697 84.8684 32.7337 84.3865 32.781V32.34C85.167 32.193 85.7694 31.9935 86.1937 31.7362C86.618 31.479 86.8327 30.9487 86.8327 30.1455V24.2497C86.8327 23.0055 86.5708 22.0395 86.047 21.357C85.5232 20.6745 84.6799 20.3332 83.5065 20.3332C83.0927 20.3332 82.6684 20.3962 82.2284 20.517C81.7884 20.6377 81.3903 20.8057 81.0237 21.0105C80.657 21.2205 80.3532 21.4462 80.1122 21.6877C79.8713 21.9292 79.7456 22.1655 79.7456 22.3807V30.1402C79.7456 30.9435 79.976 31.479 80.437 31.731C80.8979 31.9882 81.5946 32.1877 82.5218 32.3347V32.7757C81.6941 32.7285 80.8718 32.6917 80.0546 32.6655C79.2375 32.6392 78.4151 32.6287 77.5875 32.6287C77.027 32.6287 76.4875 32.6392 75.9637 32.6655C75.4399 32.6917 74.9003 32.7285 74.3399 32.7757V32.34C75.1675 32.193 75.8013 31.9935 76.2413 31.7362C76.6813 31.479 76.9013 30.9487 76.9013 30.1455V11.4712C76.9013 10.5945 76.8594 9.9015 76.7756 9.40275C76.6918 8.904 76.5451 8.526 76.3356 8.26875C76.126 8.0115 75.8484 7.84875 75.4975 7.77525C75.1465 7.70175 74.7013 7.6545 74.167 7.62825V7.18725L79.756 6.56775V20.7375C80.416 20.223 81.1651 19.7347 82.0189 19.2727C82.8727 18.8107 83.6846 18.5797 84.4651 18.5797C85.146 18.5797 85.7956 18.6637 86.4189 18.837C87.0422 19.005 87.5922 19.2885 88.0794 19.677C88.5665 20.0655 88.9541 20.5905 89.2475 21.252C89.5408 21.9135 89.6875 22.7272 89.6875 23.7037V30.1455C89.6875 30.9487 89.9075 31.4842 90.3475 31.7362C90.7875 31.9935 91.4213 32.193 92.2489 32.34V32.781H92.2332Z" fill="#6D3800"/>
<path d="M97.3086 24.9428C97.3086 26.2133 97.471 27.2633 97.801 28.0928C98.131 28.9223 98.5448 29.5838 99.0424 30.072C99.54 30.5603 100.074 30.9015 100.65 31.0958C101.221 31.29 101.75 31.3898 102.238 31.3898C103.259 31.3898 104.186 31.227 105.014 30.8963C105.841 30.5655 106.606 30.0458 107.313 29.3423L107.937 29.9303C106.936 31.0065 105.915 31.8203 104.867 32.382C103.82 32.9438 102.568 33.222 101.106 33.222C100.059 33.222 99.121 33.012 98.2934 32.5973C97.4657 32.1825 96.7586 31.6313 96.1772 30.9488C95.5905 30.2663 95.1453 29.484 94.8415 28.6073C94.5376 27.7305 94.3857 26.8275 94.3857 25.8983C94.3857 24.969 94.5376 24.066 94.8415 23.1893C95.1453 22.3125 95.5905 21.5303 96.1772 20.8478C96.7638 20.1653 97.4657 19.614 98.2934 19.1993C99.121 18.7845 100.059 18.5798 101.106 18.5798C103.029 18.5798 104.574 19.1048 105.747 20.1548C106.915 21.2048 107.633 22.806 107.9 24.9533H97.3086V24.9428ZM104.432 23.8455C104.359 23.1893 104.265 22.596 104.139 22.071C104.019 21.546 103.82 21.105 103.552 20.7533C103.285 20.4015 102.929 20.1285 102.494 19.95C102.054 19.7663 101.494 19.677 100.813 19.677C100.3 19.677 99.8334 19.803 99.4091 20.0603C98.9848 20.3175 98.6181 20.6483 98.3143 21.0473C98.0105 21.4515 97.78 21.903 97.6229 22.4018C97.4657 22.9005 97.3872 23.3835 97.3872 23.8455H104.432Z" fill="#6D3800"/>
<path d="M119.922 27.9825H120.435C120.776 28.497 121.158 28.9958 121.588 29.484C122.012 29.9723 122.483 30.4133 122.991 30.8018C123.505 31.1903 124.049 31.5105 124.636 31.752C125.223 31.9935 125.841 32.1195 126.501 32.1195C126.815 32.1195 127.14 32.088 127.47 32.0303C127.8 31.9725 128.099 31.8675 128.366 31.7205C128.633 31.5735 128.853 31.3793 129.026 31.1325C129.193 30.891 129.282 30.5813 129.282 30.219C129.282 29.61 129.057 29.1113 128.607 28.7175C128.156 28.329 127.601 27.9878 126.946 27.6938C126.286 27.3998 125.563 27.1268 124.772 26.8695C123.981 26.6123 123.259 26.3078 122.599 25.956C121.944 25.6043 121.389 25.1685 120.938 24.654C120.488 24.1395 120.262 23.4833 120.262 22.6748C120.262 21.357 120.671 20.3438 121.488 19.635C122.305 18.9263 123.332 18.5745 124.573 18.5745C125.5 18.5745 126.396 18.6953 127.26 18.942C128.125 19.1888 129.02 19.3305 129.948 19.383L130.168 23.2628H129.691C129.445 22.8008 129.141 22.3545 128.779 21.9293C128.413 21.504 128.004 21.126 127.554 20.7953C127.103 20.4645 126.621 20.1968 126.108 19.992C125.595 19.7873 125.071 19.6823 124.537 19.6823C123.929 19.6823 123.379 19.8188 122.892 20.0865C122.405 20.3543 122.159 20.8425 122.159 21.5513C122.159 22.0658 122.384 22.4858 122.834 22.8165C123.285 23.1473 123.84 23.4518 124.495 23.73C125.155 24.0135 125.878 24.2865 126.669 24.5543C127.459 24.822 128.182 25.1475 128.842 25.5255C129.502 25.9035 130.052 26.3655 130.503 26.9168C130.953 27.468 131.179 28.1453 131.179 28.9485C131.179 29.8043 131.037 30.5025 130.759 31.0538C130.477 31.605 130.094 32.0355 129.607 32.3558C129.12 32.6708 128.554 32.8965 127.91 33.033C127.266 33.1643 126.579 33.2325 125.846 33.2325C125.259 33.2325 124.699 33.1905 124.165 33.1065C123.63 33.0225 123.122 32.9175 122.651 32.7968C122.174 32.676 121.729 32.5658 121.315 32.466C120.901 32.3663 120.535 32.298 120.22 32.2455L119.922 27.9825Z" fill="#6D3800"/>
<path d="M141.801 18.5745C142.969 18.5745 144.038 18.753 144.996 19.1048C145.96 19.4565 146.788 19.9553 147.479 20.5905C148.176 21.2258 148.71 21.9923 149.087 22.8953C149.464 23.7983 149.653 24.801 149.653 25.8983C149.653 26.9955 149.464 27.9983 149.087 28.9013C148.71 29.8043 148.176 30.5708 147.479 31.206C146.788 31.8413 145.955 32.3348 144.996 32.6865C144.033 33.0383 142.969 33.2168 141.801 33.2168C140.633 33.2168 139.564 33.0383 138.606 32.6865C137.642 32.3348 136.814 31.8413 136.123 31.206C135.432 30.5708 134.892 29.8043 134.515 28.9013C134.138 27.9983 133.949 26.9955 133.949 25.8983C133.949 24.801 134.138 23.7983 134.515 22.8953C134.892 21.9923 135.426 21.2258 136.123 20.5905C136.814 19.9553 137.647 19.4618 138.606 19.1048C139.57 18.7478 140.633 18.5745 141.801 18.5745ZM141.146 19.6718C140.465 19.6718 139.873 19.8398 139.376 20.1863C138.878 20.5275 138.464 20.9738 138.134 21.5198C137.804 22.071 137.563 22.6905 137.401 23.3888C137.244 24.087 137.165 24.7748 137.165 25.4573C137.165 26.2395 137.27 27.0218 137.474 27.7988C137.679 28.581 138.003 29.295 138.443 29.9408C138.883 30.5865 139.428 31.1115 140.088 31.5158C140.748 31.92 141.539 32.1195 142.461 32.1195C143.142 32.1195 143.734 31.9515 144.232 31.605C144.729 31.2638 145.143 30.8175 145.473 30.2663C145.803 29.715 146.044 29.1008 146.206 28.4183C146.363 27.7358 146.442 27.0375 146.442 26.3288C146.442 25.5728 146.332 24.7958 146.112 24.003C145.892 23.2103 145.562 22.491 145.127 21.8453C144.687 21.1995 144.143 20.6745 143.483 20.2703C142.828 19.8713 142.047 19.6718 141.146 19.6718Z" fill="#6D3800"/>
<path d="M157.033 28.1663C157.033 29.19 157.295 29.9828 157.819 30.5445C158.343 31.1063 159.118 31.3845 160.14 31.3845C160.92 31.3845 161.69 31.1955 162.46 30.8175C163.225 30.4395 163.796 30.0405 164.157 29.6258V21.903C164.157 21.588 164.131 21.294 164.084 21.0263C164.037 20.7585 163.911 20.5223 163.717 20.3123C163.523 20.1075 163.23 19.9238 162.842 19.761C162.455 19.6035 161.931 19.4723 161.271 19.3778V18.9735L167.007 18.5693V29.8095C167.007 30.7388 167.242 31.353 167.719 31.6575C168.196 31.962 168.856 32.1405 169.71 32.1878V32.5553C168.782 32.6025 167.85 32.6393 166.912 32.6655C165.975 32.6918 165.053 32.7285 164.157 32.7758V30.87C163.303 31.5053 162.408 32.0565 161.47 32.5185C160.532 32.9805 159.516 33.2115 158.421 33.2115C157.253 33.2115 156.253 32.8808 155.425 32.2245C154.598 31.563 154.184 30.555 154.184 29.1848V21.6143C154.184 20.8793 153.985 20.3805 153.581 20.1128C153.178 19.845 152.466 19.6508 151.444 19.5248V19.047L157.033 18.5693V28.1663Z" fill="#6D3800"/>
<path d="M171.28 32.34C172.108 32.193 172.742 31.9935 173.182 31.7363C173.622 31.479 173.836 30.9487 173.836 30.1455V21.6457C173.836 20.916 173.585 20.4645 173.087 20.2912C172.59 20.1232 172.008 20.034 171.354 20.034V19.593L176.686 18.7897V20.8792C176.979 20.685 177.315 20.4277 177.692 20.1127C178.069 19.7977 178.472 19.4827 178.896 19.1782C179.321 18.8737 179.756 18.6112 180.196 18.3907C180.636 18.1702 181.06 18.06 181.474 18.06C182.422 18.06 183.134 18.3225 183.611 18.8475C184.087 19.3725 184.349 20.097 184.396 21.0262L181.474 22.5645C181.521 22.3965 181.573 22.218 181.62 22.0342C181.667 21.8505 181.694 21.6142 181.694 21.3202C181.694 20.979 181.573 20.6535 181.327 20.349C181.081 20.0445 180.756 19.8922 180.342 19.8922C180.002 19.8922 179.661 19.9762 179.321 20.1495C178.98 20.3227 178.65 20.5327 178.336 20.79C178.022 21.0472 177.723 21.3202 177.44 21.6142C177.157 21.9082 176.911 22.1655 176.691 22.3807V30.1403C176.691 30.9435 176.922 31.479 177.388 31.731C177.849 31.9882 178.546 32.1878 179.473 32.3348V32.7758C178.645 32.7285 177.823 32.6918 177.006 32.6655C176.188 32.6393 175.366 32.6288 174.538 32.6288C173.978 32.6288 173.433 32.6393 172.915 32.6655C172.391 32.6918 171.851 32.7285 171.291 32.7758V32.34H171.28Z" fill="#6D3800"/>
<path d="M198.603 24.7223C198.362 24.1133 198.085 23.4938 197.781 22.8743C197.477 22.2495 197.11 21.6983 196.686 21.21C196.262 20.7218 195.759 20.3175 195.188 20.0025C194.617 19.6875 193.952 19.5248 193.197 19.5248C192.443 19.5248 191.799 19.7085 191.259 20.076C190.725 20.4435 190.29 20.9108 189.96 21.483C189.63 22.0553 189.389 22.7063 189.227 23.4255C189.07 24.1448 188.991 24.8588 188.991 25.5675C188.991 26.3708 189.122 27.1425 189.395 27.8723C189.662 28.6073 190.039 29.2583 190.526 29.8305C191.013 30.4028 191.605 30.8543 192.296 31.185C192.988 31.5158 193.763 31.6785 194.617 31.6785C195.518 31.6785 196.372 31.5158 197.173 31.185C197.975 30.8543 198.745 30.4343 199.473 29.9198L199.986 30.5078C198.891 31.4108 197.812 32.088 196.754 32.5395C195.696 32.991 194.507 33.2168 193.192 33.2168C192.244 33.2168 191.333 33.0225 190.468 32.6288C189.604 32.2403 188.85 31.7153 188.205 31.0538C187.561 30.3923 187.043 29.6205 186.655 28.728C186.267 27.8355 186.068 26.8905 186.068 25.893C186.068 24.8903 186.262 23.9453 186.655 23.058C187.043 22.1655 187.561 21.3938 188.205 20.7323C188.85 20.076 189.604 19.551 190.468 19.1573C191.333 18.7688 192.239 18.5693 193.192 18.5693C194.214 18.5693 195.151 18.6218 196.005 18.732C196.859 18.8423 197.707 18.984 198.561 19.152L199.038 24.717H198.603V24.7223Z" fill="#6D3800"/>
<path d="M205.182 24.9428C205.182 26.2133 205.344 27.2633 205.674 28.0928C206.004 28.9223 206.418 29.5838 206.915 30.072C207.413 30.5603 207.947 30.9015 208.524 31.0958C209.095 31.29 209.624 31.3898 210.111 31.3898C211.132 31.3898 212.059 31.227 212.887 30.8963C213.715 30.5655 214.479 30.0458 215.186 29.3423L215.81 29.925C214.809 31.0013 213.788 31.815 212.74 32.3768C211.693 32.9385 210.441 33.2168 208.979 33.2168C207.932 33.2168 206.994 33.0068 206.166 32.592C205.339 32.1773 204.632 31.626 204.05 30.9435C203.464 30.261 203.018 29.4788 202.715 28.602C202.411 27.7253 202.259 26.8223 202.259 25.893C202.259 24.9638 202.411 24.0608 202.715 23.184C203.018 22.3073 203.464 21.525 204.05 20.8425C204.637 20.16 205.339 19.6088 206.166 19.194C206.994 18.7793 207.932 18.5745 208.979 18.5745C210.902 18.5745 212.447 19.0995 213.62 20.1495C214.788 21.1995 215.506 22.8008 215.773 24.948H205.182V24.9428ZM212.305 23.8455C212.232 23.1893 212.138 22.596 212.012 22.071C211.892 21.546 211.693 21.105 211.425 20.7533C211.158 20.4015 210.802 20.1285 210.367 19.95C209.927 19.7663 209.367 19.677 208.686 19.677C208.173 19.677 207.706 19.803 207.282 20.0603C206.858 20.3175 206.491 20.6483 206.187 21.0473C205.884 21.4515 205.653 21.903 205.496 22.4018C205.339 22.9005 205.26 23.3835 205.26 23.8455H212.305Z" fill="#6D3800"/>
<path d="M63.4857 51.576C63.9257 51.5393 64.2714 51.4868 64.5281 51.4133C64.7848 51.3398 64.9733 51.2243 65.1043 51.0668C65.23 50.9093 65.3138 50.6993 65.3505 50.4368C65.3871 50.1743 65.4028 49.8383 65.4028 49.4183V42.6038C65.4028 42.2888 65.3767 41.9948 65.319 41.7323C65.2667 41.4698 65.1671 41.244 65.0257 41.055C64.8843 40.866 64.6905 40.719 64.439 40.614C64.1876 40.509 63.8681 40.4513 63.4805 40.4408V40.0365C64.6014 40.0365 65.7276 40.0208 66.859 39.984C67.9905 39.9473 69.1324 39.9315 70.2743 39.9315C70.7614 39.9315 71.2433 39.9998 71.7252 40.1415C72.2071 40.2833 72.6419 40.4933 73.0295 40.7715C73.4171 41.055 73.7366 41.4015 73.9776 41.8163C74.2238 42.231 74.3443 42.714 74.3443 43.2653C74.3443 43.8533 74.1557 44.3573 73.7786 44.7825C73.4014 45.2078 72.9509 45.5175 72.4271 45.696V45.7328C72.7938 45.8063 73.15 45.9375 73.4957 46.1265C73.8414 46.3155 74.1505 46.5465 74.4176 46.8195C74.6847 47.0925 74.8995 47.4075 75.0566 47.754C75.2138 48.1005 75.2924 48.4785 75.2924 48.8775C75.2924 49.4865 75.1771 50.001 74.9571 50.4158C74.7319 50.8305 74.4176 51.1665 74.0143 51.4133C73.6109 51.6653 73.1395 51.8438 72.6 51.954C72.0605 52.0643 71.4686 52.1168 70.84 52.1168C70.4524 52.1168 69.9076 52.0853 69.2057 52.0275C68.5038 51.9645 67.5767 51.9383 66.419 51.9383C66.0419 51.9383 65.7119 51.9435 65.4238 51.9488C65.1357 51.954 64.8843 51.9593 64.659 51.9698C64.4338 51.975 64.2243 51.9803 64.0409 51.9908C63.8524 51.996 63.6638 52.0065 63.4857 52.017V51.576ZM67.849 45.4598C68.0586 45.5333 68.2786 45.5963 68.5143 45.6435C68.75 45.6908 69.0171 45.717 69.3105 45.717C69.6876 45.717 70.0281 45.654 70.3214 45.5228C70.62 45.3968 70.8714 45.2183 71.0809 44.9925C71.2905 44.7668 71.4476 44.499 71.5576 44.1945C71.6676 43.89 71.72 43.5645 71.72 43.2233C71.72 42.3465 71.479 41.6955 70.9919 41.2808C70.5047 40.866 69.8395 40.656 69.0014 40.656C68.8076 40.656 68.619 40.6613 68.4357 40.677C68.2524 40.6875 68.0586 40.7033 67.849 40.7138V45.4598ZM67.849 51.009C68.1424 51.1455 68.4409 51.24 68.7448 51.303C69.0486 51.366 69.3576 51.3923 69.6771 51.3923C70.5309 51.3923 71.2224 51.1613 71.7619 50.7045C72.2962 50.2478 72.5633 49.5758 72.5633 48.699C72.5633 48.2108 72.4428 47.7435 72.2071 47.2973C71.9714 46.851 71.6676 46.4783 71.3009 46.1738C70.7666 46.3103 70.2481 46.3733 69.7505 46.3733C69.3262 46.3733 68.9595 46.3523 68.6609 46.3103C68.3624 46.2683 68.09 46.2 67.849 46.1003V51.009Z" fill="#AC744C"/>
<path d="M78.9385 39.9315C79.9966 40.005 81.0651 40.0418 82.1337 40.0418C83.218 40.0418 84.2971 40.005 85.3656 39.9315L85.3132 40.3725C84.8628 40.3988 84.5066 40.446 84.2447 40.5195C83.9828 40.593 83.789 40.7085 83.658 40.8555C83.5323 41.0078 83.4485 41.2178 83.4118 41.4803C83.3752 41.7428 83.3594 42.0788 83.3594 42.4988V48.5783C83.3594 48.909 83.4223 49.2345 83.5532 49.56C83.679 49.8855 83.8832 50.1743 84.1556 50.4315C84.428 50.6888 84.7842 50.8935 85.2137 51.0563C85.6432 51.2138 86.1671 51.2925 86.7747 51.2925C87.508 51.2925 88.1104 51.1823 88.5923 50.9565C89.0742 50.7308 89.4513 50.4525 89.7237 50.1218C89.9961 49.791 90.1899 49.434 90.2999 49.0403C90.4099 48.6518 90.4623 48.2895 90.4623 47.9588V43.4543C90.4623 42.8453 90.4309 42.3413 90.3733 41.9528C90.3104 41.5643 90.2056 41.2493 90.0432 41.0183C89.8861 40.7873 89.6713 40.6245 89.4042 40.5248C89.1371 40.425 88.7913 40.3778 88.3618 40.3778V39.9368C88.6447 39.963 88.9904 39.984 89.4147 40.0103C89.8337 40.0365 90.2737 40.047 90.7399 40.047C91.1171 40.047 91.489 40.0365 91.8609 40.0103C92.2328 39.984 92.5994 39.963 92.9661 39.9368V40.3778C92.5628 40.404 92.2485 40.4513 92.0233 40.5248C91.798 40.5983 91.6252 40.7138 91.5047 40.8608C91.3842 41.013 91.3056 41.223 91.2742 41.4855C91.2428 41.748 91.2271 42.084 91.2271 42.504V47.5178C91.2271 49.0455 90.7975 50.2268 89.9385 51.0615C89.0794 51.8963 87.8799 52.3163 86.3294 52.3163C85.4023 52.3163 84.6061 52.2008 83.9356 51.9803C83.2652 51.7545 82.7099 51.4605 82.2752 51.093C81.8352 50.7255 81.5104 50.316 81.3009 49.8645C81.0861 49.413 80.9813 48.9615 80.9813 48.51V42.4935C80.9813 42.1628 80.9656 41.874 80.929 41.622C80.8923 41.37 80.8085 41.16 80.6723 40.9815C80.5361 40.803 80.337 40.6665 80.0594 40.5615C79.787 40.4565 79.4099 40.3935 78.9385 40.3673V39.9315Z" fill="#AC744C"/>
<path d="M98.4811 42.147C98.4811 41.8058 98.4339 41.5328 98.3449 41.3228C98.2558 41.1128 98.1249 40.9448 97.9625 40.8188C97.8001 40.6928 97.6011 40.593 97.3706 40.5248C97.1401 40.4565 96.8782 40.404 96.5849 40.3673V39.9263C97.6796 39.9998 98.7796 40.0365 99.8901 40.0365C101.011 40.0365 102.137 39.9998 103.269 39.9263V40.3673C102.986 40.404 102.708 40.4565 102.431 40.5248C102.148 40.593 101.902 40.6875 101.682 40.8188C101.462 40.9448 101.283 41.1128 101.142 41.3228C101.001 41.5328 100.932 41.8058 100.932 42.147V51.1928C101.105 51.24 101.341 51.2768 101.645 51.2925C101.949 51.3083 102.279 51.3188 102.63 51.3188C103.311 51.3188 103.908 51.2505 104.421 51.1193C104.934 50.9828 105.395 50.7728 105.809 50.4893C106.223 50.2005 106.595 49.8435 106.925 49.4078C107.255 48.9773 107.569 48.4628 107.873 47.88L108.329 48.0795C108.014 48.7148 107.737 49.3605 107.496 50.0115C107.26 50.6625 107.056 51.3345 106.883 52.017C106.045 51.9908 105.202 51.975 104.353 51.9645C103.504 51.954 102.666 51.9435 101.823 51.9435C100.948 51.9435 100.068 51.9488 99.183 51.9645C98.2977 51.975 97.423 51.996 96.543 52.017V51.576C96.7839 51.576 97.0249 51.5655 97.2553 51.5393C97.4858 51.513 97.6954 51.4553 97.8787 51.366C98.062 51.2768 98.2087 51.1455 98.3187 50.9723C98.4287 50.8043 98.4811 50.568 98.4811 50.2793V42.147Z" fill="#AC744C"/>
<path d="M113.441 42.2048C113.441 41.9633 113.41 41.727 113.352 41.5118C113.289 41.2913 113.19 41.1023 113.043 40.9343C112.896 40.7715 112.703 40.635 112.456 40.53C112.21 40.425 111.906 40.3725 111.545 40.3725V39.9315C112.556 40.005 113.556 40.0418 114.541 40.0418C115.091 40.0418 115.641 40.0313 116.196 40.005C116.752 39.9788 117.302 39.9578 117.852 39.9315V40.3725C117.459 40.3725 117.144 40.425 116.893 40.53C116.642 40.635 116.448 40.7663 116.301 40.9343C116.154 41.097 116.05 41.2913 115.992 41.5118C115.929 41.7323 115.903 41.9633 115.903 42.2048V45.9008C116.003 45.8273 116.175 45.6855 116.422 45.4703C116.673 45.255 116.956 45.0083 117.27 44.7195C117.584 44.4308 117.92 44.1263 118.265 43.806C118.611 43.4805 118.931 43.1655 119.213 42.8558C119.502 42.546 119.737 42.2573 119.926 41.9948C120.114 41.7323 120.209 41.5223 120.209 41.3648C120.209 41.2178 120.167 41.0865 120.083 40.971C119.999 40.8555 119.889 40.7558 119.763 40.6665C119.638 40.5773 119.496 40.5143 119.355 40.467C119.208 40.4198 119.072 40.3883 118.952 40.3778V39.9368C119.428 39.9998 119.9 40.0313 120.376 40.0365C120.853 40.0418 121.33 40.047 121.822 40.047C122.335 40.047 122.828 40.0418 123.299 40.0313C123.776 40.0208 124.268 39.9893 124.776 39.942V40.383C124.153 40.4565 123.582 40.6298 123.048 40.9028C122.519 41.1758 122.016 41.5013 121.539 41.874C121.063 42.2468 120.607 42.6405 120.162 43.0658C119.716 43.4858 119.266 43.8795 118.8 44.247L122.545 49.6283C122.739 49.9118 122.933 50.1638 123.121 50.3895C123.31 50.6153 123.514 50.8095 123.734 50.9775C123.954 51.1403 124.195 51.2768 124.467 51.3818C124.734 51.4868 125.054 51.555 125.415 51.5918V52.0328C124.865 52.0065 124.315 51.9908 123.76 51.9803C123.205 51.9698 122.655 51.9593 122.105 51.9593C121.555 51.9593 121.015 51.9645 120.481 51.9803C119.947 51.9908 119.402 52.0118 118.857 52.0328V51.6653C118.957 51.639 119.088 51.6075 119.261 51.576C119.428 51.5393 119.596 51.4868 119.763 51.4133C119.926 51.3398 120.073 51.2505 120.193 51.1455C120.313 51.0405 120.376 50.9093 120.376 50.7518C120.376 50.6678 120.308 50.4998 120.167 50.2478C120.025 49.9958 119.847 49.707 119.627 49.371C119.407 49.035 119.166 48.678 118.904 48.2895C118.643 47.9063 118.386 47.5388 118.14 47.1923C117.888 46.8458 117.668 46.536 117.474 46.2683C117.281 46.0005 117.139 45.8063 117.055 45.6803L115.903 46.5938V49.7228C115.903 50.0168 115.924 50.274 115.955 50.4998C115.992 50.7255 116.076 50.9145 116.202 51.0668C116.327 51.219 116.521 51.3398 116.778 51.4238C117.034 51.5078 117.38 51.5655 117.82 51.5865V52.0275C117.26 52.0013 116.704 51.9855 116.16 51.975C115.61 51.9645 115.065 51.954 114.515 51.954C114.017 51.954 113.525 51.9593 113.038 51.975C112.551 51.9855 112.058 52.0065 111.561 52.0275V51.5865C112.001 51.5603 112.341 51.5078 112.593 51.4238C112.844 51.3398 113.033 51.219 113.158 51.0668C113.284 50.9145 113.368 50.7255 113.404 50.4998C113.441 50.274 113.457 50.0168 113.457 49.7228V42.2048H113.441Z" fill="#AC744C"/>
<path d="M140.25 45.0765H141.198C141.513 45.0765 141.827 45.0345 142.131 44.9558C142.435 44.877 142.717 44.7458 142.979 44.5725C143.241 44.394 143.472 44.163 143.665 43.869C143.859 43.575 144.006 43.218 144.105 42.7875H144.472C144.462 43.2128 144.446 43.6485 144.425 44.0895C144.404 44.5305 144.399 44.961 144.399 45.3915C144.399 45.8325 144.409 46.2683 144.425 46.6988C144.446 47.1345 144.456 47.5703 144.472 48.006H144.105C144.006 47.5545 143.885 47.1765 143.739 46.872C143.592 46.5675 143.404 46.3208 143.173 46.137C142.943 45.9533 142.665 45.822 142.351 45.7433C142.031 45.6645 141.649 45.6225 141.198 45.6225H140.25V49.8488C140.25 50.1428 140.276 50.3895 140.324 50.5995C140.371 50.8095 140.47 50.9775 140.627 51.114C140.779 51.2505 140.999 51.345 141.287 51.408C141.575 51.471 141.947 51.4973 142.408 51.4973V52.0118C141.822 51.9855 141.245 51.9698 140.675 51.9593C140.104 51.9488 139.522 51.9383 138.941 51.9383C138.427 51.9383 137.925 51.9435 137.427 51.9593C136.929 51.9698 136.421 51.9908 135.913 52.0118V51.5025C136.316 51.5025 136.641 51.471 136.893 51.4133C137.144 51.3503 137.333 51.2558 137.469 51.1193C137.605 50.9828 137.694 50.8148 137.741 50.6048C137.788 50.3948 137.815 50.148 137.815 49.854V42.5303C137.815 42.189 137.794 41.8898 137.752 41.6325C137.71 41.3753 137.621 41.16 137.485 40.992C137.348 40.8188 137.16 40.6875 136.908 40.5983C136.657 40.509 136.327 40.4565 135.913 40.4408V39.9263C136.536 39.9525 137.16 39.9735 137.783 39.9998C138.412 40.026 139.035 40.0365 139.653 40.0365C140.837 40.0365 142.005 40.026 143.168 39.9998C144.331 39.9735 145.504 39.9525 146.683 39.9263C146.672 40.1468 146.662 40.3673 146.662 40.5878C146.662 40.8083 146.662 41.0183 146.662 41.2283C146.662 41.6063 146.667 41.9843 146.672 42.3623C146.677 42.7403 146.714 43.1183 146.772 43.4963H146.405C146.138 42.4568 145.682 41.7218 145.043 41.2808C144.404 40.8398 143.487 40.6193 142.293 40.6193H140.25V45.0765Z" fill="#AC744C"/>
<path d="M157.75 39.6743C158.788 39.6743 159.73 39.816 160.59 40.1048C161.449 40.3935 162.187 40.803 162.811 41.3385C163.429 41.874 163.91 42.5355 164.256 43.323C164.597 44.1105 164.77 44.9978 164.77 45.9848C164.77 46.9718 164.597 47.859 164.256 48.6465C163.916 49.434 163.434 50.0955 162.811 50.631C162.187 51.1665 161.449 51.5813 160.59 51.8648C159.73 52.1535 158.782 52.2953 157.75 52.2953C156.719 52.2953 155.77 52.1535 154.911 51.8648C154.052 51.576 153.314 51.1665 152.69 50.631C152.067 50.0955 151.59 49.434 151.245 48.6465C150.904 47.859 150.731 46.9718 150.731 45.9848C150.731 44.9978 150.904 44.1105 151.245 43.323C151.585 42.5355 152.067 41.874 152.69 41.3385C153.314 40.803 154.052 40.3883 154.911 40.1048C155.765 39.8213 156.713 39.6743 157.75 39.6743ZM157.75 40.3358C156.996 40.3358 156.341 40.488 155.786 40.7925C155.231 41.097 154.775 41.5118 154.414 42.0368C154.052 42.5618 153.79 43.1603 153.618 43.8375C153.445 44.5148 153.361 45.234 153.361 45.99C153.361 46.7355 153.445 47.4495 153.618 48.132C153.785 48.8145 154.052 49.4183 154.414 49.9433C154.775 50.4683 155.231 50.883 155.786 51.1875C156.341 51.492 156.996 51.6443 157.75 51.6443C158.505 51.6443 159.16 51.492 159.715 51.1875C160.27 50.883 160.726 50.4683 161.087 49.9433C161.449 49.4183 161.71 48.8145 161.883 48.132C162.051 47.4495 162.14 46.7355 162.14 45.99C162.14 45.234 162.056 44.5148 161.883 43.8375C161.716 43.1603 161.449 42.5618 161.087 42.0368C160.726 41.5118 160.27 41.097 159.715 40.7925C159.16 40.488 158.505 40.3358 157.75 40.3358Z" fill="#AC744C"/>
<path d="M176.125 39.6743C177.163 39.6743 178.106 39.816 178.965 40.1048C179.824 40.3935 180.562 40.803 181.186 41.3385C181.809 41.874 182.286 42.5355 182.631 43.323C182.972 44.1105 183.145 44.9978 183.145 45.9848C183.145 46.9718 182.972 47.859 182.631 48.6465C182.291 49.434 181.809 50.0955 181.186 50.631C180.562 51.1665 179.824 51.5813 178.965 51.8648C178.106 52.1535 177.157 52.2953 176.125 52.2953C175.088 52.2953 174.146 52.1535 173.286 51.8648C172.427 51.576 171.689 51.1665 171.065 50.631C170.442 50.0955 169.965 49.434 169.62 48.6465C169.279 47.859 169.106 46.9718 169.106 45.9848C169.106 44.9978 169.279 44.1105 169.62 43.323C169.96 42.5355 170.442 41.874 171.065 41.3385C171.689 40.803 172.427 40.3883 173.286 40.1048C174.14 39.8213 175.088 39.6743 176.125 39.6743ZM176.125 40.3358C175.371 40.3358 174.716 40.488 174.161 40.7925C173.606 41.097 173.15 41.5118 172.789 42.0368C172.427 42.5618 172.166 43.1603 171.993 43.8375C171.82 44.5148 171.736 45.234 171.736 45.99C171.736 46.7355 171.82 47.4495 171.993 48.132C172.16 48.8145 172.427 49.4183 172.789 49.9433C173.15 50.4683 173.606 50.883 174.161 51.1875C174.716 51.492 175.371 51.6443 176.125 51.6443C176.88 51.6443 177.535 51.492 178.09 51.1875C178.645 50.883 179.101 50.4683 179.462 49.9433C179.824 49.4183 180.086 48.8145 180.258 48.132C180.426 47.4495 180.515 46.7355 180.515 45.99C180.515 45.234 180.431 44.5148 180.258 43.8375C180.091 43.1603 179.824 42.5618 179.462 42.0368C179.101 41.5118 178.645 41.097 178.09 40.7925C177.535 40.488 176.88 40.3358 176.125 40.3358Z" fill="#AC744C"/>
<path d="M187.172 51.5025C187.612 51.4658 187.958 51.4133 188.215 51.3398C188.471 51.2663 188.66 51.1508 188.791 50.9933C188.917 50.8358 189.001 50.6258 189.037 50.3633C189.074 50.1008 189.09 49.7648 189.09 49.3448V42.4778C189.09 42.063 189.074 41.7218 189.037 41.4593C189.001 41.1968 188.917 40.9868 188.791 40.8293C188.665 40.6718 188.466 40.5563 188.204 40.4828C187.942 40.4093 187.586 40.3568 187.136 40.32V39.879C187.523 39.9158 187.911 39.9525 188.293 39.9893C188.676 40.026 189.063 40.0418 189.451 40.0418C190.205 40.0418 190.991 40.0103 191.808 39.9525C192.625 39.8895 193.594 39.8633 194.715 39.8633C195.543 39.8633 196.37 39.9998 197.188 40.2728C198.01 40.5458 198.743 40.9605 199.388 41.5065C200.032 42.0578 200.556 42.735 200.959 43.5488C201.362 44.3625 201.561 45.3023 201.561 46.3785C201.561 47.3655 201.389 48.2213 201.043 48.9405C200.697 49.6598 200.226 50.253 199.639 50.715C199.047 51.177 198.366 51.5235 197.596 51.7493C196.821 51.975 196.004 52.0905 195.14 52.0905C194.642 52.0905 194.207 52.0853 193.84 52.0695C193.474 52.059 193.112 52.0433 192.751 52.0223C192.39 52.0065 192.012 51.9855 191.609 51.9698C191.206 51.9488 190.719 51.9435 190.148 51.9435C189.503 51.9435 188.943 51.9488 188.466 51.9645C187.99 51.975 187.56 51.996 187.167 52.017V51.5025H187.172ZM191.536 50.5155C191.536 50.6888 191.609 50.8305 191.756 50.946C191.902 51.0615 192.096 51.156 192.342 51.2295C192.583 51.303 192.866 51.3555 193.191 51.387C193.51 51.4185 193.851 51.4343 194.202 51.4343C194.92 51.4343 195.574 51.3293 196.156 51.114C196.742 50.8988 197.24 50.5785 197.654 50.1428C198.068 49.7123 198.387 49.1663 198.602 48.5048C198.822 47.8433 198.932 47.0715 198.932 46.179C198.932 45.36 198.811 44.6093 198.576 43.9163C198.34 43.2285 197.994 42.63 197.544 42.1208C197.093 41.6115 196.543 41.223 195.889 40.9395C195.239 40.656 194.495 40.5195 193.668 40.5195C193.301 40.5195 192.945 40.5458 192.589 40.593C192.238 40.6403 191.881 40.7138 191.53 40.8135V50.5155H191.536Z" fill="#AC744C"/>
<path d="M214.369 43.575C214.249 43.1235 214.05 42.7035 213.777 42.3098C213.505 41.9213 213.185 41.58 212.829 41.286C212.468 40.992 212.075 40.761 211.651 40.593C211.226 40.425 210.792 40.3358 210.352 40.3358C209.802 40.3358 209.335 40.4775 208.953 40.7663C208.571 41.055 208.377 41.4855 208.377 42.0578C208.377 42.4988 208.55 42.8715 208.895 43.176C209.241 43.4805 209.676 43.7588 210.2 44.0108C210.723 44.2628 211.289 44.5148 211.892 44.772C212.494 45.0293 213.06 45.339 213.578 45.696C214.102 46.0583 214.537 46.4835 214.882 46.9875C215.228 47.4863 215.401 48.111 215.401 48.8565C215.401 49.3815 215.296 49.8593 215.092 50.2845C214.882 50.7097 214.594 51.072 214.217 51.3712C213.84 51.6705 213.384 51.9015 212.845 52.0695C212.311 52.2322 211.713 52.3162 211.053 52.3162C210.75 52.3162 210.446 52.29 210.142 52.2322C209.838 52.1745 209.534 52.1167 209.236 52.0485C208.937 51.9802 208.639 51.9225 208.33 51.8647C208.026 51.8123 207.722 51.7807 207.418 51.7807C207.371 51.7807 207.303 51.7912 207.224 51.807C207.146 51.8227 207.062 51.849 206.968 51.87C206.879 51.8963 206.79 51.9173 206.701 51.9435C206.617 51.9698 206.549 51.9908 206.502 52.017C206.402 51.3345 206.302 50.6415 206.192 49.9485C206.082 49.2502 205.941 48.552 205.773 47.8433H206.177C206.313 48.2947 206.528 48.741 206.837 49.182C207.141 49.623 207.497 50.0168 207.905 50.3632C208.314 50.7098 208.754 50.988 209.231 51.198C209.707 51.408 210.173 51.5077 210.634 51.5077C211.038 51.5077 211.404 51.4763 211.729 51.4185C212.059 51.3555 212.342 51.2557 212.578 51.114C212.813 50.9722 212.997 50.7832 213.128 50.547C213.253 50.3107 213.322 50.0063 213.322 49.6388C213.322 49.14 213.143 48.72 212.792 48.384C212.442 48.048 211.996 47.7435 211.467 47.4705C210.938 47.1975 210.367 46.9298 209.749 46.6725C209.136 46.4153 208.56 46.1213 208.031 45.7958C207.502 45.465 207.062 45.0765 206.706 44.625C206.355 44.1735 206.177 43.617 206.177 42.9608C206.177 41.811 206.522 40.9815 207.219 40.4618C207.911 39.942 208.969 39.6848 210.378 39.6848C210.744 39.6848 211.095 39.711 211.436 39.7688C211.776 39.8213 212.101 39.8895 212.405 39.963C212.709 40.0365 212.997 40.0995 213.264 40.1573C213.531 40.2098 213.782 40.2413 214.013 40.2413H214.673C214.662 40.4513 214.647 40.6455 214.636 40.8293C214.626 41.013 214.615 41.202 214.615 41.3963C214.615 41.748 214.631 42.1155 214.662 42.4935C214.694 42.8715 214.72 43.239 214.746 43.5908H214.369V43.575Z" fill="#AC744C"/>
<path fill-rule="evenodd" clip-rule="evenodd" d="M28.8043 6.98773C15.1067 6.98773 4.00195 18.1177 4.00195 31.8465C4.00195 45.5752 15.1067 56.7052 28.8043 56.7052C42.502 56.7052 53.6067 45.5752 53.6067 31.8465C53.6119 18.1177 42.5072 6.98773 28.8043 6.98773ZM36.3629 19.614C37.6514 24.0765 34.8962 26.9745 30.8 27.048C29.8048 22.932 32.7538 20.1495 36.3629 19.614ZM24.6135 14.9678C28.3378 15.5138 29.9459 19.3253 28.9402 23.646C24.3202 24.213 22.4345 18.2595 24.6135 14.9678ZM28.94 27.0533C25.9438 28.8278 21.6538 26.7803 21.5176 23.646C25.2733 22.4438 27.7142 24.7433 28.94 27.0533ZM28.9402 33.2482C25.415 34.2667 21.7588 32.8282 21.8321 29.2215C24.2626 27.0427 29.0555 29.8462 28.9402 33.2482ZM28.0133 39.4485C23.7547 39.69 21.3085 38.1097 21.209 34.1827C24.5771 33.747 28.1756 35.3535 28.0133 39.4485ZM19.0508 39.4485C22.9898 38.871 26.447 41.2808 26.777 45.3338C21.9632 45.6173 19.3546 43.6853 19.0508 39.4485ZM26.2734 48.6412L26.2735 48.641C28.4143 42.0776 31.2824 33.2846 28.9405 24.5753C30.8053 27.6885 31.5439 32.9963 31.1039 38.829C30.7163 44.0265 29.0715 50.0273 25.541 50.9145C25.7676 50.1919 26.0152 49.4327 26.2734 48.6412ZM30.4912 45.6435C31.2979 41.8058 33.985 39.8475 38.8407 40.068C39.0136 44.73 34.6869 46.3785 30.4912 45.6435ZM31.7217 39.1387C31.8369 35.2695 35.315 33.3165 38.835 33.873C38.9031 38.0677 36.0012 39.291 31.7217 39.1387ZM31.7223 32.6288C31.6699 28.4813 35.2161 26.8538 38.8356 27.363C39.1446 31.7625 35.5461 33.3375 31.7223 32.6288Z" fill="#AC744C"/>
</svg>
