<svg width="1106" height="450" viewBox="0 0 1106 450" fill="none" xmlns="http://www.w3.org/2000/svg">
<path d="M488.445 150.133C486.007 150.133 486 150.104 486 139.633V129.133L488.75 129.153C490.974 129.169 492.061 130.117 494.432 134.113L497.365 139.053L500.44 134.343C502.678 130.913 504.26 129.547 506.257 129.317L509 129V139.567V150.133H506.057C503.311 150.133 503.095 149.85 502.807 145.883L502.5 141.633L500.534 144.883C497.998 149.077 496.689 148.979 493.832 144.383L491.5 140.633L491.195 145.383C490.92 149.672 490.653 150.133 488.445 150.133Z" fill="black" fill-opacity="0.746"/>
<path d="M519.833 133.633C519.833 131.708 519.871 129.908 519.917 129.633C519.962 129.358 521.086 129.133 522.414 129.133C524.245 129.133 525.597 130.383 528.011 134.305L531.193 139.477L534.211 134.25C536.787 129.787 537.615 129.067 539.865 129.328L542.5 129.633V139.633V149.633L539.807 149.944C537.249 150.239 537.099 150.015 536.807 145.444L536.5 140.633L534.284 144.383C533.065 146.446 531.618 148.133 531.07 148.133C530.521 148.133 528.931 146.454 527.536 144.401L525 140.669V145.401C525 149.782 524.814 150.133 522.5 150.133C519.824 150.133 519.833 150.19 519.833 133.633Z" fill="black" fill-opacity="0.746"/>
<path d="M554.5 134.862C552.575 132.613 551 130.404 551 129.953C551 129.502 552.43 129.133 554.177 129.133C556.52 129.133 558.047 129.963 559.994 132.295L562.633 135.457L564.885 132.295C566.663 129.797 567.857 129.133 570.568 129.133C572.456 129.133 573.995 129.47 573.989 129.883C573.983 130.296 572.13 132.566 569.871 134.928L565.763 139.224L569.882 144.108C572.147 146.794 574 149.249 574 149.562C574 149.876 572.538 150.137 570.75 150.142C568.304 150.149 566.819 149.344 564.75 146.892L562 143.633L559.211 146.962C556.892 149.73 555.852 150.236 553.038 149.962L549.653 149.633L553.826 144.822C556.122 142.176 558 139.773 558 139.481C558 139.19 556.425 137.111 554.5 134.862Z" fill="black" fill-opacity="0.746"/>
<path d="M583.726 140.62C581.127 135.388 579 130.663 579 130.12C579 129.577 580.267 129.133 581.816 129.133C584.273 129.133 584.998 129.899 587.5 135.133C589.077 138.433 590.656 141.133 591.008 141.133C591.361 141.133 592.895 138.433 594.419 135.133C596.896 129.766 597.503 129.133 600.162 129.133C603.766 129.133 603.723 129.326 597.446 141.383C591.211 153.359 590.021 153.293 583.726 140.62Z" fill="black" fill-opacity="0.746"/>
<path fill-rule="evenodd" clip-rule="evenodd" d="M359.656 184.406C343.208 188.398 332.821 204.932 336.268 221.631C337.817 229.135 339.785 232.859 346.762 241.5C353.337 249.643 354.828 252.24 355.754 257.182C356.602 261.701 353.575 269.086 349.88 271.506C346.027 274.029 340.121 274.504 336.412 272.584C335.456 272.092 334.584 271.752 333.983 271.617C333.488 271.506 333.175 271.533 333.151 271.725C332.6 276.135 333.667 290.658 334.589 291.299C335.226 291.74 339.185 291.932 343.387 291.723C361.232 290.838 373.322 278.398 373.568 260.67C373.704 251.002 372.023 245.719 366.189 237.461L365.397 236.34C356.236 223.371 354.348 220.697 353.961 217.822C353.911 217.445 353.886 217.066 353.874 216.66C353.863 216.26 353.863 215.834 353.863 215.359L353.864 215.043C353.864 206.775 358.348 202.258 367.49 201.314C372.812 200.766 372.882 200.717 372.652 197.629C372.524 195.908 372.381 191.912 372.334 188.75L372.248 183L368.498 183.086C366.436 183.133 362.456 183.727 359.656 184.406ZM1091.75 184.406C1081.6 186.914 1074.75 192.527 1070.4 201.914C1068.27 206.494 1067.81 208.939 1067.85 215.5C1067.89 225.174 1070.35 231.238 1078.1 240.861C1086.01 250.689 1087.63 253.77 1087.63 259.008C1087.63 269.836 1076.97 277.234 1068.07 272.59C1066.6 271.82 1065.13 271.449 1064.82 271.764C1064.51 272.076 1064.25 276.514 1064.25 281.621V290.908L1067.85 291.586C1073.22 292.592 1082.38 291.479 1087.56 289.188C1094.22 286.24 1100.56 279.441 1103.21 272.406C1105.07 267.463 1105.37 265.033 1105.03 257.5C1104.56 247.408 1102.6 242.533 1095.34 233.5C1088.06 224.432 1085.86 220.105 1085.86 214.83C1085.86 206.881 1092.08 201.006 1100.5 201.002L1104.25 201V192V183L1100.5 183.086C1098.44 183.133 1094.5 183.727 1091.75 184.406ZM551.813 192.865C553.699 188.33 554.896 185.441 555.026 185.109C555.456 184.01 555.849 184.102 556.91 185.551C557.645 186.559 558.248 187.732 558.248 188.162C558.248 188.846 588.722 262.527 596.231 280C596.603 280.865 596.95 281.662 597.274 282.406C599.254 286.955 600.194 289.113 599.489 290.131C598.851 291.049 596.872 291.035 593.105 291.01C592.429 291.006 591.697 291 590.905 291H581.425L578.678 284L575.932 277H555.804H535.675L533.248 284L530.822 291H521.035C519.222 291 517.521 290.979 516.061 290.941C513.186 290.871 511.248 290.738 511.248 290.588C511.248 290.189 514.347 282.715 541.759 217C545.721 207.504 549.353 198.783 551.813 192.865ZM869.721 187.5C868.806 189.699 866.804 194.426 865.273 198C862.788 203.807 858.013 215.193 850.285 233.752C846.915 241.844 842.985 251.299 838.438 262.25L826.5 291H836.236H845.972L848.443 284.25L850.915 277.5L871.348 277.23L891.782 276.961L894.171 283.98L896.561 291H906.418H916.275L914.7 287.25C913.833 285.188 904.414 262.574 893.766 237C890.042 228.055 886.472 219.486 883.368 212.043C877.597 198.203 873.437 188.252 872.897 187L871.387 183.5L869.721 187.5ZM952.248 291V237.301C952.248 207.766 952.622 184.027 953.08 184.551C953.537 185.072 962.649 197.562 973.33 212.307L992.748 239.113L993.014 212.057L993.28 185H1002.26H1011.25L1011.22 238.25L1011.18 291.5L1008.97 288.887C1007.75 287.447 998.648 275.146 988.748 261.551L970.748 236.83L970.482 263.914L970.216 291H961.232H952.248ZM427.248 237.908V291H436.248H445.248V276.203V261.406L451.746 260.293C460.797 258.742 466.814 255.574 473.397 248.891C481.091 241.078 483.647 234.535 483.705 222.5C483.745 214.418 483.425 212.818 480.58 206.811C476.813 198.861 470.136 192.074 462.289 188.221C457.158 185.701 455.661 185.475 441.998 185.158L427.248 184.816V237.908ZM642.248 291V237.908V184.816L656.998 185.158C670.949 185.48 672.074 185.658 677.735 188.439C685.389 192.197 692.642 199.459 696.036 206.764C698.354 211.756 698.704 213.799 698.724 222.5C698.746 231.285 698.423 233.193 696.068 238.219C693.001 244.764 685.926 252.781 680.769 255.559C679.686 256.143 678.713 256.742 678.066 257.207C677.556 257.572 677.248 257.855 677.248 257.984C677.248 258.668 683.382 266.025 694.998 279.283C696.576 281.084 698.065 282.809 699.368 284.34C702.267 287.746 704.248 290.199 704.248 290.418C704.248 290.535 703.551 290.641 702.354 290.729C700.253 290.883 696.614 290.98 692.498 290.969L680.748 290.938L670.748 279.344L660.748 267.75L660.466 279.375L660.185 291H651.216H642.248ZM737.248 194V203H747.748H758.248V247V291H767.248H776.248V247V203H786.748H797.248V194V185H767.248H737.248V194ZM601.229 349.99C592.271 345.42 591.893 333.236 600.547 327.961C606.323 324.438 615.144 326.139 618.621 331.443C623.153 338.361 620.968 346.859 613.825 350.105C608.582 352.486 606.076 352.463 601.229 349.99ZM718.518 327.482C708.337 331.908 709.268 346.982 719.963 350.859C723.811 352.256 724.659 352.236 729.713 350.643L735.248 348.898V342.449V336H729.248H723.248V339C723.248 341.668 723.581 342 726.248 342C730.082 342 730.287 344.568 726.509 345.291C723.733 345.82 720.354 344.607 719.013 342.6C717.825 340.818 718.143 335.328 719.498 334.244C722.139 332.133 725.246 331.904 728.752 333.568C732.114 335.164 732.415 335.158 734.274 333.477C736.677 331.303 735.592 329.588 730.455 327.441C726.173 325.652 722.7 325.664 718.518 327.482ZM767.251 350.5C757.326 346.025 756.903 331.666 766.574 327.459C770.641 325.689 774.482 325.652 778.531 327.346C783.505 329.424 784.661 331.316 782.274 333.477C780.434 335.143 780.088 335.152 776.877 333.629C772.501 331.553 772.056 331.576 768.883 334.072C765.349 336.854 765.342 341.143 768.87 343.916C771.682 346.131 775.381 345.914 778.328 343.365C780.436 341.541 781.617 341.645 783.592 343.826C785.139 345.537 785.1 345.789 782.997 347.766C782.637 348.104 782.118 348.471 781.498 348.84C779.993 349.736 777.897 350.637 776.076 351.125C771.957 352.225 770.911 352.15 767.251 350.5ZM562.248 339V351L570.998 350.984C575.976 350.977 580.811 350.434 582.214 349.723C585.522 348.049 587.017 342.848 585.073 339.781C583.964 338.035 583.87 336.83 584.666 334.646C585.59 332.115 585.392 331.521 582.922 329.396C580.432 327.254 579.187 327 571.192 327H562.248V339ZM633.477 336.641C633.052 336.379 631.224 334.104 629.414 331.582L626.124 327H630.47C634.24 327 635.052 327.398 636.589 330C637.564 331.65 638.702 333 639.117 333C639.533 333 640.871 331.65 642.09 330C643.927 327.516 645.012 327 648.407 327H652.504L649.879 330.25C648.435 332.037 646.381 334.654 645.314 336.066L643.374 338.631L647.773 344.066C650.192 347.055 652.189 349.838 652.21 350.25C652.223 350.504 651.555 350.729 650.528 350.863C649.883 350.949 649.097 351 648.248 351C646.048 351 644.234 350.662 644.216 350.25C644.2 349.838 643.014 348.166 641.582 346.539L638.98 343.576L635.804 347.359C632.996 350.705 632.183 351.105 628.786 350.822L624.942 350.5L629.595 345.061C634.096 339.797 635.091 337.639 633.477 336.641ZM661.248 339V351H664.248H667.248V339V327H664.248H661.248V339ZM679.248 351V339V327H682.088C684.38 327 685.873 328.203 689.838 333.25L694.748 339.5L695.046 333.25C695.34 327.062 695.373 327 698.296 327H701.248V339V351H698.405C696.123 351 694.591 349.789 690.655 344.875L685.748 338.748L685.451 344.875C685.157 350.926 685.117 351 682.201 351H679.248ZM794.248 351H803.748H813.248V348V345H806.748H800.248V336V327H797.248H794.248V339V351ZM827.463 350.926C822.465 349.184 821.248 346.266 821.248 336.035V327H824.248H827.248V334.977C827.248 342.324 827.44 343.08 829.681 344.549C831.574 345.787 832.574 345.896 834.181 345.035C836.02 344.051 836.248 342.998 836.248 335.465V327H839.748H843.248V334.852C843.248 344.918 842.023 348.404 837.777 350.418C833.858 352.279 831.657 352.387 827.463 350.926ZM862.557 327H853.248V339V351H862.793C871.595 351 872.53 350.809 874.793 348.545C877.263 346.076 878.179 340.693 876.326 339.547C876.075 339.393 875.866 338.752 875.729 337.842C875.589 336.906 875.527 335.684 875.576 334.408C875.821 327.936 874.177 327 862.557 327ZM333.248 346V339V332H418.248H503.248V339V346H418.248H333.248ZM935.248 339V346H1020.25H1105.25V339V332H1020.25H935.248V339ZM527.248 341C527.248 337.377 528.961 334.889 532.248 333.734C534.684 332.879 538.62 334.062 540.498 336.217C544.467 340.764 540.787 348 534.504 348C529.706 348 527.248 345.629 527.248 341ZM900.648 334.436C895.787 336.539 894.847 340.949 898.321 345.365C899.789 347.232 901.328 348 903.598 348C908.563 348 911.248 345.576 911.248 341.098C911.248 335.078 906.321 331.982 900.648 334.436ZM445.248 223.045V243.092L448.998 242.412C453.925 241.52 457.15 239.811 460.446 236.34C470.207 226.062 466.95 209.951 454.016 204.549C451.979 203.695 449.173 203 447.781 203H445.248V223.045ZM660.248 223.045V243.092L663.998 242.404C669.844 241.338 671.494 240.494 675.224 236.674C685.284 226.371 682.124 210.023 669.016 204.549C666.979 203.695 664.173 203 662.781 203H660.248V223.045ZM545.165 252.25C546.742 247.986 549.723 240.09 551.79 234.701C553.859 229.311 555.862 225.262 556.242 225.701C556.765 226.307 565.064 247.783 569.012 258.75C569.176 259.205 568.58 259.51 566.799 259.703C565.828 259.809 564.503 259.883 562.757 259.93C560.945 259.979 558.678 260 555.88 260H542.298L545.165 252.25ZM869.274 229.441C868.16 232.039 867.247 234.467 867.247 234.832C867.247 234.957 867.015 235.658 866.613 236.775C865.826 238.967 864.384 242.75 862.747 246.9C861.502 250.053 860.372 253.043 859.556 255.312C858.748 257.557 858.247 259.1 858.247 259.4C858.247 260.148 861.844 260.428 869.497 260.273L878.252 260.104C880.586 260.061 882.31 260.029 882.881 260.023C884.893 260.002 884.649 259.023 878.543 242.75C874.983 233.264 871.897 225.324 871.685 225.107C871.472 224.893 870.387 226.844 869.274 229.441ZM573.42 335.807C570.179 336.047 569.248 335.768 569.248 334.557C569.248 333.373 570.35 333 573.831 333C579.734 333 579.388 335.367 573.42 335.807ZM864.42 335.807C861.179 336.047 860.248 335.768 860.248 334.557C860.248 333.373 861.35 333 864.831 333C870.734 333 870.388 335.367 864.42 335.807ZM569.982 341.6C567.951 343.631 569.444 345 573.69 345C577.75 345 580.275 343.693 578.889 342.307C577.963 341.383 570.771 340.811 569.982 341.6ZM865.248 345C860.915 345 860.248 344.732 860.248 343C860.248 340.85 861.747 340.551 867.123 341.625C872.322 342.664 871.024 345 865.248 345ZM604.484 333.035C599.135 335.186 599.871 342.975 605.613 344.977C612.357 347.326 617.268 338.52 611.668 334.115C608.73 331.803 607.872 331.674 604.484 333.035Z" fill="black" fill-opacity="0.746"/>
<path fill-rule="evenodd" clip-rule="evenodd" d="M95.0316 1.28395C47.9856 9.97795 10.3596 50.6879 6.39862 97.1839C5.71662 105.185 5.68959 105.235 0.256587 108.415C0.105587 108.503 -0.00939409 143.799 0.00060591 186.849L0.0195878 265.123L5.35864 271.741C21.7186 292.018 38.7516 321.384 51.4726 351.245C60.4876 372.407 65.4846 387.985 74.1096 421.806C77.9626 436.914 81.3206 449.482 81.5736 449.734C81.8256 449.986 82.0316 400.617 82.0316 340.026C82.0316 259.921 81.7286 229.859 80.9206 229.859C79.1836 229.859 42.6646 214.693 41.4316 213.46C40.4986 212.525 34.6946 184.822 35.3156 184.263C35.4346 184.156 48.8066 192.045 65.0316 201.794L94.5316 219.519L94.7936 255.47L95.0556 291.421L105.044 301.371L115.032 311.321L125.02 301.371L135.008 291.421L135.27 255.478L135.532 219.535L165.032 201.837C181.257 192.103 194.629 184.211 194.748 184.298C195.385 184.768 189.558 212.528 188.632 213.436C188.027 214.029 181.907 216.823 175.032 219.645C168.157 222.467 159.382 226.073 155.532 227.657L148.532 230.539L148.278 340.37C148.138 400.777 148.236 449.988 148.496 449.728C148.756 449.469 150.749 442.304 152.926 433.807C162.234 397.474 164.085 390.768 167.824 379.859C182.485 337.073 206.307 292.596 227.536 268.37L231.032 264.381V186.12C231.032 117.221 230.853 107.859 229.532 107.859C226.578 107.859 224.033 104.051 224.016 99.6089C223.993 93.2669 220.547 78.1309 217.08 69.1409C212.456 57.1479 204.492 44.616 195.266 34.81C178.177 16.647 159.023 5.99797 135.032 1.32097C126.077 -0.424028 104.388 -0.444046 95.0316 1.28395ZM101.532 14.513C90.9046 16.758 84.3346 18.671 77.7286 21.443C53.3276 31.685 33.8866 52.6409 25.0036 78.2779C22.2256 86.2949 19.7106 98.7649 20.6646 99.7939C21.5766 100.778 43.8926 89.658 59.4326 80.475C80.1556 68.231 102.583 45.639 111.419 28.109C112.875 25.222 114.477 22.859 114.979 22.859C115.481 22.859 117.749 26.224 120.02 30.337C125.804 40.815 131.571 48.184 141.214 57.418C149.426 65.282 164.7 77.3159 169.855 79.9859C171.314 80.7409 175.438 83.1209 179.02 85.2739C185.852 89.3809 207.463 99.8589 209.102 99.8589C211.42 99.8589 206.559 80.0329 201.62 69.3419C196.808 58.9279 190.783 50.429 182.093 41.799C167.47 27.275 153.229 19.658 132.824 15.449C125.751 13.99 106.707 13.42 101.532 14.513ZM108.273 58.146C97.9676 70.605 82.0716 83.4819 62.8276 94.9629C50.4246 102.364 30.6696 112.061 20.2816 115.848L14.0316 118.127V188.789V259.451L19.9246 267.137C36.0226 288.132 51.3706 314.822 63.4686 342.859L67.9986 353.359L68.0116 296.859L68.0256 240.359L48.3246 232.293L28.6236 224.228L27.4346 219.293C26.7816 216.58 25.0046 207.609 23.4866 199.359C21.9676 191.109 19.5156 178.059 18.0356 170.359C16.5566 162.659 15.4736 156.198 15.6306 156.001C15.9186 155.637 21.7336 158.993 37.0316 168.354C41.7066 171.215 59.7066 182.013 77.0316 192.351C94.3566 202.689 108.654 211.241 108.803 211.357C108.952 211.473 109.078 228.212 109.083 248.555L109.091 285.542L112.062 288.387L115.032 291.233L118.028 288.362L121.025 285.492L120.947 248.568L120.868 211.645L161.7 187.122C184.158 173.635 205.007 161.117 208.032 159.306C212.686 156.519 213.575 156.269 213.812 157.685C213.965 158.606 212.484 167.909 210.52 178.359C208.555 188.809 205.873 203.09 204.559 210.094C203.244 217.098 201.94 223.198 201.661 223.65C201.382 224.102 192.351 228.027 181.593 232.373L162.032 240.274L162.06 296.817L162.088 353.359L166.882 342.359C179.355 313.738 194.92 286.749 210.666 266.438L216.032 259.517V188.874V118.232L208.782 115.439C197.003 110.9 174.281 99.5249 163.532 92.7879C145.825 81.6869 131.277 69.614 121.791 58.146C118.475 54.138 115.434 50.859 115.032 50.859C114.63 50.859 111.589 54.138 108.273 58.146Z" fill="black" fill-opacity="0.746"/>
<path fill-rule="evenodd" clip-rule="evenodd" d="M333 150.074V129L342.25 129.287C350.98 129.559 351.518 129.701 351.82 131.824C352.123 133.963 351.81 134.074 345.57 134.074C340.397 134.074 339 134.395 339 135.574C339 136.623 340.056 137.074 342.5 137.074C345.567 137.074 346 137.385 346 139.574C346 141.766 345.567 142.074 342.5 142.074C340.056 142.074 339 142.527 339 143.574C339 144.754 340.389 145.074 345.5 145.074C351.767 145.074 352 145.164 352 147.574C352 150.066 351.967 150.074 342.5 150.074H333ZM360 135.504C360 134.168 360.949 132.127 362.11 130.965C363.922 129.152 365.119 128.912 370.622 129.264C378.391 129.758 381.18 131.697 378.114 134.473C376.584 135.857 375.734 136.004 374.149 135.154C371.721 133.855 366 133.719 366 134.961C366 135.445 368.512 136.158 371.582 136.541C377.226 137.246 381 139.646 381 142.527C381 150.264 370.454 153.406 361.75 148.268C360.611 147.596 359.842 146.961 359.435 146.338C358.738 145.27 359.104 144.232 360.495 143.078C361.699 142.08 362.471 142.152 364.46 143.457C367.449 145.416 375.372 145.699 374.755 143.824C374.617 143.404 374.087 142.984 373.392 142.689C373.135 142.58 372.855 142.488 372.565 142.42C372.469 142.396 372.371 142.375 372.272 142.357C372.156 142.336 372.039 142.318 371.922 142.305C362.588 141.266 360 139.789 360 135.504ZM386.55 131.121C386.559 131.225 386.57 131.33 386.586 131.438C386.618 131.666 386.664 131.9 386.725 132.133C387.099 133.562 388.107 134.074 390.549 134.074C394.544 134.074 395.11 135.357 394.768 143.635C394.528 149.436 394.586 149.582 397.261 149.891L400 150.209V134.074H404C407.6 134.074 408 133.824 408 131.574V129.074H397.667C391.983 129.074 387.082 129.326 386.775 129.633C386.686 129.723 386.62 129.885 386.579 130.094C386.544 130.277 386.527 130.498 386.53 130.742C386.532 130.863 386.539 130.99 386.55 131.121ZM416 150.074V129.074H422.351C424.148 129.074 426.13 129.197 427.851 129.393C429.474 129.578 430.864 129.828 431.652 130.104C436.874 131.924 439.538 139.199 436.883 144.391C434.577 148.9 431.957 150.029 423.75 150.053L416 150.074ZM446.105 145.447C444.314 147.607 445.871 150.074 449.024 150.074C452.143 150.074 453.196 148.48 451.83 145.824C450.754 143.734 447.695 143.533 446.105 145.447ZM422 145.074H425.345C429.078 145.074 432 142.57 432 139.369C432 136.67 429.987 135.109 425.589 134.396L422 133.812V145.074Z" fill="black" fill-opacity="0.746"/>
</svg>
