<svg width="300" height="230" viewBox="0 0 300 230" fill="none" xmlns="http://www.w3.org/2000/svg">
<g clip-path="url(#clip0_1248_8)">
<path fill-rule="evenodd" clip-rule="evenodd" d="M61.254 5.15899C59.606 8.09699 48.692 29.4 37.001 52.5C25.31 75.6 12.852 100.012 9.317 106.75L2.888 119L15.194 118.991L27.5 118.983L37 100.472L46.5 81.961L49.157 85.082L51.815 88.202L56.343 80.351C58.834 76.033 61.279 71.837 61.778 71.027C62.484 69.879 63.518 70.811 66.47 75.257C68.552 78.393 70.571 80.765 70.955 80.528C71.339 80.291 72.474 78.275 73.478 76.048C74.482 73.822 75.573 72.002 75.902 72.004C76.231 72.006 81.9 82.571 88.5 95.482L100.5 118.957L112.796 118.978L125.093 119L106.857 83.25C96.827 63.587 83.137 36.772 76.436 23.659L64.251 -0.182007L61.254 5.15899ZM141 59.5V119H152H163V59.5V-6.83963e-06H152H141V59.5ZM186.242 59.709L186.5 119.5L197.25 119.784L208 120.068V92.534V65L220.75 65.022C234.735 65.046 239.236 66.278 243.919 71.362C245.249 72.806 251.622 84.228 258.081 96.744L269.824 119.5L281.912 119.781C288.56 119.935 294 119.786 294 119.449C294 119.113 287.925 107.01 280.5 92.555C273.075 78.099 267 65.761 267 65.136C267 64.511 267.812 64 268.804 64C272.277 64 280.841 58.877 285.254 54.16C300.043 38.349 295.104 12.609 275.423 2.92299L270.5 0.499993L228.242 0.208993L185.984 -0.0820068L186.242 59.709ZM208 32.5V43H236.277C261.284 43 264.841 42.803 267.027 41.296C270.963 38.583 271.934 36.79 271.968 32.173C271.994 28.7 271.423 27.269 269.077 24.923L266.154 22H237.077H208V32.5ZM0 151.766C0 172.088 0.769 174.815 7.604 178.734C11.113 180.745 12.868 180.969 25.25 180.984L39 181V176.5V172H25.655C13.997 172 12.101 171.769 10.655 170.171C9.25 168.619 9 165.746 9 151.171V134H4.5H0V151.766ZM54.271 136.095C42.389 141.976 37.755 155.489 43.436 167.69C48.877 179.376 63.095 184.106 74.753 178.11C91.936 169.272 91.982 145.15 74.832 136.603C68.162 133.28 60.348 133.087 54.271 136.095ZM107.229 136.573C92.046 144.139 89.884 164.041 103.024 175.289C108.408 179.897 113.316 181 128.443 181H141V176.5V172H127.901C117.887 172 113.997 171.618 111.381 170.377C101.273 165.58 100.446 151.584 109.898 145.27C113.022 143.183 114.411 143 127.148 143H141V138.5V134H126.696C113.335 134 112.052 134.17 107.229 136.573ZM150 157.5V181H154.5H159V175.145C159 169.353 159.059 169.235 164.44 164.145C167.432 161.315 170.059 159 170.277 159C170.496 159 174.196 163.95 178.5 170L186.326 181H191.722C195.781 181 196.928 180.69 196.352 179.75C195.93 179.063 191.375 172.711 186.229 165.636L176.872 152.773L184.186 146.044C188.209 142.343 192.85 138.133 194.5 136.689L197.5 134.063L190.887 134.032L184.274 134L171.887 145.367L159.5 156.734L159.218 145.367L158.937 134H154.468H150V157.5ZM209.03 135.279C207.672 135.967 205.534 138.052 204.28 139.912C202.184 143.023 202 144.393 202.002 156.898C202.004 179.875 203.342 180.996 230.75 180.998L249 181V176.5V172H231.2C218.689 172 213.043 171.643 212.2 170.8C211.54 170.14 211 167.452 211 164.827V160.053L225.75 159.777L240.5 159.5L240.807 155.25L241.115 151H225.997H210.879L211.19 147.25L211.5 143.5L230.25 143.228L249 142.956V138.478V134L230.25 134.015C217.262 134.025 210.741 134.414 209.03 135.279ZM258 157.5V181H262.5H267V170.5V160H272.927C279.946 160 280.47 160.498 286.45 172.844L290.4 181H295.2C297.84 181 300 180.767 300 180.482C300 180.197 297.722 175.425 294.938 169.877C292.154 164.329 290.017 159.67 290.188 159.522C290.36 159.375 291.955 158.515 293.733 157.61C297.749 155.568 300 151.373 300 145.932C300 142.425 299.385 141.15 296.118 137.882L292.235 134H275.118H258V157.5ZM56.605 144.922C51.618 148.209 49.695 152.311 50.213 158.558C50.571 162.873 51.282 164.685 53.543 167.044C59.442 173.202 68.528 173.405 74.422 167.511C83.895 158.039 77.369 142.986 63.8 143.007C61.256 143.01 58.317 143.793 56.605 144.922ZM267 146.968V151H277.309C288.752 151 291.418 150.004 290.845 145.944C290.504 143.529 290.36 143.497 278.75 143.218L267 142.937V146.968ZM53 209.966C53 211.672 53.644 212 57 212H61V221C61 229.933 61.019 230 63.5 230C65.981 230 66 229.933 66 221V212H70.573C74.39 212 75.091 211.71 74.811 210.25C74.521 208.735 73.037 208.462 63.738 208.216C53.514 207.946 53 208.03 53 209.966ZM82 219V230H84.5C86.838 230 87 229.671 87 224.934C87 219.997 87.07 219.875 89.75 220.184C91.875 220.428 93.068 221.579 95 225.247C96.85 228.76 98.085 229.995 99.75 229.997C102.5 230.001 102.503 229.906 99.925 224.854L97.851 220.788L99.925 218.579C102.489 215.851 102.599 211.852 100.171 209.655C98.784 208.399 96.371 208 90.171 208H82V219ZM138 219C138 229.333 138.121 230 140 230C141.879 230 142 229.333 142 219C142 208.667 141.879 208 140 208C138.121 208 138 208.667 138 219ZM150 218.917C150 229.247 150.133 230 151.954 230C153.667 230 153.945 229.181 154.204 223.368L154.5 216.736L159.5 220.66C162.25 222.818 166.188 225.855 168.25 227.41L172 230.237V219.119C172 208.667 171.88 208 170 208C168.205 208 168 208.667 168 214.5C168 218.075 167.744 221 167.43 221C167.117 221 163.067 218.038 158.43 214.417L150 207.834V218.917ZM180 219C180 229.333 180.121 230 182 230C183.879 230 184 229.333 184 219C184 208.667 183.879 208 182 208C180.121 208 180 208.667 180 219ZM192 218.917C192 229.247 192.133 230 193.954 230C195.665 230 195.945 229.181 196.204 223.423L196.5 216.847L204.909 223.423C209.534 227.041 213.471 230 213.659 230C213.846 230 214 225.019 214 218.93C214 208.023 213.967 207.866 211.75 208.18C209.728 208.468 209.47 209.136 209.202 214.767L208.904 221.033L200.452 214.434L192 207.834V218.917ZM225.4 211.4C222.613 214.187 222 215.557 222 219C222 222.443 222.613 223.813 225.4 226.6C228.67 229.87 229.09 230 236.4 230H244V224V218H238C232.667 218 232 218.222 232 220C232 221.619 232.667 222 235.5 222C238.333 222 239 222.381 239 224C239 225.655 238.333 226 235.135 226C227.606 226 223.714 220.045 227.88 214.9C229.454 212.956 230.914 212.514 236.88 212.177C243.049 211.828 244 211.522 244 209.887C244 208.203 243.182 208 236.4 208C229.09 208 228.67 208.13 225.4 211.4ZM114.25 218.995C111.362 224.47 109 229.186 109 229.475C109 229.764 110.042 230 111.316 230C113.162 230 114.215 228.781 116.5 224C118.077 220.7 119.652 218 120 218C120.348 218 121.923 220.7 123.5 224C125.785 228.781 126.838 230 128.684 230C129.958 230 131 229.73 131 229.401C131 228.262 120.699 209 120.1 209.02C119.77 209.032 117.138 213.52 114.25 218.995ZM87 214C87 215.911 87.484 216.077 92.25 215.802C96.116 215.58 97.5 215.104 97.5 214C97.5 212.896 96.116 212.42 92.25 212.198C87.484 211.923 87 212.089 87 214Z" fill="black" fill-opacity="0.8"/>
</g>
<defs>
<clipPath id="clip0_1248_8">
<rect width="300" height="230" fill="white"/>
</clipPath>
</defs>
</svg>
