<svg width="2800" height="721" viewBox="0 0 2800 721" fill="none" xmlns="http://www.w3.org/2000/svg">
<path fill-rule="evenodd" clip-rule="evenodd" d="M1593.17 0.84201C1593.35 1.30601 1652.42 74.431 1724.43 163.342L1855.36 325H2181.3H2507.24L2503.79 320.75C2501.89 318.413 2472.55 281.738 2438.57 239.25L2376.8 162H2146.07H1915.35L1856.93 89.808C1824.79 50.103 1795.22 13.653 1791.22 8.80801L1783.94 0H1688.39C1635.83 0 1592.98 0.37901 1593.17 0.84201ZM1328 32.045C1281.92 37.719 1238.61 60.277 1209.46 93.776C1166.18 143.524 1152.42 210.744 1172.68 273.433C1177.19 287.376 1189.01 310.698 1197.76 322.92C1223.32 358.637 1261.3 384.332 1304.16 394.911C1320.08 398.841 1330.07 400 1348 400C1379.85 400 1405.38 393.741 1433.92 378.941C1463.54 363.575 1490.01 338.26 1507.45 308.621C1534.03 263.471 1539.93 207.753 1523.4 158C1511.62 122.527 1488.52 90.443 1458.5 67.845C1436.96 51.628 1408 38.985 1380.93 33.973C1367.85 31.552 1340.19 30.544 1328 32.045ZM32.667 35.667C32.3 36.033 32 43.579 32 52.434V68.534L42.766 79.267L53.533 90H160.766C219.745 90 268 90.338 268 90.751C268 91.165 207.7 151.802 134 225.5C60.3 299.198 0 359.943 0 360.488C0 361.032 7.30701 368.795 16.239 377.739L32.477 394H184.005H335.533L346.793 382.708L358.053 371.416L357.776 355.458L357.5 339.5L228.75 339.246C157.938 339.107 100 338.656 100 338.245C100 337.834 160.3 277.198 234 203.5C307.7 129.802 368 69.047 368 68.49C368 67.933 360.683 60.17 351.739 51.239L335.478 35H184.406C101.316 35 33.033 35.3 32.667 35.667ZM466.741 48.759L453 62.526V214.526V366.527L466.763 380.263L480.526 394H581.912H683.299L694.173 383.285L705.046 372.569L704.773 356.035L704.5 339.5L606.5 339L508.5 338.5L508.24 290.25L507.981 242H571.19H634.4L645.226 231.174L656.051 220.349L655.776 203.924L655.5 187.5L581.74 187.244L507.981 186.987L508.24 138.744L508.5 90.5L595.989 90.244L683.478 89.989L694.26 79.244L705.042 68.5L704.771 52L704.5 35.5L592.491 35.246L480.482 34.991L466.741 48.759ZM815.874 48.66L801.994 62.414L802.247 227.957L802.5 393.5L818.874 393.775L835.247 394.051L846.116 383.34L856.985 372.63L857.242 311.065L857.5 249.5L913.11 249.242L968.719 248.983L1001.78 321.242L1034.84 393.5L1049.04 393.778L1063.24 394.056L1074.12 383.336C1080.1 377.439 1085 372.294 1085 371.901C1085 371.509 1072.57 344.033 1057.38 310.844C1042.19 277.655 1028.93 248.585 1027.91 246.244L1026.07 241.989L1033.78 238.087C1061.02 224.313 1080.6 200.647 1089.69 170.5C1092.24 162.065 1092.41 160.308 1092.4 142.5C1092.39 126.181 1092.09 122.417 1090.26 115.825C1080.48 80.685 1055.09 52.994 1022.07 41.458C1004.88 35.452 1008.98 35.689 915.627 35.282L829.755 34.906L815.874 48.66ZM1331.22 86.998C1275.96 94.805 1232.36 135.619 1220.88 190.266C1218.08 203.617 1217.86 225.399 1220.4 238.464C1225.64 265.426 1236.35 286.167 1254.93 305.345C1274.98 326.043 1298.68 338.687 1326.38 343.467C1337.86 345.448 1358.97 345.432 1370.5 343.433C1419.74 334.894 1460.88 296.978 1473.47 248.531C1485.43 202.482 1471.26 153.746 1436.42 121.153C1418.62 104.499 1399.42 94.414 1375 88.882C1365.19 86.66 1340.98 85.619 1331.22 86.998ZM857.667 90.667C857.3 91.033 857 114.433 857 142.667V194H924.79C981.979 194 993.485 193.764 998.369 192.492C1013.68 188.504 1026.26 178.332 1033.2 164.332C1037.14 156.372 1037.38 155.398 1037.8 145.064C1038.17 136.003 1037.9 133.028 1036.16 127.298C1030.75 109.495 1015.29 95.289 997.122 91.438C991.825 90.316 977.277 90.031 924.417 90.017C888.071 90.008 858.033 90.3 857.667 90.667ZM1662 358.112C1662 513.363 1662.05 517.394 1663.86 515.472C1669 510.009 1790.29 359.54 1790.39 358.503C1790.48 357.518 1751.11 308.5 1671.25 210.17L1662 198.78V358.112ZM1853.32 394.25C1852.2 395.487 1794.67 466.475 1725.47 552C1656.26 637.525 1598.09 709.412 1596.2 711.75L1592.76 716H1688.73H1784.69L1850.1 635.066L1915.5 554.132L2016.83 554.066L2118.16 554L2109.77 564.25C2102.73 572.844 1994.26 706.733 1988.68 713.72L1986.85 716H2082.84H2178.82L2244.24 635.25L2309.65 554.5L2490.32 554.247L2670.99 553.995L2734.79 474.247C2769.88 430.386 2798.93 393.938 2799.35 393.25C2799.96 392.251 2705.38 392 2327.73 392H1855.35L1853.32 394.25ZM1200.51 498.048C1184.46 499.856 1165.32 506.981 1151.08 516.449C1117.32 538.888 1097.45 580.912 1101.9 620.45C1107.6 671.086 1144.79 710.99 1194.33 719.626C1207.87 721.986 1229.3 721.049 1241.96 717.543C1258.89 712.859 1278.79 701.941 1288.46 692.035L1292.43 687.976L1284.49 679.988L1276.55 672H1268.61C1261.52 672 1260.18 672.316 1256.06 674.963C1242.77 683.49 1229.33 687.333 1213 687.274C1199.8 687.226 1190.09 685.081 1179.86 679.95C1150.46 665.214 1133.53 636.947 1135.3 605.541C1135.99 593.385 1137.83 586.061 1142.87 575.5C1162.63 534.067 1215 518.523 1253.94 542.531C1260.84 546.787 1261.55 547 1268.73 547H1276.27L1284.38 539.032C1291.3 532.246 1292.34 530.799 1291.4 529.282C1289.54 526.253 1272.96 514.202 1265.03 510.107C1245.43 499.987 1222.06 495.62 1200.51 498.048ZM1319.67 501.829L1314.91 506.659L1354.46 569.69L1394 632.722V674.861V717H1404.34H1414.67L1421.34 710.097L1428 703.194V667.517V631.839L1466.65 570.224C1487.9 536.336 1505.48 507.882 1505.71 506.994C1505.97 506.012 1504.34 503.722 1501.56 501.159L1496.98 496.939L1484.77 497.219L1472.56 497.5L1442.03 546.23C1425.24 573.031 1411.09 594.83 1410.58 594.672C1410.07 594.514 1396.28 573.036 1379.93 546.943C1363.57 520.849 1349.68 498.938 1349.06 498.25C1348.27 497.385 1344.3 497 1336.17 497H1324.43L1319.67 501.829ZM311.048 499.91C309.254 503.263 220.831 698.382 219.764 701.342C218.803 704.009 219.131 704.578 225.091 710.592L231.442 717L240.471 716.993L249.5 716.985L288.558 630.743C310.039 583.309 327.998 544.58 328.465 544.679C328.932 544.777 346.862 583.589 368.309 630.929L407.304 717H416.431H425.558L431.918 710.583C435.503 706.965 438.053 703.585 437.763 702.833C434.641 694.739 345.43 499.307 344.611 498.765C344 498.361 336.428 498.024 327.785 498.015C313.331 498.001 311.988 498.153 311.048 499.91ZM29.75 506.746L23 513.55V607.047V700.544L31.271 708.772L39.542 717H112.05H184.558L190.779 710.723L197 704.446V694.223V684H128.505H60.01L59.755 592.25L59.5 500.5L48 500.221L36.5 499.943L29.75 506.746ZM441.094 506.619L433.933 513.249L434.216 523.375L434.5 533.5L470.75 533.762L507 534.025V625.512V717H517.777H528.554L535.277 710.225L542 703.45V618.725V534H571.107H600.213L607.64 526.798L615.068 519.596L614.784 510.048L614.5 500.5L531.378 500.244L448.256 499.989L441.094 506.619ZM666.736 508.763L658 517.54V608.892V700.244L666.177 708.622L674.355 717H736.454H798.554L805.317 710.185L812.08 703.369L811.79 693.935L811.5 684.5L752 684L692.5 683.5V654.5V625.5L730.487 625.238L768.475 624.975L775.268 618.238L782.062 611.5L781.781 602L781.5 592.5L736.75 592.24L692 591.979V562.99V534H744.775H797.55L804.815 526.686L812.08 519.372L811.79 509.936L811.5 500.5L743.486 500.243L675.472 499.986L666.736 508.763ZM876.75 506.747L870 513.55V615.275V717H882.288H894.575L899.281 712.222L903.987 707.444L904.244 631.55L904.5 555.655L960.341 636.328L1016.18 717H1028.37H1040.56L1046.78 710.723L1053 704.446V602.223V500H1040.71H1028.42L1024.21 504.281L1020.01 508.563L1019.76 585.531L1019.5 662.5L963.401 581.5L907.303 500.5L895.401 500.222L883.5 499.944L876.75 506.747Z" fill="black" fill-opacity="0.337"/>
<path fill-rule="evenodd" clip-rule="evenodd" d="M1319.87 33.4822C1279.51 40.0352 1243.67 58.8322 1215.43 88.2442C1201.29 102.974 1192.73 115.049 1183.67 133.021C1170.82 158.531 1165.29 180.259 1164.33 209C1163.55 232.703 1165.63 249.181 1172.09 270.31C1182.09 302.991 1202.55 334.036 1228.39 355.722C1264.64 386.151 1309.29 401.65 1355 399.675C1394.34 397.975 1429.16 385.469 1460 361.963C1495.05 335.244 1519.37 296.455 1528.59 252.569C1532.04 236.175 1532.94 208.894 1530.61 191.5C1526.66 162.026 1515.47 133.476 1498.25 109C1487.89 94.2692 1466.28 73.2392 1451.14 63.1482C1430.66 49.5032 1408.53 40.1382 1384.5 34.9522C1371.48 32.1402 1333.45 31.2762 1319.87 33.4822ZM32.667 36.6672C32.3 37.0332 32 44.3542 32 52.9342V68.5342L42.766 79.2672L53.533 90.0002H160.707C219.653 90.0002 268.107 90.3642 268.383 90.8102C268.658 91.2552 208.609 151.892 134.942 225.558C61.274 299.225 1 360.178 1 361.011C1 361.843 7.86799 369.381 16.262 377.762L31.523 393H184.03H336.536L346.794 382.707L357.052 372.414L356.776 355.957L356.5 339.5L227.75 339.246C156.938 339.107 99 338.656 99 338.245C99 337.834 159.3 277.198 233 203.5C306.7 129.802 367 68.8222 367 67.9892C367 67.1572 360.132 59.6192 351.738 51.2382L336.477 36.0002H184.905C101.541 36.0002 33.033 36.3002 32.667 36.6672ZM466.207 49.3292L453 62.6662V214.5V366.334L466.202 379.667L479.405 393H581.469H683.534L694.293 382.207L705.053 371.414L704.776 355.457L704.5 339.5L606 339L507.5 338.5V290.5V242.5L570.491 242.242L633.483 241.985L644.241 231.259L655 220.534V204.267V188H582.122C521.782 188 509.05 187.765 508.113 186.636C507.296 185.652 507.053 172.043 507.24 137.886L507.5 90.5002L595.563 90.2452L683.626 89.9892L694.339 79.1182L705.052 68.2462L704.776 52.3732L704.5 36.5002L591.957 36.2462L479.413 35.9912L466.207 49.3292ZM816.236 49.2632L803 62.5272V227.763V393H819.267H835.534L846.267 382.234L857 371.467V310.225V248.983L913.167 249.242L969.334 249.5L1002.03 321L1034.73 392.5L1049.07 392.779L1063.41 393.057L1073.7 382.797C1079.37 377.153 1084 371.929 1084 371.187C1084 370.445 1070.95 341.282 1055 306.38C1039.05 271.478 1026 242.588 1026 242.18C1026 241.772 1029.49 239.718 1033.75 237.615C1061.9 223.727 1081.91 198.802 1090.13 167.365C1092.13 159.74 1092.44 156.192 1092.38 142C1092.32 127.556 1091.99 124.29 1089.72 115.794C1078.96 75.4062 1046.62 45.2662 1005.75 37.5122C999.033 36.2382 984.544 36.0002 913.626 36.0002H829.472L816.236 49.2632ZM1323 88.1322C1285.84 95.9172 1255.6 117.397 1236.08 149.864C1229.64 160.577 1225.42 170.888 1221.71 184.993C1218.9 195.666 1218.67 197.805 1218.59 214.5C1218.5 234.102 1219.6 241.55 1224.93 257.268C1237.54 294.489 1267.51 324.977 1304.58 338.292C1318.89 343.432 1331.15 345.452 1348 345.448C1365.02 345.444 1374.01 344.03 1389.21 338.966C1431.42 324.904 1463.66 289.716 1474.57 245.797C1478.12 231.505 1478.96 210.481 1476.56 195.922C1467.54 141.032 1426.24 98.4672 1371.75 87.9052C1358.23 85.2822 1336.11 85.3862 1323 88.1322ZM857.241 142.25L857.5 194.5L922.779 194.757C977.516 194.973 989.225 194.773 995.279 193.521C1031.98 185.932 1049.92 147.018 1031.34 115.312C1027.44 108.656 1018.34 99.9932 1011.37 96.2872C999.437 89.9472 1000.17 90.0002 925.097 90.0002H856.982L857.241 142.25ZM1193.5 499.544C1182.2 501.652 1173.97 504.505 1162.83 510.177C1133.63 525.05 1113.83 549.816 1104.78 582.802C1103.01 589.236 1102.65 593.455 1102.58 608.5C1102.5 626.903 1102.98 630.607 1107.22 644C1116.1 672.038 1139.17 697.968 1166.44 710.567C1206.45 729.055 1254.9 721.881 1287.5 692.641L1292.5 688.156L1285.03 680.578L1277.55 673L1268.53 673.004C1260.17 673.008 1259.17 673.231 1255 676.006C1242.79 684.135 1225.44 688.597 1209.54 687.698C1147.06 684.164 1113.34 614.426 1149.5 563.5C1164.09 542.949 1187.45 530.979 1212.91 531.015C1228.65 531.037 1242.73 534.927 1254.63 542.54C1259.68 545.77 1260.59 546 1268.29 546H1276.55L1284.34 538.156L1292.14 530.313L1286.82 525.526C1274.74 514.653 1257.79 505.656 1241.28 501.347C1228.77 498.082 1205.95 497.221 1193.5 499.544ZM1319.7 501.792C1317.67 503.878 1316 506.061 1316 506.644C1316 507.227 1333.55 535.689 1354.99 569.893L1393.98 632.083L1394.24 674.291L1394.5 716.5L1403.94 716.79L1413.37 717.08L1420.19 710.317L1427 703.554V668.16V632.766L1466.55 569.721L1506.1 506.675L1501.84 502.338L1497.58 498L1485.04 498.02L1472.5 498.04L1443 545.211C1426.77 571.155 1412.8 593.248 1411.95 594.306C1410.49 596.119 1408.61 593.385 1379.61 547.115L1348.83 498H1336.12H1323.41L1319.7 501.792ZM265.086 601.565L218.671 704.115L225.086 710.59L231.5 717.065L240.41 716.783L249.32 716.5L288.445 630.153C309.964 582.662 328.004 543.96 328.535 544.149C329.066 544.339 346.633 582.295 367.573 628.497C388.514 674.698 406.192 713.513 406.859 714.75C407.964 716.803 408.791 717 416.312 717H424.554L431.205 710.25L437.856 703.5L391.586 601.5L345.315 499.5L328.408 499.258L311.5 499.015L265.086 601.565ZM30.723 506.775L24 513.55V607.047V700.544L32.271 708.772L40.542 717H112.048H183.554L190.277 710.225L197 703.45V693.732V684.014L128.25 683.757L59.5 683.5L59.245 591.75L58.99 500H48.218H37.446L30.723 506.775ZM441.25 506.88L434 513.666V523.321V532.975L470.75 533.238L507.5 533.5L507.755 625.25L508.01 717H517.628H527.245L533.873 710.801L540.5 704.601L541 619.051L541.5 533.5L570.852 533.235L600.205 532.969L607.102 526.839L614 520.709V510.354V500L531.25 500.047L448.5 500.095L441.25 506.88ZM667.228 508.271L659 516.542V608.543V700.544L667.271 708.772L675.542 717H737.05H798.558L804.779 710.723L811 704.446V694.223V684H751.5H692V654.5V625H730.279H768.558L774.779 618.723L781 612.446V602.223V592H736.5H692V562.5V533H745.279H798.558L804.779 526.723L811 520.446V510.223V500H743.228H675.456L667.228 508.271ZM876.718 506.78L869.99 513.56L870.245 615.03L870.5 716.5L882.428 716.783L894.356 717.067L898.678 712.825L903 708.584V631.792C903 589.556 903.338 555.008 903.75 555.017C904.162 555.027 929.7 591.465 960.5 635.991L1016.5 716.948L1028.53 716.974L1040.56 717L1046.78 710.723L1053 704.446V602.223V500H1041.21H1029.43L1024.71 504.784L1020 509.569V585.784C1020 627.703 1019.66 661.98 1019.25 661.956C1018.84 661.932 993.303 625.482 962.506 580.956L906.513 500H894.98H883.446L876.718 506.78Z" fill="black"/>
</svg>
