<svg width="210" height="96" viewBox="0 0 210 96" fill="none" xmlns="http://www.w3.org/2000/svg">
<path d="M208.723 95.0441L208.301 93.9738C208.547 93.7637 208.578 93.6264 208.578 93.398C208.575 93.0007 208.288 92.7565 207.828 92.7565H207.246V95.0466H207.572V94.0176H207.969L208.381 95.0441H208.723ZM207.572 93.7564V93.0359H207.789C208.101 93.0359 208.236 93.1708 208.237 93.3846C208.237 93.5729 208.138 93.7564 207.789 93.7564H207.572Z" fill="#858689"/>
<path d="M207.92 95.9516C206.771 95.9516 205.837 95.0186 205.837 93.8705C205.837 92.7261 206.771 91.7955 207.92 91.7955C209.064 91.7955 210 92.7261 210 93.8705C210 95.0186 209.064 95.9516 207.92 95.9516ZM207.92 92.0579C206.918 92.0579 206.102 92.8756 206.102 93.8705C206.102 94.8765 206.918 95.6831 207.92 95.6831C208.917 95.6831 209.729 94.8765 209.729 93.8705C209.729 92.8756 208.917 92.0579 207.92 92.0579Z" fill="#858689"/>
<path d="M98.3455 74.5092L92.7558 91.8588L86.023 74.6161H84.2954L92.3901 95.7719H93.1494L98.9359 77.1224L104.821 95.7719H105.581L113.637 74.6161H111.869L105.233 91.8442L99.5713 74.5092H98.3455Z" fill="#858689"/>
<path d="M120.62 74.5978V95.5994H130.896V94.246H122.248V74.5978H120.62Z" fill="#858689"/>
<path d="M133.892 74.5978V95.5994H144.165V94.246H135.513V74.5978H133.892Z" fill="#858689"/>
<path d="M147.03 95.5993H148.658V74.6002H147.03V95.5993Z" fill="#858689"/>
<path d="M115.992 95.5993H117.629V74.6002H115.992V95.5993Z" fill="#858689"/>
<path d="M159.643 74.4884L150.959 95.5993H152.473L155.448 88.3453H164.629L167.597 95.5993H169.119L160.438 74.4884H159.643ZM160.024 77.1295L164.077 86.9992H156.004L160.024 77.1295Z" fill="#858689"/>
<path d="M188.983 74.6391L180.994 84.3873L173.005 74.6391H171.373V95.5994H173.005V77.013H173.065L180.994 86.8061L188.916 77.013H188.983V95.5994H190.613V74.6391H188.983Z" fill="#858689"/>
<path d="M204.088 78.0407C202.761 76.3265 200.874 75.9196 199.427 75.9196C196.911 75.9196 195.006 77.6435 195.006 79.9238C195.006 85.511 204.989 82.8419 204.989 90.1859C204.989 93.4102 202.319 95.9274 198.904 95.9274C197.185 95.9274 195.342 95.4584 193.526 94.0832V92.1795C195.57 94.1172 197.185 94.4246 198.811 94.4246C201.304 94.4246 203.231 92.6096 203.231 90.2454C203.231 84.284 193.253 86.8923 193.253 79.9845C193.253 76.8854 195.95 74.4277 199.278 74.418C200.967 74.418 203.124 75.1092 204.088 76.2609V78.0407Z" fill="#858689"/>
<path d="M31.7983 74.6633V95.6576H42.5913V92.9448H34.8149V74.6633H31.7983Z" fill="#858689"/>
<path d="M44.5244 74.6633V95.6576H55.3174V92.9448H47.5422V74.6633H44.5244Z" fill="#858689"/>
<path d="M57.2622 74.6633V95.6576H69.4547V92.9448H60.2787V86.4246H68.8728V83.7117H60.2787V77.3713H69.1765V74.6633H57.2622Z" fill="#858689"/>
<path d="M84.9466 95.6528L81.059 85.8451C83.3709 83.9353 83.6321 82.639 83.6066 80.5385C83.5738 76.906 80.9642 74.6633 76.7134 74.6633H71.4189V95.6601H74.4367V86.2715C74.4367 86.2715 76.9284 86.2739 78.0315 86.2666L81.8268 95.6528H84.9466ZM74.4367 83.8393V77.2498H76.3744C79.2999 77.2498 80.4698 78.4525 80.5014 80.4194C80.533 82.1786 79.6072 83.8393 76.3744 83.8393H74.4367Z" fill="#858689"/>
<path d="M17.6597 74.6633V95.6236H29.8279V92.9144H20.6726V86.4015H29.246V83.6984H20.6726V77.3689H29.5533V74.6633H17.6597Z" fill="#858689"/>
<path d="M12.2884 74.6633L11.2229 75.8163L3.49264 84.2281V74.6633H0.480957V95.5811H3.49264V88.4L6.84327 84.7286L11.2302 95.586H14.3391V95.5835L13.242 92.8841L8.98996 82.3717L13.5664 77.3616L16.0314 74.6633H12.2884Z" fill="#858689"/>
<path d="M0.470215 0.564331V64.0733H9.33154V49.1765L15.8299 42.7182L24.8674 64.0733H33.8453L21.9104 35.7387L30.2894 26.4558L46.5384 64.0733H49.9498L62.1411 34.9782L74.5292 64.0733H77.892L96.4602 21.2403H87.368L76.1911 47.229L65.3508 21.2403H59.0796L48.1481 47.229L36.9093 21.2403H25.1237L9.33154 37.0022V0.564331H0.470215Z" fill="#C33641"/>
</svg>
