<svg width="300" height="112" viewBox="0 0 300 112" fill="none" xmlns="http://www.w3.org/2000/svg">
<path fill-rule="evenodd" clip-rule="evenodd" d="M44.0736 0.10262C42.8164 0.447694 41.9026 1.43399 41.1142 3.29658C38.6667 9.07828 36.7793 16.5908 36.0623 23.4044C35.8331 25.5828 35.8159 27.1391 35.9097 37.1254C35.9594 42.3978 35.9709 42.6181 36.2415 43.4197C36.9035 45.3808 38.2609 46.785 40.6299 47.9591C43.5877 49.4249 44.4524 49.5731 50.9727 49.7306C53.7728 49.7983 56.2034 49.8732 56.3742 49.8969C56.5449 49.9206 43.9306 49.9484 28.3423 49.9586L0 49.9772V68.6652V87.3531H93.75H187.5V68.6652V49.9772H183.467H179.434L179.38 49.6979C179.35 49.5443 179.263 48.6082 179.187 47.618C179.032 45.6097 178.454 40.9368 178.011 38.1087C177.851 37.0899 177.74 36.2349 177.763 36.2088C177.787 36.1827 179.455 36.2329 181.471 36.3202C183.487 36.4073 185.499 36.445 185.942 36.4036C188.249 36.1882 189.371 34.8069 188.999 32.6418C188.598 30.3122 187.368 28.9741 184.209 27.4298C182.05 26.3742 180.13 25.7864 177.753 25.4536C177.251 25.3833 177.044 25.2738 176.671 24.8823C176.418 24.6158 176.153 24.1883 176.083 23.9321C176.012 23.6761 175.846 21.6784 175.712 19.493C175.501 16.0473 175.427 15.3744 175.151 14.4282C174.375 11.7676 173.157 10.2803 170.78 9.09343C169.245 8.32704 167.837 7.94385 166.889 8.03499C166.116 8.10924 164.623 8.82634 163.898 9.47104C163.311 9.99318 162.631 11.1229 162.484 11.8207C162.314 12.6249 162.409 13.5759 162.829 15.2732C163.876 19.4983 164.203 21.2837 164.211 22.8082C164.215 23.7937 164.169 24.3096 164.066 24.4124C163.958 24.5213 162.805 24.5893 159.969 24.6538C155.675 24.7515 155.239 24.814 153.81 25.5349C150.751 27.0794 149.871 31.284 152.145 33.4897C152.836 34.1594 154.97 35.2225 156.171 35.4948C157.268 35.7434 159.938 35.7623 161.362 35.5314C162.415 35.3606 164.311 35.4484 164.76 35.6888C165.16 35.9026 165.633 36.5518 165.696 36.9738C165.729 37.1938 165.874 38.6031 166.019 40.1056C166.632 46.465 166.776 47.5482 167.197 48.9358C167.299 49.2696 167.382 49.6405 167.383 49.7599C167.384 49.9658 166.549 49.9772 151.577 49.9772H135.77L135.62 48.0028C135.449 45.7525 135.018 42.1602 134.468 38.3855C134.26 36.9615 134.117 35.7693 134.15 35.7363C134.183 35.7034 135.299 35.7371 136.631 35.8111C140.101 36.0042 142.617 35.9863 143.365 35.7631C144.657 35.3778 145.4 34.378 145.4 33.0277C145.399 30.2249 143.725 28.3329 139.665 26.5463C138.182 25.8936 136.746 25.4671 134.93 25.1402C134.18 25.005 133.438 24.811 133.283 24.7091C133.127 24.6071 132.853 24.2727 132.673 23.9659C132.32 23.3635 132.325 23.4058 132.001 17.8024C131.823 14.7151 131.433 13.1015 130.49 11.5349C129.262 9.49724 126.065 7.66644 123.613 7.59703C122.84 7.57518 122.638 7.62311 121.784 8.03076C119.951 8.9063 118.86 10.3553 118.742 12.0726C118.696 12.7419 118.762 13.2091 119.068 14.3794C119.279 15.1866 119.618 16.6394 119.821 17.6079C120.025 18.5763 120.276 19.7599 120.379 20.238C120.572 21.132 120.639 23.6034 120.476 23.8574C120.335 24.0787 119.288 24.1564 115.791 24.2054C112.956 24.2452 112.451 24.2828 111.651 24.514C108.767 25.3471 107.243 27.2161 107.237 29.9264C107.235 30.784 107.289 31.0376 107.621 31.7467C107.833 32.1998 108.244 32.8014 108.535 33.0836C109.151 33.6815 111.222 34.7401 112.314 35.0155C113.411 35.2923 115.248 35.3732 116.598 35.2045C119.443 34.8487 120.817 34.9272 121.418 35.4801C121.89 35.9143 122.18 36.6676 122.183 37.4679C122.186 38.2281 122.682 43.229 122.997 45.6602C123.154 46.8819 123.41 48.0604 123.874 49.6979L123.953 49.9772H112.142H100.331L100.329 48.6424C100.328 47.7835 100.238 46.8869 100.077 46.1279C99.3149 42.5387 98.4779 34.7069 98.4644 31.041C98.4539 28.1772 97.5695 25.7464 96.0652 24.4468C95.3976 23.8702 93.3292 22.8296 92.3536 22.5798C91.4404 22.3457 90.7406 22.4167 89.8243 22.8362C87.332 23.9772 86.1687 27.7755 86.5367 33.5695C87.0215 41.1991 88.2099 45.8781 90.4737 49.0682C90.7732 49.4902 91.0182 49.8674 91.0182 49.9063C91.0182 49.9453 88.856 49.9772 86.2132 49.9772H81.4083L81.7988 49.5737C82.4711 48.8788 82.6833 48.208 82.7739 46.4894C82.8389 45.2609 82.8139 44.7873 82.651 44.1552C82.1281 42.1252 80.9636 40.8471 78.5636 39.6693C75.2796 38.0577 72.314 37.7732 66.2459 38.4876C65.4263 38.5841 63.3261 38.7315 61.5787 38.8152C58.1474 38.9794 54.004 38.8594 50.4139 38.4916C47.6851 38.2121 47.8276 38.2568 47.5166 37.5835C47.2623 37.0332 47.2481 36.8313 47.2582 33.8969C47.2719 29.9187 47.6929 25.4383 48.618 19.4309C49.2196 15.5243 50.3732 9.48817 50.8479 7.76268C51.0846 6.90278 51.0834 6.3835 50.8432 5.4609C50.525 4.23979 49.9336 3.20245 48.9741 2.18238C48.2007 1.36023 47.9173 1.15585 46.8572 0.655185C45.464 -0.00267877 44.8797 -0.118779 44.0736 0.10262ZM89.4904 8.48834C87.371 10.5434 86.9295 11.8142 87.6001 13.9298C88.1229 15.5796 89.2671 16.7465 91.4276 17.8335C92.9945 18.6219 93.9016 18.8547 95.1301 18.7836C96.8316 18.6851 98.0289 17.843 98.6092 16.3364C99.1041 15.0522 98.9168 12.6832 98.2001 11.1585C97.733 10.1647 97.0753 9.56777 95.6414 8.83615C93.9453 7.97079 93.2438 7.76491 91.6758 7.67253L90.4088 7.59778L89.4904 8.48834ZM201.376 9.24666C201.037 9.51363 199.109 12.0197 198.7 12.7256C198.43 13.1917 198.367 14.1181 198.049 22.2869C197.828 27.9629 197.361 32.758 196.739 35.7595C196.061 39.0251 196.036 39.2534 196.109 41.3473C196.237 44.9863 197.124 47.5481 199.045 49.822L199.805 50.7223H194.025H188.245V68.6652V86.608H188.68C189.08 86.608 189.114 86.6376 189.114 86.9806V87.3531H206.242H223.369L223.409 87.0116C223.441 86.7271 223.515 86.6637 223.851 86.6313L224.255 86.5923V68.6573V50.7223H216.918H209.581L209.685 50.1945C209.742 49.9044 209.78 48.9404 209.769 48.0526C209.746 46.1479 209.407 44.1718 208.483 40.567L207.87 38.1726L208.295 35.6001C208.529 34.1853 209.148 30.2618 209.671 26.8812C210.595 20.9128 210.62 20.6861 210.558 19.0584C210.431 15.7589 209.464 13.5156 207.562 12.1109C206.433 11.2768 202.261 9.00043 201.861 9.00043C201.767 9.00043 201.548 9.11119 201.376 9.24666ZM243.516 23.1719C240.364 23.6955 236.597 25.9668 232.222 29.9825C230.737 31.3452 230.692 31.3754 230.241 31.2964C229.346 31.1392 227.522 30.5685 225.576 29.8365C223.289 28.9763 222.335 28.785 221.348 28.9898C220.355 29.1959 219.716 29.715 219.263 30.6835C218.538 32.2323 218.671 33.6611 219.64 34.7336C220.213 35.3683 221.212 35.8664 224.69 37.2534C227.36 38.3182 227.544 38.4118 227.515 38.6902C227.498 38.854 227.449 39.7148 227.405 40.6031C227.337 42.0099 227.361 42.3544 227.591 43.2728C228.015 44.9604 228.487 45.7915 229.711 47.0093C230.709 48.0014 230.92 48.144 232.701 49.0271L234.618 49.9772H229.809H225V68.6652V87.3531H262.5H300V68.6654V49.9779L274.886 49.9465L249.772 49.9152L251.387 49.5613C257.261 48.2736 260.499 46.3692 260.511 44.1948C260.515 43.4109 260.169 42.4353 259.706 41.9227C259.108 41.2601 257.324 40.4335 256.284 40.3364C255.575 40.2702 255.219 40.3337 253.186 40.8886C246.876 42.6116 242.064 43.352 239.202 43.0406C237.689 42.876 237.244 42.728 237.062 42.3286C236.851 41.8656 236.883 41.7431 237.324 41.316C238.178 40.4902 240.222 39.8792 243.036 39.609C245.949 39.3294 247.692 38.8849 249.558 37.9466C250.914 37.2649 251.989 36.4155 252.819 35.3716C253.684 34.2833 254.11 33.4159 254.303 32.3554C254.835 29.4199 252.433 25.9576 248.485 23.9714C246.829 23.1377 245.251 22.8839 243.516 23.1719ZM5.83609 68.9135V81.6412H18.75H31.6639V68.9135V56.1859H18.75H5.83609V68.9135ZM43.3361 68.9135V81.6412H56.25H69.1639V68.9135V56.1859H56.25H43.3361V68.9135ZM80.8361 68.9135V81.6412H93.75H106.664V68.9135V56.1859H93.75H80.8361V68.9135ZM118.336 68.9135V81.6412H131.25H144.164V68.9135V56.1859H131.25H118.336V68.9135ZM155.836 68.9119V81.6412H168.812H181.788V68.9222V56.2031L168.812 56.1928L155.836 56.1825V68.9119ZM193.242 69.255L193.274 82.3241L206.281 82.3558L219.288 82.3873V69.2866V56.1859H206.249H193.211L193.242 69.255ZM230.836 68.9141V81.6423L243.781 81.6107L256.726 81.5791L256.758 68.8825L256.789 56.1859H243.813H230.836V68.9141ZM268.336 68.9141V81.6423L281.281 81.6107L294.226 81.5791L294.258 68.8825L294.289 56.1859H281.313H268.336V68.9141ZM278.852 58.1108C275.666 58.9866 273.484 62.3711 274.041 65.5741C274.521 68.3355 276.396 69.9866 280.381 71.1563C283.176 71.9768 283.982 72.631 283.982 74.0787C283.982 75.1923 283.197 76.0394 281.918 76.3049C280.142 76.6735 278.593 75.7103 278.329 74.0738C278.28 73.7705 278.167 73.4493 278.078 73.3599C277.877 73.1591 274.421 73.1228 274.421 73.3216C274.421 73.3899 274.337 73.4458 274.234 73.4458C274.073 73.4458 274.048 73.908 274.048 76.8605V80.2753H275.973H277.897V79.8449V79.4145L278.426 79.7714C279.293 80.3562 280.346 80.6478 281.592 80.6478C283.638 80.6478 285.275 80.0003 286.591 78.6708C287.548 77.7041 287.996 76.9149 288.331 75.6082C288.921 73.2991 288.371 71.0926 286.774 69.3683C286.181 68.7276 285.826 68.4789 284.799 67.9844C284.111 67.6529 282.827 67.1786 281.947 66.9305C280.087 66.406 279.304 66.0414 278.832 65.48C278.526 65.1163 278.497 65.0011 278.541 64.3092C278.633 62.8709 279.638 62.0761 281.249 62.1671C281.931 62.2057 282.169 62.2787 282.544 62.5647C283.036 62.9404 283.427 63.66 283.547 64.4123L283.621 64.8779H285.664H287.707V61.7648C287.707 59.2322 287.674 58.6185 287.53 58.4742C287.396 58.3407 286.994 58.2968 285.906 58.2968C284.366 58.2968 284.106 58.3859 284.106 58.9147C284.106 59.1614 284.076 59.1537 283.625 58.7912C282.641 58.0004 280.41 57.6824 278.852 58.1108ZM11.1445 58.5318C10.9567 58.7222 10.9272 59.0087 10.9272 60.6354V62.5186H12.1068H13.2864V69.286V76.0534H12.3565C10.9308 76.0534 10.9272 76.0594 10.9272 78.3782V80.2753H18.9363H26.9454V76.8517C26.9454 74.0501 26.9131 73.3959 26.7679 73.2507C26.5101 72.9928 22.7862 72.9928 22.5284 73.2507C22.3993 73.3797 22.351 73.7521 22.351 74.6166V75.8051H20.1159H17.8808V69.1618V62.5186H18.9983H20.1159V60.5852C20.1159 59.075 20.077 58.6127 19.9385 58.4742C19.7914 58.3271 19.0428 58.298 15.5614 58.3041C11.7099 58.3109 11.3438 58.3298 11.1445 58.5318ZM47.9615 58.4825C47.8516 58.6075 47.8063 59.2216 47.8063 60.5888V62.5186H48.9859H50.1656V69.286V76.0534H49.1634C48.4603 76.0534 48.1082 76.1063 47.9837 76.2308C47.8452 76.3693 47.8063 76.8316 47.8063 78.3418V80.2753H55.8775H63.9487V76.8517C63.9487 74.0501 63.9164 73.3959 63.7712 73.2507C63.5175 72.9969 59.9137 72.9928 59.6605 73.246C59.5421 73.3645 59.4766 73.8032 59.4522 74.6429L59.4164 75.8671H57.0571H54.6978L54.6641 73.5389L54.6303 71.2107H57.7373H60.8444V69.3481C60.8444 68.1892 60.7974 67.4855 60.7202 67.4855C60.6519 67.4855 60.596 67.4017 60.596 67.2993C60.596 67.1388 60.1822 67.113 57.6159 67.113H54.6358V64.94V62.767H57.0571H59.4785V64.1329V65.4988H61.7136H63.9487V62.0752C63.9487 59.2736 63.9164 58.6194 63.7712 58.4742C63.5066 58.2095 48.1947 58.2176 47.9615 58.4825ZM88.1933 58.4825C88.0834 58.6075 88.0381 59.2216 88.0381 60.5888V62.5186H89.1039C89.6901 62.5186 90.1511 62.5681 90.1283 62.6287C90.1055 62.6891 88.8024 65.7344 87.2323 69.396L84.3776 76.0534H83.343C82.6119 76.0534 82.2564 76.1054 82.1311 76.2308C81.9925 76.3693 81.9536 76.8316 81.9536 78.3418V80.2753H86.548H91.1424V78.5989C91.1424 76.5515 91.0882 76.4577 89.871 76.4007L89.0847 76.3638L89.5059 75.2755L89.9272 74.1871L93.4645 74.22L97.002 74.2529L97.4248 75.3013C97.6573 75.8779 97.8477 76.3668 97.8477 76.3878C97.8477 76.4088 97.4845 76.4259 97.0406 76.4259C95.7954 76.4259 95.7368 76.5236 95.7368 78.5989V80.2753H100.517H105.298V78.3782C105.298 76.059 105.312 76.0815 103.794 76.0275L102.778 75.9913L99.2637 67.5476C97.3313 62.9036 95.6544 58.9224 95.5376 58.7003L95.3251 58.2968L91.8369 58.3015C88.9838 58.3054 88.3202 58.3384 88.1933 58.4825ZM121.844 58.4767C121.734 58.6055 121.689 59.2247 121.689 60.5888V62.5186H122.806H123.924V69.286V76.0534H122.984C122.334 76.0534 121.989 76.1083 121.866 76.2308C121.728 76.3693 121.689 76.8316 121.689 78.3418V80.2753H126.035H130.381V78.3782C130.381 76.1319 130.341 76.0534 129.2 76.0534H128.518L128.522 73.7252C128.525 71.8664 128.557 71.4377 128.677 71.5992C128.761 71.7105 130.169 73.708 131.808 76.0384L134.788 80.2753H137.489H140.19V78.3418C140.19 76.8316 140.152 76.3693 140.013 76.2308C139.884 76.1021 139.514 76.0534 138.664 76.0534H137.493L136.17 74.3529L134.847 72.6522L135.572 72.3895C136.587 72.022 137.09 71.6844 137.853 70.8584C138.69 69.952 139.137 69.125 139.448 67.9096C140.463 63.94 138.154 59.7234 134.338 58.5788C133.369 58.2882 122.083 58.1961 121.844 58.4767ZM157.854 58.4825C157.744 58.6075 157.699 59.2216 157.699 60.5888V62.5186H158.816H159.934V69.286V76.0534H158.994C158.344 76.0534 157.999 76.1083 157.876 76.2308C157.738 76.3693 157.699 76.8316 157.699 78.3418V80.2753H162.231H166.763V78.3418C166.763 76.8316 166.724 76.3693 166.586 76.2308C166.463 76.1083 166.118 76.0534 165.468 76.0534H164.528L164.532 71.5522C164.536 67.4989 164.555 67.0756 164.725 67.2993C164.829 67.4359 166.962 70.4114 169.467 73.9114L174.02 80.2753H176.104H178.187V71.3969V62.5186H179.305H180.422V60.5852C180.422 59.075 180.383 58.6127 180.245 58.4742C180.098 58.3275 179.345 58.2968 175.89 58.2968C172.435 58.2968 171.682 58.3275 171.535 58.4742C171.396 58.6127 171.358 59.075 171.358 60.5852V62.5186H172.475H173.593V67.2522V71.9858L171.263 68.7112C169.982 66.9102 167.792 63.8303 166.396 61.8667L163.857 58.2968L160.933 58.3015C158.568 58.3054 157.979 58.3399 157.854 58.4825ZM197.837 58.4825C197.727 58.6075 197.682 59.2216 197.682 60.5888V62.5186H198.862H200.041V69.286V76.0534H199.039C198.336 76.0534 197.984 76.1063 197.86 76.2308C197.721 76.3693 197.682 76.8316 197.682 78.3418V80.2753H205.815H213.949V76.7984C213.949 73.7907 213.924 73.3216 213.762 73.3216C213.66 73.3216 213.576 73.2657 213.576 73.1974C213.576 73.12 212.849 73.0733 211.643 73.0733C210.132 73.0733 209.67 73.1121 209.532 73.2507C209.401 73.381 209.354 73.7603 209.354 74.6787V75.9292H206.995H204.636V73.57V71.2107H207.678H210.72V69.3481C210.72 68.1892 210.673 67.4855 210.596 67.4855C210.528 67.4855 210.472 67.4017 210.472 67.2993C210.472 67.139 210.065 67.113 207.554 67.113H204.636V64.94V62.767H206.995H209.354V64.1329V65.4988H211.651H213.949V62.1116C213.949 58.8717 213.938 58.7152 213.699 58.5106C213.468 58.3132 212.858 58.2972 205.721 58.3015C199.205 58.3055 197.968 58.3339 197.837 58.4825ZM234.344 58.4767C234.234 58.6055 234.189 59.2247 234.189 60.5888V62.5186H235.306H236.424V69.286V76.0534H235.484C234.834 76.0534 234.489 76.1083 234.366 76.2308C234.228 76.3693 234.189 76.8316 234.189 78.3418V80.2753H238.535H242.881V78.3782C242.881 76.1319 242.841 76.0534 241.7 76.0534H241.018L241.022 73.7252C241.025 71.8683 241.057 71.4372 241.177 71.596C241.261 71.7054 242.67 73.7029 244.309 76.035L247.289 80.2751H249.99L252.69 80.2753V78.3418C252.69 76.8316 252.652 76.3693 252.513 76.2308C252.384 76.1022 252.015 76.0534 251.169 76.0534H250.003L248.674 74.353L247.346 72.6527L248.072 72.3897C249.092 72.0203 249.589 71.6848 250.375 70.8367C252.433 68.6139 252.777 65.195 251.24 62.233C250.679 61.1505 249.191 59.5943 248.276 59.1312C246.825 58.3979 246.678 58.3832 240.335 58.337C235.324 58.3006 234.477 58.3204 234.344 58.4767ZM128.518 66.1694V69.5965L129.543 69.5955C132.168 69.5928 133.506 69.2223 134.378 68.2564C134.97 67.6015 135.143 67.0273 135.073 65.9474C135.01 64.9911 134.814 64.5061 134.209 63.8169C133.451 62.9541 133.065 62.8422 130.66 62.7895L128.518 62.7424V66.1694ZM241.018 66.1694V69.5965L242.043 69.5955C244.591 69.5932 245.992 69.2142 246.835 68.2992C247.466 67.6143 247.644 67.0481 247.573 65.9474C247.51 64.9911 247.314 64.5061 246.709 63.8169C245.951 62.9541 245.565 62.8422 243.16 62.7895L241.018 62.7424V66.1694ZM92.3752 67.2756L91.3109 70.1552L93.4173 70.1892C94.5759 70.208 95.5465 70.2006 95.5743 70.1729C95.6306 70.1165 93.6447 64.6171 93.5192 64.4817C93.4753 64.4344 92.9606 65.6916 92.3752 67.2756ZM140.939 96.7361C141.099 97.1572 141.097 97.1627 140.823 97.1627C140.652 97.1627 140.603 97.0975 140.647 96.9284C140.715 96.6705 140.458 96.434 140.332 96.6376C140.288 96.7077 140.118 96.7847 139.953 96.8087C139.61 96.8585 139.642 96.5665 139.488 101.012C139.331 105.569 139.345 106.003 139.664 106.322C139.817 106.475 139.942 106.647 139.942 106.705C139.942 106.945 140.395 107.325 140.559 107.223C140.652 107.165 140.863 107.17 141.029 107.232C141.194 107.295 141.374 107.318 141.43 107.284C141.485 107.25 141.69 107.305 141.885 107.407C142.298 107.622 142.798 107.652 142.798 107.461C142.798 107.386 142.903 107.362 143.041 107.405C143.397 107.518 144.286 106.978 144.287 106.648C144.288 106.419 144.193 106.377 143.525 106.307C143.105 106.263 142.555 106.227 142.302 106.227C142.001 106.227 141.766 106.142 141.618 105.979C141.495 105.842 141.287 105.731 141.156 105.731C140.971 105.731 140.937 105.673 141.002 105.469C141.048 105.325 141.081 104.893 141.077 104.51C141.07 103.96 141.015 103.773 140.815 103.623L140.562 103.432L140.825 103.268L141.087 103.104L140.825 102.92C140.488 102.684 140.485 102.461 140.82 102.567C141.11 102.659 141.466 102.306 141.366 102.026C141.334 101.935 141.375 101.883 141.457 101.91C141.54 101.938 141.734 101.817 141.888 101.641C142.047 101.461 142.171 101.394 142.173 101.486C142.175 101.577 142.091 101.737 141.986 101.842C141.813 102.014 141.813 102.062 141.986 102.325C142.091 102.486 142.177 102.696 142.177 102.793C142.177 103.056 142.949 103.176 143.122 102.94C143.198 102.836 143.355 102.75 143.472 102.75C143.627 102.75 143.663 102.684 143.605 102.502C143.544 102.308 143.583 102.254 143.783 102.254C144.038 102.254 144.09 102.149 144.045 101.719C144.032 101.595 144.09 101.412 144.173 101.312C144.369 101.075 144.224 100.932 143.986 101.129C143.878 101.219 143.736 101.239 143.642 101.178C143.553 101.121 143.062 101.074 142.551 101.074H141.62L141.619 100.666C141.619 100.442 141.562 100.218 141.493 100.169C141.425 100.121 141.37 99.736 141.372 99.3146C141.375 98.753 141.436 98.4821 141.601 98.2998C141.921 97.9452 141.999 97.1633 141.744 96.8522C141.601 96.677 141.522 96.6496 141.476 96.7591C141.379 96.9913 141.221 96.9465 141.148 96.666C141.112 96.5294 141.023 96.4176 140.95 96.4176C140.859 96.4176 140.855 96.5174 140.939 96.7361ZM145.965 96.9681C145.918 97.1182 145.86 97.1632 145.824 97.0765C145.79 96.995 145.682 96.959 145.584 96.9967C145.35 97.0866 145.353 97.8885 145.592 98.7769C145.734 99.3051 145.78 100.355 145.792 103.41C145.806 106.817 145.833 107.35 145.99 107.29C146.089 107.252 146.194 107.221 146.223 107.221C146.251 107.221 146.275 107.13 146.275 107.019C146.275 106.857 146.31 106.847 146.455 106.967C146.554 107.05 146.75 107.081 146.889 107.036C147.085 106.974 147.126 107 147.068 107.15C146.944 107.473 147.226 107.369 147.563 106.968C147.876 106.597 148.134 105.903 148.139 105.42C148.142 105.101 148.275 104.923 148.51 104.923C148.644 104.923 148.686 104.814 148.659 104.531C148.638 104.315 148.68 104.103 148.752 104.058C148.827 104.012 148.882 104.086 148.882 104.234C148.882 104.461 148.912 104.473 149.135 104.335C149.273 104.249 149.43 104.015 149.482 103.814C149.612 103.316 149.821 103.284 149.979 103.738C150.052 103.946 150.173 104.116 150.248 104.116C150.339 104.116 150.346 104.185 150.271 104.32C150.208 104.432 150.174 104.614 150.195 104.724C150.37 105.636 150.376 105.648 150.546 105.417C150.69 105.22 150.717 105.256 150.802 105.743C150.853 106.043 150.922 106.22 150.955 106.134C151.073 105.825 151.242 105.988 151.242 106.411C151.242 106.907 151.565 107.188 152.266 107.302C152.641 107.363 152.73 107.323 152.962 106.997C153.415 106.361 153.211 105.358 152.629 105.358C152.549 105.358 152.483 105.295 152.483 105.219C152.483 105.125 152.419 105.133 152.288 105.242C152.125 105.376 152.073 105.374 151.979 105.226C151.786 104.921 151.85 104.832 152.204 104.913C152.545 104.991 152.545 104.99 152.123 104.635C151.821 104.38 151.745 104.251 151.857 104.182C151.982 104.105 151.981 104.065 151.853 103.986C151.725 103.907 151.723 103.849 151.846 103.701C151.972 103.55 151.962 103.494 151.793 103.399C151.624 103.305 151.612 103.235 151.729 103.017C151.812 102.861 151.822 102.75 151.751 102.75C151.685 102.75 151.595 102.639 151.552 102.502C151.509 102.365 151.393 102.254 151.295 102.254C151.198 102.254 151.118 102.2 151.118 102.133C151.118 102.067 151.201 102.045 151.304 102.085C151.696 102.235 151.365 101.433 150.875 101.047C150.56 100.799 150.358 100.863 149.924 101.353C149.599 101.719 149.486 101.782 149.397 101.648C149.309 101.517 149.231 101.583 149.067 101.928C148.86 102.365 148.234 102.999 148.009 102.999C147.949 102.999 147.744 103.264 147.553 103.589L147.206 104.178L147.166 103.759C147.144 103.528 147.186 103.28 147.259 103.207C147.438 103.028 147.428 102.555 147.238 102.252C147.122 102.066 147.119 101.95 147.225 101.78C147.316 101.635 147.325 101.482 147.251 101.349C147.166 101.197 147.201 101.103 147.388 100.986C147.713 100.783 147.708 100.738 147.301 100.255C147.068 99.9774 147.011 99.8352 147.12 99.799C147.233 99.7614 147.241 99.701 147.148 99.5892C147.056 99.478 147.073 99.3018 147.205 98.9844C147.448 98.403 147.449 98.4044 147.063 98.4044C146.757 98.4044 146.747 98.3886 146.929 98.1871C147.474 97.5818 147.231 96.8773 146.439 96.7667C146.121 96.7222 146.028 96.7617 145.965 96.9681ZM140.004 97.1627C139.962 97.231 140.015 97.2868 140.121 97.2868C140.227 97.2868 140.315 97.231 140.315 97.1627C140.315 97.0944 140.262 97.0385 140.198 97.0385C140.133 97.0385 140.046 97.0944 140.004 97.1627ZM140.811 97.6463C140.416 97.7562 140.413 98.0426 140.804 98.2379C141.129 98.3998 141.447 98.3188 141.167 98.1457C141.034 98.0633 141.031 98.0108 141.154 97.8881C141.325 97.7169 141.359 97.5285 141.215 97.5476C141.164 97.5544 140.982 97.5988 140.811 97.6463ZM139.88 97.7835C139.838 97.8518 139.887 97.9077 139.989 97.9077C140.092 97.9077 140.21 97.8518 140.252 97.7835C140.295 97.7152 140.245 97.6594 140.143 97.6594C140.041 97.6594 139.922 97.7152 139.88 97.7835ZM98.1774 98.102C97.9101 98.3371 97.857 98.4522 97.9591 98.5751C98.0332 98.6645 98.0627 98.7688 98.0246 98.807C97.9865 98.8451 98.0547 98.8678 98.1761 98.8576C98.3025 98.847 98.4176 98.9396 98.4453 99.0744C98.4811 99.2484 98.4418 99.2899 98.2948 99.2335C98.1559 99.1802 98.096 99.2277 98.096 99.3913C98.096 99.5201 98.1523 99.6441 98.2211 99.6671C98.3018 99.6941 98.293 99.8494 98.1959 100.107C98.078 100.419 98.0789 100.702 98.2001 101.423C98.3058 102.051 98.3276 102.908 98.2695 104.137C98.1921 105.775 98.2054 105.965 98.4197 106.293C98.549 106.491 98.6548 106.793 98.6548 106.965C98.6548 107.35 99.0338 107.467 99.145 107.117C99.2022 106.937 99.325 106.879 99.6214 106.892C99.9983 106.909 100.023 106.884 100.06 106.435C100.083 106.15 100.02 105.84 99.9017 105.659C99.708 105.363 99.7113 105.358 100.08 105.358C100.331 105.358 100.455 105.296 100.455 105.172C100.455 104.9 100.551 104.939 100.949 105.375C101.188 105.636 101.373 105.738 101.512 105.685C101.65 105.632 101.739 105.679 101.777 105.823C101.808 105.943 101.967 106.104 102.131 106.181C102.375 106.296 102.441 106.285 102.504 106.12C102.57 105.949 102.617 105.966 102.813 106.225C103.038 106.523 103.051 106.525 103.294 106.305C103.532 106.09 103.808 106.115 103.808 106.352C103.808 106.413 103.937 106.602 104.094 106.771C104.371 107.07 104.384 107.072 104.529 106.84C104.74 106.502 104.959 106.541 105.278 106.972C105.594 107.399 105.975 107.455 106.164 107.103C106.268 106.908 106.233 106.801 105.982 106.55C105.656 106.224 105.579 105.979 105.802 105.979C105.874 105.979 105.904 106.027 105.867 106.086C105.83 106.146 105.903 106.287 106.028 106.4C106.218 106.572 106.279 106.578 106.395 106.438C106.593 106.2 106.02 105.802 105.097 105.537C104.09 105.247 103.435 104.897 103.435 104.648C103.435 104.485 103.469 104.472 103.584 104.588C103.793 104.797 103.862 104.78 104.295 104.416C104.532 104.217 104.677 103.978 104.677 103.788C104.677 103.619 104.721 103.508 104.775 103.541C104.829 103.575 104.977 103.447 105.104 103.259C105.231 103.07 105.503 102.852 105.707 102.775C106.015 102.658 106.054 102.602 105.929 102.452C105.803 102.3 105.845 102.264 106.19 102.226L106.602 102.182L106.167 102.043L105.733 101.904L106.26 101.892C106.551 101.886 106.788 101.832 106.788 101.772C106.788 101.599 106.459 101.372 106.177 101.351C105.87 101.328 105.874 101.359 106.099 100.822L106.279 100.391H105.898C105.563 100.391 105.524 100.427 105.575 100.691C105.62 100.926 105.572 101.002 105.353 101.044C105.199 101.073 104.97 101.04 104.844 100.971C104.641 100.858 104.634 100.867 104.785 101.052C104.879 101.167 105.033 101.26 105.127 101.26C105.221 101.26 105.298 101.331 105.298 101.416C105.298 101.524 105.132 101.559 104.759 101.53C104.282 101.492 104.183 101.532 103.89 101.88C103.708 102.096 103.56 102.213 103.56 102.139C103.56 102.066 103.441 102.005 103.296 102.005C103.072 102.005 103.056 102.034 103.192 102.198C103.327 102.36 103.312 102.401 103.095 102.458C102.871 102.516 102.853 102.575 102.951 102.916C103.091 103.406 103.097 103.371 102.877 103.371C102.774 103.371 102.686 103.302 102.681 103.216C102.675 103.131 102.615 103.214 102.546 103.402C102.456 103.649 102.336 103.744 102.114 103.744C101.941 103.744 101.84 103.69 101.883 103.62C102.019 103.4 101.805 103.487 101.426 103.806C101.223 103.977 101.016 104.116 100.966 104.116C100.916 104.116 100.686 103.851 100.453 103.527C100.044 102.954 100.029 102.89 99.9448 101.385C99.8362 99.433 99.4183 98.0319 98.9452 98.0319C98.8197 98.0319 98.7169 97.976 98.7169 97.9077C98.7169 97.7104 98.5573 97.7679 98.1774 98.102ZM212.769 98.0319C212.645 98.1685 212.47 98.2802 212.38 98.2802C212.252 98.2802 212.245 98.3455 212.35 98.5748C212.424 98.7367 212.576 98.8625 212.689 98.8542C212.801 98.8458 212.893 98.9228 212.893 99.0253C212.893 99.1277 212.823 99.1976 212.738 99.1805C212.653 99.1633 212.583 99.2565 212.583 99.3875C212.583 99.5183 212.653 99.649 212.738 99.6777C212.859 99.7183 212.855 99.7761 212.721 99.9381C212.589 100.099 212.571 100.351 212.645 101.045C212.698 101.539 212.735 102.362 212.727 102.875C212.687 105.632 212.709 105.977 212.954 106.379C213.138 106.681 213.16 106.813 213.051 106.944C212.943 107.075 212.951 107.142 213.087 107.228C213.372 107.408 213.542 107.364 213.613 107.091C213.667 106.886 213.743 106.854 214.014 106.922C214.238 106.978 214.385 106.949 214.46 106.834C214.59 106.635 214.476 105.741 214.292 105.513C214.198 105.397 214.248 105.358 214.492 105.358C214.699 105.358 214.818 105.29 214.818 105.172C214.818 105.069 214.876 104.986 214.946 104.986C215.016 104.986 215.106 105.069 215.145 105.172C215.185 105.274 215.293 105.358 215.386 105.358C215.482 105.358 215.526 105.435 215.487 105.537C215.434 105.674 215.508 105.704 215.814 105.665C216.121 105.626 216.223 105.667 216.27 105.848C216.339 106.113 216.787 106.272 216.99 106.104C217.077 106.032 217.181 106.081 217.282 106.243C217.43 106.48 217.458 106.483 217.746 106.294C218.069 106.082 218.295 106.129 218.295 106.408C218.295 106.499 218.379 106.605 218.481 106.645C218.583 106.684 218.667 106.802 218.667 106.906C218.667 107.181 218.885 107.14 218.978 106.848C219.094 106.482 219.491 106.546 219.742 106.972C220.005 107.417 220.47 107.479 220.595 107.086C220.651 106.91 220.594 106.738 220.417 106.55C220.274 106.398 220.157 106.2 220.157 106.109C220.157 106.019 220.278 106.098 220.425 106.285C220.658 106.582 220.707 106.599 220.806 106.422C220.973 106.123 220.509 105.8 219.474 105.495C218.558 105.226 217.798 104.826 217.798 104.615C217.798 104.453 217.961 104.453 218.123 104.616C218.293 104.785 219.068 104.263 219.159 103.918C219.256 103.546 219.79 102.962 220.201 102.778C220.494 102.647 220.529 102.588 220.403 102.437C220.274 102.282 220.314 102.254 220.659 102.254C221.143 102.254 221.076 102.142 220.505 101.996C220.131 101.901 220.147 101.894 220.685 101.918C221.009 101.933 221.275 101.927 221.275 101.905C221.275 101.731 220.983 101.385 220.836 101.385C220.736 101.385 220.653 101.315 220.652 101.229C220.651 101.126 220.61 101.136 220.53 101.26C220.327 101.574 220.382 101.169 220.599 100.749L220.793 100.374L220.382 100.414C220.044 100.446 219.977 100.5 220.007 100.717C220.049 101.025 219.699 101.166 219.337 100.988C219.207 100.924 219.255 101.004 219.443 101.164C219.882 101.539 219.875 101.645 219.417 101.553C218.873 101.444 218.447 101.594 218.254 101.963C218.145 102.172 218.051 102.238 217.995 102.147C217.947 102.069 217.82 102.005 217.713 102.005C217.552 102.005 217.546 102.038 217.679 102.198C217.814 102.361 217.797 102.401 217.57 102.461C217.294 102.533 217.201 102.922 217.426 103.061C217.613 103.177 217.574 103.371 217.363 103.371C217.261 103.371 217.171 103.273 217.164 103.154C217.158 103.035 217.094 103.118 217.022 103.34C216.926 103.639 216.82 103.744 216.611 103.744C216.456 103.744 216.302 103.674 216.27 103.589C216.23 103.485 216.101 103.547 215.882 103.775C215.701 103.963 215.5 104.116 215.435 104.116C215.37 104.116 215.107 103.8 214.851 103.414C214.39 102.72 214.385 102.699 214.418 101.611C214.465 100.026 213.92 98.0319 213.438 98.0319C213.309 98.0319 213.204 97.976 213.204 97.9077C213.204 97.7088 213.012 97.7637 212.769 98.0319ZM108.649 98.3059C108.39 98.7258 108.4 99.029 108.692 99.6461C108.805 99.8849 108.95 99.9656 109.32 99.996C109.584 100.018 109.861 99.9759 109.934 99.9029C110.006 99.83 110.196 99.7703 110.355 99.7703C110.74 99.7703 110.912 99.3159 110.749 98.7271C110.682 98.4834 110.587 98.292 110.539 98.3021C110.491 98.3121 110.311 98.2632 110.141 98.1934C109.97 98.1238 109.621 98.0285 109.366 97.9818C108.937 97.9034 108.883 97.9274 108.649 98.3059ZM163.251 98.2683C162.987 98.7147 162.986 98.889 163.238 99.5195C163.428 99.9947 163.463 100.019 163.976 100.019C164.271 100.019 164.548 99.9628 164.59 99.8945C164.632 99.8262 164.805 99.7703 164.974 99.7703C165.316 99.7703 165.559 99.34 165.395 99.0253C165.289 98.8229 165.273 98.7491 165.273 98.4665C165.273 98.364 165.231 98.289 165.18 98.3C165.129 98.3108 165.003 98.2859 164.901 98.2446C164.637 98.1382 163.746 97.9092 163.593 97.9085C163.522 97.9081 163.368 98.07 163.251 98.2683ZM80.2152 98.1561C80.2152 98.2243 80.1314 98.2802 80.029 98.2802C79.7656 98.2802 79.796 98.5276 80.06 98.5329C80.2479 98.5368 80.2429 98.5577 80.0233 98.6881C79.88 98.7733 79.7892 98.9335 79.815 99.0558C79.8462 99.2034 79.8035 99.2508 79.6818 99.2041C79.462 99.1198 79.3534 99.4763 79.3389 100.329C79.332 100.747 79.2978 100.872 79.2345 100.71C79.1829 100.578 79.1077 100.523 79.0678 100.587C78.9083 100.845 78.7314 102.26 78.7078 103.464C78.6892 104.419 78.6422 104.737 78.5202 104.737C78.3135 104.737 78.1777 105.263 78.2795 105.668C78.3319 105.877 78.3058 105.979 78.1998 105.98C78.0387 105.981 77.6076 107.116 77.6076 107.539C77.6076 107.846 78.482 108.631 78.6438 108.469C78.7095 108.403 78.7582 108.17 78.752 107.951C78.7458 107.732 78.8518 107.335 78.9878 107.069C79.1236 106.802 79.2233 106.49 79.2093 106.375C79.1952 106.259 79.2265 106.067 79.2787 105.946C79.3322 105.823 79.3136 105.655 79.2361 105.562C79.1318 105.436 79.1587 105.341 79.3465 105.171C79.5056 105.027 79.595 104.787 79.5962 104.501C79.5974 104.255 79.6503 103.972 79.714 103.871C79.7865 103.756 79.7842 103.66 79.7077 103.613C79.6408 103.572 79.6223 103.443 79.6668 103.327C79.7295 103.164 79.7858 103.148 79.9193 103.259C80.0138 103.338 80.0911 103.479 80.0911 103.573C80.0911 103.667 80.161 103.745 80.2463 103.746C80.3515 103.747 80.3425 103.785 80.2188 103.863C80.1184 103.927 80.0745 104.017 80.1214 104.064C80.1682 104.111 80.1549 104.245 80.0918 104.363C80.0013 104.532 80.0474 104.61 80.3099 104.729L80.6426 104.881L80.3613 105.093C80.0433 105.333 80.116 105.482 80.5508 105.482C80.7934 105.482 80.8243 105.521 80.7274 105.701C80.6476 105.851 80.6646 106.02 80.7807 106.229C80.9827 106.594 81.0109 106.972 80.8361 106.972C80.7678 106.972 80.7119 107.027 80.7119 107.094C80.7119 107.168 80.8344 107.16 81.0236 107.073C81.2877 106.953 81.3776 106.971 81.6134 107.192C81.8238 107.389 81.9447 107.423 82.1099 107.33C82.2299 107.262 82.3735 107.235 82.4287 107.269C82.4841 107.304 82.6002 107.136 82.6868 106.897C82.7789 106.642 82.9663 106.415 83.1391 106.349C83.4628 106.226 83.7216 105.544 83.5609 105.238C83.5067 105.134 83.5476 104.896 83.6562 104.687C83.8021 104.404 83.8141 104.266 83.7077 104.095C83.5909 103.908 83.6157 103.861 83.8628 103.799C84.1603 103.724 84.494 103.252 84.4973 102.901C84.5009 102.53 84.7501 102.639 84.9648 103.105C85.0926 103.382 85.1832 103.88 85.1848 104.312C85.1866 104.774 85.2787 105.249 85.4327 105.588C85.5676 105.885 85.6454 106.181 85.6055 106.245C85.5658 106.31 85.5986 106.441 85.6784 106.537C85.7582 106.633 85.786 106.83 85.7399 106.975C85.6856 107.146 85.7322 107.322 85.8731 107.478C86.1293 107.761 86.4113 107.783 86.7373 107.544C86.9051 107.421 87.0612 107.404 87.2748 107.486C87.661 107.632 87.7021 107.581 87.54 107.155C87.4392 106.89 87.4458 106.781 87.5676 106.701C87.6918 106.619 87.6774 106.566 87.5035 106.463C87.3226 106.357 87.3086 106.296 87.4306 106.149C87.5518 106.003 87.5274 105.835 87.3088 105.307C87.0786 104.752 87.0546 104.563 87.1572 104.107C87.2316 103.776 87.2343 103.512 87.1642 103.428C87.1012 103.352 87.0318 103.182 87.0101 103.051C86.9883 102.92 86.9035 102.691 86.8218 102.542C86.7267 102.369 86.6907 101.893 86.722 101.221L86.7709 100.17L86.3342 100.29C85.7981 100.438 85.5659 100.273 85.8751 99.9643C86.0198 99.8196 86.1145 99.7957 86.1724 99.8895C86.2192 99.9651 86.3507 99.9912 86.4648 99.9475C86.8863 99.7857 86.607 98.6519 86.0875 98.4152C85.7695 98.2703 85.5625 98.3778 85.5565 98.6911C85.5524 98.9064 85.3063 98.6243 85.3063 98.4044C85.3063 98.1294 85.0332 97.9198 84.9602 98.1387C84.9327 98.2216 84.7757 98.4491 84.6114 98.6442C84.3743 98.9262 84.3109 99.1484 84.3031 99.7261C84.2978 100.126 84.2641 100.38 84.2285 100.291C84.1799 100.17 84.1209 100.186 83.9939 100.354C83.7601 100.662 83.7754 100.764 84.0555 100.764C84.3329 100.764 84.6854 101.383 84.6854 101.87C84.6854 102.067 84.5808 102.259 84.4191 102.36C84.1887 102.504 84.1625 102.501 84.2251 102.338C84.2861 102.179 83.8221 101.509 83.651 101.509C83.5742 101.509 83.3476 102.128 83.2583 102.582C83.1579 103.092 82.4298 104.524 82.241 104.583C82.0358 104.646 81.8366 103.871 81.745 102.653C81.7026 102.087 81.6204 101.595 81.5624 101.559C81.5044 101.523 81.4552 101.26 81.453 100.974C81.4509 100.687 81.3671 100.345 81.2667 100.212C81.1665 100.08 81.0844 99.7323 81.0844 99.4404C81.0844 98.7747 80.7448 98.0319 80.4406 98.0319C80.3167 98.0319 80.2152 98.0878 80.2152 98.1561ZM99.0894 98.8463C99.0894 98.9527 99.1462 99.0048 99.2156 98.9619C99.285 98.919 99.3097 98.8319 99.2703 98.7684C99.1639 98.5961 99.0894 98.6282 99.0894 98.8463ZM140.749 98.9011C140.626 99.0377 140.58 99.1494 140.649 99.1494C140.717 99.1494 140.874 99.0377 140.998 98.9011C141.121 98.7645 141.166 98.6527 141.098 98.6527C141.03 98.6527 140.873 98.7645 140.749 98.9011ZM213.586 98.8493C213.592 98.994 213.621 99.0234 213.661 98.9244C213.697 98.8348 213.692 98.7276 213.651 98.6864C213.61 98.6452 213.581 98.7184 213.586 98.8493ZM85.6167 99.1494C85.6589 99.2177 85.7739 99.2736 85.8724 99.2736C85.9709 99.2736 86.0513 99.2177 86.0513 99.1494C86.0513 99.0811 85.9362 99.0253 85.7957 99.0253C85.6551 99.0253 85.5745 99.0811 85.6167 99.1494ZM113.523 99.8927C113.438 100.028 113.373 100.238 113.378 100.358C113.386 100.551 113.398 100.549 113.481 100.337C113.554 100.15 113.597 100.134 113.678 100.264C113.745 100.372 113.697 100.501 113.541 100.629C113.367 100.772 113.308 100.961 113.327 101.322C113.341 101.596 113.353 102.487 113.354 103.303C113.355 104.706 113.371 104.8 113.642 105.008C113.898 105.205 113.903 105.229 113.695 105.231C113.491 105.233 113.472 105.299 113.545 105.762C113.646 106.409 114.01 107.594 114.106 107.592C114.145 107.592 114.241 107.452 114.32 107.282C114.441 107.021 114.432 106.972 114.264 106.972C114.103 106.972 114.095 106.942 114.222 106.817C114.348 106.693 114.415 106.71 114.559 106.905C114.735 107.144 114.741 107.144 114.93 106.874C115.035 106.723 115.224 106.6 115.35 106.6C115.589 106.6 115.728 106.368 115.728 105.969C115.728 105.823 115.814 105.731 115.949 105.731C116.247 105.731 116.896 104.986 116.737 104.827C116.659 104.749 116.723 104.591 116.917 104.381C117.083 104.203 117.219 103.992 117.219 103.914C117.219 103.741 117.504 103.62 117.912 103.62C118.077 103.62 118.212 103.56 118.212 103.487C118.212 103.413 118.303 103.263 118.413 103.152C118.599 102.966 118.627 102.967 118.77 103.163C118.855 103.28 118.965 103.778 119.013 104.27C119.062 104.762 119.165 105.278 119.242 105.416C119.32 105.555 119.387 105.696 119.393 105.731C119.455 106.094 119.635 106.359 119.805 106.338C120.245 106.283 120.695 106.498 120.695 106.762C120.695 106.964 120.729 106.989 120.844 106.873C121.047 106.671 121.192 106.685 121.192 106.908C121.192 107.009 121.346 107.124 121.534 107.164C121.721 107.203 121.962 107.282 122.069 107.339C122.303 107.463 122.682 107.277 122.682 107.038C122.682 106.944 122.379 106.608 122.008 106.291C121.387 105.761 121.307 105.63 120.998 104.636C120.814 104.043 120.619 103.529 120.566 103.495C120.512 103.46 120.44 103.105 120.405 102.706C120.361 102.201 120.267 101.91 120.097 101.751C119.962 101.625 119.832 101.478 119.808 101.423C119.729 101.242 118.857 100.858 118.719 100.943C118.644 100.99 118.584 100.941 118.584 100.833C118.584 100.727 118.529 100.639 118.46 100.639C118.392 100.639 118.336 100.807 118.336 101.012C118.336 101.217 118.28 101.385 118.212 101.385C118.144 101.385 118.088 101.325 118.088 101.253C118.088 101.181 118.027 101.159 117.954 101.204C117.88 101.25 117.853 101.421 117.894 101.584C117.935 101.748 117.932 102.027 117.887 102.206C117.813 102.5 117.761 102.524 117.335 102.467C116.906 102.41 116.852 102.436 116.713 102.771C116.63 102.973 116.374 103.281 116.145 103.456C115.841 103.688 115.728 103.871 115.728 104.134C115.728 104.483 115.719 104.488 115.44 104.305C115.188 104.14 115.149 104.01 115.138 103.288C115.129 102.674 115.075 102.432 114.93 102.351C114.821 102.289 114.735 102.079 114.735 101.871C114.735 101.648 114.657 101.471 114.538 101.425C114.388 101.368 114.36 101.249 114.422 100.923C114.49 100.559 114.463 100.486 114.243 100.428C113.998 100.364 113.996 100.351 114.205 100.19C114.414 100.027 114.413 100.01 114.184 99.8324C113.862 99.5835 113.708 99.5976 113.523 99.8927ZM186.002 100.589C185.771 100.965 185.674 101.025 185.397 100.97C184.999 100.891 184.814 100.991 184.747 101.322C184.717 101.471 184.614 101.557 184.491 101.536C184.176 101.483 183.979 101.95 184.132 102.387C184.231 102.671 184.222 102.75 184.092 102.75C183.877 102.75 183.775 102.473 183.775 101.886C183.775 101.335 183.53 101.077 183.108 101.183C182.919 101.231 182.754 101.191 182.657 101.074C182.574 100.973 182.455 100.921 182.395 100.959C182.199 101.08 182.267 103.876 182.483 104.617C182.593 104.99 182.705 105.74 182.732 106.283C182.76 106.827 182.834 107.323 182.897 107.386C182.961 107.45 183.166 107.457 183.362 107.402C183.555 107.348 183.764 107.316 183.825 107.331C184.008 107.375 184.143 107.066 184.146 106.6C184.148 106.248 184.22 106.125 184.521 105.954C184.822 105.782 184.892 105.66 184.892 105.311C184.892 105.073 184.962 104.805 185.048 104.715C185.133 104.625 185.209 104.324 185.217 104.047C185.228 103.65 185.356 103.379 185.816 102.774C186.137 102.351 186.448 102.005 186.507 102.005C186.566 102.005 186.65 102.117 186.693 102.254C186.736 102.39 186.824 102.502 186.887 102.502C186.951 102.502 187.003 102.586 187.003 102.688C187.003 102.791 187.059 102.875 187.127 102.875C187.196 102.875 187.252 103.175 187.252 103.542C187.252 103.944 187.352 104.437 187.505 104.782C187.679 105.176 187.767 105.665 187.785 106.343C187.807 107.214 187.84 107.339 188.059 107.397C188.195 107.433 188.325 107.411 188.346 107.349C188.368 107.286 188.591 107.168 188.843 107.087C189.095 107.006 189.37 106.884 189.456 106.817C189.647 106.665 189.658 106.2 189.475 106.017C189.377 105.919 189.378 105.809 189.48 105.62C189.642 105.316 189.804 105.283 189.901 105.535C189.942 105.643 190.068 105.685 190.226 105.644C190.598 105.547 190.663 105.367 190.399 105.166C190.179 104.997 190.181 104.986 190.449 104.911C190.625 104.861 190.73 104.734 190.732 104.567C190.736 104.322 190.748 104.318 190.9 104.518C191.113 104.798 191.225 104.673 191.225 104.158C191.225 103.881 191.284 103.744 191.404 103.744C191.502 103.744 191.765 103.577 191.989 103.373C192.212 103.169 192.439 103.045 192.492 103.099C192.546 103.152 192.7 103.808 192.835 104.556C193.239 106.794 193.655 107.651 194.191 107.35C194.304 107.287 194.477 107.291 194.606 107.36C194.887 107.51 194.888 107.371 194.609 107.062C194.489 106.93 194.376 106.59 194.358 106.307C194.34 106.024 194.301 105.375 194.271 104.865C194.242 104.355 194.185 103.804 194.144 103.641C194.103 103.477 194.134 103.057 194.212 102.706C194.387 101.92 194.24 101.219 193.887 101.155C193.755 101.131 193.497 100.971 193.313 100.798C192.85 100.362 192.343 100.477 192.343 101.019C192.343 101.348 192.314 101.378 192.107 101.267C191.915 101.164 191.832 101.201 191.662 101.46C191.498 101.711 191.387 101.762 191.144 101.701C190.88 101.635 190.687 101.766 189.85 102.581C189.177 103.236 188.866 103.63 188.866 103.827C188.866 103.986 188.795 104.116 188.709 104.116C188.598 104.116 188.555 103.888 188.563 103.34C188.568 102.913 188.534 102.508 188.487 102.44C188.44 102.372 188.373 102.047 188.338 101.718C188.262 101.012 187.866 100.515 187.378 100.515C187.198 100.515 186.942 100.433 186.81 100.333C186.445 100.057 186.304 100.102 186.002 100.589ZM80.9701 100.464C80.976 100.608 81.0055 100.638 81.0451 100.539C81.081 100.449 81.0765 100.342 81.0353 100.301C80.994 100.259 80.9647 100.333 80.9701 100.464ZM140.755 100.383C140.715 100.446 140.741 100.534 140.811 100.577C140.882 100.621 140.911 100.703 140.876 100.759C140.841 100.816 140.895 100.894 140.996 100.932C141.173 101 141.432 100.684 141.432 100.399C141.432 100.237 140.853 100.222 140.755 100.383ZM91.9505 100.638C91.7588 100.85 91.6291 100.874 91.0476 100.806C90.3974 100.73 90.3723 100.737 90.452 100.989C90.5637 101.341 90.338 101.731 89.994 101.78C89.8229 101.804 89.7205 101.9 89.73 102.027C89.7391 102.148 89.6257 102.265 89.459 102.307C89.0685 102.404 88.9411 102.841 89.2375 103.066C89.4574 103.233 89.4566 103.239 89.2177 103.245C88.853 103.254 88.558 103.47 88.7452 103.592C88.8502 103.66 88.8622 103.828 88.7861 104.165C88.7049 104.525 88.7368 104.824 88.9171 105.389C89.0483 105.799 89.1556 106.206 89.1556 106.292C89.1556 106.378 89.2394 106.481 89.3419 106.521C89.4554 106.564 89.5281 106.521 89.5281 106.41C89.5281 106.309 89.6157 106.227 89.7227 106.227C89.8609 106.227 89.8945 106.299 89.8386 106.476C89.5577 107.361 90.8265 107.719 92.1358 107.124C92.3748 107.016 92.6902 106.936 92.8366 106.947C93.1479 106.971 93.5362 106.592 93.2867 106.508C93.1846 106.474 93.2465 106.315 93.473 106.031C93.8323 105.581 93.9983 105.499 93.9983 105.773C93.9983 105.865 94.1166 106.047 94.261 106.177C94.4054 106.307 94.5715 106.539 94.6303 106.693C94.7043 106.886 94.9139 107.019 95.3143 107.126C95.6318 107.211 95.9187 107.351 95.9517 107.437C96.0165 107.606 96.5832 107.647 96.8031 107.498C96.8774 107.448 96.9713 107.276 97.0116 107.117C97.075 106.866 97.0094 106.793 96.5351 106.583C96.2326 106.449 95.9851 106.267 95.9851 106.179C95.9851 106.09 95.8733 105.916 95.7368 105.793C95.6002 105.669 95.4884 105.472 95.4884 105.354C95.4884 105.236 95.4052 105.071 95.3035 104.987C95.2018 104.902 95.1483 104.785 95.1846 104.727C95.2207 104.668 95.1577 104.479 95.0445 104.306C94.9314 104.133 94.8671 103.883 94.9018 103.751C94.9506 103.564 94.893 103.501 94.6464 103.471C94.4712 103.451 94.3022 103.355 94.2707 103.259C94.2294 103.134 94.2878 103.105 94.4784 103.155C94.6242 103.193 94.7434 103.191 94.7434 103.151C94.7434 102.983 94.2169 102.005 94.127 102.005C94.0733 102.005 93.9977 101.847 93.9589 101.653C93.9096 101.407 93.6897 101.164 93.2284 100.846C92.4736 100.326 92.264 100.292 91.9505 100.638ZM172.103 100.473C172 100.514 171.788 100.663 171.632 100.806C171.034 101.35 169.868 101.428 169.868 100.924C169.868 100.813 169.796 100.765 169.69 100.805C169.593 100.843 169.443 100.789 169.358 100.686C169.221 100.521 169.191 100.521 169.095 100.694C168.965 100.925 168.505 100.955 168.493 100.733C168.488 100.647 168.443 100.682 168.393 100.81C168.309 101.023 168.285 101.026 168.102 100.843C167.919 100.66 167.906 100.703 167.94 101.373C167.978 102.117 168.276 102.626 168.673 102.626C168.767 102.626 168.899 102.696 168.966 102.781C169.093 102.942 169.256 104.643 169.319 106.476C169.379 108.225 169.352 108.183 170.209 107.85C170.502 107.736 170.613 107.615 170.613 107.408C170.613 107.251 170.69 107.093 170.784 107.057C170.955 106.992 170.956 106.944 170.821 103.93C170.809 103.657 170.749 103.397 170.688 103.353C170.536 103.243 170.703 102.839 170.86 102.936C170.929 102.979 170.985 102.922 170.985 102.811C170.985 102.673 171.073 102.621 171.264 102.649C171.446 102.674 171.588 102.601 171.671 102.44C171.756 102.273 171.949 102.179 172.261 102.153C172.683 102.118 172.724 102.142 172.724 102.429C172.724 102.669 172.771 102.724 172.928 102.664C173.053 102.616 173.198 102.676 173.304 102.821C173.525 103.124 173.886 102.926 173.941 102.472C173.97 102.228 174.034 102.171 174.221 102.22C174.402 102.267 174.462 102.219 174.462 102.026C174.462 101.885 174.387 101.725 174.295 101.67C174.204 101.615 174.029 101.417 173.908 101.229C173.787 101.041 173.631 100.888 173.561 100.888C173.491 100.888 173.372 100.803 173.296 100.699C173.146 100.494 172.404 100.354 172.103 100.473ZM198.993 100.632C198.812 100.832 198.669 100.861 198.155 100.8C197.597 100.734 197.539 100.75 197.566 100.962C197.612 101.324 197.431 101.64 197.106 101.764C196.945 101.825 196.813 101.947 196.813 102.035C196.813 102.123 196.688 102.25 196.534 102.317C196.175 102.476 196.107 102.846 196.398 103.066C196.618 103.233 196.617 103.239 196.378 103.245C196.242 103.248 196.046 103.304 195.944 103.368C195.785 103.469 195.794 103.513 196.006 103.679C196.167 103.804 196.19 103.86 196.071 103.839C195.807 103.791 195.759 104.9 196.004 105.391C196.107 105.599 196.192 105.893 196.192 106.045C196.192 106.197 196.276 106.391 196.378 106.476C196.531 106.602 196.565 106.594 196.565 106.429C196.565 106.318 196.648 106.227 196.751 106.227C196.88 106.227 196.937 106.357 196.937 106.647C196.937 106.886 197.025 107.139 197.143 107.237C197.454 107.494 198.805 107.407 199.333 107.095C199.574 106.953 199.851 106.878 199.969 106.923C200.099 106.974 200.241 106.916 200.349 106.77C200.492 106.576 200.492 106.527 200.352 106.476C200.23 106.43 200.283 106.303 200.547 106.008L200.911 105.602L201.28 106.008C201.482 106.231 201.65 106.475 201.652 106.549C201.658 106.776 202.083 107.089 202.499 107.172C202.715 107.215 202.956 107.328 203.034 107.422C203.185 107.604 203.739 107.65 203.964 107.498C204.038 107.448 204.131 107.277 204.172 107.119C204.234 106.871 204.168 106.798 203.693 106.595C203.357 106.451 203.098 106.243 203.029 106.062C202.967 105.898 202.828 105.731 202.721 105.689C202.613 105.648 202.525 105.528 202.525 105.422C202.525 105.317 202.474 105.133 202.411 105.015C202.087 104.4 201.911 103.87 201.975 103.703C202.024 103.575 201.958 103.502 201.768 103.474C201.614 103.452 201.464 103.358 201.433 103.265C201.393 103.143 201.451 103.12 201.642 103.181C201.891 103.26 201.898 103.244 201.755 102.914C201.672 102.722 201.475 102.37 201.319 102.132C201.163 101.894 201.035 101.63 201.035 101.546C201.035 101.328 199.758 100.391 199.46 100.391C199.323 100.391 199.113 100.5 198.993 100.632ZM208.609 100.476C208.507 100.518 208.3 100.684 208.15 100.845C207.999 101.005 207.773 101.136 207.647 101.136C207.52 101.136 207.359 101.194 207.288 101.265C207.123 101.431 206.52 101.214 206.42 100.953C206.381 100.849 206.305 100.792 206.251 100.825C206.198 100.858 206.086 100.803 206.003 100.704C205.871 100.545 205.83 100.545 205.67 100.705C205.43 100.945 205.132 100.939 205.132 100.694C205.132 100.588 205.073 100.538 205 100.583C204.927 100.628 204.897 100.743 204.934 100.838C205.046 101.13 204.76 101.031 204.629 100.733C204.533 100.514 204.521 100.572 204.574 100.995C204.613 101.298 204.586 101.606 204.513 101.693C204.35 101.89 204.955 102.626 205.28 102.626C205.625 102.626 205.743 103.011 205.769 104.229C205.783 104.856 205.841 105.398 205.898 105.433C206.035 105.518 206.031 106.022 205.892 106.171C205.828 106.24 205.83 106.576 205.896 106.972C205.959 107.348 206.02 107.744 206.033 107.852C206.045 107.96 206.141 108.049 206.246 108.049C206.556 108.049 207.181 107.648 207.183 107.447C207.184 107.345 207.282 107.164 207.401 107.046C207.557 106.889 207.591 106.739 207.524 106.498C207.474 106.315 207.444 105.984 207.457 105.762C207.502 105.006 207.5 104.923 207.419 104.178C207.374 103.769 207.287 103.371 207.227 103.295C207.096 103.131 207.399 102.829 207.554 102.969C207.61 103.019 207.619 102.997 207.575 102.92C207.46 102.718 207.772 102.493 207.986 102.625C208.108 102.701 208.2 102.652 208.295 102.462C208.388 102.274 208.564 102.18 208.871 102.154C209.263 102.121 209.312 102.149 209.303 102.403C209.295 102.614 209.351 102.678 209.521 102.649C209.647 102.628 209.825 102.712 209.917 102.835C210.139 103.133 210.518 102.919 210.573 102.465C210.599 102.244 210.667 102.165 210.79 102.212C210.917 102.261 210.969 102.187 210.969 101.957C210.969 101.752 210.9 101.633 210.782 101.633C210.68 101.633 210.608 101.591 210.622 101.54C210.666 101.384 210.298 100.888 210.138 100.888C210.055 100.888 209.938 100.8 209.878 100.693C209.763 100.487 208.927 100.344 208.609 100.476ZM156.769 100.768C156.833 100.969 156.811 101.025 156.687 100.981C156.595 100.947 156.421 101.006 156.3 101.111C156.117 101.27 156.034 101.275 155.785 101.142C155.451 100.963 155.163 101.07 155.265 101.335C155.302 101.431 155.277 101.509 155.211 101.509C155.145 101.509 155.091 101.669 155.091 101.866C155.091 102.166 155.029 102.235 154.706 102.3C154.494 102.342 154.275 102.349 154.219 102.314C154.081 102.229 153.984 102.787 153.983 103.675C153.982 104.642 154.558 105.87 155.233 106.341C155.486 106.517 155.722 106.767 155.757 106.895C155.805 107.069 155.902 107.113 156.139 107.068C156.314 107.034 156.457 107.058 156.457 107.121C156.457 107.184 156.509 107.203 156.573 107.164C156.637 107.124 156.914 107.209 157.188 107.352C157.463 107.495 157.816 107.596 157.972 107.576C158.129 107.555 158.328 107.582 158.414 107.636C158.508 107.695 158.598 107.659 158.642 107.545C158.717 107.349 159.436 107.316 159.437 107.508C159.437 107.564 159.744 107.584 160.12 107.554C160.496 107.524 160.803 107.536 160.803 107.581C160.803 107.65 161.049 107.657 161.586 107.603C161.642 107.598 161.646 107.528 161.597 107.448C161.538 107.352 161.573 107.328 161.701 107.377C161.86 107.438 161.891 107.349 161.876 106.87C161.86 106.331 161.833 106.286 161.51 106.249C161.318 106.227 161.085 106.272 160.993 106.348C160.883 106.44 160.799 106.445 160.748 106.363C160.706 106.294 160.519 106.241 160.333 106.244C159.698 106.256 158.382 106.067 158.308 105.953C158.267 105.891 157.84 105.739 157.359 105.615C156.358 105.357 156.209 105.284 156.209 105.051C156.209 104.888 156.499 104.862 156.649 105.012C156.69 105.053 156.878 105.043 157.067 104.989C157.255 104.935 157.491 104.936 157.591 104.992C157.897 105.164 158.115 104.927 158.032 104.513C157.98 104.248 158.01 104.119 158.139 104.069C158.252 104.026 158.32 104.076 158.32 104.203C158.32 104.315 158.356 104.369 158.401 104.324C158.446 104.279 158.556 104.303 158.644 104.377C158.768 104.479 158.824 104.437 158.885 104.198C158.928 104.025 159.028 103.909 159.107 103.94C159.186 103.97 159.502 103.92 159.81 103.83C160.2 103.714 160.363 103.602 160.351 103.456C160.342 103.341 160.411 103.247 160.506 103.247C160.713 103.247 160.734 103.048 160.541 102.928C160.445 102.869 160.451 102.814 160.564 102.744C160.694 102.664 160.691 102.604 160.548 102.432C160.387 102.238 160.397 102.226 160.654 102.308C160.91 102.389 160.899 102.358 160.552 102.003C160.34 101.786 160.133 101.641 160.092 101.681C160.052 101.722 159.948 101.697 159.863 101.625C159.747 101.53 159.685 101.562 159.626 101.749C159.582 101.889 159.587 102.074 159.639 102.159C159.704 102.268 159.669 102.263 159.523 102.145C159.338 101.995 159.313 102.007 159.313 102.239C159.313 102.422 159.235 102.502 159.057 102.502C158.917 102.502 158.836 102.557 158.877 102.625C158.921 102.695 158.871 102.716 158.761 102.674C158.634 102.625 158.568 102.671 158.568 102.808C158.568 102.955 158.5 102.994 158.333 102.941C158.108 102.869 157.699 103.144 157.699 103.366C157.699 103.421 157.427 103.467 157.095 103.467C156.743 103.467 156.361 103.552 156.178 103.672C156.006 103.785 155.789 103.862 155.697 103.842C155.578 103.816 155.541 103.914 155.57 104.173C155.607 104.497 155.589 104.52 155.414 104.375C155.186 104.186 155.148 103.868 155.354 103.868C155.431 103.868 155.464 103.758 155.428 103.62C155.385 103.458 155.424 103.371 155.537 103.371C155.633 103.371 155.712 103.32 155.712 103.258C155.712 103.093 156.633 102.13 156.79 102.13C156.864 102.13 156.993 102.046 157.078 101.943C157.163 101.841 157.368 101.757 157.534 101.757C157.7 101.757 158.053 101.632 158.318 101.48L158.8 101.202L159.181 101.483C159.575 101.775 159.605 101.748 159.572 101.136L159.556 100.826L159.72 101.109C159.91 101.436 160.062 101.365 159.965 100.994C159.916 100.806 159.823 100.756 159.603 100.798C159.415 100.834 159.264 100.781 159.189 100.654C159.093 100.489 159.071 100.509 159.064 100.764L159.056 101.074L158.878 100.764C158.731 100.506 158.7 100.493 158.696 100.686C158.693 100.872 158.657 100.889 158.517 100.773C158.397 100.673 158.316 100.669 158.261 100.758C158.217 100.829 158.072 100.888 157.94 100.888C157.807 100.888 157.713 100.93 157.73 100.981C157.765 101.087 157.657 101.136 157.388 101.136C157.286 101.136 157.202 101.054 157.202 100.954C157.202 100.854 157.085 100.71 156.942 100.633C156.707 100.508 156.69 100.521 156.769 100.768ZM125.677 100.783C125.667 100.925 125.586 100.969 125.416 100.924C125.059 100.831 124.545 100.988 124.545 101.191C124.545 101.517 124.11 102.136 123.831 102.209C123.677 102.248 123.551 102.358 123.551 102.453C123.551 102.549 123.44 102.738 123.303 102.875C122.996 103.182 122.935 104.489 123.228 104.489C123.323 104.489 123.434 104.576 123.475 104.683C123.516 104.79 123.606 104.842 123.675 104.8C123.743 104.757 123.8 104.81 123.8 104.916C123.8 105.023 123.883 105.11 123.986 105.11C124.088 105.11 124.172 105.194 124.172 105.296C124.172 105.458 124.399 105.544 124.7 105.497C124.751 105.489 124.793 105.566 124.793 105.668C124.793 105.771 124.868 105.855 124.96 105.855C125.052 105.855 125.31 105.946 125.534 106.057C125.855 106.218 126.027 106.233 126.36 106.131C126.729 106.018 126.78 106.029 126.78 106.226C126.78 106.348 126.868 106.483 126.976 106.524C127.266 106.636 127.31 106.619 127.236 106.426C127.132 106.154 127.296 106.083 127.473 106.322C127.621 106.523 127.651 106.517 127.914 106.236C128.1 106.037 128.146 105.917 128.047 105.884C127.965 105.856 127.897 105.672 127.897 105.475C127.897 105.136 127.879 105.123 127.587 105.256C127.355 105.362 127.198 105.362 126.967 105.257C126.796 105.179 126.489 105.149 126.284 105.19C126.046 105.238 125.911 105.214 125.911 105.125C125.911 105.048 125.831 104.986 125.734 104.986C125.464 104.986 124.851 104.42 124.633 103.97C124.421 103.532 124.531 103.123 124.862 103.123C124.964 103.123 125.108 102.988 125.184 102.822C125.259 102.657 125.39 102.548 125.475 102.581C125.56 102.614 125.671 102.511 125.721 102.354C125.798 102.114 125.822 102.103 125.871 102.285C125.936 102.528 126.223 102.575 126.354 102.364C126.431 102.239 127.05 102.263 127.959 102.426C128.096 102.45 128.269 102.477 128.343 102.486C128.521 102.507 128.767 103.057 128.767 103.435C128.767 103.601 128.875 103.929 129.007 104.164C129.251 104.599 129.324 105.41 129.107 105.276C129.036 105.233 129.023 105.312 129.074 105.473C129.121 105.621 129.212 106.285 129.275 106.947C129.413 108.396 129.439 108.549 129.62 108.998C129.793 109.429 129.797 109.58 129.636 109.58C129.567 109.58 129.512 109.524 129.512 109.456C129.512 109.387 129.456 109.332 129.387 109.332C129.319 109.332 129.263 109.577 129.263 109.877C129.263 110.439 129.142 110.573 128.632 110.573C128.492 110.573 128.394 110.659 128.394 110.781C128.394 110.951 128.336 110.935 128.074 110.688C127.774 110.406 127.743 110.401 127.594 110.604C127.385 110.89 127.276 110.879 127.276 110.573C127.276 110.31 127.096 110.239 126.965 110.451C126.922 110.52 126.838 110.547 126.779 110.511C126.719 110.474 126.619 110.537 126.555 110.65C126.425 110.884 126.159 110.78 126.159 110.496C126.159 110.365 126.084 110.332 125.911 110.387C125.748 110.439 125.662 110.409 125.66 110.302C125.659 110.17 125.639 110.169 125.557 110.298C125.402 110.543 125.025 110.337 125.067 110.03C125.116 109.674 124.779 109.684 124.599 110.045C124.523 110.198 124.368 110.426 124.254 110.551C124.141 110.676 124.048 110.832 124.048 110.896C124.048 110.96 124.385 111.146 124.797 111.31C125.382 111.542 125.58 111.575 125.697 111.458C125.814 111.341 125.809 111.285 125.676 111.203C125.583 111.145 125.545 111.036 125.592 110.96C125.707 110.772 125.926 110.784 125.901 110.977C125.85 111.373 125.954 111.522 126.442 111.747C127.396 112.188 128.376 112.012 129.273 111.239C129.381 111.146 129.503 111.103 129.544 111.144C129.638 111.237 130.548 110.359 130.736 109.995C130.812 109.848 130.887 109.121 130.903 108.381C130.929 107.202 130.964 107.009 131.183 106.829C131.41 106.643 131.418 106.584 131.272 106.178C131.183 105.933 131.141 105.682 131.179 105.62C131.217 105.559 131.162 105.475 131.057 105.435C130.915 105.38 130.885 105.256 130.941 104.956C130.989 104.694 130.952 104.465 130.837 104.31C130.729 104.163 130.681 103.895 130.715 103.627C130.745 103.384 130.722 102.964 130.664 102.693C130.582 102.315 130.487 102.184 130.252 102.129C130.06 102.084 129.931 101.955 129.906 101.783C129.862 101.475 129.755 101.439 129.536 101.658C129.421 101.774 129.387 101.761 129.387 101.599C129.387 101.466 129.321 101.418 129.201 101.464C129.083 101.509 129.015 101.462 129.015 101.336C129.015 101.226 128.959 101.136 128.891 101.136C128.822 101.136 128.767 101.192 128.767 101.26C128.767 101.496 128.371 101.384 128.304 101.129C128.258 100.952 128.176 100.899 128.036 100.957C127.687 101.103 127.276 101.119 127.276 100.988C127.276 100.918 127.194 100.893 127.094 100.931C126.994 100.97 126.878 100.947 126.837 100.88C126.796 100.814 126.708 100.793 126.642 100.834C126.575 100.876 126.433 100.837 126.326 100.748C126.164 100.613 126.105 100.623 125.97 100.808C125.815 101.02 125.806 101.02 125.75 100.804C125.701 100.617 125.689 100.613 125.677 100.783ZM106.664 101.004C106.664 101.067 106.776 101.155 106.912 101.198C107.049 101.242 107.161 101.357 107.161 101.455C107.161 101.693 107.398 101.682 107.491 101.441C107.533 101.33 107.466 101.174 107.331 101.072C107.066 100.871 106.664 100.83 106.664 101.004ZM221.151 101.024C221.151 101.098 221.262 101.189 221.399 101.224C221.536 101.26 221.647 101.371 221.647 101.471C221.647 101.703 221.946 101.612 221.994 101.365C222.013 101.264 221.885 101.115 221.708 101.034C221.308 100.852 221.151 100.849 221.151 101.024ZM108.479 101.229C108.266 101.954 108.128 103.689 108.196 104.79C108.283 106.219 108.366 106.6 108.588 106.6C108.674 106.6 108.815 106.684 108.9 106.788C109.019 106.93 109.097 106.942 109.226 106.834C109.36 106.723 109.396 106.746 109.396 106.942C109.396 107.309 109.696 107.516 109.996 107.356C110.18 107.258 110.276 107.27 110.391 107.409C110.475 107.51 110.718 107.593 110.932 107.592C111.235 107.592 111.368 107.508 111.538 107.21C111.657 107 111.755 106.745 111.755 106.644C111.755 106.544 111.811 106.495 111.879 106.538C111.947 106.58 112.003 106.721 112.003 106.852C112.003 107.186 112.261 107.048 112.594 106.535C112.866 106.117 112.827 105.95 112.527 106.25C112.446 106.331 112.339 106.356 112.288 106.305C112.238 106.255 112.279 106.163 112.379 106.101C112.484 106.036 112.571 105.776 112.582 105.492L112.602 104.997L112.297 105.302C112.121 105.478 111.848 105.606 111.65 105.606C111.462 105.606 111.255 105.657 111.19 105.719C111.125 105.781 110.865 105.888 110.612 105.956C110.06 106.105 109.839 105.926 109.963 105.432C110.025 105.185 109.997 105.11 109.844 105.11C109.622 105.11 109.575 104.918 109.768 104.799C109.837 104.757 109.892 104.628 109.891 104.513C109.889 104.347 109.866 104.339 109.782 104.471C109.704 104.594 109.651 104.6 109.587 104.497C109.538 104.418 109.564 104.275 109.644 104.179C109.724 104.083 109.751 103.886 109.705 103.741C109.648 103.56 109.693 103.422 109.85 103.3C110.067 103.132 110.068 103.114 109.861 102.954C109.567 102.725 109.586 102.622 109.986 102.29C110.321 102.012 110.323 102.003 110.082 101.817C109.948 101.713 109.777 101.651 109.702 101.679C109.628 101.708 109.458 101.57 109.326 101.372C109.055 100.968 108.58 100.888 108.479 101.229ZM163.107 101.167C162.855 101.988 162.739 105.527 162.941 106.227C163.053 106.615 163.697 107.009 163.895 106.811C163.994 106.712 164.031 106.742 164.031 106.923C164.031 107.304 164.263 107.469 164.61 107.337C164.837 107.251 164.927 107.268 164.981 107.408C165.026 107.526 165.219 107.593 165.515 107.593C165.897 107.593 166.008 107.533 166.148 107.252C166.242 107.064 166.321 106.841 166.325 106.756C166.336 106.489 166.574 106.572 166.644 106.867C166.707 107.138 166.724 107.131 167.047 106.708C167.448 106.182 167.473 106.047 167.136 106.227C166.989 106.306 166.887 106.312 166.887 106.242C166.887 106.177 166.951 106.102 167.03 106.076C167.173 106.029 167.262 105.109 167.124 105.11C167.083 105.11 166.949 105.221 166.825 105.358C166.686 105.512 166.443 105.606 166.185 105.606C165.957 105.606 165.77 105.655 165.77 105.715C165.77 105.775 165.548 105.881 165.277 105.95C164.692 106.098 164.454 105.918 164.579 105.422C164.638 105.184 164.609 105.11 164.455 105.11C164.325 105.11 164.28 105.044 164.329 104.923C164.37 104.821 164.437 104.639 164.478 104.52C164.538 104.341 164.529 104.335 164.422 104.485C164.215 104.778 164.097 104.519 164.281 104.176C164.412 103.932 164.416 103.83 164.299 103.713C164.182 103.596 164.211 103.515 164.432 103.343L164.714 103.123L164.42 102.894L164.126 102.665L164.508 102.393C164.967 102.065 164.913 101.821 164.337 101.631C164.107 101.555 163.885 101.385 163.843 101.253C163.756 100.981 163.184 100.914 163.107 101.167ZM125.414 101.183C125.414 101.209 125.512 101.307 125.631 101.4C125.828 101.555 125.833 101.55 125.678 101.353C125.516 101.147 125.414 101.081 125.414 101.183ZM141.27 101.216C141.171 101.315 141.283 101.509 141.439 101.509C141.504 101.509 141.556 101.425 141.556 101.322C141.556 101.13 141.41 101.076 141.27 101.216ZM156.457 101.26C156.457 101.329 156.513 101.385 156.581 101.385C156.649 101.385 156.705 101.329 156.705 101.26C156.705 101.192 156.649 101.136 156.581 101.136C156.513 101.136 156.457 101.192 156.457 101.26ZM127.028 101.509C127.028 101.577 127.084 101.633 127.152 101.633C127.221 101.633 127.276 101.577 127.276 101.509C127.276 101.44 127.221 101.385 127.152 101.385C127.084 101.385 127.028 101.44 127.028 101.509ZM157.45 101.509C157.45 101.577 157.51 101.633 157.582 101.633C157.654 101.633 157.679 101.577 157.637 101.509C157.594 101.44 157.535 101.385 157.505 101.385C157.475 101.385 157.45 101.44 157.45 101.509ZM184.892 101.494C184.892 101.562 184.948 101.653 185.017 101.695C185.085 101.737 185.141 101.716 185.141 101.648C185.141 101.579 185.085 101.489 185.017 101.447C184.948 101.404 184.892 101.426 184.892 101.494ZM140.811 101.633C140.811 101.701 140.87 101.757 140.943 101.757C141.015 101.757 141.04 101.701 140.998 101.633C140.955 101.565 140.896 101.509 140.866 101.509C140.836 101.509 140.811 101.565 140.811 101.633ZM104.305 101.881C104.305 102.113 104.338 102.146 104.454 102.03C104.569 101.914 104.569 101.848 104.454 101.732C104.338 101.616 104.305 101.649 104.305 101.881ZM125.3 101.829C125.306 101.974 125.335 102.004 125.375 101.905C125.41 101.815 125.406 101.708 125.365 101.667C125.324 101.625 125.294 101.699 125.3 101.829ZM218.746 101.73C218.712 101.785 218.728 101.903 218.782 101.991C218.859 102.115 218.897 102.108 218.955 101.958C219.033 101.754 218.853 101.557 218.746 101.73ZM91.608 102.091C91.2837 102.272 91.0182 102.481 91.0182 102.555C91.0182 102.63 90.9081 102.759 90.7733 102.844C90.6338 102.931 90.5585 103.075 90.5984 103.179C90.7219 103.501 90.3933 104.248 90.0748 104.369C89.7092 104.508 89.6907 104.693 90.0314 104.801C90.2287 104.864 90.2549 104.92 90.1473 105.05C89.9303 105.311 90.4242 105.731 90.9488 105.731C91.1839 105.731 91.4061 105.682 91.4429 105.622C91.4796 105.563 91.6714 105.482 91.8688 105.442C92.1097 105.394 92.3229 105.215 92.5161 104.899C92.6747 104.639 92.8111 104.399 92.8196 104.365C92.8279 104.331 92.9007 104.079 92.9813 103.806C93.0618 103.533 93.128 103.014 93.1284 102.654C93.129 102.065 93.0971 101.987 92.8106 101.878C92.3605 101.707 92.2697 101.723 91.608 102.091ZM149.876 101.881C149.777 101.942 149.738 102.033 149.788 102.083C149.839 102.134 149.945 102.11 150.025 102.03C150.212 101.843 150.108 101.738 149.876 101.881ZM198.806 102.014C198.185 102.4 197.682 102.982 197.682 103.314C197.682 103.799 197.455 104.236 197.126 104.386C196.726 104.568 196.728 104.711 197.132 104.813C197.36 104.87 197.414 104.931 197.319 105.026C197.245 105.099 197.185 105.2 197.185 105.25C197.185 105.461 197.602 105.731 197.929 105.731C198.33 105.731 199.421 105.297 199.421 105.138C199.421 105.08 199.533 104.912 199.67 104.764C199.807 104.617 199.91 104.453 199.898 104.4C199.887 104.346 199.939 104.154 200.014 103.973C200.089 103.791 200.188 103.314 200.233 102.912C200.325 102.099 200.229 101.934 199.595 101.815C199.35 101.769 199.097 101.833 198.806 102.014ZM105.071 102.2C105.124 102.649 105.374 102.731 105.366 102.297C105.363 102.114 105.286 101.939 105.195 101.909C105.079 101.87 105.042 101.956 105.071 102.2ZM219.476 102.003C219.404 102.12 219.608 102.626 219.727 102.626C219.759 102.626 219.785 102.459 219.785 102.254C219.785 101.89 219.626 101.76 219.476 102.003ZM98.9652 102.199C98.9652 102.305 99.0211 102.358 99.0894 102.316C99.1577 102.274 99.2136 102.187 99.2136 102.122C99.2136 102.058 99.1577 102.005 99.0894 102.005C99.0211 102.005 98.9652 102.093 98.9652 102.199ZM103.932 102.322C103.932 102.565 103.883 102.634 103.746 102.581C103.63 102.537 103.56 102.582 103.56 102.701C103.56 102.828 103.653 102.879 103.839 102.852C104.048 102.822 104.121 102.726 104.131 102.467C104.138 102.277 104.096 102.092 104.038 102.056C103.98 102.02 103.932 102.14 103.932 102.322ZM128.022 102.137C128.022 102.209 128.077 102.234 128.146 102.192C128.214 102.149 128.27 102.09 128.27 102.06C128.27 102.03 128.214 102.005 128.146 102.005C128.077 102.005 128.022 102.065 128.022 102.137ZM213.395 102.121C213.356 102.185 213.375 102.268 213.437 102.307C213.499 102.345 213.582 102.293 213.621 102.191C213.699 101.99 213.512 101.932 213.395 102.121ZM218.295 102.313C218.295 102.5 218.241 102.608 218.171 102.564C218.102 102.522 218.046 102.578 218.046 102.69C218.046 102.828 218.134 102.879 218.326 102.852C218.545 102.821 218.604 102.734 218.599 102.448C218.596 102.248 218.526 102.062 218.444 102.035C218.353 102.004 218.295 102.112 218.295 102.313ZM128.642 102.239C128.642 102.307 128.698 102.398 128.767 102.44C128.835 102.482 128.891 102.461 128.891 102.393C128.891 102.324 128.835 102.234 128.767 102.192C128.698 102.149 128.642 102.171 128.642 102.239ZM79.802 102.429C79.7565 102.547 79.7866 102.766 79.8688 102.915C79.9856 103.126 80.0271 103.143 80.0591 102.991C80.0817 102.884 80.0517 102.666 79.9925 102.505C79.899 102.253 79.8735 102.243 79.802 102.429ZM184.52 102.433C184.52 102.619 184.743 102.817 184.841 102.719C184.928 102.632 184.757 102.254 184.631 102.254C184.57 102.254 184.52 102.334 184.52 102.433ZM190.559 102.44C190.599 102.542 190.681 102.626 190.742 102.626C190.803 102.626 190.853 102.542 190.853 102.44C190.853 102.338 190.771 102.254 190.67 102.254C190.559 102.254 190.516 102.327 190.559 102.44ZM193.709 102.43C193.709 102.538 193.797 102.626 193.905 102.626C194.013 102.626 194.08 102.56 194.053 102.479C193.976 102.249 193.709 102.21 193.709 102.43ZM117.094 102.882C117.094 102.954 117.15 102.979 117.219 102.937C117.287 102.894 117.343 102.835 117.343 102.805C117.343 102.775 117.287 102.75 117.219 102.75C117.15 102.75 117.094 102.81 117.094 102.882ZM159.685 102.86C159.685 102.928 159.741 103.019 159.81 103.061C159.878 103.103 159.934 103.082 159.934 103.013C159.934 102.945 159.878 102.855 159.81 102.813C159.741 102.77 159.685 102.792 159.685 102.86ZM158.095 103.255C158.124 103.344 158.222 103.442 158.312 103.472C158.405 103.503 158.452 103.457 158.42 103.364C158.391 103.274 158.293 103.176 158.203 103.146C158.11 103.115 158.063 103.162 158.095 103.255ZM104.243 103.371C104.2 103.44 104.225 103.495 104.297 103.495C104.37 103.495 104.429 103.44 104.429 103.371C104.429 103.303 104.404 103.247 104.374 103.247C104.344 103.247 104.285 103.303 104.243 103.371ZM114.617 103.427C114.396 103.692 114.505 104.169 114.797 104.215C114.988 104.245 115.005 104.226 114.872 104.136C114.755 104.055 114.724 103.894 114.776 103.632C114.862 103.202 114.834 103.165 114.617 103.427ZM218.729 103.371C218.687 103.44 218.712 103.495 218.784 103.495C218.856 103.495 218.916 103.44 218.916 103.371C218.916 103.303 218.891 103.247 218.861 103.247C218.831 103.247 218.772 103.303 218.729 103.371ZM103.439 103.688C103.443 104.009 103.459 104.026 103.576 103.825C103.672 103.661 103.671 103.557 103.573 103.459C103.473 103.359 103.436 103.421 103.439 103.688ZM217.926 103.688C217.929 104.009 217.946 104.026 218.063 103.825C218.158 103.661 218.157 103.557 218.059 103.459C217.959 103.359 217.923 103.421 217.926 103.688ZM103.763 103.706C103.603 103.866 103.682 104.489 103.863 104.489C104.112 104.489 104.245 104.233 104.056 104.116C103.97 104.063 103.936 103.962 103.98 103.89C104.071 103.743 103.885 103.584 103.763 103.706ZM218.264 103.691C218.213 103.743 218.171 103.943 218.171 104.137C218.171 104.514 218.462 104.63 218.588 104.303C218.627 104.2 218.609 104.116 218.548 104.116C218.486 104.116 218.418 103.999 218.397 103.856C218.375 103.713 218.315 103.639 218.264 103.691ZM120.199 104.163C120.199 104.189 120.297 104.287 120.416 104.381C120.613 104.535 120.617 104.531 120.463 104.334C120.301 104.127 120.199 104.061 120.199 104.163ZM139.942 104.365C139.942 104.596 139.975 104.63 140.091 104.514C140.207 104.398 140.207 104.332 140.091 104.216C139.975 104.1 139.942 104.133 139.942 104.365ZM80.6793 104.638C80.8977 104.856 81.1121 104.999 81.1557 104.956C81.2589 104.852 80.6469 104.24 80.4406 104.24C80.3534 104.24 80.4608 104.419 80.6793 104.638ZM188.327 104.448C188.181 104.594 188.239 104.707 188.493 104.773C188.63 104.809 188.742 104.794 188.742 104.741C188.742 104.587 188.417 104.358 188.327 104.448ZM114.363 104.589C114.363 104.645 114.439 104.794 114.532 104.922C114.697 105.147 114.707 105.146 114.843 104.892C115.039 104.525 115.024 104.489 114.673 104.489C114.502 104.489 114.363 104.534 114.363 104.589ZM102.256 104.737C102.214 104.805 102.238 104.861 102.311 104.861C102.383 104.861 102.442 104.805 102.442 104.737C102.442 104.669 102.417 104.613 102.387 104.613C102.357 104.613 102.298 104.669 102.256 104.737ZM157.708 104.81C157.714 104.954 157.744 104.984 157.783 104.885C157.819 104.795 157.815 104.688 157.774 104.647C157.732 104.605 157.703 104.679 157.708 104.81ZM216.68 104.737C216.68 104.805 216.736 104.861 216.805 104.861C216.873 104.861 216.929 104.805 216.929 104.737C216.929 104.669 216.873 104.613 216.805 104.613C216.736 104.613 216.68 104.669 216.68 104.737ZM92.6958 104.863C92.7387 104.933 92.8258 104.957 92.8894 104.918C93.0616 104.812 93.0296 104.737 92.8114 104.737C92.705 104.737 92.6529 104.794 92.6958 104.863ZM199.855 104.861C199.897 104.93 199.956 104.986 199.987 104.986C200.017 104.986 200.041 104.93 200.041 104.861C200.041 104.793 199.982 104.737 199.91 104.737C199.838 104.737 199.813 104.793 199.855 104.861ZM120.571 105.241C120.571 105.313 120.627 105.338 120.695 105.296C120.764 105.254 120.82 105.195 120.82 105.164C120.82 105.134 120.764 105.11 120.695 105.11C120.627 105.11 120.571 105.169 120.571 105.241ZM147.628 105.51C147.546 105.665 147.429 105.826 147.368 105.866C147.307 105.906 147.342 106.01 147.447 106.097C147.606 106.229 147.65 106.216 147.71 106.024C147.75 105.897 147.834 105.697 147.896 105.581C147.964 105.453 147.962 105.341 147.893 105.298C147.829 105.259 147.71 105.354 147.628 105.51ZM127.243 105.557C127.056 105.744 127.162 105.979 127.432 105.977C127.592 105.976 127.653 105.936 127.575 105.884C127.499 105.834 127.414 105.719 127.386 105.63C127.357 105.54 127.293 105.507 127.243 105.557ZM147.02 105.606C146.921 105.667 146.882 105.758 146.932 105.809C146.983 105.859 147.089 105.835 147.169 105.755C147.356 105.568 147.252 105.463 147.02 105.606ZM80.9603 106.034C80.9603 106.22 81.1832 106.418 81.2819 106.32C81.3685 106.233 81.1971 105.855 81.0712 105.855C81.0102 105.855 80.9603 105.935 80.9603 106.034ZM140.334 106.103C140.334 106.274 140.362 106.344 140.397 106.258C140.431 106.173 140.431 106.033 140.397 105.948C140.362 105.863 140.334 105.932 140.334 106.103ZM130.877 106.227C130.877 106.296 130.933 106.351 131.002 106.351C131.07 106.351 131.126 106.296 131.126 106.227C131.126 106.159 131.07 106.103 131.002 106.103C130.933 106.103 130.877 106.159 130.877 106.227ZM155.836 106.53C155.836 106.637 155.892 106.724 155.96 106.724C156.029 106.724 156.084 106.671 156.084 106.607C156.084 106.543 156.029 106.456 155.96 106.414C155.892 106.371 155.836 106.424 155.836 106.53ZM183.24 106.555C183.141 106.654 183.253 106.848 183.41 106.848C183.474 106.848 183.526 106.764 183.526 106.662C183.526 106.47 183.38 106.415 183.24 106.555ZM111.01 106.786C111.01 106.888 111.066 106.972 111.134 106.972C111.202 106.972 111.258 106.888 111.258 106.786C111.258 106.684 111.202 106.6 111.134 106.6C111.066 106.6 111.01 106.684 111.01 106.786ZM121.44 106.786C121.44 106.894 121.514 106.936 121.627 106.893C121.729 106.854 121.813 106.806 121.813 106.786C121.813 106.767 121.729 106.718 121.627 106.679C121.514 106.636 121.44 106.678 121.44 106.786ZM165.646 106.786C165.646 106.888 165.702 106.972 165.77 106.972C165.838 106.972 165.894 106.888 165.894 106.786C165.894 106.684 165.838 106.6 165.77 106.6C165.702 106.6 165.646 106.684 165.646 106.786ZM124.11 110.201C123.987 110.337 123.81 110.449 123.718 110.449C123.626 110.449 123.551 110.561 123.551 110.697C123.551 110.834 123.607 110.946 123.675 110.946C123.744 110.946 123.8 110.879 123.8 110.797C123.8 110.716 123.95 110.492 124.133 110.301C124.317 110.109 124.437 109.952 124.401 109.952C124.365 109.952 124.234 110.064 124.11 110.201Z" fill="black"/>
</svg>
