<svg width="764" height="581" viewBox="0 0 764 581" fill="none" xmlns="http://www.w3.org/2000/svg">
<path fill-rule="evenodd" clip-rule="evenodd" d="M0.276001 18.1113L0.552002 33.3613L11.293 33.6453L22.035 33.9283L22.293 87.1453L22.552 140.361L37.302 140.638L52.052 140.914V87.3883V33.8613H63.052H74.052V18.3613V2.86133H37.026H0L0.276001 18.1113ZM80.052 71.8613V140.861H95.052H110.052V112.361V83.8613H118.536H127.021L127.286 112.111L127.552 140.361L142.302 140.638L157.052 140.914V71.8883V2.86133H142.052H127.052V27.8613V52.8613H118.552H110.052V27.8613V2.86133H95.052H80.052V71.8613ZM171.052 70.8613C171.052 108.261 171.052 139.198 171.051 139.611C171.051 140.024 186.351 140.479 205.051 140.624L239.052 140.887V125.874V110.861H219.523H199.994L200.273 97.6113L200.552 84.3613L217.802 84.0873L235.052 83.8143V69.3373V54.8613H217.519H199.986L200.269 43.7853L200.552 32.7093L219.052 32.5353L237.552 32.3613L237.829 17.6113L238.105 2.86133H204.579H171.052V70.8613ZM17.511 459.111C17.248 459.799 17.15 487.361 17.293 520.361L17.552 580.361L385.302 580.612L753.052 580.864V519.362V457.861H385.521C92.417 457.861 17.892 458.114 17.511 459.111ZM208.059 486.454C200.902 489.558 197.464 494.5 196.448 503.147C195.07 514.874 200.129 522.293 212.994 527.411C221.382 530.748 225.052 534.138 225.052 538.548C225.052 542.304 222.134 545.861 219.052 545.861C216.104 545.861 213.052 542.3 213.052 538.861V535.861H203.916H194.78L195.425 540.568C196.453 548.065 198.998 552.028 204.604 554.861C208.863 557.013 210.875 557.358 219.052 557.337C235.829 557.293 242.821 551.816 243.814 537.941C244.68 525.846 239.465 518.981 225.423 513.727C222.207 512.524 218.334 510.296 216.814 508.777C212.119 504.082 213.778 496.861 219.552 496.861C222.755 496.861 225.052 499.397 225.052 502.932V505.861H233.552H242.052V502.018C242.052 496.052 238.252 489.762 233.046 487.111C229.46 485.285 227.02 484.868 220.09 484.9C214.749 484.925 210.244 485.506 208.059 486.454ZM412.78 486.128C400.665 490.089 397.2 500.723 404.133 512.668C406.693 517.08 406.564 518.127 403.216 520.105C398.832 522.695 395.074 528.875 394.395 534.615C393.52 542.001 394.693 546.458 398.671 550.861C405.276 558.171 417.003 559.774 427.297 554.772C431.711 552.628 432.098 552.593 433.849 554.177C435.308 555.498 437.687 555.861 444.881 555.861C449.925 555.861 454.052 555.617 454.052 555.318C454.052 555.02 452.186 552.25 449.905 549.163C446.51 544.567 445.971 543.26 446.931 541.955C449.698 538.192 453.1 529.819 453.317 526.238L453.552 522.361L446.352 522.068L439.152 521.775L438.064 525.818C437.465 528.042 436.655 529.835 436.263 529.804C435.872 529.773 433.828 527.485 431.721 524.72L427.889 519.692L432.005 516.169C439.97 509.352 442.328 499.159 437.463 492.581C432.932 486.453 421.182 483.382 412.78 486.128ZM688.511 486.741C678.391 491.338 675.533 499.444 675.6 523.361C675.65 541.33 676.531 546.658 680.227 551.356C686.164 558.904 702.001 560.003 708.674 553.33L711.04 550.964L711.654 553.413C712.22 555.665 712.742 555.861 718.182 555.861H724.096L723.824 537.111L723.552 518.361H712.052H700.552L700.252 524.111L699.952 529.861H703.033C706.782 529.861 707.5 531.39 706.592 537.445C705.306 546.017 699.14 548.541 695.804 541.861C694.351 538.954 694.055 535.566 694.054 521.854C694.052 500.209 695.004 496.912 701.267 496.876C704.504 496.858 706.052 499.258 706.052 504.295V507.861H715.052C723.72 507.861 724.052 507.778 724.046 505.611C724.028 498.053 719.341 490.069 713.034 486.852C707.742 484.152 694.343 484.091 688.511 486.741ZM47.052 493.361V500.861H54.052H61.052V528.361V555.861H70.036H79.02L79.286 528.611L79.552 501.361L86.302 501.065L93.052 500.77V493.315V485.861H70.052H47.052V493.361ZM123.052 520.861V555.861H144.437H165.822L165.788 548.891L165.755 541.92L153.653 541.641L141.552 541.361V534.361V527.361L152.302 527.077L163.052 526.793V519.827V512.861H152.052H141.052V506.893V500.924L152.802 500.643L164.552 500.361L164.846 493.111L165.14 485.861H144.096H123.052V520.861ZM271.814 486.611C271.618 487.024 271.518 490.286 271.591 493.861L271.725 500.361L278.47 500.861L285.216 501.361L285.384 528.361L285.552 555.361L294.802 555.649L304.052 555.936V528.399V500.861H310.802H317.552V493.362V485.864L294.861 485.862C282.381 485.862 272.01 486.198 271.814 486.611ZM526.052 493.315V500.77L532.802 501.065L539.552 501.361L539.818 528.611L540.084 555.861H549.068H558.052V528.361V500.861H565.052H572.052V493.361V485.861H549.052H526.052V493.315ZM598.927 520.831L590.37 555.861H600.049H609.728L610.64 550.111L611.552 544.361H619.052H626.552L627.416 550.111L628.279 555.861H637.666C645.953 555.861 647.047 555.656 647.013 554.111C646.991 553.149 643.278 537.511 638.763 519.361L630.552 486.361L619.018 486.081L607.484 485.801L598.927 520.831ZM416.623 496.432C414.473 498.583 414.653 501.479 417.191 505.585L419.329 509.045L422.089 506.203C426.006 502.17 426.604 499.413 424.103 496.912C421.654 494.463 418.778 494.278 416.623 496.432ZM616.261 515.111C615.025 522.399 614.022 528.924 614.033 529.611C614.056 531.105 622.62 531.369 623.525 529.905C624.205 528.805 619.928 501.861 619.073 501.861C618.763 501.861 617.497 507.823 616.261 515.111ZM412.609 531.084C408.986 536.255 412.365 543.861 418.285 543.861C421.619 543.861 424.052 542.924 424.052 541.639C424.052 540.374 415.799 528.93 414.859 528.89C414.477 528.874 413.465 529.861 412.609 531.084Z" fill="black"/>
<path d="M9.10796 248.843C16.803 202.917 37.188 179.869 75.871 173.36C80.096 172.649 90.528 172.028 99.053 171.98C127.012 171.824 144.003 177.311 158.928 191.318C172.461 204.018 180.692 224.993 181.314 248.362L181.553 257.362L149.303 257.626L117.053 257.89L117.033 251.126C116.988 235.883 113.498 224.046 107.809 219.84C101.275 215.009 88.971 216.605 83.607 222.98C80.274 226.941 77.417 236.543 76.163 247.999C74.478 263.387 73.766 315.539 74.902 340.416C76.772 381.372 80.526 390.724 95.48 391.676C100.758 392.013 102.589 391.689 105.884 389.837C113.741 385.421 117.732 373.707 118.736 352.112L119.353 338.862H107.684H96.015L96.284 316.337L96.553 293.813L139.053 293.742L181.553 293.671V363.017V432.362L159.624 432.632C142.749 432.84 137.51 432.609 136.89 431.632C136.446 430.933 136.072 427.662 136.057 424.362C136.043 421.062 135.75 416.659 135.406 414.578L134.78 410.794L131.555 415.578C126.708 422.769 122.295 426.626 114.553 430.441C104.626 435.332 95.204 437.079 78.553 437.118C67.256 437.144 62.916 436.724 56.072 434.94C37.16 430.009 25.339 420.419 17.645 403.766C10.495 388.293 7.41596 369.744 5.96096 333.382C4.68296 301.449 5.93696 267.772 9.10796 248.843Z" fill="#E62343"/>
<path d="M610.404 193.423C621.254 182.586 633.37 176.596 650.816 173.441C660.228 171.739 686.026 171.462 696.731 172.948C706.421 174.293 720.982 178.931 727.337 182.696C732.48 185.743 739.727 192.256 743.546 197.264C751.009 207.052 756.146 224.224 756.395 240.221L756.553 250.362H726.053H695.553L694.407 241.362C692.666 227.684 689.938 222.374 682.774 218.72C674.019 214.253 662.445 218.364 657.924 227.546C654.284 234.939 654.552 245.511 658.563 252.784C663.273 261.326 674.533 268.992 692.053 275.586C739.519 293.449 757.004 309.975 762.705 342.362C764.747 353.962 764.023 373.007 761.108 384.362C754.502 410.095 737.404 426.322 709.415 433.422C696.194 436.776 676.172 438.128 659.033 436.823C633.341 434.868 616.795 428.825 605.146 417.143C593.065 405.027 587.902 390.668 587.675 368.548L587.553 356.734L619.553 356.696L651.553 356.659L652.179 366.01C652.886 376.57 654.725 381.885 659.309 386.622C666.498 394.05 681.531 393.583 688.686 385.709C693.148 380.799 694.466 376.762 694.51 367.862C694.548 360.277 694.236 358.789 691.604 354.039C686.438 344.713 678.151 339.27 654.053 329.372C638.424 322.953 625.775 316.535 618.406 311.287C597.32 296.266 587.499 270.513 590.991 239.397C593.365 218.244 599.064 204.749 610.404 193.423Z" fill="#E62343"/>
<path d="M313.053 176.891L343.803 176.622C360.716 176.475 375.152 176.468 375.885 176.608C376.617 176.748 377.855 176.862 378.635 176.862C379.848 176.862 380.053 189.479 380.053 264.256C380.053 315.593 379.636 355.923 379.043 362.006C374.954 403.928 359.121 425.533 326.343 433.916C309.394 438.251 279.533 438.411 260.712 434.269C251.108 432.155 236.589 425.048 230.272 419.369C220.142 410.261 213.07 396.632 208.909 378.195C206.716 368.48 206.685 367.217 206.316 272.612L205.943 176.862H239.47H272.997L273.275 276.612L273.553 376.362L276.28 381.915C280.108 389.708 284.689 392.221 294.1 391.69C304.767 391.087 309.791 385.93 311.984 373.334C312.692 369.271 313.053 335.057 313.053 272.045V176.891Z" fill="#E62343"/>
<path d="M501.101 212.362C507.647 188.828 510.791 178.094 511.451 177.026C511.677 176.661 527.992 176.468 547.707 176.598C581.345 176.82 583.532 176.943 583.211 178.598C582.867 180.378 559.932 235.369 533.053 298.862C528.746 309.037 523.834 320.861 522.137 325.138L519.053 332.914V382.902V432.889L485.803 432.625L452.553 432.362L452.053 380.862C451.571 331.261 451.475 329.178 449.437 324.362C448.274 321.612 443.436 310.218 438.687 299.042C433.938 287.866 430.053 278.489 430.053 278.204C430.053 277.919 428.654 274.688 426.944 271.024C425.234 267.36 423.248 262.787 422.53 260.862C421.812 258.937 418.452 250.837 415.063 242.862C411.674 234.887 406.947 223.637 404.558 217.862C402.168 212.087 397.29 200.499 393.716 192.112L387.219 176.862H423.944H460.668L463.513 187.112C466.655 198.437 472.041 217.597 480.103 246.136C483.019 256.461 485.703 264.561 486.065 264.136C486.753 263.328 490.776 249.475 501.101 212.362Z" fill="#E62343"/>
<path fill-rule="evenodd" clip-rule="evenodd" d="M392.053 0.959034C384.965 2.3438 375.525 7.49224 371.529 12.1524C366.719 17.7657 362.654 26.6075 360.4 36.3614C358.824 43.1895 358.562 48.5372 358.617 72.8614C358.676 99.0264 358.861 102.016 360.883 109.361C364.893 123.927 371.91 134.228 380.922 138.773C394.117 145.428 420.006 145.517 432.873 138.952C442.605 133.988 450.338 121.932 453.783 106.361C455.244 99.751 455.547 93.5811 455.518 70.8614C455.484 45.6817 455.293 42.6446 453.25 34.8614C447.854 14.3086 438.211 4.11528 421.092 0.86919C414.777 -0.330028 398.387 -0.277294 392.053 0.959034ZM499.053 1.16607C481.855 5.07817 472.658 16.0391 467.846 38.3614C466.955 42.4903 466.553 53.4014 466.553 73.3614C466.553 98.3653 466.811 103.395 468.424 109.861C473.379 129.703 481.91 138.815 498.908 142.418C511.994 145.191 530.756 143.63 539.697 139.023C553.822 131.743 561.549 115.29 560.84 93.9961L560.553 85.3614H543.553H526.553L525.773 96.3614C524.455 114.945 522.516 118.861 514.625 118.861C511.035 118.861 509.807 118.364 508.129 116.23C503.965 110.938 503.564 107.037 503.564 71.8614C503.564 36.6231 503.961 32.7891 508.166 27.4434C510.033 25.0704 510.855 24.7989 515.363 25.0625C522.359 25.4727 523.818 28.0821 524.811 41.9668L525.553 52.3614H542.553H559.553L559.492 41.8614C559.373 20.9708 551.748 8.58989 535.33 2.63286C528.188 0.0410655 507.652 -0.789013 499.053 1.16607ZM272.053 3.00005L274.303 2.68169C275.541 2.50591 283.527 2.41802 292.053 2.49028L307.553 2.61919L308.053 56.9913L308.553 111.361L330.303 111.631L352.053 111.899V126.381V140.861H312.053H272.053V71.9307V3.00005ZM596.471 2.99419C596.254 3.34185 593.625 13.6915 590.625 25.9942L586.406 43.2754C583.885 53.5958 581.117 64.9083 579.047 73.3614C567.131 122.02 563.053 138.989 563.053 139.919C563.053 140.475 570.814 140.861 581.986 140.861C599.156 140.861 600.965 140.698 601.424 139.111C601.703 138.148 602.422 133.761 603.023 129.361C603.949 122.582 603.971 119.41 605.561 117.979C606.947 116.73 609.529 116.807 614.949 116.97C616.229 117.009 617.666 117.053 619.285 117.084L633.467 117.361L634.74 125.861C635.441 130.536 636.268 135.823 636.578 137.611L637.145 140.861H656.098C671.523 140.861 675.053 140.605 675.053 139.485C675.053 138.216 671.467 123.26 654.881 55.3614C643.49 8.73052 642.227 3.70122 641.77 3.24224C641.053 2.52739 596.908 2.28521 596.471 2.99419ZM682.053 140.861L682.055 71.6114V2.36138L699.805 2.44536L717.553 2.5313L717.812 57.1963L718.07 111.861H740.062H762.053V126.361V140.861H722.053H682.053ZM616.666 44.8614C617.488 39.6348 618.412 34.6856 618.723 33.8614C618.895 33.4043 619.025 33.0352 619.174 33.0274C619.705 33.002 620.453 37.6075 624.018 59.3604C626.271 73.1104 628.361 85.5987 628.664 87.1104L629.211 89.8604H619.023C608.959 89.8604 608.842 89.834 609.393 87.6104C610.008 85.1348 614.316 59.8057 616.666 44.8614ZM403.553 24.8458C396.162 27.7208 394.793 36.125 395.322 75.3604C395.754 107.377 396.211 111.248 400.141 116.244C401.855 118.425 403.008 118.86 407.053 118.86C411.105 118.86 412.25 118.426 413.977 116.23C418.145 110.931 418.553 107.022 418.553 72.3604C418.553 37.043 417.895 30.8731 413.729 27.0977C411.186 24.7969 406.402 23.7383 403.553 24.8458Z" fill="#1E4998"/>
</svg>
