<svg width="176" height="90" viewBox="0 0 176 90" fill="none" xmlns="http://www.w3.org/2000/svg">
<path d="M161.048 3.96579C160.553 3.66885 160.025 3.4049 159.497 3.17394L158.672 2.77802L158.705 2.81102C157.551 2.28312 156.33 1.85421 155.076 1.52427C152.272 0.732432 148.906 0.402498 146.168 0.270525C132.839 -0.45533 122.248 5.41749 118.156 14.9526C113.735 24.9826 120.07 34.5507 131.156 37.4871C139.272 39.6317 148.477 36.6952 151.777 30.5255L150.589 29.3377C149.83 28.5789 149.83 27.3581 150.589 26.5663L152.965 24.2237L152.998 24.1907C152.338 20.1655 148.84 17.4931 145.244 16.5033C139.503 14.9196 134.257 16.8662 131.684 20.3965C131.354 20.8584 132.047 21.1553 132.047 21.1553C132.047 21.1553 134.521 22.3101 134.917 22.5081C135.28 22.706 135.643 22.3431 135.841 22.1781C137.359 20.9244 139.602 20.0336 142.143 20.7594C145.673 21.8152 147.026 24.6526 145.574 27.5561C143.693 31.4493 138.183 32.3731 134.158 31.3503C127.593 29.7006 125.316 24.0588 127.527 18.6808C130.1 12.4451 139.965 8.9148 148.576 11.4553C158.375 14.5567 162.962 22.739 158.969 31.7792C158.111 33.7258 156.726 35.7384 154.878 37.652C154.713 37.85 154.515 38.015 154.317 38.2129L154.152 38.3449C153.921 38.5759 153.657 38.8068 153.393 39.0378C153.393 39.0378 153.36 39.0378 153.36 39.0708C153.096 39.3017 152.833 39.5327 152.536 39.7636L152.503 39.7966C152.206 40.0276 151.909 40.2585 151.612 40.5225L152.14 40.7204L152.206 40.7534C152.767 40.9844 153.327 41.2483 153.855 41.5123L153.921 41.5453C154.053 41.6113 154.185 41.6772 154.284 41.7432C154.35 41.7762 154.416 41.8092 154.449 41.8422L154.845 42.0732C154.878 42.1062 154.944 42.1391 154.977 42.1391C155.34 42.3371 155.67 42.5681 156.033 42.799C158.144 44.2837 159.86 46.1973 161.081 48.5069L161.312 48.9688L161.345 49.0678L161.543 49.4637L161.576 49.5297L161.972 50.4535C170.022 44.8116 173.321 37.1571 173.915 35.5735C173.915 35.5405 173.915 35.5405 173.948 35.5075C177.776 24.8506 175.037 11.6203 161.048 3.96579V3.96579Z" fill="url(#paint0_linear_1242_19)"/>
<path d="M158.672 2.745C164.182 8.12292 164.908 17.0641 162.566 25.2465C162.005 27.2591 158.639 34.0887 154.911 37.52C153.921 38.5428 152.8 39.5656 151.546 40.5224C153.13 41.1163 154.614 41.8752 155.967 42.832C158.079 44.3167 159.794 46.2303 161.015 48.5398C161.345 49.1667 161.642 49.8266 161.873 50.4534C169.923 44.7786 173.256 37.1241 173.816 35.5404C177.974 24.2897 174.74 10.1685 158.672 2.745V2.745Z" fill="url(#paint1_linear_1242_19)"/>
<path d="M155.736 64.1787C154.252 63.2219 152.767 62.496 151.282 62.0671C149.83 61.6382 148.709 61.3413 147.917 61.1763C145.211 60.4834 143.034 59.9226 141.384 59.4936C139.768 59.0647 138.481 58.6358 137.59 58.2069C136.6 57.745 136.171 57.3161 136.006 57.0521C135.775 56.6562 135.643 56.0953 135.643 55.4025C135.643 54.6436 135.808 54.0167 136.105 53.5548C136.435 53.0269 136.897 52.598 137.425 52.2681C137.953 51.9052 138.58 51.6742 139.24 51.5422C141.054 51.1463 142.935 51.2783 144.453 51.6082C145.343 51.8062 146.135 52.1031 146.828 52.532L147.092 52.73C148.181 53.4229 149.237 54.8416 149.666 55.4684C150.358 56.4912 151.084 56.5572 152.173 56.1943C153.262 55.8314 155.868 54.7426 157.749 53.5548C158.673 52.961 158.97 51.8722 158.607 50.8824C158.541 50.7174 158.442 50.5524 158.343 50.3875C158.244 50.1895 158.112 49.9915 158.013 49.8266L157.716 49.3647L157.617 49.1997L157.386 48.8698C157.287 48.7378 157.188 48.6058 157.089 48.4409L157.056 48.4079C156.429 47.616 155.703 46.8902 154.911 46.2633L154.846 46.2303C154.648 46.0653 154.45 45.9334 154.252 45.8014C152.569 44.6136 150.622 43.7558 148.478 43.2279C144.519 42.2711 140.097 42.1061 135.808 43.2609C133.796 43.8218 131.981 44.6466 130.364 45.8014C128.748 46.9562 127.428 48.4079 126.438 50.1235C125.415 51.8722 124.92 53.9508 124.92 56.2933C124.92 58.3719 125.316 60.2195 126.141 61.7042C126.933 63.1889 127.989 64.4427 129.276 65.4325C130.529 66.3893 131.981 67.2141 133.565 67.808C135.115 68.4019 136.732 68.8968 138.349 69.3257C139.899 69.7546 141.483 70.1835 143.034 70.5464C144.519 70.9094 145.871 71.3053 147.026 71.7672C148.148 72.1961 149.039 72.757 149.699 73.4169C150.292 74.0107 150.589 74.7366 150.589 75.6934C150.589 76.6172 150.358 77.3431 149.929 77.904C149.435 78.4978 148.808 78.9927 148.082 79.3557C147.323 79.7186 146.465 79.9825 145.574 80.1145C143.298 80.4445 141.384 80.3785 139.537 79.8836C138.481 79.6196 137.524 79.1907 136.732 78.6298C135.973 78.0689 135.346 77.3431 134.884 76.4523C134.522 75.7264 134.291 75.0335 134.258 74.4726C134.159 73.2519 133.4 72.3611 132.212 72.3611H125.613C124.854 72.3611 124.228 72.757 123.832 73.3179V45.5374C123.766 44.4157 122.842 43.5578 121.72 43.5578H110.7C109.744 43.5578 108.952 44.1847 108.688 45.0425L100.109 71.6682L91.0363 45.0095C90.7393 44.1517 89.9805 43.5578 89.0237 43.5578H78.0039C76.8161 43.5578 75.8593 44.5146 75.8593 45.6694V78.8278L63.1898 44.7786C62.8929 43.9867 62.134 43.3929 61.2102 43.3929H53.3248C52.5 43.3929 51.7741 43.8878 51.4112 44.5806L37.587 81.1373C37.554 80.5434 37.488 79.9825 37.488 79.4217C37.455 78.4978 37.422 77.673 37.356 76.9801C37.257 75.8584 37.125 74.7366 36.8941 73.6148C36.6631 72.46 36.2672 71.3713 35.7723 70.4145C35.2444 69.4247 34.5516 68.5668 33.7267 67.841C33.2648 67.4451 32.7369 67.1151 32.176 66.8182C33.9577 65.8284 35.3104 64.5746 36.2342 62.9909C37.356 61.0443 37.9499 58.7018 37.9499 56.0293C37.9499 54.2807 37.6529 52.631 37.0261 51.1133C36.3992 49.5956 35.5084 48.2429 34.3206 47.0881C33.1328 45.9334 31.7141 45.0095 30.0975 44.3497C28.4478 43.6898 26.6002 43.3599 24.5876 43.3599H2.67994C1.55816 43.3599 0.634346 44.2507 0.568359 45.3725V85.8884C0.568359 87.0761 1.52517 87.9999 2.67994 87.9999H9.47658C10.6313 87.9999 11.5552 87.0761 11.5882 85.9214V71.1403H20.2984C22.443 71.1403 23.9937 71.6022 24.8845 72.493C25.8083 73.4169 26.4352 74.9346 26.7321 77.0131C26.9631 78.7288 27.161 80.5104 27.26 82.3911C27.359 83.9088 27.59 85.2945 27.9529 86.5152C28.2168 87.3731 29.0417 87.9999 29.9655 87.9999H44.7795C45.7033 87.9999 46.4952 87.4061 46.7921 86.5482L49.6625 78.3989H64.5756L67.347 86.5482C67.6109 87.3731 68.4028 87.9999 69.3266 87.9999H84.1076C85.2954 87.9999 86.2192 87.0431 86.2192 85.8884V61.2423L95.0945 86.6472C95.3914 87.4391 96.1502 88.0329 97.0741 88.0329H102.485C103.409 88.0329 104.201 87.4061 104.498 86.5812L113.34 61.0113V85.9214C113.34 87.1091 114.297 88.0329 115.451 88.0329H121.621C122.809 88.0329 123.733 87.0761 123.733 85.9214V76.8812C123.997 78.0689 124.36 79.1907 124.887 80.2135C125.943 82.2591 127.395 83.9418 129.21 85.2615C130.991 86.5482 133.07 87.538 135.379 88.1319C137.656 88.7258 140.064 89.0227 142.473 89.0227C145.475 89.0227 148.148 88.6598 150.457 87.9669C152.767 87.2411 154.747 86.2513 156.33 84.9645C157.914 83.6778 159.135 82.0941 159.959 80.3125C160.751 78.5308 161.18 76.5842 161.18 74.5056C161.18 71.9322 160.619 69.7876 159.498 68.1379C158.508 66.4553 157.221 65.1355 155.736 64.1787V64.1787ZM25.5114 61.6382C24.5876 62.4631 23.1029 62.892 21.1232 62.892H11.5222V52.3011H21.1232C23.1029 52.3011 24.5546 52.73 25.5114 53.5218C26.4022 54.3137 26.8641 55.6334 26.8641 57.481C26.8641 59.4277 26.4022 60.8134 25.5114 61.6382ZM52.599 69.8206L57.152 56.9532L61.5732 69.8206H52.599V69.8206Z" fill="url(#paint2_linear_1242_19)"/>
<path d="M95.16 86.6472C95.457 87.4391 96.2158 88.033 97.1396 88.033H102.551C103.474 88.033 104.266 87.4061 104.563 86.5813L110.535 69.2927C107.137 69.9526 103.705 70.5795 100.208 71.1403L100.076 71.5363L99.9441 71.1733C96.7107 71.6682 93.4774 72.1301 90.211 72.5591L95.16 86.6472V86.6472ZM26.6327 77.0462C26.8637 78.7618 27.0616 80.5435 27.1606 82.4241C27.2596 83.9418 27.4906 85.3275 27.8535 86.5483C28.1174 87.4061 28.9423 88.033 29.8661 88.033H44.6801C45.6039 88.033 46.3958 87.4391 46.6927 86.5813L49.5631 78.4319H64.5751L67.3466 86.5813C67.6105 87.4061 68.4024 88.033 69.3262 88.033H84.1072C85.295 88.033 86.2188 87.0762 86.2188 85.9214V73.054C82.7545 73.4499 79.2572 73.8128 75.7929 74.1427V78.6958L74.1432 74.2747C62.3976 75.2975 50.6849 75.8254 39.4672 76.1223L37.5535 81.2033C37.5205 80.6094 37.4546 80.0486 37.4546 79.4877C37.4216 78.5639 37.3886 77.739 37.3226 77.0462L37.2566 76.1883C33.5943 76.2873 29.9981 76.3203 26.5008 76.3533C26.5667 76.5513 26.5997 76.8152 26.6327 77.0462V77.0462ZM2.61353 88.033H9.41017C10.5649 88.033 11.4888 87.1091 11.5217 85.9544V76.3863H0.501953V85.8884C0.501953 87.0762 1.45876 88.033 2.61353 88.033V88.033ZM113.405 68.6988V85.9214C113.405 87.1092 114.362 88.033 115.517 88.033H121.687C122.874 88.033 123.798 87.0762 123.798 85.9214V76.8812C124.062 78.069 124.425 79.1907 124.953 80.2135C126.009 82.2591 127.461 83.9418 129.275 85.2615C131.057 86.5483 133.135 87.5381 135.445 88.1319C137.722 88.7258 140.13 89.0228 142.539 89.0228C145.541 89.0228 148.213 88.6598 150.523 87.967C152.832 87.2411 154.812 86.2513 156.396 84.9646C157.979 83.6778 159.2 82.0942 160.025 80.3125C160.817 78.5309 161.246 76.5843 161.246 74.5057C161.246 71.9322 160.685 69.7876 159.563 68.1379C158.474 66.5213 157.188 65.2015 155.703 64.2117C154.218 63.2549 152.734 62.5291 151.249 62.1002C149.797 61.6712 148.675 61.3743 147.883 61.2093C146.201 60.7804 144.716 60.3845 143.429 60.0546C139.272 61.6382 134.389 63.2879 128.714 64.9046C128.879 65.0366 129.044 65.2015 129.242 65.3335C130.496 66.2903 131.948 67.1152 133.531 67.709C135.082 68.3029 136.699 68.7978 138.315 69.2267C139.866 69.6556 141.45 70.0846 143 70.4475C144.485 70.8104 145.838 71.2063 146.993 71.6682C148.114 72.0972 149.005 72.658 149.665 73.3179C150.259 73.9118 150.556 74.6376 150.556 75.5945C150.556 76.5183 150.325 77.2441 149.896 77.805C149.401 78.3989 148.774 78.8938 148.048 79.2567C147.29 79.6196 146.432 79.8836 145.541 80.0156C143.264 80.3455 141.351 80.2795 139.503 79.7846C138.447 79.5207 137.491 79.0918 136.699 78.5309C135.94 77.97 135.313 77.2441 134.851 76.3533C134.488 75.6274 134.257 74.9346 134.224 74.3737C134.125 73.1529 133.366 72.2621 132.179 72.2621H125.58C124.821 72.2621 124.194 72.658 123.798 73.2189V66.2903C120.4 67.1152 116.936 67.94 113.405 68.6988V68.6988Z" fill="#78C339"/>
<path d="M154.813 30.7564C154.516 31.0534 154.054 31.0534 153.79 30.7564L151.447 28.4139C151.15 28.117 151.15 27.6551 151.447 27.3911L153.79 25.0486C154.087 24.7516 154.549 24.7516 154.813 25.0486L157.155 27.3911C157.452 27.688 157.452 28.15 157.155 28.4139L154.813 30.7564Z" fill="#0083C2"/>
<defs>
<linearGradient id="paint0_linear_1242_19" x1="117.831" y1="29.5568" x2="166.151" y2="23.4857" gradientUnits="userSpaceOnUse">
<stop offset="0.341" stop-color="#0083C2"/>
<stop offset="0.629" stop-color="#0081C0"/>
<stop offset="0.733" stop-color="#007CB9"/>
<stop offset="0.807" stop-color="#0072AE"/>
<stop offset="0.867" stop-color="#00659D"/>
<stop offset="0.918" stop-color="#005387"/>
<stop offset="0.951" stop-color="#004474"/>
</linearGradient>
<linearGradient id="paint1_linear_1242_19" x1="174.075" y1="2.30123" x2="147.331" y2="60.2719" gradientUnits="userSpaceOnUse">
<stop stop-color="#6DCFF6"/>
<stop offset="0.431" stop-color="#00AEEF"/>
<stop offset="0.782" stop-color="#0088C7"/>
<stop offset="1" stop-color="#0072AA"/>
</linearGradient>
<linearGradient id="paint2_linear_1242_19" x1="79.2979" y1="50.7233" x2="80.6011" y2="74.7465" gradientUnits="userSpaceOnUse">
<stop stop-color="#00B6F1"/>
<stop offset="0.144" stop-color="#00AEEF"/>
<stop offset="0.316" stop-color="#00A0E0"/>
<stop offset="0.643" stop-color="#007DBA"/>
<stop offset="0.644" stop-color="#007DBA"/>
<stop offset="1" stop-color="#005282"/>
</linearGradient>
</defs>
</svg>
