<svg width="2049" height="2048" viewBox="0 0 2049 2048" fill="none" xmlns="http://www.w3.org/2000/svg">
<path fill-rule="evenodd" clip-rule="evenodd" d="M976.542 0.602917C973.517 0.798917 962.942 1.44492 953.042 2.03792C931.542 3.32692 889.44 7.93892 866.542 11.5139C734.563 32.1199 613.352 75.8669 498.042 144.51C425.592 187.639 361.958 237.446 299.473 299.931C217.446 381.958 155.628 467.952 104.613 571C45.606 690.188 11.275 817.36 1.354 953.5C0.517 964.987 0.042 990.495 0.042 1024C0.042 1057.5 0.517 1083.01 1.354 1094.5C13.309 1258.54 60.587 1409.29 144.052 1549.5C162.025 1579.69 189.453 1620.29 207.89 1644C255.755 1705.54 302.55 1755.12 356.542 1801.5C457.087 1887.85 572.895 1953.68 697.738 1995.43C768.638 2019.14 835.471 2033.83 909.542 2042C953.99 2046.9 966.123 2047.48 1023.54 2047.48C1080.96 2047.48 1093.09 2046.9 1137.54 2042C1284.07 2025.85 1421.93 1979.41 1549.54 1903.22C1653.95 1840.87 1751.26 1755.46 1826.64 1660C1840.51 1642.43 1844.21 1637.56 1855.07 1622.53C1887.53 1577.62 1916.73 1529 1942.47 1477C1995.87 1369.14 2029.17 1254.51 2041.96 1134.5C2044.84 1107.51 2046.52 1085.24 2046.53 1073.81C2046.54 1069.58 2046.99 1065.84 2047.54 1065.5C2048.18 1065.1 2048.54 1049.8 2048.54 1022.88C2048.54 995.137 2048.2 981.092 2047.54 981.5C2046.91 981.891 2046.54 979.37 2046.54 974.639C2046.54 955.305 2041.07 899.275 2036.03 867C2015.41 734.995 1971.68 613.811 1903.03 498.5C1859.9 426.05 1810.1 362.416 1747.61 299.931C1665.58 217.904 1579.59 156.086 1476.54 105.071C1382.9 58.7099 1285.37 27.8859 1180.54 11.5129C1161.57 8.54992 1117.77 3.56792 1096.54 1.95892C1082.77 0.914917 988.208 -0.153083 976.542 0.602917ZM973.042 55.0669C872.468 60.1909 774.705 80.6029 681.042 116.032C644.879 129.711 622.033 139.792 587.042 157.512C492.333 205.472 412.015 263.593 337.575 338.033C239.339 436.268 164.592 551.913 115.574 681.5C87.961 754.499 70.138 827.007 60.587 905.204C45.805 1026.23 54.021 1152.4 84.212 1268C107.821 1358.4 143.174 1442.56 191.322 1523C272.372 1658.4 389.081 1775.11 524.542 1856.22C556.44 1875.32 601.978 1899.09 628.542 1910.51C648.869 1919.25 663.394 1925.32 668.042 1927.02C670.792 1928.02 678.398 1930.9 684.943 1933.42C750.448 1958.62 828.676 1977.66 904.892 1986.97C1025.74 2001.73 1151.89 1993.51 1267.54 1963.33C1299.74 1954.92 1336.21 1943.4 1362.14 1933.42C1368.69 1930.9 1376.29 1928.02 1379.04 1927.02C1383.69 1925.32 1398.21 1919.25 1418.54 1910.51C1433.07 1904.27 1466.83 1887.52 1486.37 1876.88C1539.96 1847.67 1590.24 1813.95 1635.94 1776.58C1797.23 1644.64 1910.53 1468.39 1962.87 1268C1993.06 1152.4 2001.28 1026.23 1986.5 905.204C1974.6 807.768 1950.95 722.74 1909 626.5C1901.86 610.103 1877.21 561.868 1866.09 542.52C1792.9 415.121 1692.74 306.563 1571.54 223.251C1508.4 179.852 1438.92 143.6 1366.04 116.032C1271.22 80.1659 1175 60.2249 1071.54 55.0029C1049.43 53.8869 995.508 53.9219 973.042 55.0669ZM1051.54 136.893C1000.52 148.068 967.233 183.685 961.461 233.267C956.792 273.363 972.126 311.083 1002.65 334.577C1044.36 366.687 1111.92 368.323 1152.82 338.213C1160.47 332.584 1168.54 325.082 1168.54 323.603C1168.54 322.985 1160.25 314.195 1150.11 304.069L1131.68 285.657L1125.6 291.286C1113.2 302.769 1099.39 308.187 1082.54 308.177C1074.06 308.172 1070.51 307.681 1064.04 305.621C1044.31 299.331 1032.48 287.733 1026.29 268.597C1020.94 252.068 1022.71 230.989 1030.74 215.686C1034.87 207.798 1046.26 196.339 1053.54 192.747C1066.35 186.425 1082.11 184.519 1095.84 187.631C1110.78 191.015 1121.26 197.53 1132.26 210.272L1135.48 214.004L1146.76 204.871C1152.97 199.848 1162.2 192.379 1167.28 188.273C1178.23 179.419 1178.32 180.583 1165.64 167.88C1151.47 153.68 1135.08 144.51 1113.67 138.802C1102.74 135.889 1100.79 135.684 1081.04 135.367C1063.39 135.085 1058.68 135.328 1051.54 136.893ZM862.542 149.55C844.117 154.168 808.184 163.105 782.69 169.409C757.196 175.713 736.064 181.145 735.73 181.479C735.395 181.814 735.883 185.105 736.814 188.794C737.746 192.482 744.385 219.35 751.569 248.5C782.9 375.634 786.799 391 787.724 391C788.787 391 801.4 387.925 886.042 367.032C916.842 359.43 944.593 352.649 947.711 351.964C950.829 351.278 953.926 350.381 954.593 349.968C955.501 349.407 954.429 343.602 950.324 326.859C945.682 307.923 944.549 304.456 942.93 304.212C941.879 304.053 917.225 309.805 888.145 316.993C859.065 324.182 835.159 329.937 835.021 329.782C834.141 328.794 825.843 293.384 826.379 292.898C826.744 292.568 846.842 287.463 871.042 281.555C895.242 275.647 915.871 270.587 916.883 270.31C918.204 269.949 918.564 269.198 918.157 267.654C917.844 266.469 915.522 256.927 912.997 246.448C910.471 235.969 908.049 226.82 907.613 226.116C906.748 224.715 908.147 224.406 848.709 239.137C830.926 243.544 815.851 246.943 815.209 246.69C813.878 246.164 805.814 214.395 806.769 213.44C807.27 212.939 884.204 193.671 904.051 189.076C906.805 188.438 909.612 187.575 910.287 187.158C911.214 186.585 910.124 180.838 905.84 163.7C900.705 143.162 899.969 141.007 898.103 141.076C896.97 141.118 880.967 144.931 862.542 149.55ZM1229.59 164.75C1229.03 166.813 1227.24 173.225 1225.61 179C1221.89 192.26 1202.05 264.664 1199.04 276C1197.79 280.675 1192.63 299.575 1187.56 318C1174.36 365.936 1173.47 369.267 1173.77 369.532C1173.92 369.663 1177.64 370.716 1182.04 371.872C1186.44 373.028 1199.71 376.652 1211.52 379.925C1223.33 383.198 1233.08 385.792 1233.17 385.688C1233.35 385.494 1245.02 343.091 1249.04 328C1250.29 323.325 1255.46 304.425 1260.54 286C1265.62 267.575 1270.79 248.675 1272.04 244C1273.28 239.325 1277.69 223.125 1281.84 208C1285.99 192.875 1289.53 179.664 1289.71 178.643C1289.98 177.126 1288.85 176.463 1283.54 175.018C1279.97 174.046 1267.03 170.494 1254.78 167.125C1242.54 163.756 1232.1 161 1231.57 161C1231.05 161 1230.16 162.688 1229.59 164.75ZM1386.61 230.029C1368.16 233.895 1353.01 242.296 1339.03 256.41C1329.08 266.465 1323.71 273.982 1314.27 291.092C1310.2 298.466 1296.85 322.654 1284.59 344.842C1272.33 367.03 1262.12 385.93 1261.9 386.842C1261.58 388.117 1267.53 391.808 1287.66 402.806C1302.05 410.675 1314.19 416.75 1314.63 416.306C1315.06 415.863 1320.24 406.725 1326.12 396C1332 385.275 1336.96 376.331 1337.14 376.123C1337.69 375.479 1409.54 415.295 1409.54 416.248C1409.54 416.743 1404.54 426.154 1398.43 437.16C1392.32 448.167 1387.7 457.533 1388.18 457.973C1390.84 460.445 1440.91 487.025 1441.6 486.331C1442.47 485.446 1468.09 439.407 1490.1 399.175C1508.41 365.695 1512.22 354.712 1513.21 332.5C1513.64 322.706 1513.36 318.702 1511.67 310.716C1505.4 281.133 1483.3 256.054 1449.41 240.086C1432.9 232.307 1422.79 229.855 1405.54 229.445C1397.57 229.256 1389.05 229.519 1386.61 230.029ZM636.542 230.696C627.596 232.21 613.831 236.748 604.234 241.345C594.44 246.037 509.509 294.745 507.15 297.022C506.634 297.521 507.516 299.909 509.242 302.692C510.884 305.336 515.068 312.45 518.542 318.5C522.016 324.55 526.086 331.525 527.588 334C529.089 336.475 545.945 365.5 565.044 398.5C584.144 431.5 601.004 460.525 602.512 463C604.019 465.475 607.418 471.232 610.065 475.793C613.589 481.865 615.289 483.927 616.415 483.495C618.034 482.874 663.802 456.536 666.767 454.52C668.324 453.461 667.115 450.966 654.444 429.079C646.718 415.733 640.541 404.702 640.719 404.566C640.897 404.43 646.667 401.031 653.542 397.012C678.217 382.587 682.803 379.688 689.871 374.05C708.733 359.004 721.294 340.809 725.113 323C733.352 284.586 707.143 242.043 669.103 232.079C663.122 230.512 658.439 230.034 650.104 230.136C644.02 230.211 637.917 230.463 636.542 230.696ZM1402.04 284.337C1392.36 287.564 1383.93 294.153 1377.64 303.41C1374.35 308.245 1360.39 333.193 1360.78 333.544C1362.78 335.37 1432.81 372.95 1433.47 372.547C1435.03 371.578 1449.43 344.614 1451.69 338.424C1453.25 334.127 1453.87 330.029 1453.94 323.5C1454.03 315.38 1453.74 313.864 1450.93 308C1446.1 297.897 1437.48 290.376 1425.65 285.929C1418.63 283.294 1407.44 282.539 1402.04 284.337ZM627.807 285.482C620.446 287.548 617.051 289.333 589.288 305.736L584.534 308.544L597.174 330.522C612.463 357.107 615.591 362.167 616.502 361.79C621.928 359.541 651.219 341.285 655.169 337.69C665.738 328.07 668.707 315.593 663.258 303.691C660.184 296.976 653.547 289.553 648.159 286.805C643.018 284.182 634.428 283.624 627.807 285.482ZM1599.04 367.691C1574.91 391.154 1498.19 466.281 1478.28 485.937C1467.42 496.669 1458.64 505.764 1458.78 506.147C1458.93 506.53 1466.69 514.647 1476.04 524.185C1485.39 533.722 1511 559.871 1532.95 582.292C1554.91 604.713 1573.19 622.933 1573.58 622.779C1573.97 622.626 1582.06 614.947 1591.56 605.715L1608.82 588.93L1585.4 565.215C1572.52 552.172 1556.25 535.613 1549.23 528.418L1536.47 515.336L1550.76 501.54C1563.88 488.863 1642.79 411.586 1651.75 402.628C1653.88 400.498 1655.5 398.4 1655.33 397.964C1654.84 396.637 1613.58 354.998 1612.79 355.026C1612.38 355.04 1606.19 360.739 1599.04 367.691ZM440.54 360.824C404.145 375.253 366.994 410.379 353.489 443.13C345.509 462.481 345.578 484.426 353.669 500.441C360.34 513.647 370.077 523.295 383.115 529.622C396.077 535.912 409.458 536.326 425.753 530.942C434.398 528.086 445.583 522.891 452.461 518.538C454.431 517.292 463.656 511.409 472.962 505.465C489.686 494.783 501.401 489.101 506.842 489.034C512.361 488.967 517.9 493.274 519.509 498.887C523.311 512.141 500.559 537.94 471.379 553.462C462.919 557.963 444.701 564.936 441.292 564.978C440.33 564.99 439.542 565.461 439.542 566.025C439.542 567.403 456.558 610.281 457.514 611.313C458.589 612.472 469.004 609.581 478.73 605.426C498.507 596.974 518.526 583.059 536.12 565.532C553.964 547.757 564.875 531.045 571.071 512C573.48 504.595 573.84 501.89 573.865 491C573.89 480.032 573.574 477.601 571.289 471.165C567.753 461.211 563.23 453.994 555.821 446.485C535.978 426.375 512.437 424.016 481.999 439.086C476.476 441.821 463.651 449.465 453.499 456.074C429.204 471.889 423.954 474.463 415.954 474.484C411.157 474.496 409.25 474.048 407.512 472.5C404.52 469.836 402.542 464.937 402.542 460.192C402.542 451.075 414.986 434.629 430.742 422.923C438.681 417.025 455.269 408.33 464.687 405.13C467.632 404.13 470.149 402.679 470.28 401.906C470.587 400.095 452.246 357.725 450.99 357.345C450.469 357.187 445.766 358.752 440.54 360.824ZM1085.04 427.92C1051.94 433.286 1024.58 453.833 1011.01 483.5C1004.93 496.798 1003.11 505.735 1003.08 522.5C1003.04 540.651 1004.97 549.25 1012.52 564.5C1023.81 587.298 1040.88 602.936 1064.23 611.852C1081.53 618.456 1104.15 619.707 1122.04 615.048C1139.8 610.424 1160.22 597.46 1171.17 583.865C1186.43 564.91 1192.85 546.714 1192.83 522.5C1192.81 503.244 1189.06 489.428 1179.34 472.857C1174.63 464.833 1160.08 449.381 1152.26 444.091C1143.91 438.451 1131.42 432.854 1121.57 430.346C1111.15 427.692 1093.63 426.528 1085.04 427.92ZM755.042 541.634C724.078 545.294 693.66 555.96 670.36 571.327C630.898 597.355 606.206 639.974 600.037 692.703C599.215 699.735 598.542 707.178 598.542 709.244C598.542 711.709 598.083 713 597.207 713C596.473 713 590.96 711.461 584.957 709.58C578.954 707.7 570.779 705.206 566.792 704.038C562.805 702.871 559.542 701.545 559.542 701.092C559.542 700.64 562.692 689.7 566.542 676.781C570.392 663.862 573.542 651.712 573.542 649.781C573.542 645.818 570.752 641.666 566.704 639.604C561.754 637.083 536.536 630 532.51 630C526.327 630 522.26 634.444 519.242 644.5C517.233 651.194 516.53 652.442 514.941 652.148C509.152 651.074 503.649 651.593 501.652 653.4C499.849 655.033 494.026 671.451 489.737 687C489.206 688.925 486.02 699.535 482.657 710.577C479.294 721.619 476.544 731.744 476.546 733.077C476.553 737.476 480.066 741.782 484.744 743.126C487.108 743.805 489.187 744.462 489.365 744.587C489.543 744.711 488.502 748.567 487.052 753.156C482.525 767.481 485.002 772.027 499.733 776.432C504.853 777.963 512.572 780.298 516.886 781.621C523.31 783.591 525.403 783.845 528.451 783.025C534.562 781.379 536.245 778.585 541.185 761.887C550.723 729.643 551.717 726.853 553.442 727.515C554.322 727.853 559.317 729.412 564.542 730.979C569.767 732.546 579.324 735.442 585.781 737.414C592.237 739.386 597.717 741 597.959 741C598.2 741 598.671 743.587 599.006 746.75C600.351 759.482 600.721 761.432 601.515 759.96C601.947 759.157 602.606 755.561 602.978 751.968C603.35 748.375 603.967 744.932 604.348 744.316C604.839 743.523 607.233 743.872 612.542 745.51C616.667 746.783 628.35 750.359 638.503 753.457C648.657 756.555 657.122 759.247 657.315 759.44C657.508 759.633 654.263 770.596 650.104 783.803C645.945 797.009 642.544 809.094 642.546 810.657C642.551 814.426 645.778 819.56 649.248 821.32C654.423 823.946 678.735 831 682.609 831C690.527 831 693.959 827.484 697.099 816.158C698.066 812.67 699.443 809.592 700.158 809.317C700.874 809.042 703.014 809.331 704.915 809.958C709.122 811.347 714.551 809.475 716.878 805.834C717.698 804.55 720.391 796.75 722.862 788.5C725.334 780.25 730.357 763.631 734.026 751.568C741.168 728.086 741.481 725.159 737.277 721.234C736.048 720.087 733.768 718.832 732.211 718.445C730.654 718.059 729.16 717.169 728.891 716.468C728.622 715.767 729.334 712.177 730.472 708.491C731.611 704.805 732.54 700.374 732.538 698.645C732.534 695.085 729.546 689.596 726.846 688.186C723.439 686.408 694.76 678 692.102 678C689.053 678 684.51 680.128 682.571 682.465C681.842 683.344 677.755 695.105 673.49 708.602C669.225 722.098 665.577 733.299 665.384 733.492C665.19 733.685 659.184 732.066 652.037 729.894C644.89 727.722 632.967 724.117 625.542 721.882C618.117 719.648 611.894 717.675 611.714 717.498C610.997 716.796 616.964 701.909 622.013 691.806C641.571 652.66 673.743 624.417 711.042 613.647C725.084 609.593 733.319 608.694 751.042 609.282C768.946 609.876 779.549 612.104 796.042 618.739C831.431 632.974 863.739 662.284 889.87 703.86C906.436 730.217 916.537 761.333 919.402 794.831C919.935 801.063 920.522 806.303 920.706 806.474C920.891 806.646 928.917 807.309 938.542 807.949C992.908 811.559 1047.98 826.036 1092.27 848.358C1096.24 850.361 1099.98 852 1100.57 852C1101.16 852 1102.15 850.538 1102.77 848.75C1103.39 846.962 1106.26 840.77 1109.15 834.989C1123.31 806.632 1141.45 788.043 1154.97 788.01C1157.13 788.004 1171.31 789.218 1186.47 790.706C1210.94 793.107 1218.37 793.416 1252.54 793.456C1287.17 793.496 1292.65 793.274 1307.04 791.255C1351.75 784.982 1383.39 772.067 1411.04 748.793C1422.37 739.259 1430.08 730.519 1443.95 711.5C1445.34 709.589 1446.02 710.112 1459.22 723.247L1473.03 736.994L1454.89 755.247C1444.92 765.286 1436.26 774.483 1435.65 775.684C1434.13 778.688 1434.26 783.565 1435.96 786.8C1438.24 791.149 1460.76 812.766 1463.81 813.532C1469.38 814.93 1473.57 813.162 1480.47 806.498L1487.04 800.154L1490.78 803.577C1493.8 806.345 1495.32 807 1498.74 807C1502.94 807 1503.12 806.844 1532.25 777.773C1561.43 748.654 1561.54 748.53 1561.54 744.307C1561.54 740.985 1560.87 739.299 1558.41 736.502L1555.28 732.934L1561.83 726.146C1569.24 718.467 1570.68 714.596 1568.23 708.912C1567.43 707.035 1561.34 700.013 1554.71 693.306C1542.05 680.492 1539.25 678.853 1532.8 680.471C1531.09 680.901 1522.97 688.177 1511.32 699.723C1496.1 714.809 1492.32 718.064 1491.18 717.114C1490.4 716.47 1482.76 708.927 1474.19 700.35L1458.62 684.756L1460.24 681.628C1462.88 676.548 1468.46 661.855 1467.63 662.191C1467.21 662.361 1463.84 665.987 1460.14 670.25C1456.43 674.513 1453.04 678 1452.59 678C1452.15 678 1443.17 669.353 1432.64 658.784L1413.49 639.569L1430.88 622.034C1440.44 612.391 1449.01 603.387 1449.91 602.027C1452.29 598.427 1452 592.011 1449.29 588.34C1444.55 581.919 1425.03 563.977 1421.79 563.071C1416.61 561.622 1412.58 563.395 1406.06 569.982C1402.78 573.292 1399.61 576 1399 576C1398.39 576 1396.84 574.882 1395.56 573.515C1392.98 570.769 1387.98 569.428 1384.38 570.514C1380.64 571.641 1326.75 625.833 1325.45 629.775C1324 634.186 1325 637.797 1328.79 641.733L1331.9 644.967L1325.28 651.825C1313.8 663.717 1314.41 666.523 1332.35 684.271C1345.18 696.969 1345.22 697 1349.94 697C1352.54 697 1355.66 696.516 1356.86 695.924C1358.06 695.333 1367.03 686.673 1376.79 676.68L1394.53 658.512L1412.55 676.506C1433.28 697.21 1432.8 694.457 1417.04 702.072C1392.47 713.949 1367.14 719.025 1332.69 718.979C1254.86 718.877 1154.92 685.288 1045.54 622.468C1014.93 604.89 996.947 595.361 977.542 586.447C922.852 561.324 871.62 546.373 823.542 541.507C805.464 539.677 771.06 539.741 755.042 541.634ZM882.042 845.127C868.14 846.103 838.849 850.883 824.18 854.569C757.29 871.378 699.232 904.283 650.528 952.986C608.192 995.323 578.696 1043.15 559.929 1099.9C535.69 1173.19 535.421 1255.86 559.183 1329.5C596.317 1444.58 687.681 1535.05 803.042 1570.96C824.425 1577.62 854.591 1583.71 877.398 1585.97C892.618 1587.48 937.731 1587.24 952.542 1585.57C1039.02 1575.82 1115.36 1539.27 1176.09 1478.54C1237.59 1417.04 1275.4 1337.02 1283.6 1251C1285.14 1234.91 1285.15 1195.94 1283.63 1180.5C1276.1 1104.18 1246.7 1034.59 1197.01 975.5C1185.13 961.378 1160.14 936.928 1146.04 925.646C1079.04 872.018 996.759 843.485 911.042 844.152C901.692 844.225 888.642 844.664 882.042 845.127ZM890.542 904.65C870.81 906.512 863.057 907.581 851.042 910.093C836.575 913.118 816.549 918.587 808.359 921.75L803.675 923.559L816.657 954.932C823.796 972.186 829.279 986.624 828.84 987.016C828.401 987.407 826.692 988.194 825.042 988.765C823.392 989.336 819.443 990.971 816.267 992.4L810.491 994.997L809.594 992.749C809.101 991.512 806.821 986 804.528 980.5C802.235 975 798.403 965.775 796.012 960C793.622 954.225 790.119 945.769 788.229 941.208C786.338 936.648 784.545 932.67 784.244 932.368C782.702 930.827 751.184 948.491 734.042 960.503C724.429 967.239 700.542 986.527 700.542 987.553C700.542 987.757 711.407 998.777 724.687 1012.04L748.832 1036.16L741.454 1043.59L734.075 1051.02L709.742 1026.76L685.41 1002.5L681.41 1007C666.392 1023.89 650.002 1047.07 639.335 1066.5C633.577 1076.99 629.291 1086.08 629.845 1086.64C630.025 1086.82 642.518 1092.09 657.607 1098.35C672.696 1104.62 686.713 1110.45 688.756 1111.31L692.471 1112.87L688.676 1121.93C686.589 1126.92 684.647 1131.23 684.36 1131.51C683.971 1131.9 649.078 1117.84 621.992 1106.38C620.854 1105.9 619.228 1110.27 613.957 1128C607.706 1149.02 603.681 1171.65 601.999 1195.25L601.304 1205H635.423H669.542V1215.5V1226H635.423H601.304L601.984 1235.75C603.597 1258.87 607.666 1282.33 613.589 1302.66C616.4 1312.31 620.343 1323.95 621.108 1324.85C621.396 1325.19 627.075 1322.99 641.042 1317.12C644.892 1315.51 655.242 1311.16 664.042 1307.47C672.842 1303.78 681.084 1300.7 682.358 1300.63C684.336 1300.52 685.193 1301.69 688.244 1308.67C690.208 1313.17 691.574 1317.44 691.279 1318.17C690.985 1318.9 676.981 1325.12 660.16 1332C643.339 1338.87 629.569 1344.85 629.56 1345.27C629.55 1345.69 631.85 1350.63 634.67 1356.25C645.295 1377.43 665.075 1406.51 679.389 1422L685.395 1428.5L709.46 1404.52L733.525 1380.53L741.042 1388L748.56 1395.47L724.496 1419.55L700.433 1443.62L705.237 1448.1C723.86 1465.44 754.854 1486.06 779.745 1497.67L784.449 1499.86L786.433 1494.68C787.525 1491.83 790.047 1485.67 792.039 1481C794.032 1476.32 796.724 1469.8 798.024 1466.5C799.323 1463.2 802.031 1456.67 804.043 1452C806.054 1447.32 808.181 1442.15 808.769 1440.5C809.358 1438.85 809.98 1437.33 810.152 1437.12C810.558 1436.63 829.512 1444.34 829.521 1445C829.525 1445.27 823.741 1459.45 816.667 1476.5L803.804 1507.5L807.923 1509.32C826.025 1517.34 874.551 1527 896.702 1527H902.515L902.779 1493.25L903.042 1459.5L913.292 1459.21L923.542 1458.93V1493.12V1527.31L935.843 1526.68C955.542 1525.69 978.689 1521.71 998.542 1515.91C1010.75 1512.35 1020.7 1508.97 1021.83 1508C1022.54 1507.39 1021.12 1503.51 1013.04 1484C1005.27 1465.22 1003.41 1460.74 1000.59 1454C998.873 1449.87 997.369 1446.12 997.253 1445.66C997.065 1444.91 1013.83 1437 1015.61 1437C1016 1437 1022.05 1450.84 1029.05 1467.75C1036.05 1484.66 1041.98 1498.83 1042.21 1499.23C1043.21 1500.94 1074.4 1483.64 1091.04 1472.16C1104.55 1462.85 1125.54 1445.49 1125.54 1443.63C1125.54 1443.02 1114.86 1431.83 1101.81 1418.77L1078.08 1395.02L1085.03 1388.01C1088.86 1384.15 1092.36 1381 1092.81 1381C1093.26 1381 1104.19 1391.57 1117.09 1404.5C1130 1417.42 1140.95 1428 1141.42 1428C1141.9 1428 1145.64 1424.06 1149.72 1419.25C1167.4 1398.44 1181.21 1377.67 1192.95 1354.22L1197.59 1344.95L1193.31 1343.14C1190.96 1342.14 1176.78 1336.25 1161.79 1330.04C1146.8 1323.84 1134.54 1318.42 1134.54 1318C1134.54 1317.59 1135.66 1314.73 1137.02 1311.66C1138.38 1308.58 1140.15 1304.49 1140.95 1302.56L1142.42 1299.06L1146.73 1300.91C1176.19 1313.59 1204.94 1325 1205.57 1324.27C1206.46 1323.23 1209.87 1313.39 1212.94 1303C1218.99 1282.52 1224.54 1248.93 1224.54 1232.75L1224.54 1226H1190.54H1156.54V1215.5V1205H1190.7H1224.85L1224.21 1192.75C1223.46 1178.53 1221.59 1165.36 1217.93 1148.5C1215.23 1136.04 1208.25 1112.18 1206.21 1108.41C1205.06 1106.27 1204.59 1106.43 1174.04 1119.12C1156.99 1126.2 1142.82 1131.99 1142.54 1131.98C1141.88 1131.97 1134.17 1113.01 1134.66 1112.62C1134.87 1112.46 1139.77 1110.4 1145.54 1108.05C1157.7 1103.11 1168.92 1098.49 1179.54 1094.04C1183.67 1092.31 1189.37 1090 1192.22 1088.91L1197.39 1086.91L1194.8 1081.21C1184.59 1058.73 1162.53 1025.53 1146.63 1008.7L1141.15 1002.91L1117.08 1026.96L1093.01 1051.02L1085.54 1043.5L1078.07 1035.98L1102.02 1012.02L1125.97 988.056L1123.01 984.914C1114.82 976.239 1088.29 956.673 1070.54 946.229C1060.33 940.221 1042.76 931.407 1042.27 932.044C1042.07 932.295 1036.31 946.156 1029.48 962.846C1022.64 979.536 1016.46 993.427 1015.76 993.716C1014.56 994.206 1000.14 988.604 998.134 986.87C997.193 986.055 998.586 982.284 1010.1 954.5C1021.88 926.07 1022.75 923.878 1022.4 923.554C1020.1 921.479 990.54 913.025 973.542 909.581C962.517 907.347 934.234 904 926.381 904H923.542V938V972H913.042H902.542V938V904L898.292 904.16C895.955 904.248 892.467 904.469 890.542 904.65ZM1225.8 951.25C1248.16 979.581 1265.74 1007.4 1281.62 1039.61C1287.08 1050.67 1291.54 1060.22 1291.54 1060.82C1291.54 1061.43 1293.45 1062.42 1295.79 1063.02C1303.1 1064.91 1331.75 1074.7 1342.64 1079.03C1385.29 1095.99 1414.03 1117.26 1445.72 1155.29C1451.58 1162.33 1468 1183.02 1482.21 1201.27C1518.24 1247.56 1552.85 1289.44 1576.63 1315.53C1580.16 1319.4 1586.82 1326.71 1591.45 1331.79C1596.07 1336.86 1600.06 1340.82 1600.3 1340.57C1600.98 1339.89 1538.21 1198.9 1521.02 1162.5C1493.77 1104.79 1473.97 1068.22 1456.04 1042.5C1419.69 990.345 1381.74 966.424 1315.04 953.611C1292.59 949.298 1233.8 942 1221.51 942H1218.51L1225.8 951.25ZM0 1024C0 1047.37 0.131 1056.94 0.291 1045.25C0.451 1033.56 0.451 1014.44 0.291 1002.75C0.131 991.063 0 1000.62 0 1024ZM897.042 999.679C866.012 1002.6 840.535 1009.79 814.863 1022.88C758.431 1051.65 717.609 1103.55 702.679 1165.5C700.194 1175.81 698.971 1184.08 697.097 1203.26L696.729 1207.02L738.277 1206.76C776.084 1206.52 779.921 1206.35 780.894 1204.8C782.636 1202.04 779.294 1196.59 771.13 1188.89C759.981 1178.36 756.549 1168.37 760.006 1156.48C763.191 1145.52 771.622 1136.41 784.008 1130.53C792.727 1126.39 799.279 1125 809.841 1125.01C831.318 1125.05 849.296 1135.1 857.183 1151.47C863.85 1165.31 860.857 1177.1 847.47 1189.73C839.525 1197.22 836.845 1201.83 838.562 1205.04C839.596 1206.97 840.562 1207.02 872.334 1206.76L905.042 1206.5L905.542 1171.83L906.042 1137.17L909.055 1132.83C918.165 1119.73 935.811 1121.4 949.306 1136.65C952.461 1140.21 956.257 1143.78 957.742 1144.57C961.194 1146.4 967.866 1146.41 971.342 1144.58C975.819 1142.23 981.271 1135.86 984.24 1129.5C986.799 1124.02 987.042 1122.5 987.042 1112C987.042 1101.5 986.799 1099.98 984.24 1094.5C981.271 1088.14 975.819 1081.77 971.342 1079.42C967.588 1077.45 960.603 1077.64 957.313 1079.81C955.813 1080.8 952.004 1084.46 948.85 1087.95C935.417 1102.79 918.239 1104.18 909.084 1091.16L906.042 1086.83L905.542 1043.16C904.978 993.885 905.946 998.841 897.042 999.679ZM921.542 1039.94C921.542 1075.8 921.736 1081.05 923.113 1082.43C926.285 1085.6 930.219 1083.58 939.582 1073.96C949.335 1063.94 954.133 1061.55 964.542 1061.52C970.836 1061.5 973.007 1061.97 978.042 1064.44C990.963 1070.76 1000.37 1084.86 1003.35 1102.36C1004.87 1111.29 1004.87 1112.71 1003.35 1121.64C998.364 1150.94 975.649 1169.04 954.042 1160.93C949.132 1159.08 946.46 1157.07 939.333 1149.84C934.543 1144.98 929.968 1141 929.165 1141C928.362 1141 927.052 1140.75 926.253 1140.44C925.454 1140.14 924.067 1140.62 923.171 1141.51C921.734 1142.95 921.542 1146.89 921.542 1174.98V1206.82L954.792 1207.17C985.86 1207.51 988.337 1207.67 992.542 1209.6C995.017 1210.74 998.486 1213.31 1000.25 1215.32C1009.02 1225.31 1006.15 1238.55 992.246 1252.17C984.037 1260.21 982.531 1262.47 982.564 1266.68C982.622 1274.13 989.199 1281.98 999.391 1286.76C1004.46 1289.14 1006.24 1289.42 1016.57 1289.46C1025.87 1289.49 1028.96 1289.12 1032.57 1287.55C1046.95 1281.27 1054.68 1270.09 1050.44 1261.68C1049.83 1260.48 1046.07 1256.34 1042.07 1252.47C1033.82 1244.5 1029.62 1237.22 1028.86 1229.61C1028.43 1225.31 1028.81 1223.63 1031.24 1219.01C1033.69 1214.37 1035.05 1213.05 1040.02 1210.51L1045.9 1207.5L1087.72 1207.17L1129.54 1206.85V1203.51C1129.54 1201.68 1128.85 1194.63 1128 1187.84C1118.06 1108.17 1063.69 1040.18 987.542 1012.18C969.954 1005.72 950.528 1001.62 927.792 999.589L921.542 999.031V1039.94ZM1336.2 1124.49C1325.29 1129.09 1316.22 1132.99 1316.04 1133.17C1315.62 1133.6 1319.14 1152.93 1319.75 1153.54C1320.01 1153.8 1330.08 1149.92 1342.13 1144.91C1354.18 1139.91 1367.12 1134.54 1370.89 1132.98C1377.83 1130.1 1379.21 1129.3 1378.46 1128.62C1376.12 1126.5 1357.32 1115.83 1356.32 1116.07C1356.17 1116.1 1347.11 1119.89 1336.2 1124.49ZM799.042 1142.34C789.989 1144.7 782.888 1149.16 778.453 1155.28C776.09 1158.54 775.542 1160.32 775.542 1164.72V1170.14L783.83 1178.32C793.769 1188.13 797.542 1194.85 797.542 1202.73C797.542 1209.31 795.846 1213.52 791.474 1217.77C785.398 1223.69 782.731 1224 737.507 1224H696.836L697.219 1229.25C698.193 1242.59 699.873 1254.39 702.239 1264.5C717.204 1328.43 759.535 1381.64 818.022 1410.04C834.03 1417.82 844.836 1421.78 861.46 1425.98C872.72 1428.82 893.993 1432 901.762 1432H905.542L905.442 1392.75C905.387 1371.16 905.032 1352.37 904.651 1351C903.833 1348.04 900.676 1347.29 896.44 1349.04C894.838 1349.71 890.793 1353.33 887.451 1357.1C883.032 1362.09 879.627 1364.82 874.974 1367.11C869.066 1370.02 867.974 1370.22 860.774 1369.81C851.066 1369.24 845.109 1366.49 837.981 1359.28C810.949 1331.93 821.37 1278.08 855.363 1269.45C859.418 1268.42 863.181 1268.09 865.863 1268.53C872.699 1269.64 881.281 1274.83 886.912 1281.26C892.778 1287.95 897.142 1291 900.87 1291C905.177 1291 905.672 1286.9 905.34 1254L905.042 1224.5L871.042 1224C833.314 1223.44 832.683 1223.34 826.882 1216.73C820.911 1209.93 820.024 1200.83 824.442 1191.71C825.664 1189.18 830.462 1183.33 835.103 1178.7C843.522 1170.3 843.542 1170.26 843.542 1165.09C843.542 1162.23 842.89 1158.64 842.093 1157.1C839.964 1152.98 833.96 1148.09 827.089 1144.88C819.718 1141.43 806.975 1140.28 799.042 1142.34ZM1323.97 1206.33C1323.69 1207.06 1323.59 1211.67 1323.75 1216.58L1324.04 1225.5L1392.79 1225.76L1461.54 1226.01V1230.4C1461.54 1243.42 1456.49 1276.92 1451.94 1293.99C1448.76 1305.95 1442.55 1325 1441.84 1325C1441.54 1325 1414.13 1313.75 1380.92 1300C1347.72 1286.25 1320.37 1275 1320.15 1275C1319.39 1275 1316.23 1293.74 1316.76 1295.12C1317.05 1295.88 1343.33 1307.27 1375.17 1320.43C1407 1333.58 1433.26 1344.53 1433.54 1344.75C1434.41 1345.47 1421.28 1370.13 1413.7 1382C1402.54 1399.47 1386.76 1420.05 1379.62 1426.45L1377.45 1428.4L1339.03 1389.99C1317.91 1368.87 1300.46 1351.79 1300.26 1352.04C1299.46 1353.04 1292.54 1371.24 1292.54 1372.34C1292.54 1372.98 1308.28 1389.24 1327.51 1408.46C1361.26 1442.2 1362.41 1443.49 1360.76 1445.34C1357.94 1448.48 1342.62 1461.21 1334.13 1467.44C1319.07 1478.51 1298.85 1490.59 1284.09 1497.35L1278.82 1499.76L1267.52 1472.35C1261.3 1457.27 1255.72 1444.26 1255.12 1443.44C1254.22 1442.21 1252.79 1443.68 1247.19 1451.55C1242.98 1457.47 1240.55 1461.81 1240.87 1462.83C1241.15 1463.75 1242.81 1467.87 1244.55 1472C1248.61 1481.59 1254.13 1494.92 1257.05 1502.17L1259.33 1507.85L1252.61 1510.34C1235.63 1516.63 1202.33 1524.22 1185.54 1525.62L1177.14 1526.32L1166.59 1534.51C1146.57 1550.05 1123.01 1564.84 1100.29 1576.12C1094.38 1579.05 1089.54 1581.75 1089.54 1582.11C1089.54 1582.81 1099.11 1584.32 1114.04 1585.98C1125.84 1587.29 1172.49 1587.28 1185.69 1585.96C1254.93 1579.04 1319.2 1553.79 1375.04 1511.6C1386.99 1502.56 1396.61 1494.12 1410.9 1480.11C1454.11 1437.75 1486.45 1384.98 1504.44 1327.5C1508.31 1315.12 1515.51 1286.23 1515.53 1282.96C1515.55 1280.09 1484.88 1243.38 1454.54 1209.96L1450.04 1205L1387.26 1205C1335.96 1205 1324.39 1205.24 1323.97 1206.33ZM921.352 1258.24L921.042 1292.5L918.542 1296.96C915.706 1302.02 911.121 1305.5 905.162 1307.1C901.892 1307.98 899.906 1307.87 895.146 1306.55C887.594 1304.45 884.67 1302.45 876.042 1293.45C868.27 1285.35 864.494 1283.8 857.611 1285.86C850.302 1288.05 842.161 1299.01 839.603 1310.11C836.398 1324.01 840.981 1339.71 850.824 1348.56C859.956 1356.77 865.619 1355.98 876.223 1345C880.37 1340.71 885.916 1336.03 888.547 1334.59C900.539 1328.07 912.877 1331.24 918.836 1342.38C920.997 1346.42 921.048 1347.37 921.342 1389.25L921.641 1432H924.872C931.601 1432 953.471 1428.84 964.042 1426.33C987.203 1420.85 1012.88 1409.68 1032.48 1396.56C1088.97 1358.74 1123.95 1299.45 1129.14 1232.75L1129.82 1224H1088.88C1058.37 1224 1047.64 1224.31 1046.74 1225.2C1043.78 1228.16 1047.17 1235.43 1054.1 1241C1059.3 1245.19 1065.16 1253.19 1066.54 1258C1072.1 1277.39 1057.81 1297.26 1033.04 1304.6C1025.68 1306.78 1010.33 1307.02 1002.54 1305.09C988.164 1301.52 974.935 1291.61 969.32 1280.2C966.704 1274.89 966.132 1272.53 966.138 1267.11C966.15 1257.49 969.261 1251.43 979.298 1241.48C987.433 1233.41 989.779 1229.18 987.831 1226.09C986.949 1224.7 982.796 1224.47 954.243 1224.24L921.662 1223.97L921.352 1258.24ZM460.542 1466.33C449.831 1469.51 442.135 1474.24 433.542 1482.92C421.742 1494.84 416.542 1506.64 416.542 1521.49C416.542 1539.41 423.847 1556.56 446.161 1591C449.19 1595.67 453.665 1603.52 456.105 1608.43C459.85 1615.96 460.542 1618.28 460.542 1623.28C460.542 1628.72 460.256 1629.49 457.026 1632.72C453.632 1636.11 453.297 1636.22 447.266 1635.83C442.259 1635.51 439.834 1634.71 435.031 1631.78C429.536 1628.43 417.098 1616.76 411.28 1609.5C402.01 1597.93 391.343 1577.26 387.537 1563.5C386.32 1559.1 385.2 1555.36 385.047 1555.2C384.894 1555.03 380.556 1556.52 375.406 1558.52C348.278 1569.02 339.958 1572.36 339.142 1573.09C337.755 1574.34 343.965 1592.67 349.508 1603.7C366.317 1637.15 394.605 1666.93 423.286 1681.37C435.836 1687.69 446.337 1690.28 459.542 1690.32C469.528 1690.35 472.095 1689.99 479.042 1687.61C488.651 1684.31 495.11 1680.38 502.744 1673.17C518.809 1658 524.324 1638.53 518.56 1617.32C515.601 1606.43 506.378 1588.28 494.515 1570C480.806 1548.88 476.042 1539.18 476.042 1532.41C476.042 1528.19 476.533 1526.63 478.542 1524.49C487.246 1515.17 498.894 1517.89 514.794 1532.94C527.608 1545.07 536.381 1558.64 543.578 1577.47C545.675 1582.96 547.804 1587.59 548.31 1587.76C548.816 1587.92 551.438 1587.1 554.136 1585.92C556.834 1584.75 566.455 1580.67 575.516 1576.87C584.577 1573.06 592.356 1569.59 592.803 1569.14C593.879 1568.06 589.35 1555.61 584.023 1545C568.75 1514.57 538.349 1483.91 511.158 1471.52C494.333 1463.85 475.428 1461.92 460.542 1466.33ZM1561.2 1465.6C1536.94 1469.98 1513.42 1483.13 1492.53 1504C1476.27 1520.25 1465.9 1536.75 1459.62 1556.39C1455.4 1569.6 1454.15 1579.78 1454.84 1595.5C1455.54 1611.57 1458.3 1621.95 1466.01 1637.5C1472.49 1650.56 1479.06 1659.54 1490.38 1670.79C1507.43 1687.72 1528.59 1699.34 1548.98 1702.95C1556.52 1704.28 1574.1 1704.29 1582.54 1702.96C1605.23 1699.38 1628.49 1686.29 1647.37 1666.46C1660.66 1652.5 1667.18 1640.87 1672.28 1622C1672.56 1620.94 1673.78 1621.77 1676.36 1624.76C1678.39 1627.11 1680.46 1629.02 1680.96 1629.01C1681.84 1629 1684.06 1626.98 1703.75 1608.27L1712.4 1600.05L1677.87 1563.27C1658.88 1543.05 1641.39 1524.51 1639.01 1522.08L1634.68 1517.66L1620.36 1531.04C1597.28 1552.62 1595.54 1554.3 1595.54 1555.12C1595.54 1555.55 1599.06 1559.64 1603.36 1564.2C1607.65 1568.77 1615.98 1577.61 1621.86 1583.86C1627.73 1590.11 1632.54 1595.86 1632.54 1596.64C1632.54 1599.56 1628.46 1610.03 1625.07 1615.81C1621.03 1622.71 1611.51 1632.51 1604.14 1637.36C1596.54 1642.36 1588.17 1645.13 1578.85 1645.74C1571.85 1646.2 1569.44 1645.89 1562.17 1643.63C1535.35 1635.26 1512.54 1606.02 1512.54 1580C1512.54 1555.53 1531.36 1530.71 1556.96 1521.42C1564.27 1518.77 1579.18 1516.52 1584.14 1517.32C1588.07 1517.96 1587.84 1518.75 1589.55 1498.5C1592.06 1468.6 1592.21 1465.51 1591.12 1464.76C1589.32 1463.54 1569.55 1464.09 1561.2 1465.6ZM603.792 1585.9C597.605 1597.37 592.542 1606.99 592.542 1607.28C592.542 1607.56 605.147 1614.63 620.552 1623.01C635.958 1631.38 648.822 1638.64 649.14 1639.16C649.458 1639.67 644.646 1649.41 638.447 1660.8C625.589 1684.42 611.552 1710.33 604.486 1723.5C601.829 1728.45 593.134 1744.42 585.162 1759C574.18 1779.08 570.956 1785.77 571.855 1786.6C573.542 1788.16 623.153 1815 624.353 1815C624.9 1815 629.291 1807.69 634.111 1798.75C658.601 1753.34 703.834 1670.4 704.489 1669.7C704.9 1669.26 717.996 1675.87 733.592 1684.39C749.188 1692.9 762.252 1699.68 762.623 1699.45C763.539 1698.88 785.542 1658.38 785.542 1657.26C785.542 1656.77 784.08 1655.63 782.292 1654.72C780.504 1653.81 775.363 1651.06 770.867 1648.6C756.441 1640.72 648.259 1581.87 642.042 1578.52C621.256 1567.33 616.766 1565 615.952 1565.02C615.452 1565.03 609.98 1574.42 603.792 1585.9ZM1380.79 1594.78C1366.35 1601.72 1354.54 1607.72 1354.54 1608.11C1354.54 1608.5 1362.69 1625.85 1372.66 1646.66C1401.35 1706.59 1402.6 1709.27 1402.21 1709.67C1402 1709.87 1372.05 1696.31 1335.64 1679.52C1299.23 1662.73 1269.06 1649 1268.6 1649C1267.85 1649 1241.7 1661.29 1228.79 1667.71C1225.9 1669.15 1223.54 1670.84 1223.54 1671.46C1223.54 1672.08 1225.85 1677.3 1228.67 1683.05C1231.48 1688.8 1235.48 1697.1 1237.55 1701.5C1239.63 1705.9 1244.8 1716.7 1249.05 1725.5C1253.3 1734.3 1258.7 1745.55 1261.05 1750.5C1263.4 1755.45 1268.13 1765.35 1271.55 1772.5C1281.38 1792.99 1288.9 1808.7 1293.84 1819.07C1296.35 1824.34 1302.47 1837.07 1307.45 1847.36L1316.5 1866.07L1319.27 1864.66C1322.27 1863.13 1335.77 1856.65 1357.08 1846.5C1364.48 1842.97 1370.54 1839.73 1370.55 1839.29C1370.55 1838.86 1359.75 1815.96 1346.55 1788.42C1333.34 1760.87 1322.54 1738.09 1322.54 1737.79C1322.54 1737.48 1352.66 1751.12 1389.48 1768.08L1456.41 1798.92L1478.98 1788.21C1496.26 1780.01 1501.49 1777.1 1501.29 1775.81C1500.83 1772.68 1409.05 1582.03 1408.04 1582.09C1407.49 1582.12 1395.23 1587.83 1380.79 1594.78ZM802.108 1663.14C801.856 1663.89 799.577 1675.3 797.043 1688.5C794.51 1701.7 791.134 1719.02 789.541 1727C787.947 1734.97 783.9 1755.67 780.546 1773C777.193 1790.32 771.796 1818 768.554 1834.5C765.312 1851 762.359 1866.79 761.993 1869.59L761.327 1874.68L767.184 1875.85C796.873 1881.79 814.161 1885 817.681 1885.23L821.881 1885.5L824.077 1874C825.284 1867.67 827.478 1855.97 828.951 1848C830.424 1840.02 831.947 1832.77 832.336 1831.88C832.973 1830.42 834.557 1830.56 848.542 1833.27C857.067 1834.92 864.174 1836.38 864.336 1836.51C864.709 1836.82 889.35 1893.54 890.723 1897.26C891.287 1898.78 892.701 1900.22 893.892 1900.47C895.074 1900.72 903.242 1902.32 912.042 1904.02C920.842 1905.71 933.38 1908.2 939.905 1909.55C950.928 1911.83 956.542 1912.53 956.542 1911.63C956.542 1911.42 955.689 1909.28 954.646 1906.88C953.603 1904.47 949.729 1895.52 946.038 1887C942.346 1878.47 938.715 1870.15 937.968 1868.5C936.842 1866.01 926.455 1842.07 924.907 1838.4C924.643 1837.77 927.707 1836.11 932.055 1834.53C950.11 1827.94 965.567 1813.43 973.322 1795.79C980.31 1779.9 982.239 1755.67 977.686 1741C971.234 1720.21 956.391 1703.41 935.042 1692.73C922.36 1686.39 911.491 1683.32 879.542 1677.08C862.217 1673.69 842.642 1669.83 836.042 1668.5C829.442 1667.18 820.217 1665.39 815.542 1664.54C810.867 1663.68 806.035 1662.71 804.804 1662.38C803.368 1661.99 802.402 1662.26 802.108 1663.14ZM1112.04 1686.61C1075.73 1690.36 1046.12 1704.72 1025.72 1728.46C1011.91 1744.53 1003.47 1764.07 1000.75 1786.25C999.316 1797.93 999.322 1800.14 1000.82 1812.32C1002.77 1828.2 1006.04 1839.17 1012.64 1852C1028.32 1882.49 1054.73 1901.79 1091.54 1909.68C1104.25 1912.4 1130.41 1912.12 1144.51 1909.11C1157.73 1906.29 1164.67 1903.97 1176.28 1898.49C1208.55 1883.28 1230.83 1855.7 1238.18 1821.87C1240.68 1810.37 1240.65 1786.8 1238.13 1775C1233.17 1751.85 1222.78 1733.01 1206.35 1717.43C1190.56 1702.45 1170.21 1692.23 1148.66 1688.45C1139.83 1686.91 1119.2 1685.87 1112.04 1686.61ZM853.239 1724.25C852.952 1725.49 851.288 1733.92 849.541 1743C847.793 1752.07 845.306 1764.66 844.014 1770.98C842.722 1777.29 841.806 1782.6 841.979 1782.77C842.151 1782.94 850.336 1784.69 860.167 1786.65C888.585 1792.32 899.707 1791.46 908.545 1782.88C915.541 1776.09 919.621 1762.78 917.545 1753.51C914.131 1738.28 903.061 1730.79 877.542 1726.47C872.317 1725.58 865.342 1724.22 862.042 1723.44C854.164 1721.59 853.848 1721.62 853.239 1724.25ZM1105.76 1739.45C1089.68 1743.34 1075.67 1754.58 1068.7 1769.16C1063.8 1779.43 1062.54 1785.32 1062.56 1797.8C1062.58 1809.84 1064.46 1818.09 1069.66 1828.84C1076.78 1843.58 1089.46 1854.01 1105.1 1858.01C1125.92 1863.34 1146.41 1858 1161.15 1843.42C1168.97 1835.67 1174.42 1825.98 1176.44 1816.2C1178.23 1807.57 1177.81 1791.37 1175.57 1782.61C1169.88 1760.36 1153.1 1743.31 1132.74 1739.1C1125.82 1737.66 1112.42 1737.84 1105.76 1739.45ZM1868.3 1770.99C1845.18 1775.11 1827.53 1790.59 1822.07 1811.54C1820.27 1818.44 1820.08 1830.71 1821.65 1838.2C1823.55 1847.28 1829.92 1858.17 1837.5 1865.32C1849.5 1876.64 1864.02 1881.83 1880.46 1880.67C1895.22 1879.63 1906.69 1874.62 1916.54 1864.92C1938.16 1843.63 1938.3 1807.71 1916.85 1786.81C1904.34 1774.62 1884.4 1768.12 1868.3 1770.99ZM1867.93 1783.45C1856.67 1785.97 1848.17 1791.9 1841.98 1801.55C1837.52 1808.49 1835.54 1815.86 1835.54 1825.5C1835.54 1839.1 1840.14 1849.93 1849.5 1858.36C1858.11 1866.11 1872.12 1870.07 1883.56 1868C1902.53 1864.56 1915.45 1850.12 1918.04 1829.48C1918.8 1823.43 1916.54 1811.7 1913.36 1805.12C1905.43 1788.73 1885.9 1779.41 1867.93 1783.45ZM1857.79 1798.71L1855.54 1799.14V1826.57V1854H1862.04H1868.54V1842.87V1831.74L1873.79 1832.43C1882.59 1833.58 1883.06 1834.15 1886.99 1848.25L1888.6 1854H1895.88H1903.15L1901 1845.24C1898.45 1834.86 1896.42 1830.62 1892.92 1828.33L1890.35 1826.64L1893.93 1824.8C1899.38 1822.01 1900.86 1819.06 1900.35 1811.99C1899.82 1804.7 1896.67 1800.77 1890 1799.09C1885.89 1798.06 1862.61 1797.78 1857.79 1798.71ZM1870.75 1807.67C1868.58 1808.12 1868.47 1808.54 1868.75 1815.32L1869.04 1822.5L1874.88 1822.38C1881.08 1822.25 1885.72 1819.9 1886.38 1816.56C1886.93 1813.78 1885.65 1810.13 1883.78 1809.13C1881.55 1807.93 1873.72 1807.06 1870.75 1807.67Z" fill="black"/>
</svg>
