<svg width="707" height="139" viewBox="0 0 707 139" fill="none" xmlns="http://www.w3.org/2000/svg">
<g clip-path="url(#clip0_1250_51)">
<path d="M40.7 91.2C29.2 91.2 20 89.1 13 85C4.3 80 0 72.1 0 61.4V58.2H6.7V60.8C6.7 76.9 18.1 85 40.8 85C48.6 85 55.2 83.8 60.4 81.4C67.2 78.3 70.5 73.6 70.5 67.2C70.5 62.7 69.3 59.3 66.8 56.9C64.8 55 61.3 53.3 56.4 51.8C53.8 51.1 47.5 49.7 37.7 47.6C26.4 45.2 18.7 43 14.8 41C6.8 37 2.8 30.9 2.8 23C2.9 7.6 14.7 0 38.2 0C62.8 0 75.2 9.6 75.5 28.7H68.9C68.4 19.5 65.2 13.3 59.4 10.1C54.7 7.5 47.6 6.1 38.2 6.1C19.1 6.1 9.6 11.7 9.6 22.8C9.6 28.2 12.2 32.3 17.4 35.1C21 36.9 27.1 38.7 35.7 40.2C51.7 43 62.4 46 67.7 49.3C74.1 53.2 77.3 59.2 77.3 67.5C77.3 75.8 73 82 64.5 86.2C58 89.5 50 91.2 40.7 91.2Z" fill="white"/>
<path d="M148.5 51.2H115.2V90.2H108.5V0.900024H150C171.7 0.900024 182.5 9.40002 182.5 26.5C182.5 35.1 178.8 41.6 171.4 45.9C165.3 49.4 157.7 51.2 148.5 51.2ZM150.7 7.10002H115.1V45H150.8C157.6 45 163.2 43.5 167.8 40.5C173 37.2 175.6 32.5 175.6 26.4C175.6 13.6 167.3 7.10002 150.7 7.10002Z" fill="white"/>
<path d="M211.3 90.2V0.900024H279.3V7.10002H217.9V40.7H272.3V46.8H217.9V84H279.9V90.2H211.3Z" fill="white"/>
<path d="M306.7 90.2V0.900024H374.7V7.10002H313.3V40.7H367.7V46.8H313.3V84H375.3V90.2H306.7Z" fill="white"/>
<path d="M433 90.2H402V0.900024H438C452.7 0.900024 463.8 4.90002 471.5 12.9C478.8 20.6 482.4 31.6 482.4 45.7C482.4 60.3 477.7 71.5 468.4 79.3C459.7 86.6 447.9 90.2 433 90.2ZM466.6 17.4C460.2 10.5 450.6 7.10002 437.9 7.10002H408.8V84H433.4C446.7 84 457.1 80.8 464.6 74.3C472 67.8 475.7 58.3 475.7 45.7C475.7 33.2 472.6 23.8 466.6 17.4Z" fill="white"/>
<path d="M519.3 7.10002V40.7H567.8V46.8H519.3V90.3H512.7V0.900024H575.9V7.10002H519.3Z" fill="white"/>
<path d="M600.3 90.2V0.900024H607V90.2H600.3Z" fill="white"/>
<path d="M672.7 7.10002V90.2H666V7.10002H631.9V0.900024H706.9V7.10002H672.7Z" fill="white"/>
<path d="M271.4 117.3V137.5H269.8V117.3H261.5V115.8H279.7V117.3H271.4Z" fill="white"/>
<path d="M300 137.4V126.9H284.2V137.4H282.6V115.7H284.2V125.4H300V115.7H301.6V137.4H300Z" fill="white"/>
<path d="M306.2 137.4V115.7H322.7V117.2H307.8V125.3H321V126.8H307.8V135.8H322.9V137.3H306.2V137.4Z" fill="white"/>
<path d="M348.6 137.6C345.8 137.6 343.6 137.1 341.9 136.1C339.8 134.9 338.7 133 338.7 130.4V129.6H340.3V130.2C340.3 134.1 343.1 136 348.6 136C350.5 136 352.1 135.7 353.4 135.1C355 134.4 355.9 133.2 355.9 131.6C355.9 130.5 355.6 129.7 355 129.1C354.5 128.6 353.7 128.2 352.5 127.9C351.9 127.7 350.3 127.4 348 126.9C345.3 126.3 343.4 125.8 342.4 125.3C340.5 124.3 339.5 122.9 339.5 120.9C339.5 117.2 342.4 115.3 348.1 115.3C354.1 115.3 357.1 117.6 357.1 122.3H355.5C355.4 120.1 354.6 118.6 353.2 117.8C352 117.2 350.3 116.8 348.1 116.8C343.5 116.8 341.2 118.2 341.2 120.9C341.2 122.2 341.8 123.2 343.1 123.9C344 124.3 345.5 124.8 347.5 125.1C351.4 125.8 354 126.5 355.3 127.3C356.9 128.2 357.6 129.7 357.6 131.7C357.6 133.7 356.6 135.2 354.5 136.2C352.8 137.3 350.8 137.6 348.6 137.6Z" fill="white"/>
<path d="M383.6 137.4V118.8L374.2 137.4H372.9L363.4 118.8V137.4H361.8V115.7H363.7L373.6 135.2L383.5 115.7H385.3V137.4H383.6Z" fill="white"/>
<path d="M407.7 137.4L404.6 130.6H393L389.8 137.4H388L398.2 115.7H399.7L409.5 137.4H407.7ZM398.9 118.1L393.7 129.1H403.9L398.9 118.1Z" fill="white"/>
<path d="M426.5 126.8C428.7 127.7 429.9 129.4 429.9 131.9V137.4H428.3V132C428.3 129.2 426.3 127.8 422.4 127.8H413.9V137.5H412.3V115.8H422.7C427.8 115.8 430.3 117.7 430.3 121.5C430.2 124.1 429 125.9 426.5 126.8ZM422.7 117.3H413.8V126.2H422.2C424 126.2 425.5 125.9 426.6 125.2C427.9 124.4 428.6 123.2 428.6 121.6C428.6 118.7 426.6 117.3 422.7 117.3Z" fill="white"/>
<path d="M442.8 117.3V137.5H441.2V117.3H432.9V115.8H451V117.3H442.8Z" fill="white"/>
<path d="M453.9 137.4V115.7H470.4V117.2H455.5V125.3H468.7V126.8H455.5V135.8H470.6V137.3H453.9V137.4Z" fill="white"/>
<path d="M488.2 126.8C490.4 127.7 491.6 129.4 491.6 131.9V137.4H490V132C490 129.2 488 127.8 484.1 127.8H475.6V137.5H474V115.8H484.4C489.5 115.8 492 117.7 492 121.5C491.9 124.1 490.7 125.9 488.2 126.8ZM484.4 117.3H475.5V126.2H483.9C485.7 126.2 487.2 125.9 488.3 125.2C489.6 124.4 490.3 123.2 490.3 121.6C490.3 118.7 488.3 117.3 484.4 117.3Z" fill="white"/>
<path d="M530.2 137.4H528.8L523.7 125.8L518.7 137.4H517.3L507.8 115.7H509.5L517.9 135L522.6 123.7L519.1 115.7H520.8L529.2 135L537.3 115.7H539L530.2 137.4Z" fill="white"/>
<path d="M561.6 134.7C559.5 136.7 556.7 137.7 553.2 137.7C549.6 137.7 546.8 136.7 544.8 134.8C542.8 132.8 541.7 130.1 541.7 126.7C541.7 123.3 542.7 120.7 544.8 118.8C546.8 116.9 549.6 116 553.2 116C556.8 116 559.6 116.9 561.6 118.8C563.7 120.7 564.7 123.3 564.7 126.7C564.7 130 563.7 132.7 561.6 134.7ZM560.5 119.8C558.8 118.2 556.3 117.4 553.2 117.4C550.1 117.4 547.7 118.2 546 119.8C544.3 121.4 543.4 123.7 543.4 126.6C543.4 129.5 544.3 131.9 546 133.6C547.7 135.3 550.2 136.2 553.2 136.2C556.3 136.2 558.7 135.4 560.5 133.7C562.2 132 563.1 129.7 563.1 126.7C563.1 123.6 562.2 121.4 560.5 119.8Z" fill="white"/>
<path d="M582.9 126.8C585.1 127.7 586.3 129.4 586.3 131.9V137.4H584.7V132C584.7 129.2 582.7 127.8 578.8 127.8H570.3V137.5H568.7V115.8H579C584.1 115.8 586.6 117.7 586.6 121.5C586.6 124.1 585.4 125.9 582.9 126.8ZM579 117.3H570.1V126.2H578.5C580.3 126.2 581.8 125.9 582.9 125.2C584.2 124.4 584.9 123.2 584.9 121.6C585 118.7 583 117.3 579 117.3Z" fill="white"/>
<path d="M609.3 137.4L597.2 126L592.6 129.5V137.4H591V115.7H592.6V127.6L608.5 115.7H611.1L598.5 125L611.5 137.3H609.3V137.4Z" fill="white"/>
<path d="M633.5 134.7C631.4 136.7 628.6 137.7 625.1 137.7C621.5 137.7 618.7 136.7 616.7 134.8C614.7 132.8 613.6 130.1 613.6 126.7C613.6 123.3 614.6 120.7 616.7 118.8C618.7 116.9 621.5 116 625.1 116C628.7 116 631.5 116.9 633.5 118.8C635.6 120.7 636.6 123.3 636.6 126.7C636.6 130 635.5 132.7 633.5 134.7ZM632.3 119.8C630.6 118.2 628.1 117.4 625 117.4C621.9 117.4 619.5 118.2 617.8 119.8C616.1 121.4 615.2 123.7 615.2 126.6C615.2 129.5 616.1 131.9 617.8 133.6C619.5 135.3 622 136.2 625 136.2C628.1 136.2 630.5 135.4 632.3 133.7C634 132 634.9 129.7 634.9 126.7C634.9 123.6 634.1 121.4 632.3 119.8Z" fill="white"/>
<path d="M656.5 135.7C655 137 652.7 137.6 649.7 137.6C646.6 137.6 644.3 137 642.8 135.7C641.2 134.3 640.4 132.2 640.4 129.2V115.7H642V129.2C642 133.8 644.5 136.1 649.6 136.1C654.7 136.1 657.2 133.8 657.2 129.3V115.7H658.8V129.2C658.9 132.2 658.1 134.4 656.5 135.7Z" fill="white"/>
<path d="M671.7 117.3V137.5H670.1V117.3H661.8V115.8H680V117.3H671.7Z" fill="white"/>
<path d="M706 124L695.3 113.2C693.8 111.7 691.2 112.7 691.2 114.9L691.1 136C691.1 138.1 693.6 139.2 695.2 137.7L706 127.3C707 126.5 707 125 706 124Z" fill="white"/>
</g>
<defs>
<clipPath id="clip0_1250_51">
<rect width="706.8" height="138.5" fill="white"/>
</clipPath>
</defs>
</svg>
