<svg width="200" height="61" viewBox="0 0 200 61" fill="none" xmlns="http://www.w3.org/2000/svg">
<g style="mix-blend-mode:exclusion">
<path d="M18.3168 29.0867H14.0751C13.7376 28.4128 13.1301 27.8737 12.2525 27.4581C11.3749 27.0425 10.3173 26.8291 9.07965 26.8291C8.38208 26.8291 7.84203 26.9975 7.42574 27.3345C7.0207 27.6715 6.80692 28.0983 6.80692 28.615C6.80692 28.9969 6.94194 29.3001 7.20071 29.5248C7.45949 29.7494 7.85328 29.9628 8.35958 30.1538C8.87713 30.3447 9.51844 30.5244 10.2948 30.7041C11.0711 30.8839 11.9824 31.0973 13.0288 31.3444C14.7727 31.8723 16.1003 32.6922 17.0342 33.8267C17.968 34.9611 18.4181 36.1854 18.4068 37.4996C18.4068 38.4431 18.2381 39.3416 17.8893 40.2177C17.5405 41.0938 17.0229 41.8576 16.3141 42.5203C15.6165 43.1942 14.7277 43.7221 13.6701 44.1265C12.6125 44.5196 11.3636 44.7218 9.91223 44.7218C8.77587 44.7218 7.63951 44.5533 6.48064 44.2164C5.32178 43.8794 4.27542 43.5087 3.34158 43.0819C2.25022 42.5989 1.20387 42.0486 0.20252 41.4196V36.0169H3.31908C3.73537 37.2749 4.44419 38.2296 5.42304 38.8923C6.41314 39.555 7.56075 39.8808 8.87713 39.8808C9.75472 39.8808 10.4298 39.7347 10.9023 39.4539C11.3749 39.1731 11.6112 38.7239 11.6112 38.1173C11.6112 37.8478 11.5549 37.6343 11.4424 37.4771C11.3299 37.3198 11.1499 37.1851 10.9248 37.0727C10.6886 36.9604 10.396 36.8481 10.0247 36.7582C9.65346 36.6684 9.22591 36.5561 8.71961 36.4325C7.33573 36.0506 6.0756 35.7137 4.92799 35.3992C3.78037 35.0847 2.79028 34.6241 1.92394 34.0176C1.31638 33.4785 0.843834 32.8607 0.5063 32.1755C0.168767 31.5016 0 30.7715 0 29.9965C0 29.0979 0.191269 28.2218 0.562556 27.357C0.933843 26.4921 1.48515 25.7396 2.21647 25.0656C2.93654 24.3917 3.80288 23.8638 4.82673 23.4594C5.83933 23.0663 6.99819 22.8641 8.30332 22.8641C8.66336 22.8641 9.13591 22.8754 9.74347 22.9091C10.351 22.9428 11.0036 23.0214 11.7124 23.1449C12.41 23.2685 13.1301 23.4594 13.8614 23.7065C14.5927 23.9536 15.2678 24.3131 15.8866 24.7736C16.5054 25.2341 17.0342 25.8182 17.473 26.5146C17.9455 27.2334 18.2156 28.0871 18.3168 29.0867Z" fill="white"/>
<path d="M30.8618 27.6154C30.2542 27.6154 29.8042 27.7502 29.5117 28.0085C29.2191 28.2668 29.0166 28.5476 28.9153 28.8397C28.7916 29.2216 28.7466 29.6259 28.7916 30.064H25.9901V23.3135H43.9356L44.0031 27.7389L37.9725 27.6715V44.4298H31.8069L31.9644 27.6041L30.8618 27.6154Z" fill="white"/>
<path d="M59.7547 37.7467C59.7547 38.4319 59.9234 38.9822 60.261 39.3978C60.5985 39.8134 61.026 40.1054 61.5323 40.2964C62.0499 40.4873 62.6012 40.5547 63.1862 40.521C63.7713 40.4873 64.3226 40.3413 64.8402 40.1167C65.3577 39.892 65.774 39.5775 66.1115 39.1732C66.4491 38.7688 66.6178 38.3083 66.6178 37.7579L66.5503 23.2573H72.5584L72.5247 37.567C72.3559 38.9935 71.9171 40.2627 71.2083 41.3971C70.8933 41.8801 70.5107 42.3406 70.0607 42.7899C69.6106 43.2392 69.0706 43.6436 68.4293 44.003C67.788 44.3624 67.0454 44.6432 66.179 44.8679C65.324 45.0925 64.3451 45.1936 63.2538 45.1936C62.6687 45.1936 62.0274 45.1711 61.3411 45.1262C60.6435 45.0813 59.9572 44.9914 59.2821 44.8454C58.5958 44.6994 57.9432 44.4635 57.3132 44.1602C56.6831 43.8457 56.1206 43.4189 55.6143 42.8685C55.108 42.3294 54.7029 41.633 54.3879 40.7794C54.0728 39.937 53.9041 38.9036 53.8816 37.6906C53.8816 36.8145 53.8816 35.9608 53.8703 35.1296C53.8591 34.2985 53.8478 33.5459 53.8253 32.8495C53.8028 32.1644 53.7916 31.5578 53.7803 31.0299C53.7691 30.5132 53.7691 30.1089 53.7691 29.8393C53.7691 29.1092 53.6228 28.5701 53.3415 28.2219C53.0602 27.8737 52.7452 27.6266 52.4189 27.4806C52.0251 27.3121 51.5751 27.2447 51.0688 27.2896L51.1026 23.3359H59.7209L59.7547 37.7467Z" fill="white"/>
<path d="M86.4423 44.441H80.6255C80.963 42.1609 81.2443 40.2402 81.4918 38.679C81.7281 37.1177 81.9306 35.8036 82.0881 34.7365C82.2456 33.6695 82.3694 32.8158 82.4594 32.1756C82.5494 31.5354 82.6282 30.9962 82.6957 30.5582C82.7632 30.1201 82.8194 29.7382 82.8644 29.4237C82.9207 29.1092 82.977 28.7498 83.0332 28.323C83.1345 27.7165 83.0332 27.2672 82.7069 26.9751C82.3807 26.6831 82.0094 26.4809 81.5931 26.3798C81.0868 26.2563 80.513 26.2114 79.8604 26.2563V23.2798H88.0962L93.7218 38.4431L98.4022 23.2798H103.116L105.918 44.4298H100.101L98.5935 36.2079L96.1858 44.2501H91.5053L88.2987 36.2192L86.4423 44.441Z" fill="white"/>
<path d="M121.748 44.3737L115.841 44.4074V28.4915C115.841 27.84 115.684 27.357 115.358 27.0313C115.031 26.7056 114.671 26.4922 114.278 26.3911C113.816 26.2675 113.287 26.2226 112.702 26.2675V23.3135L126.406 23.3472C127.599 23.4146 128.668 23.6729 129.613 24.1334C130.007 24.3244 130.4 24.5715 130.772 24.8747C131.143 25.178 131.48 25.5487 131.773 25.9867C132.066 26.4248 132.302 26.9414 132.459 27.5367C132.617 28.132 132.696 28.8172 132.684 29.5922C132.684 30.3223 132.594 30.9738 132.414 31.5578C132.234 32.1307 132.009 32.6361 131.717 33.0742C131.435 33.5122 131.109 33.8829 130.727 34.1861C130.355 34.4894 129.973 34.7478 129.59 34.9612C128.69 35.4666 127.666 35.7699 126.541 35.871H121.726L121.748 44.3737ZM121.748 26.6382V32.726C122.862 32.7709 123.841 32.681 124.707 32.4789C125.067 32.4002 125.416 32.2767 125.765 32.1307C126.114 31.9847 126.418 31.7937 126.688 31.5691C126.958 31.3444 127.171 31.0636 127.318 30.7379C127.464 30.4122 127.531 30.0303 127.509 29.5922C127.486 29.1317 127.385 28.7386 127.205 28.4016C127.025 28.0647 126.8 27.7951 126.53 27.5704C126.26 27.3458 125.945 27.1773 125.607 27.0313C125.259 26.8965 124.91 26.7954 124.55 26.728C123.706 26.5708 122.772 26.5371 121.748 26.6382Z" fill="white"/>
<path d="M139.379 23.2798L145.724 23.3135L150.697 30.0864L153.589 23.3022H160.317L149.032 44.4186H141.517V42.1272C141.888 42.2171 142.27 42.2171 142.653 42.1272C142.968 42.0598 143.317 41.9138 143.688 41.678C144.059 41.4421 144.408 41.049 144.723 40.4986C145.263 39.5326 145.657 38.8475 145.882 38.4319C146.118 38.0163 146.264 37.7355 146.343 37.6007C146.422 37.4659 146.444 37.4098 146.433 37.4435C146.422 37.4772 146.433 37.4547 146.478 37.3761C146.523 37.3087 146.625 37.1177 146.793 36.8257C146.962 36.5337 147.277 35.9945 147.738 35.2195L139.379 23.2798Z" fill="white"/>
<path d="M171.163 22.5272C171.917 22.5272 172.581 22.7743 173.143 23.2685C173.706 23.7627 173.987 24.3917 173.987 25.1668C173.987 25.9642 173.83 26.7056 173.515 27.4132C173.2 28.1096 172.761 28.7386 172.21 29.3002C171.658 29.8618 170.994 30.3335 170.229 30.7266C169.464 31.1198 168.632 31.4343 167.732 31.6364V29.536C169.093 29.3451 170.038 28.7723 170.567 27.8063C169.892 27.7277 169.385 27.4244 169.025 26.9302C168.665 26.4247 168.485 25.8407 168.485 25.178C168.485 24.403 168.744 23.774 169.25 23.2798C169.779 22.7743 170.409 22.5272 171.163 22.5272Z" fill="white"/>
<path d="M199.899 29.0867H195.657C195.319 28.4128 194.712 27.8737 193.834 27.4581C192.957 27.0425 191.899 26.8291 190.661 26.8291C189.964 26.8291 189.424 26.9975 189.007 27.3345C188.602 27.6715 188.4 28.0983 188.4 28.615C188.4 28.9969 188.535 29.3001 188.794 29.5248C189.052 29.7494 189.446 29.9628 189.953 30.1538C190.47 30.3447 191.111 30.5244 191.888 30.7041C192.664 30.8839 193.575 31.0973 194.622 31.3444C196.366 31.8723 197.693 32.6922 198.627 33.8267C199.561 34.9611 200.011 36.1854 200 37.4996C200 38.4431 199.831 39.3416 199.482 40.2177C199.133 41.0938 198.616 41.8576 197.907 42.5203C197.198 43.1942 196.321 43.7221 195.263 44.1265C194.205 44.5196 192.957 44.7218 191.505 44.7218C190.369 44.7218 189.232 44.5533 188.085 44.2164C186.926 43.8794 185.88 43.5087 184.946 43.0819C183.854 42.5989 182.808 42.0486 181.807 41.4196V36.0169H184.923C185.34 37.2749 186.048 38.2296 187.027 38.8923C188.017 39.555 189.165 39.8808 190.481 39.8808C191.359 39.8808 192.034 39.7347 192.507 39.4539C192.979 39.1731 193.215 38.7239 193.215 38.1173C193.215 37.8478 193.159 37.6343 193.047 37.4771C192.934 37.3198 192.754 37.1851 192.529 37.0727C192.293 36.9604 192 36.8481 191.629 36.7582C191.258 36.6684 190.83 36.5561 190.324 36.4325C188.94 36.0506 187.68 35.7137 186.532 35.3992C185.385 35.0847 184.383 34.6241 183.528 34.0176C182.921 33.4785 182.448 32.8607 182.11 32.1755C181.773 31.5016 181.604 30.7715 181.604 29.9965C181.604 29.0979 181.795 28.2218 182.167 27.357C182.538 26.4921 183.089 25.7396 183.821 25.0656C184.541 24.3917 185.418 23.8638 186.431 23.4594C187.444 23.0663 188.602 22.8641 189.908 22.8641C190.268 22.8641 190.74 22.8754 191.348 22.9091C191.955 22.9428 192.608 23.0214 193.317 23.1449C194.014 23.2685 194.734 23.4594 195.466 23.7065C196.197 23.9536 196.872 24.3131 197.491 24.7736C198.11 25.2341 198.638 25.8182 199.077 26.5146C199.516 27.2334 199.797 28.0871 199.899 29.0867Z" fill="white"/>
<path d="M89.9527 10.6661C89.8627 11.2165 89.7952 11.722 89.7614 12.1937C89.7276 12.6655 89.7276 13.0698 89.7614 13.4068C89.7952 13.6988 89.8852 13.9235 90.0314 14.0695C90.1777 14.2155 90.3915 14.2829 90.6727 14.2492C90.7853 14.238 90.909 14.193 91.0553 14.1144C91.2015 14.0358 91.3591 13.9122 91.5391 13.755C91.7191 13.5977 91.9104 13.3955 92.1354 13.1597C92.3492 12.9238 92.5854 12.6318 92.8442 12.306C92.8555 12.3285 92.8892 12.3847 92.9455 12.4745C92.9905 12.5531 93.0467 12.6655 93.1367 12.8339C93.2155 12.9912 93.328 13.2046 93.4743 13.4854C93.193 13.8673 92.9005 14.2043 92.6079 14.4963C92.3154 14.7883 92.0229 15.0467 91.7303 15.2601C91.4378 15.4735 91.1565 15.642 90.8865 15.7543C90.6165 15.8778 90.3577 15.9452 90.1214 15.9789C89.8514 16.0126 89.5926 15.9902 89.3451 15.9115C89.0976 15.8329 88.8838 15.7094 88.6813 15.5409C88.49 15.3612 88.3213 15.1478 88.1975 14.8782C88.0625 14.6086 87.9725 14.2941 87.9387 13.9235C87.9275 13.7999 87.9162 13.6426 87.9162 13.4517C87.9162 13.2608 87.9275 13.0361 87.95 12.789C87.9725 12.5419 88.0062 12.2723 88.04 11.9803C88.0737 11.6883 88.1187 11.3738 88.175 11.048C87.6012 11.1716 87.0611 11.2951 86.5323 11.4075C86.0035 11.5198 85.486 11.6321 84.9572 11.7444C84.8784 12.1263 84.7997 12.4857 84.7209 12.8564C84.6421 13.2158 84.5634 13.5528 84.4959 13.8785C84.4171 14.193 84.3496 14.4851 84.2934 14.7434C84.2259 15.0017 84.1808 15.2264 84.1358 15.4173C83.9783 15.9003 83.8096 16.2485 83.6295 16.4619C83.4495 16.6753 83.2808 16.7876 83.1232 16.8101C83.022 16.8213 82.9207 16.8213 82.8082 16.7989C82.7069 16.7764 82.6057 16.7315 82.5269 16.6865C82.4369 16.6304 82.3694 16.563 82.3132 16.4731C82.2569 16.3833 82.2232 16.2934 82.2119 16.1811C82.2006 16.1137 82.2006 16.0463 82.2119 15.9789C82.3132 15.2938 82.4369 14.6423 82.5832 14.0021C82.7295 13.3618 82.8757 12.7441 83.022 12.1263C82.7857 12.1488 82.5494 12.16 82.3357 12.1488C82.1106 12.1375 81.9081 12.0926 81.7056 12.0252C81.5143 11.9578 81.3343 11.8455 81.1655 11.7107C80.9968 11.5759 80.8618 11.3738 80.738 11.1491C80.7155 11.0705 80.693 11.0031 80.6705 10.9469C80.648 10.8908 80.6367 10.8234 80.6367 10.7672C80.6142 10.5763 80.6705 10.4752 80.8055 10.464C80.8843 10.4527 80.9855 10.4864 81.098 10.5651C81.2105 10.6437 81.3456 10.7672 81.5256 10.9469C81.7281 10.9132 81.9306 10.8796 82.1331 10.8571C82.3357 10.8234 82.5494 10.8009 82.7857 10.7785L83.4045 10.6998C83.517 10.2843 83.6183 9.8799 83.7083 9.48677C83.8096 9.09365 83.8883 8.71176 83.9671 8.3411C84.0121 8.10523 84.0458 7.86935 84.0571 7.63348C84.0683 7.3976 84.0683 7.18419 84.0458 6.97078C84.0233 6.8023 83.9896 6.64505 83.9446 6.51027C83.8996 6.37548 83.8321 6.25193 83.7533 6.16207C83.6745 6.07222 83.5733 6.00482 83.4608 5.9599C83.3483 5.91497 83.2133 5.90374 83.0445 5.9262C82.9095 5.93743 82.7632 5.98236 82.6057 6.03852C82.4369 6.10591 82.2569 6.19577 82.0656 6.31932C81.8744 6.44288 81.6606 6.60013 81.4356 6.77984C81.2105 6.97078 80.963 7.19543 80.7042 7.45376C80.6142 7.54362 80.5355 7.61101 80.4455 7.65594C80.3667 7.70087 80.288 7.72333 80.2205 7.73457C80.1867 7.73457 80.1529 7.68964 80.1192 7.56609C80.0854 7.45376 80.0629 7.31898 80.0404 7.1505C80.0179 6.92586 80.0404 6.70121 80.1192 6.4878C80.198 6.27439 80.3217 6.07222 80.4792 5.88127C80.6367 5.69033 80.828 5.51061 81.0418 5.34213C81.2556 5.17365 81.4806 5.02763 81.7168 4.90408C81.9531 4.78053 82.1781 4.67944 82.4257 4.60081C82.6619 4.52219 82.8757 4.46603 83.0895 4.44356C83.3933 4.40987 83.6858 4.4211 83.9671 4.46603C84.2484 4.51096 84.5071 4.62328 84.7434 4.78053C84.9797 4.93777 85.1709 5.15118 85.3285 5.43199C85.486 5.71279 85.5872 6.04975 85.6322 6.46534C85.6547 6.65629 85.6547 6.90339 85.6435 7.18419C85.6322 7.465 85.6097 7.7795 85.5647 8.12769C85.531 8.47589 85.4747 8.83531 85.4185 9.22844C85.351 9.62156 85.2835 10.0147 85.216 10.419C85.6547 10.3404 86.1498 10.2506 86.7123 10.1495C87.2637 10.0596 87.8262 9.95852 88.3775 9.86867C88.5125 9.12735 88.67 8.35233 88.8501 7.54362C89.0301 6.74614 89.2213 5.94866 89.4351 5.17365C89.5026 4.91531 89.6151 4.7019 89.7614 4.54465C89.9077 4.37617 90.0877 4.28631 90.3127 4.25262C90.4027 4.24139 90.4927 4.24138 90.5827 4.26385C90.6727 4.28631 90.7515 4.30878 90.819 4.35371C90.8865 4.39863 90.954 4.46603 90.999 4.54465C91.044 4.62328 91.0778 4.72436 91.089 4.83669C91.1003 4.93777 91.1115 5.0501 91.1115 5.18488C91.1115 5.31967 91.1003 5.46568 91.0553 5.62293C90.9878 5.90373 90.9203 6.19577 90.8415 6.5215C90.7628 6.836 90.684 7.16173 90.6165 7.49869C90.5377 7.83566 90.459 8.17262 90.3915 8.52081C90.3127 8.86901 90.2452 9.2172 90.1777 9.5654C90.4477 9.52047 90.684 9.47554 90.8865 9.43061C91.089 9.38568 91.2353 9.36322 91.3478 9.34076C91.3928 9.32952 91.4378 9.31829 91.4828 9.31829C91.5278 9.30706 91.5616 9.30706 91.5953 9.30706C91.7303 9.29583 91.8316 9.29583 91.9104 9.30706C91.9891 9.31829 92.0566 9.35199 92.1129 9.39692C92.1691 9.44184 92.2029 9.48677 92.2254 9.55417C92.2479 9.62156 92.2704 9.68895 92.2817 9.76758C92.2929 9.85743 92.2817 9.93606 92.2479 10.0034C92.2141 10.0708 92.1691 10.127 92.1241 10.1607C92.0679 10.2056 92.0116 10.2393 91.9441 10.2618C91.8766 10.2843 91.8204 10.3067 91.7641 10.3067C91.6403 10.3292 91.5616 10.3516 91.5053 10.3629C91.4491 10.3741 91.4153 10.3853 91.3928 10.3853C91.3703 10.3853 91.3591 10.3966 91.3478 10.3966C91.3366 10.3966 91.3253 10.4078 91.3028 10.4078C91.2803 10.4078 91.2353 10.419 91.1678 10.4303C91.1003 10.4415 91.0103 10.464 90.8753 10.4864C90.7177 10.5201 90.5715 10.5538 90.4252 10.5875C90.2339 10.5988 90.0877 10.6324 89.9527 10.6661Z" fill="white"/>
<path d="M99.9662 12.8115C99.8874 12.9575 99.7636 13.1372 99.6286 13.3394C99.4824 13.5415 99.3136 13.7437 99.1336 13.9347C98.9423 14.1256 98.7398 14.2941 98.5148 14.4401C98.2897 14.5861 98.0647 14.676 97.8172 14.6984C97.5359 14.7321 97.2884 14.6647 97.0746 14.5075C96.8608 14.3502 96.6696 14.1031 96.4896 13.7662C96.3996 13.901 96.287 14.0358 96.152 14.1818C96.017 14.3278 95.8595 14.4513 95.6907 14.5749C95.522 14.6984 95.3419 14.7995 95.1619 14.8894C94.9819 14.9792 94.7794 15.0354 94.5881 15.0579C94.3856 15.0803 94.1718 15.0691 93.9693 15.0017C93.7668 14.9456 93.5755 14.8445 93.4068 14.6984C93.238 14.5637 93.0917 14.3839 92.9792 14.1593C92.8667 13.9459 92.7879 13.6876 92.7542 13.4068C92.7204 13.081 92.7204 12.7441 92.7767 12.3959C92.8329 12.0477 92.9117 11.6995 93.0355 11.3513C93.1592 11.0031 93.3055 10.6774 93.4968 10.3629C93.6768 10.0484 93.8906 9.76756 94.1268 9.52045C94.3631 9.27335 94.6106 9.07117 94.8919 8.91392C95.1732 8.75667 95.4545 8.65558 95.747 8.62189C95.8482 8.61066 95.927 8.62189 95.9833 8.65558C96.0395 8.68928 96.0958 8.72298 96.1408 8.7679C96.1858 8.81283 96.2195 8.85776 96.2645 8.90269C96.3095 8.94762 96.3545 8.98131 96.4108 8.99255C96.4671 9.00378 96.5233 9.01501 96.5796 9.01501C96.6358 9.01501 96.6921 9.01501 96.7483 9.00378C96.7933 9.00378 96.8496 8.99255 96.8946 8.98131C96.9396 8.97008 96.9959 8.97008 97.0409 8.95885C97.1084 8.94762 97.1646 8.94762 97.2209 8.95885C97.2771 8.97008 97.3334 8.99255 97.3784 9.02624C97.4234 9.05994 97.4684 9.1161 97.5022 9.19472C97.5359 9.27335 97.5584 9.37444 97.5697 9.50922C97.5922 9.7114 97.6034 9.94727 97.5809 10.2056C97.5697 10.4639 97.5472 10.7223 97.5247 11.0031C97.5022 11.2727 97.4909 11.5422 97.4797 11.8118C97.4684 12.0814 97.4797 12.3397 97.5022 12.5756C97.5247 12.7778 97.5584 12.935 97.6147 13.0473C97.6597 13.1596 97.7497 13.2046 97.8734 13.1933C97.9635 13.1821 98.0535 13.1484 98.1547 13.0923C98.256 13.0361 98.346 12.9687 98.436 12.8788C98.526 12.789 98.616 12.6991 98.706 12.598C98.796 12.497 98.8861 12.3846 98.9648 12.2723C99.1448 12.014 99.3361 11.7219 99.5161 11.4074L99.9662 12.8115ZM94.3743 12.9462C94.3856 13.0586 94.4081 13.1596 94.4306 13.2607C94.4531 13.3618 94.4981 13.4517 94.5431 13.5191C94.5881 13.5977 94.6444 13.6539 94.7231 13.6988C94.7906 13.7437 94.8807 13.7549 94.9819 13.7437C95.1394 13.7213 95.2744 13.6426 95.3869 13.4854C95.4995 13.3281 95.5895 13.1484 95.6682 12.9462C95.7357 12.7441 95.792 12.5307 95.8257 12.3172C95.8595 12.1038 95.882 11.9241 95.882 11.7893L96.0508 9.84618C95.8707 9.86865 95.702 9.92481 95.5445 10.0371C95.387 10.1495 95.2407 10.2842 95.1057 10.4527C94.9707 10.6212 94.8581 10.8121 94.7569 11.0143C94.6556 11.2277 94.5656 11.4411 94.4981 11.6658C94.4306 11.8904 94.3856 12.1151 94.3631 12.3397C94.3518 12.5419 94.3518 12.7553 94.3743 12.9462Z" fill="white"/>
<path d="M104.613 12.4071C104.23 12.6991 103.882 12.9462 103.578 13.1708C103.274 13.3843 103.004 13.5752 102.768 13.7212C102.531 13.8672 102.318 13.9908 102.126 14.0694C101.935 14.148 101.766 14.2042 101.598 14.2267C101.271 14.2604 100.968 14.2042 100.697 14.0357C100.427 13.8672 100.18 13.6089 99.9662 13.2495C99.7524 12.9013 99.5724 12.4632 99.4261 11.9353C99.2798 11.4074 99.1673 10.8233 99.0886 10.1606C99.0548 9.9023 99.0323 9.6215 99.0211 9.32947C99.0098 9.03743 98.9986 8.73417 99.0098 8.44213C98.8748 8.44213 98.7735 8.4309 98.706 8.4309C98.6385 8.41967 98.5598 8.41967 98.4698 8.40844C98.391 8.40844 98.2897 8.3972 98.1547 8.3972C98.031 8.3972 97.8509 8.3972 97.6147 8.3972C97.5134 8.3972 97.4234 8.38597 97.3671 8.35228C97.3109 8.31858 97.2659 8.28488 97.2321 8.23995C97.1984 8.19503 97.1759 8.13887 97.1646 8.09394C97.1534 8.03778 97.1421 7.99285 97.1421 7.95915C97.1309 7.8693 97.1646 7.8019 97.2434 7.74574C97.3221 7.68958 97.4234 7.64465 97.5584 7.61096C97.6822 7.57726 97.8284 7.54357 97.986 7.5211C98.1435 7.49864 98.2897 7.4874 98.436 7.47617C98.5823 7.46494 98.706 7.45371 98.8298 7.44248C98.9423 7.43124 99.0211 7.42001 99.0661 7.40878C99.1111 6.81348 99.2011 6.22941 99.3136 5.66781C99.4261 5.1062 99.5724 4.58952 99.7411 4.14024C99.9099 3.69096 100.112 3.3203 100.349 3.02826C100.585 2.73623 100.844 2.57898 101.136 2.54528C101.316 2.52282 101.496 2.55652 101.665 2.63514C101.834 2.725 101.98 2.84855 102.104 3.0058C102.228 3.16305 102.34 3.35399 102.419 3.57864C102.498 3.80328 102.565 4.03915 102.588 4.28626C102.61 4.49967 102.61 4.72431 102.576 4.97142C102.543 5.21852 102.486 5.46563 102.419 5.71273C102.34 5.97107 102.25 6.22941 102.138 6.49898C102.025 6.76855 101.913 7.02689 101.778 7.29646C101.823 7.29646 101.879 7.29646 101.969 7.28523C102.059 7.27399 102.16 7.26276 102.284 7.26276C102.408 7.25153 102.531 7.2403 102.666 7.22907C102.801 7.21783 102.936 7.2066 103.071 7.19537C103.206 7.18414 103.319 7.17291 103.431 7.16167C103.544 7.15044 103.634 7.15044 103.713 7.13921C103.803 7.13921 103.87 7.17291 103.915 7.25153C103.96 7.33016 103.994 7.43124 104.005 7.5548C104.028 7.70081 103.994 7.8356 103.915 7.93669C103.837 8.03778 103.747 8.10517 103.645 8.1164L101.159 8.40844C101.058 8.59938 100.945 8.7791 100.844 8.95881C100.731 9.13852 100.63 9.307 100.54 9.45302C100.551 9.72259 100.574 9.99216 100.585 10.2505C100.596 10.3628 100.607 10.4751 100.607 10.5987C100.619 10.7222 100.63 10.8346 100.641 10.9581C100.652 11.0704 100.664 11.1828 100.675 11.2951C100.686 11.4074 100.697 11.5085 100.709 11.5984C100.731 11.8342 100.776 12.0252 100.844 12.1824C100.911 12.3397 100.979 12.4632 101.08 12.5531C101.17 12.6429 101.283 12.7103 101.406 12.744C101.53 12.7777 101.665 12.7777 101.811 12.7665C101.901 12.7553 102.014 12.7216 102.149 12.6654C102.284 12.6092 102.419 12.5306 102.576 12.4408C102.734 12.3509 102.891 12.2386 103.06 12.115C103.229 11.9915 103.386 11.8567 103.555 11.7107C103.713 11.5647 103.87 11.4186 104.017 11.2614C104.163 11.1041 104.287 10.9469 104.399 10.7896L104.613 12.4071ZM101.575 4.45474C101.575 4.40981 101.564 4.35365 101.541 4.29749C101.53 4.24133 101.508 4.18517 101.485 4.14024C101.463 4.09531 101.418 4.05038 101.373 4.02792C101.328 3.99422 101.26 3.98299 101.17 3.99422C101.058 4.00546 100.956 4.11778 100.866 4.33119C100.776 4.5446 100.697 4.80293 100.63 5.12867C100.562 5.4544 100.495 5.80259 100.45 6.18448C100.405 6.56637 100.36 6.93703 100.326 7.29646C100.394 7.29646 100.461 7.29646 100.517 7.29646C100.585 7.29646 100.652 7.29646 100.72 7.29646C100.821 7.06059 100.934 6.80225 101.046 6.53268C101.159 6.26311 101.249 5.99354 101.339 5.7352C101.418 5.47686 101.485 5.22975 101.541 5.00511C101.575 4.78047 101.598 4.58952 101.575 4.45474Z" fill="white"/>
<path d="M106.582 13.6427C106.188 13.6876 105.828 13.6539 105.513 13.5416C105.198 13.4293 104.917 13.2608 104.692 13.0361C104.455 12.8115 104.275 12.5419 104.129 12.2387C103.983 11.9242 103.893 11.5984 103.859 11.2502C103.825 11.0031 103.825 10.7335 103.848 10.4527C103.87 10.1719 103.915 9.90237 103.983 9.62157C104.05 9.352 104.152 9.08243 104.275 8.83532C104.399 8.57699 104.545 8.35234 104.725 8.15017C104.905 7.94799 105.108 7.77951 105.333 7.64472C105.558 7.50994 105.817 7.43131 106.109 7.39762C106.357 7.36392 106.593 7.37515 106.807 7.43131C107.021 7.48747 107.212 7.5661 107.381 7.67842C107.549 7.79074 107.684 7.93676 107.786 8.11647C107.887 8.29618 107.954 8.48713 107.977 8.68931C107.988 8.83533 107.988 8.98134 107.966 9.12736C107.943 9.27338 107.898 9.40816 107.842 9.53172C107.774 9.65527 107.696 9.75636 107.594 9.83498C107.493 9.91361 107.381 9.96977 107.246 9.981C107.043 10.0035 106.908 9.96977 106.829 9.86868C106.751 9.76759 106.706 9.62157 106.683 9.43063C106.672 9.352 106.672 9.27338 106.661 9.18352C106.661 9.09366 106.649 9.01504 106.638 8.94765C106.627 8.84656 106.604 8.7567 106.571 8.68931C106.537 8.62192 106.492 8.59945 106.413 8.59945C106.233 8.62192 106.087 8.67808 105.974 8.77916C105.862 8.88025 105.76 9.00381 105.693 9.14982C105.625 9.29584 105.569 9.45309 105.535 9.6328C105.502 9.81252 105.479 9.981 105.468 10.1495C105.457 10.318 105.457 10.4864 105.468 10.6325C105.479 10.7897 105.49 10.9133 105.502 11.0144C105.524 11.1716 105.558 11.3289 105.603 11.4973C105.648 11.6658 105.727 11.8118 105.817 11.9466C105.907 12.0814 106.03 12.1825 106.177 12.2611C106.323 12.3397 106.503 12.3622 106.706 12.3397C106.908 12.3173 107.133 12.2274 107.369 12.0702C107.606 11.9129 107.842 11.722 108.067 11.4973C108.292 11.2727 108.517 11.0368 108.72 10.7672C108.922 10.5089 109.091 10.2618 109.237 10.0372L109.777 10.7335C109.507 11.2278 109.203 11.6883 108.866 12.0926C108.72 12.2611 108.573 12.4408 108.393 12.6093C108.224 12.7778 108.044 12.935 107.853 13.0698C107.662 13.2046 107.459 13.3282 107.246 13.418C107.032 13.5528 106.807 13.6202 106.582 13.6427Z" fill="white"/>
<path d="M111.116 9.03737C111.262 8.77904 111.431 8.50947 111.622 8.21743C111.814 7.9254 112.016 7.64459 112.219 7.38626C112.432 7.12792 112.646 6.91451 112.86 6.72356C113.074 6.54385 113.287 6.44276 113.501 6.4203C113.557 6.4203 113.614 6.4203 113.681 6.43153C113.749 6.44276 113.816 6.47646 113.884 6.52138C113.951 6.56631 114.008 6.63371 114.053 6.72356C114.098 6.81342 114.131 6.92574 114.154 7.07176C114.188 7.36379 114.176 7.65583 114.131 7.94786C114.086 8.2399 114.03 8.5207 113.962 8.81273C113.895 9.10477 113.839 9.3968 113.794 9.70007C113.749 10.0033 113.749 10.3066 113.782 10.6211C113.805 10.7896 113.85 10.9244 113.906 11.0255C113.974 11.1265 114.041 11.1715 114.12 11.1602C114.221 11.149 114.334 11.1153 114.446 11.0592C114.559 11.003 114.671 10.9356 114.773 10.8457C114.885 10.7671 114.986 10.666 115.088 10.5649C115.189 10.4639 115.29 10.3628 115.369 10.2504C115.583 10.0033 115.785 9.72253 115.976 9.41927L116.291 11.1265C116.224 11.1939 116.134 11.2838 116.021 11.3849C115.909 11.486 115.796 11.5983 115.661 11.7218C115.526 11.8454 115.38 11.9577 115.234 12.0813C115.076 12.2048 114.919 12.3171 114.761 12.4182C114.604 12.5193 114.435 12.5979 114.278 12.6766C114.109 12.744 113.951 12.7889 113.794 12.8114C113.557 12.8451 113.344 12.8001 113.152 12.6878C112.961 12.5755 112.804 12.4407 112.669 12.2498C112.534 12.07 112.421 11.8566 112.342 11.632C112.264 11.4073 112.207 11.1939 112.185 10.9805C112.174 10.8457 112.174 10.6885 112.185 10.5088C112.196 10.3291 112.23 10.1606 112.264 9.98087C112.297 9.80116 112.342 9.62144 112.387 9.45296C112.432 9.28448 112.477 9.12723 112.522 8.99245C112.567 8.85766 112.601 8.74534 112.635 8.65548C112.669 8.56563 112.691 8.5207 112.702 8.49823H112.567C112.5 8.55439 112.387 8.68918 112.241 8.90259C112.084 9.116 111.915 9.38557 111.735 9.7113C111.555 10.037 111.364 10.3965 111.172 10.7896C110.981 11.1827 110.812 11.5871 110.666 12.0026C110.598 12.2048 110.531 12.3845 110.497 12.5418C110.452 12.699 110.407 12.8226 110.362 12.9237C110.317 13.0248 110.261 13.1034 110.193 13.1596C110.126 13.2157 110.047 13.2494 109.935 13.2606C109.788 13.2831 109.676 13.2494 109.586 13.182C109.496 13.1146 109.417 13.0023 109.361 12.8788C109.305 12.7552 109.26 12.5979 109.226 12.4295C109.192 12.261 109.17 12.0813 109.147 11.9016C109.113 11.6095 109.068 11.2389 109.023 10.7671C108.978 10.2954 108.933 9.77869 108.9 9.20586C108.866 8.63302 108.843 8.02649 108.843 7.38626C108.832 6.74603 108.855 6.11703 108.9 5.48803C108.945 4.85903 109.023 4.2525 109.147 3.67966C109.26 3.0956 109.417 2.57892 109.631 2.12964C109.845 1.68035 110.103 1.29846 110.418 1.00643C110.733 0.714391 111.071 0.523446 111.521 0.478517C111.757 0.456053 111.949 0.467285 112.106 0.512214C112.264 0.568374 112.399 0.646999 112.5 0.75932C112.601 0.871641 112.68 1.01766 112.736 1.18614C112.792 1.35462 112.826 1.54557 112.86 1.77021C112.894 2.08471 112.894 2.44413 112.849 2.84849C112.804 3.25284 112.725 3.66843 112.635 4.09525C112.534 4.5333 112.41 4.97136 112.275 5.42064C112.14 5.86992 111.994 6.30797 111.836 6.73479C111.69 7.16161 111.532 7.56597 111.386 7.94786C111.24 8.32975 111.105 8.66672 110.992 8.94752L111.116 9.03737ZM111.228 4.97136C111.409 4.2862 111.532 3.70213 111.589 3.24161C111.645 2.76986 111.667 2.4329 111.645 2.21949C111.611 1.89376 111.544 1.73651 111.454 1.74774C111.341 1.75898 111.195 1.96115 111.015 2.35428C110.835 2.7474 110.643 3.30901 110.418 4.03909C110.373 4.2862 110.328 4.54454 110.295 4.80287C110.261 5.06121 110.238 5.31955 110.216 5.57789C110.193 5.83623 110.182 6.09456 110.171 6.34167C110.16 6.58878 110.148 6.82465 110.148 7.04929C110.137 7.56597 110.137 8.08265 110.16 8.57686C110.25 8.29606 110.34 7.98156 110.441 7.64459C110.542 7.30763 110.643 6.9819 110.745 6.64494C110.846 6.31921 110.936 6.00471 111.026 5.71267C111.093 5.42064 111.172 5.17353 111.228 4.97136Z" fill="white"/>
<path d="M118.182 12.2947C117.777 12.3397 117.417 12.306 117.09 12.1936C116.764 12.0813 116.494 11.9128 116.258 11.6882C116.021 11.4636 115.841 11.194 115.695 10.8795C115.56 10.565 115.47 10.228 115.425 9.8686C115.391 9.63272 115.391 9.37439 115.403 9.09358C115.414 8.82401 115.459 8.54321 115.526 8.27364C115.594 8.00407 115.684 7.74573 115.808 7.48739C115.931 7.24029 116.078 7.00441 116.246 6.80224C116.427 6.60006 116.629 6.43158 116.854 6.29679C117.09 6.16201 117.349 6.08338 117.653 6.03845C117.9 6.01599 118.125 6.02722 118.339 6.07215C118.553 6.12831 118.744 6.21817 118.924 6.34172C119.093 6.46527 119.228 6.62252 119.341 6.80224C119.453 6.99318 119.521 7.20659 119.543 7.4537C119.577 7.72327 119.543 7.99284 119.442 8.27364C119.341 8.55444 119.194 8.82401 118.981 9.09358C118.778 9.36315 118.519 9.59903 118.227 9.82367C117.923 10.0483 117.597 10.228 117.225 10.374C117.304 10.4864 117.383 10.5762 117.45 10.6436C117.518 10.711 117.597 10.7672 117.664 10.8009C117.732 10.8346 117.81 10.857 117.878 10.8683C117.957 10.8795 118.024 10.8795 118.114 10.8683C118.373 10.8346 118.643 10.7559 118.913 10.6211C119.183 10.4864 119.453 10.3179 119.701 10.1382C119.959 9.94722 120.196 9.75628 120.409 9.54287C120.634 9.32946 120.814 9.13851 120.961 8.94757L121.895 9.72258C121.557 10.1606 121.197 10.5538 120.803 10.9019C120.634 11.048 120.443 11.2052 120.252 11.3512C120.049 11.4973 119.836 11.6433 119.622 11.7668C119.397 11.8904 119.161 11.9915 118.913 12.0813C118.699 12.2049 118.44 12.261 118.182 12.2947ZM116.967 9.35192C117.124 9.32946 117.293 9.2733 117.462 9.17221C117.63 9.07112 117.799 8.94757 117.934 8.80155C118.08 8.65553 118.193 8.50951 118.283 8.35227C118.373 8.19502 118.407 8.049 118.395 7.90298C118.373 7.71204 118.317 7.55479 118.238 7.43123C118.148 7.31891 118.058 7.26275 117.957 7.27398C117.777 7.29645 117.619 7.35261 117.495 7.43123C117.372 7.52109 117.27 7.62218 117.192 7.7345C117.113 7.85805 117.057 7.99284 117.023 8.13886C116.989 8.28487 116.955 8.43089 116.944 8.57691C116.933 8.72292 116.933 8.85771 116.933 8.99249C116.944 9.14974 116.955 9.26207 116.967 9.35192Z" fill="white"/>
<path d="M126.316 9.87984C125.934 10.1719 125.585 10.419 125.281 10.6436C124.977 10.857 124.707 11.048 124.471 11.194C124.235 11.34 124.021 11.4636 123.83 11.5422C123.638 11.6208 123.47 11.677 123.301 11.6994C122.975 11.7331 122.671 11.677 122.401 11.4973C122.131 11.3288 121.883 11.0704 121.67 10.711C121.456 10.3628 121.276 9.92477 121.129 9.39686C120.983 8.88018 120.871 8.28488 120.792 7.62219C120.758 7.36385 120.736 7.08305 120.724 6.79102C120.713 6.49898 120.713 6.19571 120.713 5.90368C120.578 5.90368 120.477 5.89245 120.409 5.89245C120.331 5.88122 120.263 5.88122 120.173 5.86998C120.094 5.86998 119.993 5.85875 119.858 5.85875C119.734 5.85875 119.554 5.85875 119.318 5.85875C119.217 5.85875 119.127 5.84752 119.071 5.81382C119.014 5.78013 118.969 5.74643 118.936 5.7015C118.902 5.65657 118.879 5.60041 118.868 5.55549C118.857 5.49932 118.845 5.4544 118.845 5.4207C118.834 5.33084 118.868 5.26345 118.947 5.20729C119.026 5.15113 119.127 5.1062 119.262 5.07251C119.386 5.03881 119.532 5.00511 119.689 4.98265C119.847 4.96018 119.993 4.94895 120.139 4.93772C120.286 4.92649 120.409 4.91526 120.533 4.90402C120.646 4.89279 120.724 4.88156 120.769 4.87033C120.814 4.27503 120.904 3.69096 121.017 3.12935C121.129 2.56775 121.276 2.05107 121.444 1.60179C121.613 1.15251 121.816 0.781846 122.052 0.489812C122.288 0.197777 122.547 0.0405282 122.84 0.00683192C123.02 -0.0156323 123.2 0.018064 123.368 0.0966887C123.537 0.186545 123.683 0.310098 123.807 0.467348C123.931 0.624597 124.043 0.815543 124.122 1.04018C124.212 1.26483 124.269 1.5007 124.291 1.74781C124.314 1.96122 124.314 2.18586 124.28 2.43296C124.246 2.68007 124.19 2.92718 124.122 3.17428C124.043 3.43262 123.953 3.69096 123.841 3.96053C123.728 4.2301 123.616 4.48844 123.481 4.75801C123.526 4.75801 123.582 4.75801 123.672 4.74677C123.762 4.73554 123.863 4.72431 123.987 4.72431C124.111 4.71308 124.235 4.70185 124.37 4.69061C124.505 4.67938 124.64 4.66815 124.775 4.65692C124.91 4.64569 125.022 4.63445 125.135 4.62322C125.247 4.61199 125.337 4.61199 125.416 4.60076C125.506 4.60076 125.574 4.63445 125.619 4.71308C125.664 4.7917 125.697 4.89279 125.709 5.01635C125.731 5.16236 125.697 5.29715 125.619 5.39824C125.54 5.49932 125.45 5.56672 125.349 5.57795L122.862 5.86998C122.761 6.06093 122.648 6.24064 122.547 6.42036C122.435 6.60007 122.333 6.76855 122.243 6.91457C122.255 7.18414 122.277 7.45371 122.288 7.71205C122.3 7.82437 122.311 7.93669 122.311 8.06024C122.322 8.18379 122.333 8.29611 122.345 8.41967C122.356 8.53199 122.367 8.64431 122.378 8.75663C122.39 8.86895 122.401 8.97004 122.412 9.0599C122.435 9.29577 122.48 9.48672 122.547 9.64397C122.603 9.80122 122.682 9.92477 122.783 10.0146C122.885 10.1045 122.986 10.1719 123.11 10.2056C123.233 10.2393 123.368 10.2393 123.515 10.228C123.605 10.2168 123.717 10.1831 123.841 10.1269C123.976 10.0708 124.111 9.99216 124.269 9.9023C124.426 9.81245 124.584 9.70013 124.752 9.57657C124.921 9.45302 125.079 9.31824 125.247 9.17222C125.405 9.0262 125.562 8.88018 125.709 8.72293C125.855 8.56569 125.979 8.40844 126.091 8.25119L126.316 9.87984ZM123.278 1.92752C123.278 1.88259 123.267 1.82643 123.245 1.77027C123.233 1.71411 123.211 1.65795 123.188 1.61302C123.166 1.56809 123.121 1.52316 123.076 1.5007C123.031 1.467 122.963 1.45577 122.885 1.467C122.772 1.47824 122.671 1.59056 122.581 1.80397C122.491 2.01738 122.412 2.27571 122.345 2.60145C122.277 2.92718 122.21 3.27537 122.165 3.65726C122.12 4.03915 122.075 4.40981 122.03 4.76924C122.097 4.76924 122.165 4.76924 122.232 4.76924C122.3 4.76924 122.367 4.76924 122.435 4.76924C122.536 4.53336 122.648 4.27503 122.761 4.00546C122.873 3.73589 122.963 3.46632 123.053 3.20798C123.132 2.94964 123.2 2.70253 123.245 2.47789C123.29 2.25325 123.301 2.07354 123.278 1.92752Z" fill="white"/>
<path d="M76.8564 8.40845H26.2151V9.07114H76.8564V8.40845Z" fill="white"/>
<path d="M175.191 8.40845H128.735V9.07114H175.191V8.40845Z" fill="white"/>
<path d="M77.0026 11.048H5.79434V11.7107H77.0026V11.048Z" fill="white"/>
<path d="M194.217 11.048H128.881V11.7107H194.217V11.048Z" fill="white"/>
<path d="M187.792 54.4152H127.396V55.0778H187.792V54.4152Z" fill="white"/>
<path d="M94.1043 55.1339C93.958 55.6731 93.8343 56.1673 93.733 56.6278C93.6318 57.0883 93.598 57.4927 93.598 57.8296C93.598 58.1217 93.6543 58.3575 93.7893 58.526C93.9243 58.6945 94.1156 58.7731 94.4081 58.7731C94.5206 58.7731 94.6444 58.7394 94.8019 58.6833C94.9594 58.6271 95.1282 58.526 95.3194 58.3912C95.5107 58.2565 95.7357 58.088 95.972 57.8746C96.2083 57.6612 96.4783 57.4028 96.7821 57.1108C96.7933 57.1332 96.8158 57.2006 96.8608 57.2905C96.8946 57.3691 96.9508 57.4927 97.0071 57.6612C97.0746 57.8296 97.1534 58.0543 97.2659 58.3463C96.9396 58.6945 96.6133 58.9865 96.287 59.2561C95.9607 59.5257 95.6345 59.7391 95.3307 59.9076C95.0156 60.0873 94.7231 60.2108 94.4306 60.3007C94.1493 60.3906 93.8793 60.4355 93.643 60.4355C93.373 60.4355 93.1142 60.3793 92.8779 60.2782C92.6417 60.1771 92.4392 60.0311 92.2704 59.8289C92.1016 59.6268 91.9666 59.3909 91.8653 59.1101C91.7641 58.8293 91.7191 58.5036 91.7191 58.1329C91.7191 58.0093 91.7303 57.8521 91.7528 57.6612C91.7753 57.4702 91.8203 57.2568 91.8653 57.0097C91.9103 56.7626 91.9779 56.5043 92.0454 56.2122C92.1129 55.9202 92.1916 55.6169 92.2816 55.3024C91.6966 55.3586 91.134 55.4147 90.6052 55.4709C90.0652 55.5271 89.5364 55.572 89.0076 55.6169C88.8838 55.9876 88.76 56.3358 88.6475 56.684C88.5238 57.0322 88.4112 57.3579 88.2987 57.6724C88.1862 57.9757 88.085 58.2565 87.995 58.5148C87.905 58.7731 87.8262 58.9865 87.7587 59.1663C87.5449 59.6268 87.3424 59.9525 87.1399 60.1434C86.9374 60.3344 86.7573 60.4242 86.5998 60.4242C86.4986 60.4242 86.3973 60.4018 86.296 60.3681C86.1948 60.3344 86.1048 60.2782 86.026 60.2221C85.9473 60.1659 85.8798 60.076 85.8347 59.9862C85.7897 59.8963 85.7672 59.7953 85.7672 59.6829C85.7672 59.6155 85.7785 59.5481 85.7897 59.4807C85.9698 58.8181 86.1723 58.1778 86.386 57.5601C86.5998 56.9423 86.8248 56.3358 87.0386 55.7517C86.8023 55.7517 86.5661 55.7292 86.3523 55.6955C86.1385 55.6618 85.9248 55.5945 85.7447 55.5046C85.5647 55.4147 85.396 55.2912 85.2497 55.1227C85.1034 54.9542 84.9797 54.752 84.8897 54.5049C84.8672 54.4263 84.8559 54.3589 84.8447 54.2915C84.8334 54.2241 84.8221 54.168 84.8221 54.1118C84.8221 53.9209 84.8897 53.831 85.0247 53.831C85.1034 53.831 85.1934 53.8759 85.2947 53.9658C85.396 54.0557 85.5197 54.2017 85.6772 54.3926C85.8798 54.3814 86.0823 54.3814 86.296 54.3702C86.5098 54.3589 86.7236 54.3589 86.9599 54.3589H87.5899C87.7474 53.9546 87.8937 53.5614 88.04 53.1908C88.1862 52.8089 88.31 52.4495 88.4338 52.09C88.5125 51.8654 88.5688 51.6295 88.6138 51.4049C88.6588 51.1802 88.6813 50.9556 88.6813 50.7422C88.6813 50.5737 88.67 50.4165 88.6363 50.2704C88.6025 50.1244 88.5575 50.0009 88.49 49.8998C88.4225 49.7987 88.3325 49.7201 88.22 49.6639C88.1075 49.6078 87.9725 49.5741 87.8149 49.5741C87.6799 49.5741 87.5337 49.5965 87.3649 49.6415C87.1961 49.6864 87.0049 49.7538 86.7911 49.8549C86.5773 49.9559 86.3523 50.0795 86.1048 50.2367C85.8572 50.394 85.5985 50.5962 85.3059 50.8321C85.2047 50.9107 85.1147 50.9781 85.0247 51.0118C84.9347 51.0455 84.8672 51.0679 84.7884 51.0679C84.7546 51.0679 84.7321 51.0118 84.7096 50.8994C84.6871 50.7871 84.6871 50.6411 84.6871 50.4726C84.6871 50.248 84.7434 50.0346 84.8447 49.8324C84.9572 49.6302 85.0922 49.4393 85.2722 49.2708C85.4522 49.1023 85.6547 48.9451 85.891 48.799C86.1273 48.653 86.3635 48.5407 86.6111 48.4396C86.8586 48.3385 87.1061 48.2711 87.3424 48.215C87.5899 48.1588 87.8149 48.1364 88.0175 48.1364C88.3212 48.1364 88.6138 48.1813 88.8951 48.2599C89.1763 48.3385 89.4239 48.4733 89.6264 48.653C89.8401 48.8327 90.0089 49.0686 90.1327 49.3606C90.2564 49.6527 90.3239 50.0009 90.3239 50.4277C90.3239 50.6186 90.3014 50.8657 90.2564 51.1465C90.2114 51.4274 90.1439 51.7419 90.0652 52.0788C89.9864 52.4158 89.8964 52.7752 89.7839 53.1571C89.6714 53.539 89.5589 53.9209 89.4464 54.3252C89.8964 54.2915 90.4027 54.2691 90.9653 54.2354C91.5278 54.2017 92.0904 54.1792 92.6529 54.1455C92.8779 53.4154 93.1255 52.6741 93.3842 51.8991C93.643 51.1241 93.9355 50.3603 94.2393 49.619C94.3406 49.3719 94.4756 49.1697 94.6331 49.0237C94.7906 48.8777 94.9931 48.799 95.2069 48.799C95.2969 48.799 95.3869 48.8103 95.4657 48.844C95.5557 48.8664 95.6232 48.9114 95.6907 48.9675C95.7582 49.0237 95.8032 49.0911 95.8482 49.1809C95.882 49.2708 95.9045 49.3606 95.9045 49.473C95.9045 49.5741 95.8932 49.6864 95.882 49.8212C95.8707 49.9559 95.837 50.102 95.7807 50.248C95.6795 50.5176 95.5782 50.8096 95.4657 51.1129C95.3532 51.4161 95.2407 51.7306 95.1282 52.0563C95.0157 52.3821 94.9031 52.7078 94.7794 53.0448C94.6669 53.3817 94.5544 53.7187 94.4531 54.0557C94.7231 54.0332 94.9706 54.022 95.1732 54.0107C95.3757 53.9995 95.5332 53.9883 95.6345 53.977C95.6795 53.977 95.7245 53.9658 95.7695 53.9658C95.8145 53.9658 95.8482 53.9658 95.882 53.9658C96.017 53.9658 96.1183 53.977 96.197 54.0107C96.2758 54.0332 96.3433 54.0781 96.3883 54.123C96.4333 54.168 96.467 54.2241 96.4783 54.2915C96.5008 54.3589 96.5008 54.4263 96.5008 54.5162C96.5008 54.606 96.4783 54.6847 96.4445 54.7408C96.4108 54.797 96.3545 54.8531 96.2983 54.8868C96.242 54.9205 96.1745 54.9542 96.107 54.9655C96.0395 54.9767 95.9832 54.9879 95.927 54.9992C95.8032 55.0104 95.7132 55.0216 95.6682 55.0328C95.6232 55.0441 95.5782 55.0441 95.5557 55.0441C95.5332 55.0441 95.522 55.0441 95.5107 55.0553C95.4995 55.0665 95.4882 55.0553 95.4657 55.0665C95.4432 55.0778 95.3982 55.0665 95.3307 55.0778C95.2632 55.0778 95.1619 55.089 95.0269 55.1002C94.8694 55.1227 94.7119 55.1339 94.5656 55.1452C94.4193 55.1564 94.2506 55.1227 94.1043 55.1339Z" fill="white"/>
<path d="M100.979 55.1451C101.102 55.3922 101.204 55.6618 101.26 55.9426C101.328 56.2234 101.35 56.4929 101.35 56.7513C101.35 57.0096 101.316 57.268 101.26 57.5263C101.204 57.7846 101.125 58.043 101.012 58.2789C100.911 58.526 100.776 58.7506 100.619 58.964C100.461 59.1774 100.292 59.3571 100.09 59.5144C99.8874 59.6716 99.6736 59.7952 99.4373 59.885C99.201 59.9749 98.9535 60.0198 98.6835 60.0198C98.301 60.0198 97.9747 59.9412 97.7046 59.7727C97.4346 59.6042 97.2096 59.3908 97.0408 59.1213C96.8721 58.8517 96.737 58.5484 96.6583 58.2115C96.5795 57.8745 96.5345 57.5263 96.5345 57.1781C96.5345 56.6951 96.602 56.2571 96.7483 55.8415C96.8946 55.4259 97.0971 55.0665 97.3671 54.7632C97.6371 54.4599 97.9634 54.2128 98.346 54.0444C98.7285 53.8759 99.1673 53.7748 99.6511 53.7748C100.067 53.7748 100.45 53.8422 100.81 53.9657C101.17 54.0893 101.508 54.269 101.823 54.4824C102.138 54.6958 102.43 54.9429 102.7 55.2237C102.97 55.5045 103.229 55.7853 103.465 56.0886L103.341 57.0096C103.229 56.8524 103.06 56.6839 102.869 56.5042C102.666 56.3245 102.453 56.1448 102.228 55.965C102.003 55.7853 101.778 55.6281 101.564 55.4708C101.35 55.3136 101.159 55.19 101.001 55.0777L100.979 55.1451ZM98.9648 58.7731C99.111 58.7731 99.2573 58.6944 99.3923 58.5484C99.5273 58.4024 99.6511 58.2115 99.7636 57.9868C99.8649 57.7622 99.9549 57.5038 100.011 57.2343C100.079 56.9535 100.101 56.6951 100.101 56.448C100.101 56.2458 100.09 56.0661 100.056 55.8864C100.022 55.7067 99.9774 55.5607 99.9211 55.4371C99.8649 55.3136 99.7861 55.2125 99.6848 55.1339C99.5948 55.0552 99.4711 55.0215 99.3361 55.0215C99.156 55.0215 98.9873 55.1002 98.8298 55.2462C98.6722 55.3922 98.526 55.5944 98.4022 55.8303C98.2785 56.0661 98.1884 56.3245 98.1209 56.6165C98.0534 56.9085 98.0197 57.1781 98.0197 57.4477C98.0197 57.6274 98.0422 57.7959 98.0759 57.9643C98.1097 58.1328 98.1659 58.2676 98.2447 58.3799C98.3235 58.5035 98.4135 58.5933 98.5372 58.6607C98.6497 58.7281 98.796 58.7731 98.9648 58.7731Z" fill="white"/>
<path d="M107.549 54.1904C107.549 54.3027 107.538 54.4712 107.516 54.6733C107.493 54.8755 107.459 55.1002 107.414 55.336C107.369 55.5719 107.324 55.8303 107.279 56.0774C107.234 56.3357 107.189 56.5716 107.144 56.7962C107.099 57.0209 107.066 57.2118 107.043 57.3803C107.021 57.5488 107.009 57.6611 107.009 57.7285C107.009 57.852 107.009 57.9644 107.021 58.0654C107.021 58.1665 107.043 58.2564 107.054 58.335C107.077 58.4136 107.111 58.4698 107.156 58.5147C107.201 58.5597 107.268 58.5709 107.358 58.5709C107.448 58.5709 107.572 58.5484 107.707 58.5035C107.842 58.4586 107.988 58.3912 108.146 58.3125C108.303 58.2339 108.461 58.1441 108.618 58.043C108.776 57.9419 108.933 57.8296 109.08 57.7172C109.226 57.6049 109.361 57.4926 109.473 57.3803C109.597 57.268 109.687 57.1669 109.766 57.0658C109.766 57.2118 109.766 57.3354 109.766 57.4589C109.766 57.5712 109.766 57.6835 109.766 57.7959C109.766 57.9082 109.766 58.0093 109.766 58.1216C109.766 58.2339 109.766 58.3575 109.766 58.5035C109.676 58.6046 109.552 58.7057 109.406 58.8068C109.26 58.9191 109.113 59.0202 108.933 59.1325C108.764 59.2448 108.573 59.3459 108.382 59.447C108.191 59.5481 107.988 59.6379 107.797 59.7053C107.606 59.7727 107.403 59.8401 107.212 59.885C107.021 59.93 106.841 59.9524 106.672 59.9524C106.503 59.9524 106.368 59.9187 106.244 59.8513C106.12 59.784 106.03 59.6941 105.94 59.5818C105.85 59.4695 105.783 59.3234 105.727 59.1662C105.67 58.9977 105.614 58.818 105.569 58.627C105.412 58.8292 105.243 59.0202 105.074 59.1887C104.905 59.3571 104.725 59.5031 104.545 59.6379C104.365 59.7615 104.185 59.8626 103.994 59.93C103.803 59.9974 103.634 60.0423 103.454 60.0423C103.308 60.0423 103.173 60.0198 103.049 59.9749C102.925 59.93 102.813 59.8513 102.711 59.7278C102.61 59.6155 102.531 59.4695 102.475 59.2785C102.419 59.0876 102.385 58.8629 102.385 58.5934C102.385 58.2564 102.43 57.8296 102.509 57.3129C102.588 56.7962 102.689 56.2009 102.801 55.5382C102.813 55.4708 102.824 55.381 102.846 55.2687C102.869 55.1563 102.903 55.0328 102.948 54.9092C102.993 54.7857 103.038 54.6509 103.105 54.5161C103.173 54.3813 103.24 54.2578 103.319 54.1454C103.398 54.0331 103.499 53.9433 103.611 53.8759C103.724 53.8085 103.848 53.7636 103.983 53.7636C104.208 53.7748 104.377 53.7972 104.478 53.8534C104.579 53.9096 104.624 53.9657 104.624 54.0331C104.59 54.2578 104.545 54.5161 104.5 54.7969C104.455 55.0777 104.41 55.3585 104.354 55.6505C104.309 55.9313 104.264 56.2121 104.219 56.4929C104.174 56.7738 104.14 57.0096 104.107 57.223C104.073 57.4364 104.05 57.6049 104.028 57.7397C104.005 57.8745 103.994 57.9419 103.994 57.9419C103.994 58.0205 104.005 58.0991 104.017 58.1665C104.028 58.2339 104.05 58.3013 104.084 58.3575C104.118 58.4136 104.152 58.4586 104.197 58.4923C104.242 58.526 104.298 58.5484 104.365 58.5484C104.455 58.5484 104.557 58.526 104.658 58.4698C104.759 58.4136 104.849 58.3462 104.939 58.2564C105.029 58.1665 105.108 58.043 105.175 57.9082C105.243 57.7734 105.299 57.6162 105.333 57.4477L105.974 54.1342C105.997 54.0331 106.087 53.9433 106.233 53.8646C106.379 53.786 106.559 53.7523 106.762 53.7523C106.987 53.7523 107.156 53.7972 107.291 53.8646C107.493 53.9657 107.549 54.0668 107.549 54.1904Z" fill="white"/>
<path d="M108.742 57.5151C108.99 57.3017 109.181 57.1332 109.338 56.9984C109.496 56.8636 109.62 56.7288 109.732 56.6165C109.845 56.5042 109.935 56.3806 110.025 56.2683C110.115 56.156 110.216 56.01 110.34 55.8527C110.463 55.6955 110.61 55.4933 110.778 55.2574C110.947 55.0215 111.183 54.7407 111.454 54.3925C111.51 54.3139 111.577 54.2353 111.645 54.1679C111.712 54.0893 111.791 54.0219 111.881 53.9657C111.971 53.9096 112.061 53.8534 112.162 53.8197C112.264 53.786 112.376 53.7635 112.5 53.7635C112.714 53.7635 112.871 53.786 112.984 53.8309C113.096 53.8759 113.175 53.932 113.231 53.9994C113.287 54.0668 113.31 54.1342 113.321 54.2016C113.332 54.269 113.332 54.3364 113.332 54.3813C113.332 54.4824 113.287 54.606 113.209 54.7295C113.13 54.8531 113.04 54.9766 112.939 55.1002C112.837 55.2125 112.747 55.3248 112.657 55.4259C112.567 55.527 112.511 55.5944 112.5 55.6393C112.5 55.7741 112.511 55.8976 112.534 56.01C112.556 56.1223 112.579 56.2346 112.612 56.3357C112.646 56.448 112.68 56.5603 112.714 56.6727C112.747 56.7962 112.781 56.931 112.815 57.0882C112.849 57.2455 112.871 57.4252 112.894 57.6274C112.916 57.8296 112.927 58.0767 112.927 58.3462C113.085 58.2452 113.254 58.1441 113.434 58.0654C113.614 57.9756 113.805 57.897 113.996 57.8071C114.188 57.7172 114.39 57.6162 114.604 57.5038C114.806 57.3915 115.02 57.2567 115.223 57.0995L115.234 58.5597C114.964 58.7731 114.649 58.964 114.3 59.1437C113.951 59.3234 113.569 59.4919 113.186 59.6267C112.792 59.7615 112.399 59.8738 112.005 59.9524C111.611 60.0311 111.228 60.076 110.868 60.076C110.61 60.076 110.373 60.0535 110.148 60.0086C109.923 59.9637 109.732 59.885 109.563 59.7839C109.395 59.6829 109.26 59.5481 109.158 59.3796C109.057 59.2111 108.99 59.0089 108.967 58.7843C108.911 58.7955 108.843 58.8068 108.787 58.8068C108.731 58.8068 108.674 58.818 108.618 58.818C108.551 58.818 108.483 58.818 108.427 58.8068C108.371 58.8068 108.314 58.7843 108.269 58.7618C108.224 58.7281 108.191 58.6832 108.168 58.627C108.146 58.5709 108.134 58.4698 108.134 58.3575C108.134 58.2564 108.157 58.1553 108.213 58.0654C108.269 57.9756 108.326 57.897 108.393 57.8296C108.461 57.7622 108.528 57.6948 108.607 57.6498C108.652 57.5937 108.708 57.5488 108.742 57.5151ZM109.575 58.3575C109.631 58.3575 109.687 58.3912 109.743 58.4586C109.811 58.526 109.878 58.5933 109.957 58.672C110.036 58.7506 110.137 58.818 110.238 58.8854C110.351 58.9528 110.475 58.9865 110.61 58.9865C110.778 58.9865 110.925 58.9528 111.026 58.8966C111.127 58.8405 111.228 58.7618 111.285 58.672C111.352 58.5821 111.397 58.4698 111.42 58.3462C111.442 58.2227 111.454 58.0879 111.454 57.9531C111.454 57.8408 111.442 57.7172 111.431 57.5937C111.42 57.4701 111.397 57.3578 111.375 57.2455C111.352 57.1332 111.33 57.0321 111.296 56.931C111.262 56.8299 111.24 56.7513 111.217 56.6839L109.575 58.3575Z" fill="white"/>
<path d="M116.798 60.0198C116.393 60.0198 116.033 59.9412 115.729 59.7952C115.425 59.6492 115.166 59.447 114.964 59.1999C114.761 58.9528 114.604 58.6607 114.503 58.335C114.401 58.0093 114.345 57.6611 114.345 57.3017C114.345 57.0546 114.368 56.7962 114.413 56.5266C114.458 56.2571 114.536 55.9875 114.626 55.7292C114.716 55.4708 114.851 55.2237 114.998 54.9878C115.144 54.752 115.324 54.5386 115.515 54.3589C115.718 54.1791 115.931 54.0331 116.179 53.932C116.426 53.8197 116.697 53.7748 117 53.7748C117.248 53.7748 117.473 53.8197 117.675 53.8871C117.889 53.9657 118.069 54.078 118.215 54.2128C118.373 54.3589 118.485 54.5273 118.575 54.7183C118.665 54.9205 118.71 55.1451 118.71 55.3922C118.71 55.6618 118.643 55.9313 118.508 56.2009C118.373 56.4705 118.193 56.7288 117.957 56.9647C117.72 57.2006 117.439 57.414 117.124 57.6049C116.798 57.7959 116.449 57.9419 116.066 58.043C116.134 58.1553 116.201 58.2564 116.258 58.335C116.325 58.4136 116.381 58.4698 116.449 58.5147C116.517 58.5596 116.584 58.5933 116.652 58.6046C116.719 58.627 116.798 58.627 116.888 58.627C117.147 58.627 117.428 58.5709 117.709 58.4698C117.99 58.3687 118.283 58.2339 118.553 58.0767C118.823 57.9194 119.082 57.7509 119.329 57.5712C119.577 57.3915 119.779 57.2118 119.948 57.0433L120.792 57.9194C120.409 58.3125 120.004 58.6607 119.577 58.964C119.386 59.0988 119.194 59.2223 118.969 59.3459C118.744 59.4695 118.53 59.5818 118.294 59.6829C118.058 59.7839 117.81 59.8626 117.552 59.9187C117.315 59.9861 117.057 60.0198 116.798 60.0198ZM115.931 56.9647C116.089 56.9647 116.258 56.9198 116.449 56.8411C116.64 56.7625 116.809 56.6614 116.967 56.5266C117.124 56.4031 117.259 56.2683 117.372 56.1223C117.484 55.9763 117.529 55.8303 117.529 55.6955C117.529 55.5045 117.495 55.336 117.417 55.2125C117.338 55.0889 117.259 55.0215 117.158 55.0215C116.967 55.0215 116.809 55.0552 116.674 55.1226C116.539 55.19 116.426 55.2799 116.336 55.3922C116.246 55.5045 116.179 55.6281 116.123 55.7741C116.066 55.9201 116.033 56.0549 115.999 56.2009C115.965 56.3469 115.954 56.4817 115.943 56.6165C115.943 56.7513 115.931 56.8636 115.931 56.9647Z" fill="white"/>
<path d="M75.5062 54.4152H12.2187V55.0778H75.5062V54.4152Z" fill="white"/>
<path d="M166.539 57.0546H127.554V57.7173H166.539V57.0546Z" fill="white"/>
<path d="M75.675 57.0546H34.8222V57.7173H75.675V57.0546Z" fill="white"/>
</g>
</svg>
