<svg width="220" height="266" viewBox="0 0 220 266" fill="none" xmlns="http://www.w3.org/2000/svg">
<path fill-rule="evenodd" clip-rule="evenodd" d="M14.4915 6.25C-0.058506 25.84 -4.25151 55.418 4.65749 75.625C10.3545 88.548 25.3915 98.574 43.4675 101.5L47.2965 102.121L41.4675 106.155C33.7535 111.492 24.9665 120.099 19.6725 127.5C15.2805 133.641 11.1375 141.129 11.1375 142.926C11.1375 143.48 15.6185 142.373 21.0955 140.466C32.8465 136.376 39.0995 136.032 45.6545 139.113C54.2575 143.157 58.5785 150.737 57.9455 160.678C57.5645 166.665 57.6595 166.973 60.2115 168.031C69.9675 172.072 74.9305 186.252 70.2195 196.627C67.9055 201.722 66.9685 202.336 63.7425 200.866C60.6495 199.457 58.1375 201.055 58.1375 204.431C58.1375 207.414 56.1605 209.765 53.0155 210.522C50.7905 211.057 50.2945 210.762 49.7465 208.576C48.5465 203.799 42.0475 206.526 40.5655 212.429C39.7595 215.641 34.2805 217.682 31.0725 215.965C29.1275 214.924 24.9785 214.977 21.2715 216.09C20.2915 216.384 17.6735 210.149 11.9955 194L4.0845 171.5L4.5155 183C4.9945 195.818 7.07049 203.933 12.7605 215.24C15.8445 221.367 16.0625 222.366 15.1695 226.24C13.8255 232.064 13.8875 248.121 15.2745 253.632C15.9185 256.189 17.8145 259.635 19.6435 261.575C24.1845 266.39 29.3825 266.406 34.0205 261.621C37.4685 258.064 39.6835 251.297 38.5605 247.757C37.9295 245.77 37.9555 245.768 40.4975 247.622C41.9155 248.655 43.0955 250.4 43.1215 251.5C43.2085 255.21 44.5525 256.209 48.1915 255.266C50.8055 254.589 52.7815 254.896 57.1525 256.662C66.4735 260.427 74.1285 262.106 84.6375 262.691C101.871 263.649 118.829 259.57 133.269 250.991C142.353 245.594 154.861 233.688 160.745 224.837C165.686 217.405 165.541 217.47 176.137 217.912C186.122 218.329 201.561 222.777 216.864 229.645C219.37 230.77 220.512 225.478 219.318 218.273C217.512 207.372 212.227 197.998 202.119 187.764L193.424 178.96L192.209 168.23C191.54 162.329 190.769 156.713 190.497 155.75C189.882 153.573 186.329 153.477 183.36 155.557C181.4 156.929 181.137 157.998 181.137 164.58V172.046L178.387 170.326C176.875 169.379 175.497 168.515 175.324 168.405C175.151 168.295 174.205 164.232 173.222 159.376L171.434 150.548L174.274 145.932C180.011 136.609 182.76 124.584 181.133 115.938C179.628 107.947 176.266 101.814 165.489 87.408C157.035 76.107 153.079 69.461 150.749 62.637C150.215 61.074 149.864 60.983 148.553 62.07C145.123 64.917 143.042 70.955 143.019 78.129L142.997 85.15L139.51 79.325C137.592 76.121 133.46 70.877 130.329 67.67C125.492 62.716 122.218 60.655 108.527 53.946C90.8975 45.307 86.9225 42.051 82.5885 32.697L80.2345 27.615L79.0815 30.558C77.5695 34.414 76.7055 44.885 77.5345 49.304C77.8955 51.226 79.2945 54.425 80.6435 56.413L83.0965 60.028L80.3665 59.402C75.9785 58.395 61.1475 51.918 54.6375 48.165C45.0575 42.641 35.5995 34.506 30.5795 27.47C25.4505 20.284 21.1915 9.558 21.1585 3.75C21.1465 1.688 20.6865 0 20.1355 0C19.5845 0 17.0445 2.813 14.4915 6.25ZM116.437 107.862C98.7555 113.972 87.5395 132.957 91.1505 150.667C94.4205 166.702 107.986 180.102 122.623 181.751C126.192 182.154 127.224 181.822 129.508 179.538C132.552 176.494 134.485 176.617 134.964 179.886C135.43 183.063 137.622 181.892 137.722 178.412C137.892 172.517 139.032 171.126 146.743 167.417C152.766 164.52 154.502 164.057 155.678 165.033C156.481 165.7 157.154 166.977 157.174 167.872C157.235 170.629 161.942 164.058 164.2 158.066C165.326 155.077 166.475 149.902 166.752 146.566C167.205 141.124 166.943 139.966 164.214 135.316L161.173 130.133L145.014 135.542C136.126 138.516 128.647 141.157 128.394 141.41C127.87 141.935 131.024 152.104 132.071 153.261C132.45 153.68 135.39 153.117 138.605 152.011C146.179 149.405 146.473 149.451 144.665 152.948C140.279 161.429 128.27 164.612 119.674 159.574C108.236 152.871 107.81 136.548 118.875 128.983C121.942 126.886 123.625 126.509 129.697 126.559L136.889 126.618L140.553 119.21C143.625 113.002 144.009 111.551 142.928 110.246C139.252 105.815 125.853 104.608 116.437 107.862ZM65.4945 125.154L57.3515 128.182L69.4945 164.078C76.4195 184.55 82.1545 199.98 82.8405 199.987C83.5025 199.994 84.8915 198.088 85.9285 195.75C88.2975 190.407 90.0575 188.954 94.9645 188.296L98.8695 187.773L87.7535 154.899C79.6845 131.036 76.2265 122.039 75.1375 122.076C74.3125 122.104 69.9735 123.489 65.4945 125.154ZM27.6375 155.72C24.8875 156.517 22.2805 157.511 21.8435 157.929C21.4065 158.347 22.0155 161.271 23.1965 164.427C25.1945 169.767 25.5225 170.12 27.9345 169.515C37.0645 167.223 40.8215 163.06 38.0905 158.262C36.0545 154.684 33.4195 154.044 27.6375 155.72ZM37.6375 184.216C34.3375 185.348 31.4795 186.408 31.2855 186.572C30.8215 186.966 34.1775 197.273 35.1015 198.291C36.1205 199.414 49.3515 194.428 50.8725 192.348C52.8825 189.599 52.4155 185.308 49.9145 183.557C47.0785 181.57 45.0305 181.68 37.6375 184.216ZM22.7125 234.461C21.1205 240.387 23.4685 254.556 26.3425 256.362C27.6855 257.205 28.5885 256.925 30.5925 255.042C31.9925 253.727 33.1375 252.115 33.1375 251.461C33.1375 250.806 33.9885 249.188 35.0285 247.866L36.9185 245.463L30.0895 238.943C24.0705 233.196 23.1955 232.664 22.7125 234.461Z" fill="#F26D21" fill-opacity="0.5"/>
<path fill-rule="evenodd" clip-rule="evenodd" d="M71.6236 93.468C47.3836 98.747 25.9566 115.053 14.0936 137.25C12.4036 140.412 11.1836 143 11.3826 143C11.5816 143 16.4216 141.425 22.1376 139.5C27.8536 137.575 33.9366 136 35.6556 136C48.7496 136 60.1836 148.433 58.8846 161.258L58.3546 166.5L62.6436 169.148C72.2676 175.088 75.5046 188.282 69.8296 198.435L67.1466 203.235L68.6346 222.867C70.6146 248.986 70.6936 247.527 67.2166 248.967C61.1036 251.499 59.5036 249.326 59.2556 238.158L59.1376 232.816L55.8876 234.714C53.4536 236.135 52.6536 237.289 52.7006 239.306C52.7346 240.788 52.8466 244.87 52.9506 248.378L53.1376 254.756L58.8876 256.837C78.2966 263.862 97.6086 264.237 116.501 257.955C134.268 252.047 150.758 239.379 160.71 223.994L165.413 216.724L175.026 217.287C185.296 217.888 197.552 220.999 209.619 226.067C213.459 227.68 217.171 229 217.869 229C219.847 229 219.438 219.183 217.153 211.783C214.584 203.467 208.438 194.036 200.758 186.624C193.724 179.836 193.59 179.966 194.925 192.31C195.921 201.518 195.268 202.909 189.603 203.654C186.183 204.103 185.276 203.785 183.006 201.337C181.558 199.777 178.975 196.025 177.265 193C173.758 186.795 173.457 187.646 175.144 199C176.037 205.013 175.952 205.631 174.013 207.25C171.684 209.194 166.624 209.596 165.588 207.919C164.949 206.886 163.749 194.527 162.293 174L161.62 164.5L158.879 168.729C157.361 171.072 154.412 173.84 152.267 174.934C147.653 177.288 145.744 182.251 148.052 185.894C148.783 187.049 149.527 186.923 152.383 185.158C154.279 183.986 156.125 183.321 156.485 183.68C156.844 184.039 157.138 186.037 157.138 188.119C157.138 191.48 156.634 192.251 152.638 195C148.586 197.788 148.138 198.49 148.138 202.048C148.138 206.894 149.392 207.064 154.438 202.904C159.119 199.046 161.138 199.616 161.138 204.794C161.138 207.514 160.475 209.261 158.888 210.721C155.174 214.136 149.8 216.992 147.079 216.996C141.013 217.005 139.759 213.581 138.563 193.75C138.173 187.287 137.52 182 137.111 182C136.703 182 135.597 184.358 134.654 187.24C133.712 190.121 131.623 195.384 130.014 198.935L127.087 205.39L132.612 210.974C135.728 214.123 138.138 217.459 138.138 218.624C138.138 220.7 135.307 224 133.525 224C133 224 130.125 221.525 127.138 218.5C124.151 215.475 121.425 213 121.081 213C120.737 213 120.784 215.137 121.186 217.75C122.033 223.256 121.163 225.419 117.299 227.417C112.823 229.731 111.908 228.262 111.028 217.343C109.878 203.07 109.953 181.585 111.157 180.381C111.849 179.689 110.584 178.33 107.213 176.146C101.246 172.279 97.0456 167.178 93.3716 159.336C90.9946 154.261 90.6376 152.26 90.6376 144C90.6376 135.444 90.9456 133.854 93.7346 128C100.832 113.108 116.825 103.684 132.102 105.395L137.638 106.014L128.807 101.429C116.139 94.851 103.988 91.979 89.2596 92.079C82.8676 92.123 74.9316 92.748 71.6236 93.468ZM140.596 120.085C137.248 126.954 136.462 127.917 134.686 127.335C131.184 126.188 123.633 126.692 120.565 128.279C116.74 130.257 114.566 132.73 112.676 137.254C110.539 142.369 110.754 146.815 113.388 152.03C118.992 163.123 132.35 165.023 141.363 156.01C146.851 150.522 146.155 149.634 138.596 152.48C132.569 154.748 132.005 154.807 131.437 153.221C131.099 152.275 129.993 149.346 128.98 146.713C127.967 144.08 127.138 141.764 127.138 141.565C127.138 141.367 134.732 138.578 144.013 135.368L160.888 129.531L154.927 122.324C151.649 118.36 147.952 114.453 146.712 113.641C144.508 112.197 144.373 112.339 140.596 120.085ZM66.3876 124.299C61.2996 126.016 57.1376 127.83 57.1376 128.33C57.1376 130.795 81.7706 201 82.6356 201.001C83.2506 201.001 83.6376 205.738 83.6376 213.251C83.6376 224.317 83.8796 225.983 86.1376 230.5C87.8646 233.955 89.7966 236.118 92.3876 237.5L96.1376 239.5L99.8066 237.5C105.347 234.48 107.547 230.874 107.596 224.733C107.651 217.872 105.651 217.785 102.204 224.498C97.2326 234.18 92.9536 230.324 92.3346 215.605C92.0356 208.501 92.3566 205.42 93.7946 201.584C94.8086 198.881 96.0876 196.701 96.6376 196.74C97.1876 196.779 98.3256 198.762 99.1666 201.147C100.77 205.692 103.137 207.076 105.686 204.96C106.485 204.297 107.138 202.723 107.138 201.46C107.138 197.991 103.522 190.276 101.351 189.114C99.9556 188.368 96.3276 178.937 88.0486 154.544C81.7866 136.095 76.4326 121.04 76.1506 121.088C75.8686 121.136 71.4756 122.581 66.3876 124.299ZM166.948 148.061C166.646 151.67 165.492 156.672 164.384 159.177L162.369 163.731L165.316 162.261C166.937 161.452 169.36 161.001 170.701 161.257C173.84 161.857 173.8 160.788 170.275 150L167.497 141.5L166.948 148.061ZM26.7126 156.579C24.5536 157.369 22.5956 158.209 22.3606 158.443C21.9996 158.804 24.9306 168.922 25.6486 169.793C26.1776 170.435 36.5346 165.978 37.2946 164.781C38.7106 162.549 38.2036 158.37 36.3086 156.655C34.1216 154.676 31.9536 154.659 26.7126 156.579ZM176.699 172.25C177.082 173.488 178.325 176.3 179.463 178.5C181.044 181.559 181.624 182.065 181.927 180.65C182.63 177.367 181.105 172.053 179.161 171.012C176.378 169.523 175.926 169.75 176.699 172.25ZM4.18463 178.5C4.11363 189.625 7.70863 204.083 13.3516 215.367C16.2056 221.076 16.3256 221.177 17.7856 219.092C19.1696 217.117 18.7986 215.483 13.0516 198.224C9.62263 187.926 6.23163 178.15 5.51663 176.5C4.22063 173.51 4.21563 173.517 4.18463 178.5ZM38.3126 184.355C34.8346 185.564 32.0236 186.991 32.0656 187.527C32.2436 189.764 35.3556 198 36.0236 198C38.8196 198 49.4346 193.414 50.6476 191.682C52.7146 188.731 52.5226 187.294 49.6826 184.455C46.7626 181.534 46.4346 181.531 38.3126 184.355ZM118.586 185.654C118.675 187.769 118.857 191.975 118.991 195L119.234 200.5L122.326 194.504C126.342 186.719 127.43 183 125.693 183C124.975 183 123.046 182.732 121.406 182.404C118.491 181.821 118.427 181.893 118.586 185.654ZM73.3326 198.309C71.6266 200.444 71.0776 212.21 72.0136 226.621C73.0596 242.752 73.9756 245.503 77.9696 244.517C79.4366 244.155 81.0426 243.462 81.5386 242.979C82.6546 241.888 79.5956 202.725 78.1886 200.096C76.8926 197.673 74.5346 196.806 73.3326 198.309ZM52.8876 211.08C51.4866 211.896 51.1376 213.485 51.1376 219.05C51.1376 226.589 52.0536 227.572 55.9896 224.25C57.8196 222.705 57.9926 221.767 57.4616 216.25C56.8536 209.936 56.1736 209.166 52.8876 211.08ZM35.8876 216.689C33.7386 217.251 33.7186 216.856 36.1926 222.629C38.5086 228.031 38.1146 231.555 35.0876 232.516C32.3406 233.388 30.3266 231.522 29.5506 227.388C28.5156 221.873 26.5306 222.205 24.2216 228.278C23.3176 230.657 23.5866 231.443 26.4146 234.665C30.0646 238.826 40.8226 248 42.0506 248C43.3326 248 41.9926 242.587 40.4916 241.7C38.9236 240.774 38.6596 235.413 40.1376 234.5C41.2776 233.795 41.4076 228.895 40.4896 221.25C39.8726 216.11 39.5036 215.744 35.8876 216.689Z" fill="#691C32"/>
</svg>
