<svg width="1736" height="269" viewBox="0 0 1736 269" fill="none" xmlns="http://www.w3.org/2000/svg">
<path fill-rule="evenodd" clip-rule="evenodd" d="M132.589 0.769161C71.3652 7.76316 23.5732 46.5462 6.5662 103.036C2.0992 117.873 0.629201 128.15 0.600201 144.739C0.571201 161.639 1.6002 169.674 5.5442 183.316C10.7582 201.35 19.7562 217.186 32.3742 230.53C52.5412 251.859 79.0772 264.363 111.5 267.815C137.756 270.609 167.026 264.901 190 252.504C207.535 243.042 233.15 222.547 234.369 217.004C234.926 214.473 233.603 212.907 218.739 198.49C207.121 187.222 201.83 182.74 200.147 182.74C198.749 182.739 195.705 184.63 192.647 187.399C181.097 197.856 165.956 206.042 151.169 209.824C140.939 212.44 124.036 212.434 113.774 209.809C84.1862 202.242 65.0502 177.884 63.2892 145.548C61.2752 108.565 81.5702 75.1822 114.043 62.0662C131.76 54.9092 153.66 54.7762 172.196 61.7112C183.105 65.7932 196.906 76.3872 203.171 85.4892C204.8 87.8562 206.901 89.7392 207.913 89.7392C208.912 89.7392 219.691 82.5022 231.866 73.6572C247.535 62.2732 254.181 56.8652 254.613 55.1452C255.91 49.9752 240.043 32.9072 223.97 22.1842C208.896 12.1272 193.407 5.83116 174.926 2.25016C164.741 0.276161 143.43 -0.468839 132.589 0.769161ZM1344.5 0.840161C1297.81 5.71016 1258.61 28.4482 1234.52 64.6322C1219.27 87.5412 1211.54 111.383 1210.3 139.332C1209.27 162.453 1213.07 181.929 1222.39 201.239C1239.1 235.891 1270.51 258.985 1311 266.391C1323.96 268.762 1349.89 268.724 1363.38 266.315C1423.53 255.574 1464 212.994 1477.52 146.24C1478.89 139.481 1480.3 130.524 1480.65 126.336C1481.73 113.568 1488.32 114.739 1415.35 114.739C1381.06 114.739 1353 114.864 1353 115.018C1353 115.171 1351.2 125.17 1349 137.239C1346.8 149.308 1345 159.307 1345 159.46C1345 159.614 1360.58 159.739 1379.63 159.739H1414.25L1413.6 162.989C1412.57 168.161 1405.41 181.771 1400.76 187.394C1387.52 203.414 1368.07 211.797 1344.11 211.819C1315.55 211.845 1293.19 199.051 1281.06 175.741C1274.76 163.63 1272.67 153.146 1273.29 136.739C1273.85 122.059 1275.55 114.565 1280.98 102.965C1291.84 79.7712 1314.21 62.6162 1340 57.7202C1348.26 56.1512 1364.74 56.4342 1373.12 58.2882C1387.97 61.5722 1403.34 71.0302 1412.85 82.7392C1415.31 85.7642 1418.29 88.3742 1419.48 88.5382C1420.97 88.7452 1428.3 83.9622 1443.07 73.1392C1454.86 64.5052 1464.83 56.9452 1465.24 56.3402C1467.52 52.9122 1462.76 45.3372 1451.28 34.1302C1425.44 8.91916 1385.73 -3.46084 1344.5 0.840161ZM1593.75 4.48916C1571.34 4.63916 1553 5.01516 1553 5.32416C1553 5.63416 1551.2 16.6202 1549 29.7392C1546.8 42.8582 1545 53.8492 1545 54.1652C1545 54.4812 1572.26 54.7392 1605.58 54.7392H1666.16L1665.59 57.4892C1664.77 61.4512 1657 107.097 1657 107.979C1657 108.386 1635.74 108.836 1609.76 108.979L1562.53 109.239L1558.82 130.239C1556.78 141.789 1554.83 152.774 1554.48 154.649L1553.85 158.06L1600.4 157.459C1626.01 157.128 1647.14 157.169 1647.37 157.548C1647.79 158.256 1639.2 210.874 1638.55 211.518C1638.36 211.715 1610.71 212.141 1577.12 212.466C1522.44 212.994 1515.99 213.223 1515.57 214.647C1515.32 215.523 1513.5 225.464 1511.54 236.739C1509.58 248.014 1507.72 258.479 1507.41 259.994L1506.84 262.749L1598.59 262.494L1690.34 262.239L1712.6 135.739C1724.84 66.1642 1735.1 8.00216 1735.4 6.48916L1735.95 3.73916L1685.23 3.97716C1657.33 4.10916 1616.16 4.33916 1593.75 4.48916ZM331.595 7.48916C329.913 15.7012 286 261.155 286 262.347C286 263.55 290.723 263.727 316.742 263.503L347.484 263.239L356.698 212.239C361.765 184.189 365.931 160.901 365.955 160.489C365.98 160.077 389.4 159.739 418 159.739H470L469.954 161.989C469.929 163.227 465.961 186.514 461.138 213.739L452.367 263.239L482.835 263.504C499.593 263.649 513.539 263.533 513.827 263.246C514.114 262.958 524.772 204.789 537.51 133.981L560.671 5.23916L530.183 4.97416C513.415 4.82916 499.48 4.92616 499.216 5.18916C498.813 5.59316 493.092 35.9782 482.028 96.4892L479.788 108.739H427.315H374.841L375.397 105.989C375.702 104.476 379.818 82.0892 384.542 56.2392C389.266 30.3892 393.376 8.22716 393.674 6.98916L394.217 4.73916H363.188H332.159L331.595 7.48916ZM652.699 131.882C586.598 235.022 571.332 259.463 571.957 261.154C572.713 263.199 573.327 263.244 603.614 263.473L634.5 263.706L647.879 241.223L661.258 218.739H714.386H767.515L772.445 241.239L777.374 263.739H808.164H838.954L840.504 261.374C841.969 259.137 840.125 252.094 806.671 132.124L771.289 5.23916L752.75 4.96716L734.211 4.69616L652.699 131.882ZM944 5.21016C944 5.46916 933.897 61.8322 921.549 130.46C909.201 199.089 898.793 257.152 898.421 259.489L897.744 263.739H928.205H958.666L963.724 235.489C966.506 219.952 972.544 186.202 977.141 160.491C981.738 134.78 985.782 113.742 986.127 113.741C986.471 113.74 1008.07 147.708 1034.13 189.225L1081.5 264.712L1100.67 264.725L1119.84 264.739L1120.4 261.989C1121.5 256.602 1167 6.06016 1167 5.39116C1167 5.01716 1153.2 4.82916 1136.33 4.97516L1105.67 5.23916L1092.08 80.4212C1084.61 121.772 1078.26 155.834 1077.97 156.116C1077.68 156.398 1056.13 122.453 1030.07 80.6842L982.697 4.73916H963.349C952.707 4.73916 944 4.95116 944 5.21016ZM712.639 131.972L686.978 175.239L722.143 175.502C741.483 175.647 757.425 175.647 757.57 175.502C757.994 175.076 739.558 89.9512 738.9 89.2992C738.569 88.9722 726.752 108.175 712.639 131.972Z" fill="black"/>
</svg>
