<svg width="176" height="77" viewBox="0 0 176 77" fill="none" xmlns="http://www.w3.org/2000/svg">
<path fill-rule="evenodd" clip-rule="evenodd" d="M21.6278 1.80576L19.5808 11.5334L47.6797 1.80576H21.6278ZM167.9 68.8416C167.9 67.9022 167.336 67.345 166.18 67.345C165.024 67.345 164.326 67.6425 164.326 68.4396C164.326 68.9282 164.69 69.2312 165.717 69.5534L167.237 70.0419C168.863 70.5799 170.149 71.3529 170.149 73.2144C170.149 75.9533 167.43 76.9805 164.883 76.9805C162.719 76.9805 160.172 76.1271 160.172 73.5353V73.0845H162.997V73.4494C162.997 74.4568 164.135 74.9459 165.186 74.9459C166.1 74.9459 167.114 74.6237 167.114 73.6225C167.114 72.8495 166.682 72.6139 166.02 72.3857L163.683 71.6374C162.162 71.1421 161.284 70.5422 161.284 68.8113C161.284 66.1948 164.047 65.2987 166.186 65.2987C168.611 65.2987 170.774 65.979 170.731 68.8298L167.9 68.8416ZM157.637 68.8416C157.637 67.9022 157.081 67.345 155.924 67.345C154.768 67.345 154.069 67.6425 154.069 68.4396C154.069 68.9282 154.428 69.2312 155.46 69.5534L156.981 70.0419C158.607 70.5799 159.893 71.3529 159.893 73.2144C159.893 75.9533 157.173 76.9805 154.619 76.9805C152.462 76.9805 149.909 76.1271 149.909 73.5353V73.0845H152.74V73.4494C152.74 74.4568 153.871 74.9459 154.922 74.9459C155.844 74.9459 156.851 74.6237 156.851 73.6225C156.851 72.8495 156.425 72.6139 155.758 72.3857L153.432 71.6492C151.918 71.1551 151.04 70.5552 151.04 68.823C151.04 66.2078 153.804 65.3104 155.943 65.3104C158.36 65.3104 160.524 65.9907 160.481 68.8416H157.637ZM147.208 69.9547H142.132C142.583 68.7179 143.443 67.5992 145.155 67.5992C146.868 67.5992 147.208 68.836 147.208 69.9547ZM141.81 71.8842H149.971C150.087 71.3127 150.145 70.7302 150.144 70.147C150.144 66.9369 148.067 65.3104 144.981 65.3104C141.211 65.3104 138.88 68.6072 138.88 72.113C138.88 75.2607 140.852 76.9496 143.825 76.9496C147.01 76.9496 148.599 75.6255 149.562 73.1402H146.521C146.07 73.8445 145.47 74.6614 144.252 74.6614C142.602 74.6614 141.81 73.7833 141.81 72.497V71.8786V71.8842ZM128.493 65.6079H131.405L131.06 67.1539H131.102C132.026 65.9542 133.465 65.2659 134.979 65.2987C137.081 65.2987 138.219 66.3432 138.219 68.2726C138.156 68.9145 138.048 69.5509 137.897 70.178L136.525 76.683H133.483L134.83 70.1897C134.936 69.7475 135 69.2961 135.022 68.8416C135.022 68.1799 134.274 67.7099 133.569 67.7099C131.714 67.7099 130.781 69.2503 130.478 70.8019L129.241 76.6898H126.206L128.518 65.6141L128.493 65.6079ZM125.322 65.6079H127.511L127.035 67.6425H124.871L123.758 73.1519C123.72 73.322 123.691 73.4933 123.672 73.6652C123.672 74.4567 124.253 74.4759 124.698 74.4759C125.063 74.4765 125.429 74.4561 125.792 74.4135L125.279 76.7702C124.66 76.8315 124.042 76.8754 123.374 76.8754C121.959 76.8754 120.438 76.4233 120.481 74.6237C120.495 74.2718 120.545 73.9212 120.63 73.5792L121.867 67.6419H119.863L120.333 65.6079H122.281L122.967 62.2431H126.009L125.322 65.6079ZM116.778 65.6079L114.423 76.683H117.49L119.844 65.6079H116.778ZM120.185 63.8943L120.741 61.3903H117.681L117.125 63.8943H120.185ZM110.269 67.6425H108.47L108.902 65.6079H110.719C111.338 62.7818 111.832 61.279 115.047 61.279C115.714 61.2809 116.38 61.339 117.038 61.4516L116.568 63.6345C116.247 63.6345 115.907 63.5665 115.579 63.5665C114.083 63.5665 114.108 64.3395 113.786 65.6258H115.95L115.517 67.6604H113.31L111.393 76.683H108.365L110.269 67.6425ZM97.4832 65.6079H100.377L99.9252 67.5992L99.9691 67.6425C100.659 66.1707 102.16 65.2535 103.784 65.3104C104.097 65.3092 104.412 65.3309 104.723 65.3723L104.104 68.3283C103.684 68.2219 103.252 68.1582 102.818 68.1372C100.482 68.1372 99.647 69.8935 99.2396 71.779L98.2133 76.683H95.1717L97.4832 65.6079ZM93.4648 76.683H90.5467L90.8936 75.1438H90.8503C89.9248 76.3404 88.4862 77.0293 86.9734 76.999C84.8721 76.999 83.7407 75.9533 83.7407 74.0239C83.7994 73.382 83.907 72.7456 84.0616 72.1192L85.4346 65.6258H88.4695L87.1218 72.1192C87.0179 72.5619 86.9536 73.0134 86.9307 73.4679C86.9307 74.129 87.6788 74.5996 88.383 74.5996C90.2376 74.5996 91.1712 73.0598 91.4741 71.5075L92.7105 65.6141H95.7522L93.4648 76.683ZM76.7727 74.6917C75.3391 74.6917 74.591 73.5106 74.591 72.2181C74.591 70.3629 75.574 67.6109 77.799 67.6109C79.3884 67.6109 80.0314 68.5763 80.0314 70.0537C80.0314 71.9089 79.0416 74.7047 76.7727 74.7047V74.6917ZM77.935 65.3104C73.9907 65.3104 71.5741 68.4582 71.5741 72.2064C71.5741 75.3788 73.5647 76.9805 76.6497 76.9805C80.6743 76.9805 83.0978 73.8884 83.0978 69.9986C83.0978 66.807 80.9773 65.3104 77.935 65.3104ZM62.0652 61.3903H65.1068L63.9693 66.8936H64.0132C64.9176 65.8225 66.2728 65.2362 67.6725 65.3104C69.775 65.3104 70.9126 66.3562 70.9126 68.285C70.8501 68.9269 70.7426 69.5633 70.5905 70.1897L69.218 76.683H66.177L67.4994 70.1897C67.6051 69.7475 67.6694 69.2961 67.6916 68.8416C67.6916 68.1799 66.9436 67.7099 66.2382 67.7099C64.3835 67.7099 63.4562 69.2503 63.1471 70.8019L61.9353 76.683H58.9005L62.0899 61.3903H62.0652ZM49.7075 70.703H45.2433L50.8759 64.9462H50.9124L49.676 70.703H49.7075ZM52.6008 70.703L54.5167 61.6866H51.5492L42.7704 70.4494L42.2146 73.2144H49.1758L48.4216 76.683H51.3149L52.0623 73.2144H54.053L54.5908 70.703H52.6008ZM32.0201 67.0859C32.323 63.4861 34.5919 61.3903 38.0416 61.3903C40.755 61.3903 43.03 62.8003 43.03 65.9103C43.03 70.3016 36.8478 71.6059 34.5047 74.0678H41.9234L41.3052 76.683H30.1772C30.4306 72.9361 33.2683 71.4148 36.2178 69.8496C37.67 69.0092 39.9884 68.0933 39.9884 66.1026C39.9884 64.5993 38.956 63.9994 37.67 63.9994C36.0262 63.9994 34.9752 65.4403 34.9128 67.0915L32.0201 67.0859ZM171.744 9.99353H171.126V8.65776H171.979C172.437 8.65776 172.876 8.78144 172.876 9.3139C172.876 9.96261 172.313 9.98178 171.733 9.98178L171.744 9.99353ZM171.126 12.0906V10.3961H171.918L172.994 12.0906H173.543L172.406 10.3961C172.964 10.359 173.392 9.88469 173.37 9.32565C173.37 8.64601 172.987 8.26816 172.134 8.26816H170.662V12.0906H171.126ZM169.061 10.1791C169.088 8.63612 170.362 7.40672 171.905 7.43454C173.448 7.46175 174.677 8.73444 174.65 10.278C174.623 11.8049 173.376 13.0275 171.849 13.0244C170.317 13.0312 169.068 11.7937 169.061 10.2607C169.061 10.2335 169.061 10.2063 169.061 10.1791ZM175.169 10.1791C175.173 8.34856 173.692 6.86189 171.862 6.8588C170.032 6.85509 168.546 8.33681 168.542 10.1673C168.539 11.9972 170.019 13.4845 171.849 13.4882C173.656 13.5154 175.141 12.0732 175.169 10.2669C175.17 10.2378 175.17 10.2087 175.169 10.1791ZM60.0807 31.2861H46.7524C47.8893 27.118 50.5359 24.7 54.5482 24.7C58.3311 24.7 60.2235 27.0438 60.2235 29.9998C60.2099 30.4314 60.1604 30.8618 60.0745 31.2861H60.0807ZM74.2139 32.2625C74.2139 19.8943 63.7041 15.0837 54.9989 15.0837C45.2315 15.0837 31.5064 20.9895 31.5064 38.9977C31.5064 48.5453 37.0704 56.3132 51.0243 56.3132C67.9698 56.3132 70.9181 46.5485 71.9011 43.901H57.4971C56.7367 45.2622 54.8443 46.6969 51.5931 46.6969C46.9007 46.6969 45.472 43.2152 45.472 39.0527H73.4658C74.0334 36.832 74.285 34.542 74.2139 32.2502V32.2625ZM152.487 15.0837C143.022 15.0837 132.957 18.1757 132.957 29.4673C132.957 38.0206 140.994 39.1578 143.628 39.6031C149.223 40.5932 153.013 40.8399 153.013 43.6166C153.013 44.5256 152.487 47.0982 148.475 47.0982C146.811 47.0982 145.439 46.7952 144.531 46.1211C143.941 45.5163 143.548 44.747 143.405 43.914H129.526C130.144 54.3707 139.993 56.3379 148.072 56.3379C160.19 56.3379 167.979 50.8087 167.979 41.7248C167.979 33.4814 162.453 31.0572 151.331 29.5421C149.371 29.3127 147.937 28.7067 147.937 26.5855C147.937 24.2417 150.119 23.4131 152.165 23.4131C153.4 23.35 154.621 23.6951 155.64 24.3963C156.2 24.8577 156.545 25.528 156.598 26.2516H170.039C169.939 16.84 160.425 15.1202 152.474 15.1202L152.487 15.0837ZM123.758 25.3054H131.703L133.811 16.0787H125.711L129.508 0.513282L113.143 6.18412L110.726 16.0787H97.9222L101.755 0H101.44L85.4278 5.5657L82.9549 16.0787H76.4389L74.2998 25.3054H80.9772L77.5028 41.4336C77.1133 43.2523 76.6676 44.687 76.6676 46.8082C76.6676 49.69 78.1767 52.7876 80.7547 54.2291C83.6226 55.8246 87.0358 55.8246 90.2073 55.8246C92.9226 55.6459 95.6267 55.3151 98.3055 54.8346L100.574 44.0123C99.3694 44.0866 98.1014 44.2412 95.6285 44.2412C93.1556 44.2412 92.5999 43.1775 92.5999 41.8912C92.6846 40.5573 92.9145 39.2364 93.2855 37.9519L95.9377 25.3054H108.735L105.28 41.4336C104.902 43.2523 104.445 44.687 104.445 46.8082C104.445 49.69 105.959 52.7876 108.544 54.2291C111.406 55.8246 114.818 55.8246 117.99 55.8246C120.706 55.6453 123.41 55.3144 126.089 54.8346L128.358 44.0123C127.152 44.0866 125.885 44.2412 123.412 44.2412C120.939 44.2412 120.389 43.1775 120.389 41.8912C120.468 40.5573 120.696 39.2357 121.069 37.9519L123.758 25.3054ZM18.5181 16.0787L11.7788 47.7166C10.5424 53.4005 10.7958 56.4981 6.2587 56.4981C5.26522 56.5067 4.2742 56.4053 3.30297 56.1951L0.830078 67.8527C3.17315 68.0005 5.45501 68.0816 7.79128 68.0816C19.1481 68.0816 23.2469 64.7539 25.2691 54.9088L33.497 16.0787H18.5181Z" fill="black"/>
</svg>
