<svg width="210" height="86" viewBox="0 0 210 86" fill="none" xmlns="http://www.w3.org/2000/svg">
<path d="M0 0.431396H2.78999V14.0284L15.2441 0.431396H18.9305L8.58846 11.6698L19.6084 25.0203H15.9948L6.65564 13.5634L2.78999 17.6419V25.0147H0V0.431396Z" fill="#008E9C"/>
<path d="M25.3008 0.431396H28.0908V25.0147H25.3008V0.431396Z" fill="#008E9C"/>
<path d="M34.998 0.431396H43.3008C51.0993 0.431396 56.6121 5.51276 56.6121 12.7062C56.6121 19.8997 51.0993 25.0147 43.3008 25.0147H34.998V0.431396ZM43.3008 22.4768C49.4578 22.4768 53.7885 18.4319 53.7885 12.7062C53.7885 7.0142 49.4578 2.97488 43.3008 2.97488H37.788V22.4768H43.3008Z" fill="#008E9C"/>
<path d="M61.4863 12.7062C61.4863 5.79847 67.2848 0 74.0805 0C77.4812 0 80.6297 1.42861 82.9211 3.7592L81.0219 5.69203C79.2347 3.79282 76.764 2.5771 74.0805 2.5771C68.7862 2.5771 64.3099 7.22708 64.3099 12.7062C64.3099 18.219 68.7806 22.869 74.0805 22.869C76.764 22.869 79.2347 21.6532 81.0219 19.754L82.9211 21.6868C80.6297 23.9782 77.4812 25.4461 74.0805 25.4461C67.2792 25.4461 61.4863 19.614 61.4863 12.7062Z" fill="#7BA229"/>
<path d="M100.563 15.9276L106.933 25.0147H103.751L97.5268 16.1741H91.0112V25.0147H88.2212V0.431396H98.2047C103.286 0.431396 107.258 3.68638 107.258 8.30275C107.253 12.1684 104.463 15.1041 100.563 15.9276ZM91.0112 13.5298H97.7004C101.706 13.5298 104.429 11.597 104.429 8.30275C104.429 5.00855 101.712 3.07572 97.7004 3.07572H91.0112V13.5298Z" fill="#7BA229"/>
<path d="M115.023 3.08133V11.1712H128.373V13.8211H115.023V22.376H129.835V25.0259H112.193V0.431396H129.835V3.08133H115.023Z" fill="#7BA229"/>
<path d="M152.884 19.4347H139.18L136.71 25.0147H133.667L144.508 0.431396H147.55L158.391 25.0147H155.349L152.884 19.4347ZM151.741 16.7848L146.049 3.86566L140.323 16.7848H151.741Z" fill="#7BA229"/>
<path d="M167.203 3.08133H158.934V0.431396H178.257V3.08133H169.988V25.0203H167.198V3.08133H167.203Z" fill="#7BA229"/>
<path d="M186.24 3.08133V11.1712H199.59V13.8211H186.24V22.376H201.053V25.0259H183.411V0.431396H201.053V3.08133H186.24Z" fill="#7BA229"/>
<path d="M61.9629 57.4917L63.7164 55.3068C65.7949 57.3796 68.3328 58.8475 71.7671 58.8475C75.5599 58.8475 77.4927 56.7746 77.4927 54.556C77.4927 51.9453 75.1677 50.9033 70.8707 49.9061C65.935 48.7632 62.8201 47.2225 62.8201 42.9647C62.8201 39.0262 66.3272 35.9505 71.05 35.9505C74.7027 35.9505 77.4199 37.3791 79.672 39.4576L77.9521 41.6425C75.9128 39.6761 73.4814 38.494 70.9043 38.494C67.8622 38.494 65.6437 40.4996 65.6437 42.7518C65.6437 45.2897 68.0751 46.1861 72.2657 47.1889C76.9549 48.2982 80.3163 49.9789 80.3163 54.3095C80.3163 58.2088 77.3807 61.3966 71.655 61.3966C67.6157 61.3966 64.4279 59.9287 61.9629 57.4917Z" fill="#008E9C"/>
<path d="M93.5264 39.0655H85.2573V36.4155H104.58V39.0655H96.3108V61.0044H93.5208V39.0655H93.5264Z" fill="#008E9C"/>
<path d="M110.664 50.8025V36.4155H113.454V50.8025C113.454 55.5253 116.569 58.8923 120.933 58.8923C125.298 58.8923 128.412 55.5309 128.412 50.8025V36.4155H131.202V50.8025C131.202 57.0267 126.945 61.4302 120.933 61.4302C114.922 61.4302 110.664 57.0267 110.664 50.8025Z" fill="#008E9C"/>
<path d="M138.345 36.4155H146.648C154.446 36.4155 159.959 41.4969 159.959 48.6904C159.959 55.8838 154.446 60.9988 146.648 60.9988H138.345V36.4155ZM146.648 58.4609C152.805 58.4609 157.136 54.416 157.136 48.6904C157.136 42.9983 152.805 38.959 146.648 38.959H141.135V58.4609H146.648Z" fill="#008E9C"/>
<path d="M167.17 36.4155H169.96V60.9988H167.17V36.4155Z" fill="#008E9C"/>
<path d="M177.439 48.6904C177.439 41.7827 183.237 35.9842 190.033 35.9842C196.868 35.9842 202.594 41.7827 202.594 48.6904C202.594 55.5982 196.868 61.4302 190.033 61.4302C183.232 61.4302 177.439 55.5982 177.439 48.6904ZM199.764 48.6904C199.764 43.2169 195.327 38.5613 190.033 38.5613C184.739 38.5613 180.263 43.2113 180.263 48.6904C180.263 54.2032 184.733 58.8531 190.033 58.8531C195.327 58.8531 199.764 54.2032 199.764 48.6904Z" fill="#008E9C"/>
<path d="M53.7497 59.9792C52.2594 53.8894 46.3545 50.8305 42.444 48.808C42.4104 48.7912 42.3768 48.7744 42.3432 48.752L42.5449 48.3654L41.8222 47.9061L41.5084 48.3206C39.9846 47.5139 38.7409 46.7744 38.8305 46.2253C38.8977 45.8052 39.1274 45.0712 39.3907 44.2197C40.3599 41.1104 41.9902 35.9057 39.9902 32.8468C39.1274 31.5247 37.6764 30.7403 35.6875 30.5162C35.2057 30.4602 34.7407 30.477 34.2813 30.5274L34.4942 29.3621L33.6819 29.1044L32.8639 30.886C32.2309 31.1269 31.6202 31.4574 31.0432 31.928C27.2504 35.0262 25.7041 42.2644 25.1495 45.8612C24.8749 45.6651 24.6004 45.4746 24.3371 45.3009L18.6283 34.8021C19.0653 34.5444 19.3958 34.141 19.4742 33.6312C19.5527 33.1606 19.4238 32.69 19.1157 32.309C18.8188 31.9392 18.3818 31.6871 17.8944 31.6087C16.8467 31.435 15.8999 32.0961 15.7543 33.0373C15.603 33.9897 16.3145 34.8973 17.3453 35.0598C17.4574 35.0766 17.5638 35.0878 17.6703 35.0878C17.7151 35.0878 17.7543 35.071 17.7991 35.0654L22.8861 44.4158C21.2278 43.5082 19.928 43.2 19.2501 43.7883C18.8748 44.1188 18.9028 44.7855 19.2277 45.6987L10.5832 38.9534C10.5944 38.903 10.6225 38.8694 10.6281 38.819C10.7065 38.3204 10.5888 37.8218 10.2919 37.4128C9.99499 37.0038 9.55801 36.7349 9.05939 36.6565C8.01175 36.4828 7.05934 37.1999 6.89687 38.2195C6.7288 39.2448 7.4347 40.2196 8.45994 40.382C8.56078 40.3989 8.66162 40.4045 8.76247 40.4045C9.33391 40.4045 9.83252 40.1299 10.1799 39.721L19.9953 47.385C20.2586 47.8724 20.5779 48.4047 20.9309 48.9649C18.2249 48.64 14.4097 48.7072 11.5749 50.8753C11.2555 51.1218 10.953 51.3907 10.6729 51.6765L7.61958 51.7493L7.64199 52.6065L9.93897 52.5504C8.58319 54.3992 7.9053 56.9147 7.8941 60.0464C6.08453 61.279 6.17416 61.4526 6.29181 61.6767C6.52151 62.1137 6.9641 61.9064 7.92211 61.447C8.11819 65.083 8.91933 67.6041 10.3479 69.1055L8.15741 71.268L8.68964 71.9347C9.60843 71.3521 10.6001 70.7302 11.6197 70.0915C14.1744 71.4697 17.4182 70.2932 19.6087 69.4977C19.788 69.4304 19.9785 69.3632 20.1689 69.296C20.0233 69.5201 19.9168 69.6769 19.8944 69.7162L20.4659 70.3268L21.8721 69.5257C22.0009 69.8842 22.1522 70.3436 22.3315 70.8815C23.8105 75.2961 26.8806 84.4897 30.7855 85.4757C31.0264 85.5373 31.2673 85.5653 31.5026 85.5653C32.3149 85.5653 33.1105 85.2068 33.878 84.4953C37.654 80.9714 39.951 75.9572 41.1275 72.7527C44.9931 73.9404 44.9987 71.5761 43.5813 67.8169L44.2032 67.3071C46.6402 67.5648 50.6964 67.604 52.7692 65.4751C53.9962 64.2146 54.3323 62.3546 53.7497 59.9792ZM16.6002 33.1718C16.6674 32.7516 17.0764 32.4435 17.5694 32.4435C17.631 32.4435 17.6927 32.4491 17.7599 32.4603C18.04 32.5051 18.2809 32.6451 18.449 32.8468C18.6059 33.0373 18.6675 33.2726 18.6339 33.4967C18.5947 33.7376 18.4434 33.9393 18.2305 34.0681L17.984 33.62L17.2277 34.0289L17.2949 34.1466C16.8411 33.9953 16.533 33.5975 16.6002 33.1718ZM8.6056 39.5417C8.04536 39.452 7.6644 38.9198 7.75404 38.3652C7.83247 37.8666 8.25825 37.5024 8.76807 37.5024C8.82409 37.5024 8.88012 37.508 8.93614 37.5192C9.20506 37.5584 9.44596 37.7041 9.60283 37.9282C9.69246 38.0458 9.74289 38.1859 9.7709 38.326L9.40674 38.0458L8.88012 38.7237L9.51319 39.2167C9.28349 39.4464 8.95855 39.5921 8.6056 39.5417ZM42.0519 49.57C44.0911 50.6232 46.5114 51.8837 48.5787 53.6149L37.7772 57.5085L41.9454 49.5139C41.9846 49.5363 42.0126 49.5532 42.0519 49.57ZM42.9426 66.2875C42.5897 65.4695 42.2031 64.6068 41.783 63.716C41.5869 63.3014 41.3292 62.8364 41.0154 62.3378L49.1613 62.1753L43.9399 66.4276C43.5365 66.3771 43.2004 66.3323 42.9426 66.2875ZM33.5867 66.5844L32.892 66.1082L25.9562 72.9039L29.8218 64.0129L22.2474 68.3268C22.169 68.2371 22.0793 68.1643 21.9617 68.1251C23.648 65.5536 26.3596 61.4358 26.7237 60.926L26.9366 60.6067L26.6957 60.349C26.3988 60.0408 26.2307 59.8784 11.6085 69.0831L11.6029 69.0775L25.5192 55.3572C28.9703 59.7719 33.0936 64.5227 36.0965 67.8954C34.0348 71.0607 30.2868 76.7752 28.3316 79.5371C29.3961 76.5791 31.8779 70.5845 33.5867 66.5844ZM27.1551 80.5232C26.1915 78.7696 25.3287 76.7079 24.6116 74.7975L24.987 75.0552L31.9508 68.2259C28.7126 75.8732 27.5193 79.1058 27.1551 80.5232ZM24.5108 54.0519C21.4911 55.1219 15.3565 57.3349 10.6897 59.2957C14.0063 57.2284 18.8748 54.304 22.3875 52.2199L22.9197 51.9062C23.4239 52.6009 23.9505 53.318 24.5108 54.0519ZM36.4495 56.4217L39.4187 52.5L37.0265 57.0828C36.8416 56.8643 36.6456 56.6458 36.4495 56.4217ZM31.0152 50.8025L38.64 40.0963L34.5335 54.3208C33.4018 53.1219 32.2141 51.9342 31.0152 50.8025ZM26.4716 46.8584L33.0264 32.6059L29.8499 49.7212C28.7014 48.6792 27.5641 47.71 26.4716 46.8584ZM38.1022 70.1307L35.9733 76.2261L37.5307 69.4977C37.7268 69.7106 37.9229 69.9291 38.1022 70.1307ZM38.0686 58.3209L47.5926 54.8866L40.3207 61.279C39.6877 60.3658 38.9257 59.3685 38.0686 58.3209ZM38.5728 43.9676C38.2871 44.8864 38.063 45.6091 37.9845 46.0909C37.8109 47.1777 39.0266 47.9789 40.9874 49.0153L35.8724 55.7662C35.6595 55.5309 35.441 55.29 35.217 55.0491L39.8837 38.875C39.5868 40.7238 39.0098 42.567 38.5728 43.9676ZM35.5979 31.379C37.3459 31.5751 38.5504 32.2138 39.2787 33.323C40.0574 34.5163 40.1975 36.1466 40.0238 37.8498L39.4019 37.5472L30.7294 49.7212L34.1189 31.4406C34.6007 31.3566 35.0881 31.3174 35.5979 31.379ZM31.5978 32.6003C31.8275 32.4098 32.0684 32.2642 32.3093 32.1185L26.0682 45.6819C26.6565 42.102 28.1691 35.4015 31.5978 32.6003ZM12.0903 51.57C14.9251 49.3963 18.9812 49.542 21.5527 49.9397C21.8721 50.4159 22.2082 50.9033 22.5668 51.4132L11.995 51.6597C12.0287 51.6316 12.0567 51.598 12.0903 51.57ZM11.0763 52.5392L20.5387 52.3207C14.2976 56.0295 10.7513 58.192 8.74566 59.4974C8.8409 56.5001 9.62523 54.1751 11.0763 52.5392ZM8.75687 61.0773C13.4349 58.9372 21.3006 56.0967 24.8301 54.853L10.9642 68.5172C9.65325 67.1222 8.90813 64.6292 8.75687 61.0773ZM19.3118 68.7021C17.3005 69.436 14.6338 70.394 12.4881 69.5593C17.3061 66.534 22.6452 63.2286 25.1158 61.7944C23.973 63.5143 22.0793 66.3939 20.9141 68.1755C20.4603 68.2875 19.928 68.478 19.3118 68.7021ZM22.6228 69.1055L28.0067 66.0354L24.4155 74.2877C23.8945 72.8815 23.4631 71.5874 23.1382 70.6181C22.9253 69.9795 22.7628 69.4809 22.6228 69.1055ZM30.9928 84.6521C29.8723 84.3664 28.7966 83.2011 27.805 81.6268C27.8386 81.5988 27.8666 81.5876 27.9002 81.554C28.9311 80.4447 34.0573 72.6294 36.7072 68.5677C36.752 68.6181 36.7912 68.6629 36.836 68.7077L33.3682 83.7053L33.441 83.7277C33.3906 83.7782 33.3458 83.8286 33.2897 83.879C32.5166 84.5961 31.7659 84.8482 30.9928 84.6521ZM34.7463 82.3327L38.7577 70.8534C39.6821 71.8675 40.2367 72.4669 40.2367 72.4669C40.2591 72.4725 40.2703 72.4781 40.2927 72.4837C39.3011 75.1617 37.5027 79.1282 34.7463 82.3327ZM52.1418 64.8925C50.5507 66.5284 47.447 66.6853 45.1612 66.534L51.6376 61.2621L41.4076 61.4638L49.447 54.3936C51.0381 55.9287 52.3322 57.7999 52.9149 60.1809C53.4247 62.2538 53.1614 63.8392 52.1418 64.8925Z" fill="#FFC721"/>
<path d="M205.619 1.78717H207.03C207.445 1.78717 207.776 1.91603 207.988 2.13452C208.157 2.29699 208.246 2.51548 208.246 2.7956V2.81241C208.246 3.32783 207.938 3.64156 207.512 3.76481L208.364 4.95812H207.647L206.879 3.86005H206.862H206.224L206.218 4.95812H205.619V1.78717ZM207.002 3.33343C207.395 3.33343 207.635 3.14295 207.635 2.84042V2.82361C207.635 2.50988 207.4 2.3362 207.002 2.3306H206.218V3.33343H207.002Z" fill="#7BA229"/>
<path d="M206.846 0.29126C205.989 0.29126 205.193 0.621801 204.594 1.22686C204 1.82631 203.669 2.61625 203.669 3.47342C203.669 4.31378 203.994 5.10932 204.588 5.70317C205.182 6.29702 205.978 6.62756 206.824 6.62756C208.572 6.62756 209.995 5.21016 210 3.44541C210.006 1.70867 208.588 0.296862 206.846 0.29126ZM209.401 3.46221C209.401 4.16251 209.132 4.81799 208.644 5.2998C208.163 5.776 207.518 6.03931 206.829 6.03931C205.395 6.03931 204.269 4.90763 204.269 3.45101C204.274 1.99999 205.401 0.868306 206.846 0.868306H206.852C207.546 0.868306 208.185 1.13162 208.661 1.60782C209.143 2.08963 209.406 2.7395 209.406 3.4398V3.46221H209.401Z" fill="#7BA229"/>
</svg>
