<svg width="1153" height="403" viewBox="0 0 1153 403" fill="none" xmlns="http://www.w3.org/2000/svg">
<g style="mix-blend-mode:multiply">
<path d="M375 108.972C375 49.6011 423.129 1.47168 482.5 1.47168C541.871 1.47168 590 49.6011 590 108.972V216.472H482.5C423.129 216.472 375 168.342 375 108.972Z" fill="#FF5621"/>
</g>
<g style="mix-blend-mode:multiply">
<path d="M777 108.972C777 168.342 728.871 216.472 669.5 216.472C610.129 216.472 562 168.342 562 108.972L562 1.47166L669.5 1.47167C728.871 1.47168 777 49.6011 777 108.972Z" fill="#FF9700"/>
</g>
<g style="mix-blend-mode:multiply">
<path d="M1045.5 0.999995C1104.87 0.999998 1153 49.1294 1153 108.5C1153 167.871 1104.87 216 1045.5 216L938 216L938 108.5C938 49.1294 986.129 0.999993 1045.5 0.999995Z" fill="#9B51E0"/>
</g>
<g style="mix-blend-mode:multiply">
<path d="M859.5 216.472C800.129 216.472 752 168.342 752 108.972C752 49.6011 800.129 1.47167 859.5 1.47167L967 1.47166L967 108.972C967 168.342 918.871 216.472 859.5 216.472Z" fill="#1C75BC"/>
</g>
<g style="mix-blend-mode:multiply">
<path d="M859.5 403C800.129 403 752 354.871 752 295.5C752 236.129 800.129 188 859.5 188L967 188L967 295.5C967 354.871 918.871 403 859.5 403Z" fill="#1C75BC"/>
</g>
<g style="mix-blend-mode:multiply">
<path d="M107.5 1.49501e-05C166.871 6.38527e-06 215 48.1294 215 107.5C215 166.871 166.871 215 107.5 215L3.39953e-05 215L1.90451e-05 107.5C1.07884e-05 48.1294 48.1294 2.3515e-05 107.5 1.49501e-05Z" fill="#62FE7A"/>
</g>
<g style="mix-blend-mode:multiply">
<path d="M293.5 1.00001C352.871 1.00001 401 49.1294 401 108.5C401 167.871 352.871 216 293.5 216L186 216L186 108.5C186 49.1294 234.129 1.00002 293.5 1.00001Z" fill="#62FE7A"/>
</g>
</svg>
