<svg width="300" height="265" viewBox="0 0 300 265" fill="none" xmlns="http://www.w3.org/2000/svg">
<path fill-rule="evenodd" clip-rule="evenodd" d="M0 34.0965C0 34.2412 17.141 58.2173 28.1106 73.4162L31.8047 78.5349L57.7969 78.6094L83.7891 78.6843V147.77C83.7891 188.59 83.8966 216.742 84.0522 216.578C84.1966 216.425 90.0161 206.099 96.9844 193.631C103.952 181.164 114.908 161.599 121.331 150.154L133.008 129.346V104.016V78.6867L147.243 78.6109L161.479 78.5349L166.313 69.9063C168.972 65.1605 174.563 55.1988 178.738 47.7691C182.913 40.3392 186.328 34.186 186.328 34.095C186.328 34.004 144.404 33.9294 93.1641 33.9294C41.9238 33.9294 0 34.0046 0 34.0965Z" fill="white"/>
<path fill-rule="evenodd" clip-rule="evenodd" d="M217.022 5.04553C215.473 7.82072 212.437 13.25 210.277 17.1109C208.117 20.9719 204.398 27.6188 202.014 31.8819C196.127 42.4105 187.126 58.4489 185.599 61.1313C184.913 62.3379 183.1 65.5626 181.57 68.2975C171.441 86.4125 160.987 105.062 159.518 107.638C158.829 108.845 156.061 113.78 153.366 118.607C145.194 133.237 142.619 137.829 139.092 144.054C137.573 146.735 131.244 158.027 125.978 167.453C124 170.992 121.164 176.06 119.675 178.714C115.73 185.745 106.303 202.601 102.906 208.695C96.8282 219.6 94.5636 223.631 94.1631 224.26C93.9357 224.616 93.75 224.978 93.75 225.064C93.75 225.15 124.468 225.221 162.012 225.221H230.273V201.967V178.714H205.535C191.929 178.714 180.739 178.616 180.668 178.495C180.597 178.374 183.093 174.063 186.215 168.916C189.336 163.768 193.655 156.331 195.812 152.39C197.97 148.448 203.555 138.248 208.223 129.721C212.892 121.195 222.22 104.15 228.954 91.8433C235.687 79.5366 244.257 63.8735 247.999 57.0364C251.74 50.1994 259.515 35.9841 265.276 25.447C271.037 14.9099 276.461 5.01862 277.329 3.46606C278.196 1.91379 278.906 0.498703 278.906 0.321744C278.906 0.0897958 270.661 0 249.372 0H219.839L217.022 5.04553ZM298.015 3.43681C297.06 5.16633 292.286 13.8204 287.404 22.6683C282.522 31.5163 276.75 41.9803 274.576 45.9216C272.403 49.863 269.569 54.9963 268.28 57.3289C266.99 59.6616 264.853 63.5444 263.53 65.9575C261.411 69.8222 258.568 74.9772 249.173 91.9895C247.84 94.4026 245.003 99.5359 242.867 103.397C240.732 107.258 237.862 112.457 236.491 114.95C235.119 117.444 232.632 121.942 230.963 124.945C229.295 127.949 227.93 130.483 227.93 130.576C227.93 130.669 232.28 130.745 237.598 130.745H247.266V197.873V265H273.633H300V132.646C300 59.8517 299.943 0.292494 299.875 0.292494C299.806 0.292494 298.968 1.70729 298.015 3.43681Z" fill="#45B26B"/>
</svg>
