<svg width="117" height="46" viewBox="0 0 117 46" fill="none" xmlns="http://www.w3.org/2000/svg">
<path d="M1.176 0H116.087V44.432H97.981V42.082H113.737V2.351H2.35V42.082H18.109V44.432H0V0H1.176Z" fill="black"/>
<path d="M94.1532 35.729H99.3532V12.841H108.098V8.11304H85.4082V12.841H94.1532V35.729Z" fill="black"/>
<path d="M71.1944 35.728H76.3544V8.11304H71.6274L66.9004 12.84H71.1944V35.728Z" fill="black"/>
<path d="M42.5255 8.11404H38.3105V35.729H43.5105V17.108L58.0105 35.729H61.2405V8.11304H56.0405V25.237L42.5255 8.11404Z" fill="black"/>
<path d="M27.0143 8.19189V23.9919C27.0143 28.7179 24.5713 31.5919 20.2773 31.5919C15.9833 31.5919 13.1473 28.9519 13.1473 23.9919V8.19189H7.98633V23.9919C7.98633 32.3039 13.6203 36.3219 20.2383 36.3219C27.1723 36.3219 32.1743 32.1469 32.1743 23.9919V8.19189H27.0143Z" fill="black"/>
<path d="M94.7643 44.431H91.9033V43.28H94.6623V42.38H91.9033V41.206H94.7643V40.274H90.9493V45.374H94.7643V44.431ZM88.2703 43.438L85.7703 40.274H84.9913V45.374H85.9523V41.936L88.6323 45.377H89.2323V40.277H88.2713L88.2703 43.438ZM80.7503 41.053C80.9835 41.0492 81.2149 41.0949 81.4291 41.1871C81.6434 41.2793 81.8356 41.4159 81.9932 41.588C82.1507 41.76 82.27 41.9634 82.3431 42.185C82.4162 42.4065 82.4415 42.641 82.4173 42.873C82.4255 43.0972 82.3885 43.3209 82.3084 43.5305C82.2284 43.7402 82.1069 43.9316 81.9513 44.0933C81.7957 44.2551 81.6092 44.3838 81.4028 44.4719C81.1964 44.5601 80.9743 44.6057 80.7499 44.6062C80.5255 44.6066 80.3032 44.5619 80.0965 44.4747C79.8897 44.3874 79.7026 44.2595 79.5463 44.0984C79.39 43.9373 79.2678 43.7464 79.1869 43.5371C79.1059 43.3277 79.068 43.1043 79.0753 42.88C79.0512 42.647 79.0768 42.4116 79.1504 42.1892C79.224 41.9668 79.3438 41.7626 79.5021 41.59C79.6604 41.4173 79.8535 41.2802 80.0686 41.1876C80.2838 41.0951 80.5161 41.0492 80.7503 41.053ZM80.7503 40.18C80.3975 40.1689 80.0463 40.2313 79.719 40.3632C79.3916 40.4951 79.0953 40.6937 78.8488 40.9463C78.6023 41.1989 78.4111 41.5 78.2872 41.8305C78.1633 42.1609 78.1095 42.5136 78.1293 42.866C78.1298 43.2096 78.198 43.5498 78.33 43.8671C78.462 44.1844 78.6552 44.4726 78.8986 44.7153C79.142 44.9579 79.4308 45.1502 79.7485 45.2813C80.0662 45.4123 80.4066 45.4795 80.7503 45.479C81.0939 45.4784 81.4341 45.4102 81.7514 45.2782C82.0687 45.1462 82.357 44.953 82.5996 44.7096C82.8422 44.4662 83.0346 44.1775 83.1656 43.8597C83.2966 43.542 83.3638 43.2016 83.3633 42.858C83.3838 42.5064 83.3307 42.1545 83.2075 41.8247C83.0844 41.4948 82.8937 41.1943 82.6478 40.9423C82.4019 40.6902 82.1061 40.4923 81.7794 40.361C81.4527 40.2298 81.1022 40.1681 80.7503 40.18ZM75.1293 41.119C74.9292 40.7752 74.6339 40.4967 74.279 40.3171C73.9241 40.1375 73.5247 40.0646 73.1293 40.107C72.1903 40.114 71.1563 40.544 71.1563 41.592C71.1563 42.735 72.1173 43.012 73.1563 43.135C73.8333 43.208 74.3363 43.405 74.3363 43.885C74.3363 44.438 73.7683 44.649 73.1643 44.649C72.8716 44.6752 72.5778 44.612 72.3217 44.4678C72.0657 44.3235 71.8594 44.1049 71.7303 43.841L70.9303 44.256C71.1141 44.6774 71.4302 45.0276 71.8307 45.2535C72.2313 45.4794 72.6945 45.5687 73.1503 45.508C74.2863 45.508 75.2913 45.02 75.2913 43.885C75.2913 42.669 74.3003 42.392 73.2383 42.261C72.6263 42.188 72.1023 42.061 72.1023 41.62C72.1023 41.242 72.4443 40.943 73.1583 40.943C73.3904 40.9348 73.6212 40.982 73.8314 41.0808C74.0417 41.1796 74.2254 41.327 74.3673 41.511L75.1293 41.119ZM68.1483 43.519H66.2553L67.2013 41.344L68.1483 43.519ZM68.9633 45.375H70.0113L67.7253 40.275H66.6773L64.3923 45.375H65.4333L65.8703 44.414H68.5353L68.9633 45.375ZM60.7513 43.436L58.2513 40.272H57.4723V45.372H58.4333V41.936L61.1133 45.377H61.7133V40.277H60.7523L60.7513 43.436ZM55.6513 45.375V40.275H54.6973V45.375H55.6513ZM51.6173 43.519H49.7223L50.6683 41.344L51.6173 43.519ZM52.4323 45.375H53.4803L51.1943 40.275H50.1453L47.8593 45.375H48.9003L49.3363 44.414H52.0013L52.4323 45.375ZM45.0503 41.167C45.1626 41.1591 45.2754 41.1744 45.3816 41.212C45.4878 41.2496 45.5851 41.3087 45.6675 41.3855C45.7498 41.4623 45.8155 41.5553 45.8604 41.6586C45.9054 41.7619 45.9285 41.8733 45.9285 41.986C45.9285 42.0986 45.9054 42.21 45.8604 42.3133C45.8155 42.4166 45.7498 42.5096 45.6675 42.5864C45.5851 42.6632 45.4878 42.7223 45.3816 42.7599C45.2754 42.7975 45.1626 42.8128 45.0503 42.805H43.5873V41.167H45.0503ZM47.1393 45.309L45.5963 43.569C45.9738 43.5132 46.3163 43.3168 46.5552 43.0192C46.794 42.7215 46.9116 42.3446 46.8843 41.964C46.8855 41.729 46.8378 41.4964 46.7442 41.2809C46.6505 41.0655 46.5129 40.8719 46.3403 40.7126C46.1676 40.5533 45.9636 40.4318 45.7413 40.3557C45.519 40.2797 45.2833 40.2508 45.0493 40.271C44.2413 40.278 43.4333 40.271 42.6253 40.271V45.371H43.5863V43.671H44.5103L45.9953 45.371H47.1383L47.1393 45.309ZM38.6073 45.375H39.5683V41.145H41.1843V40.271H36.9913V41.145H38.6073V45.375ZM34.2243 44.429H31.3623V43.278H34.1223V42.378H31.3623V41.206H34.2223V40.274H30.4073V45.374H34.2223L34.2243 44.429ZM28.9833 40.272H27.9053L26.7403 43.953L25.4663 40.272H24.8403L23.6023 43.953L22.4023 40.272H21.3223L23.1933 45.372H24.0083L24.6273 43.782L25.1593 42.156L25.6983 43.768L26.3313 45.368H27.1473L28.9833 40.272Z" fill="black"/>
</svg>
